<?xml version="1.0" encoding="utf-8"?>
<!-- Generator: Adobe Illustrator 23.0.1, SVG Export Plug-In . SVG Version: 6.00 Build 0)  -->
<svg version="1.0" id="Layer_1" xmlns="http://www.w3.org/2000/svg" xmlns:xlink="http://www.w3.org/1999/xlink" x="0px" y="0px"
	 viewBox="0 0 360 300" style="enable-background:new 0 0 360 300;" xml:space="preserve">
<style type="text/css">
	.st0{fill:#25274D;}
	.st1{fill:#FFFFFF;}
	.st2{fill:#E34998;}
	.st3{fill:#F7D0E4;}
	.st4{fill:#103FCD;}
	.st5{fill:#91B4FD;}
	.st6{fill:#00B4FF;}
	.st7{fill:#DFDFDF;}
	.st8{fill:#104489;}
	.st9{fill:#0C60A7;}
	.st10{fill:#087CC4;}
	.st11{fill:#0498E2;}
	.st12{fill:none;stroke:#14286C;stroke-width:2.11;stroke-miterlimit:10;}
	.st13{fill:#171733;}
	.st14{fill:#292969;}
	.st15{fill:#F5CFBF;}
	.st16{fill:#0D1D7E;}
	.st17{opacity:0.1;enable-background:new    ;}
	.st18{fill:#F29D9D;}
	.st19{fill:#BD422A;}
	.st20{fill:#F6D5C7;}
	.st21{fill:#515166;}
</style>
<g>
	<path class="st0" d="M170.91,27.93V1.75c0-0.96-0.78-1.75-1.75-1.75H51.65c-0.96,0-1.75,0.78-1.75,1.75v148.81
		c0,0.96,0.78,1.75,1.75,1.75h117.53c0.96,0,1.74-0.78,1.74-1.74c0,0,0-0.01,0-0.01L170.91,27.93z"/>
	<path class="st1" d="M54.14,143.42V8.88c0-2.57,2.08-4.65,4.65-4.65h103.25c2.56,0.01,4.64,2.09,4.64,4.65v134.54
		c0,2.56-2.08,4.64-4.64,4.65H58.78C56.22,148.07,54.14,145.99,54.14,143.42z"/>
	<path class="st2" d="M81.08,98.76v3.2c6.5-0.01,11.78,5.25,11.8,11.75c0.01,6.5-5.25,11.78-11.75,11.8
		c-3.05,0.01-5.98-1.17-8.18-3.28l-2.2,2.33c5.98,5.7,15.45,5.47,21.16-0.51c5.7-5.98,5.47-15.45-0.51-21.16
		C88.61,100.24,84.92,98.76,81.08,98.76z"/>
	<path class="st3" d="M69.32,113.72c-0.01,3.21,1.31,6.28,3.63,8.49l-2.2,2.33c-5.98-5.71-6.2-15.18-0.49-21.16
		c2.82-2.96,6.74-4.63,10.83-4.63v3.2C74.58,101.96,69.32,107.23,69.32,113.72L69.32,113.72z"/>
	<path class="st4" d="M116.51,98.76v3.2c-6.5-0.01-11.78,5.25-11.8,11.75s5.25,11.78,11.75,11.8c3.05,0.01,5.98-1.17,8.18-3.28
		l2.2,2.33c-5.98,5.7-15.45,5.47-21.16-0.51c-5.7-5.98-5.47-15.45,0.51-21.16C108.98,100.24,112.68,98.76,116.51,98.76z"/>
	<path class="st5" d="M128.28,113.72c0,3.21-1.31,6.28-3.63,8.49l2.2,2.33c5.98-5.71,6.2-15.18,0.49-21.16
		c-2.82-2.96-6.74-4.63-10.83-4.63v3.2C123.01,101.96,128.28,107.23,128.28,113.72L128.28,113.72z"/>
	<polygon class="st4" points="66.11,74.75 131.49,74.75 131.49,20.28 127.51,17.47 121.6,25.73 115.7,19.91 105.22,36.25 
		95.33,32.87 88.98,41.88 83.81,36.43 	"/>
	<polygon class="st6" points="66.11,74.75 131.49,74.75 131.49,54.97 127.51,46.11 121.6,50.99 115.7,48.47 105.22,56 95.33,52.23 
		88.98,61.3 83.81,55.56 	"/>
	<path class="st0" d="M310.07,1.75c0-0.96-0.78-1.75-1.75-1.75H190.81c-0.96,0-1.75,0.78-1.75,1.75v148.81
		c0,0.96,0.78,1.75,1.75,1.75h117.53c0.96-0.01,1.74-0.78,1.75-1.75L310.07,1.75z"/>
	<path class="st1" d="M193.3,143.42V8.88c0-2.57,2.08-4.65,4.65-4.65l0,0H301.2c2.57,0,4.65,2.08,4.65,4.65c0,0,0,0,0,0v134.54
		c0,2.56-2.08,4.64-4.64,4.65H197.95C195.38,148.07,193.3,145.99,193.3,143.42z"/>
	<rect x="204.12" y="16.46" class="st6" width="43.97" height="5.54"/>
	<rect x="204.12" y="25.99" class="st7" width="68.64" height="5.54"/>
	<rect x="204.12" y="33.59" class="st7" width="68.64" height="5.54"/>
	<rect x="204.12" y="41.18" class="st7" width="68.64" height="5.54"/>
	<rect x="204.12" y="48.77" class="st7" width="68.64" height="5.54"/>
	<rect x="204.12" y="60.22" class="st7" width="8.84" height="5.54"/>
	<rect x="214.6" y="115.25" class="st8" width="9.82" height="14.79"/>
	<rect x="229.39" y="115.25" class="st9" width="9.82" height="14.79"/>
	<rect x="244.19" y="108.53" class="st10" width="9.82" height="21.53"/>
	<rect x="258.99" y="97.35" class="st11" width="9.82" height="32.69"/>
	<rect x="273.79" y="92.38" class="st6" width="9.82" height="37.67"/>
	<polyline class="st12" points="205.18,95.25 205.18,130.04 288.83,130.04 	"/>
	<path class="st13" d="M152.77,293.43c0,0-1.46,4.25-0.73,5.4c0.73,1.15,2.18,0.87,11.07,0.87c8.89,0,18.64,1,19.08-0.6
		s-2.47-2.05-6.85-3.35c-2.84-0.88-5.62-1.95-8.31-3.2L152.77,293.43z"/>
	<path class="st14" d="M181.78,297.98c-1.66,1.13-10.61,0.26-18.82,0.26c-8.88,0-10.32,0.3-11.06-0.87v-0.09
		c-0.09,0.51-0.04,1.05,0.17,1.53c0.73,1.17,2.18,0.87,11.07,0.87c8.89,0,18.64,1,19.08-0.6
		C182.32,298.65,182.15,298.21,181.78,297.98z"/>
	<path class="st15" d="M153.51,288.93c-0.13,1.52-0.39,3.02-0.75,4.5c2.23,0.83,4.61,1.2,6.98,1.09c2.52-0.25,4.98-0.93,7.28-2
		c0,0-2-0.66-2.42-3.65C164.18,285.88,153.51,288.93,153.51,288.93z"/>
	<path class="st13" d="M116.8,293.43c0,0-1.46,4.25-0.73,5.4s2.18,0.87,11.07,0.87c8.89,0,18.65,1,19.08-0.6
		c0.43-1.6-2.47-2.05-6.84-3.35c-2.84-0.88-5.62-1.95-8.32-3.2L116.8,293.43z"/>
	<path class="st14" d="M145.82,297.98c-1.67,1.13-10.61,0.26-18.82,0.26c-8.89,0-10.32,0.3-11.07-0.87v-0.09
		c-0.09,0.52-0.03,1.05,0.18,1.53c0.73,1.17,2.18,0.87,11.07,0.87s18.64,1,19.08-0.6C146.37,298.65,146.19,298.21,145.82,297.98z"/>
	<path class="st15" d="M117.56,288.93c-0.14,1.52-0.39,3.02-0.76,4.5c2.23,0.83,4.61,1.2,6.98,1.09c2.52-0.26,4.99-0.93,7.29-2
		c0,0-2-0.66-2.42-3.65C128.23,285.88,117.56,288.93,117.56,288.93z"/>
	<path class="st16" d="M144.86,75.82c0.92-1.64,3.99-1.59,3.99-1.59l-2.59,3.58L144.86,75.82z"/>
	<path class="st16" d="M164.18,153.63c6.36,29.93,6.79,49.19,7.11,80.38c0.25,25.03-5.66,55.92-5.66,55.92
		c-3.92,1.29-10.2,0.55-14.2-0.16c0,0,2-36.22,0.21-57.45c-1.77-21.44-10.87-76.09-10.87-76.09L164.18,153.63z"/>
	<path class="st16" d="M122.46,134.41c-12.82,21.79-4.72,45.27-4.4,89.44c0.3,41.66-3.16,64.84-3.16,64.84
		c4.25,2.05,9.66,1.83,15.33,0.51c4.69-23.3,7.64-46.91,8.84-70.65c1.78-38.43,0.88-55.94,0.88-55.94l23.81-2.62L122.46,134.41z"/>
	<path class="st6" d="M126.6,93.46c-7.85,17.33-9.72,40.08-10.8,53.81c0,0,14.4,9.34,32.24,8.9s17.7-2.54,17.7-2.54
		s6.11-37.71,12.37-51.5c0,0-9.58-9.72-26.31-8.33C135.07,95.18,126.6,93.46,126.6,93.46z"/>
	<path class="st17" d="M121.73,105.97c-2.29,14.53-2.67,43.26-2.67,43.26s19.67,10.66,41.99,5.99l-3.5-10.18
		c0,0-18.58-8.12-19.72-37.13C137.27,94.15,121.73,105.97,121.73,105.97z"/>
	<path class="st6" d="M142.56,79.72c-19.95,10.1-20.95,15.44-22.75,34.72c-1.12,11.67-1.65,25.94,21.11,33.34
		c19.69,6.42,21.44,4.39,21.44,4.39l2.99-9.92c0,0-15.37-4.08-24.94-9.54c-11.09-6.33-2.68-26.93-2.68-26.93l36.59-3.26
		c0,0-10.2,18.95-0.49,34.18c6.71,10.5,21.62-8.07,21.62-8.07l-2.69-7.73c0,0-3.74,1.87-9.33,5.14
		c-5.36-25.32,1.29-29.29-13.97-42.51C158.42,73.92,142.56,79.72,142.56,79.72z"/>
	<path class="st15" d="M162.63,84.17c-0.69-1.05-0.95-2.33-0.7-3.56c0.22-3.29,6.98-19.03,6.98-19.03l-13.27-4.61
		c0,0-6.26,15.65-7.63,18.14c-0.83,1.51-3.86,3.18-5.68,4.82C143.2,84.07,154.85,89.7,162.63,84.17z"/>
	<path class="st17" d="M161.57,75.61c0.53,0.18,1.08,0.32,1.64,0.4c1.9-5.5,3.76-10.61,3.76-10.61l-9.56-2.99
		C155.86,68.52,157.07,74.17,161.57,75.61z"/>
	<path class="st15" d="M153.94,50.71c-1.13,6.49-0.93,17.87,6.52,20.74c12.47,4.8,14.57-10.69,16.04-19.54L153.94,50.71z"/>
	<path class="st16" d="M153.13,58.31l2.99-1.77l3.64-6.98l-5.11-3.37c0,0-1.06,4.26-1.34,6.58
		C153.13,54.61,153.06,56.46,153.13,58.31z"/>
	<path class="st16" d="M171.68,39.97c-2.17-2.76-5.79-3.94-9.18-2.99c-9.6,2.42-8.26,11.15-8.26,11.15c1.85,1.2,3.82,2.21,5.89,2.99
		l-1,4.25h1.44l1.59-3.56c5.33,1.81,11.1,1.83,16.44,0.06C186.57,49.03,182.35,36.74,171.68,39.97z"/>
	<circle cx="165.5" cy="57.34" r="0.61"/>
	<circle cx="174.46" cy="59.09" r="0.61"/>
	<circle class="st18" cx="162.2" cy="61.7" r="2.55"/>
	<path class="st18" d="M171.12,57.3l1.69,4.05c0.15,0.35-0.01,0.76-0.36,0.92c-0.11,0.02-0.22,0.02-0.33,0l-2.36-0.14L171.12,57.3z"
		/>
	<path class="st18" d="M158.42,59.01c-2.33-0.53-3.78-2.84-3.26-5.17c0.52-2.28,2.76-3.73,5.05-3.28l0,0L158.42,59.01z"/>
	<path class="st19" d="M158.87,57.01c-1.23-0.28-2-1.49-1.73-2.72c0.28-1.23,1.49-2,2.72-1.73l0,0L158.87,57.01z"/>
	<path class="st16" d="M142.34,79.92c1.76-2.87,2.51-4.1,2.51-4.1s4.11,4.67,7.78,6.31s8.36,3.23,8.36,3.23s-6.18,2.49-11.75,0.82
		C146.06,85.34,143.49,83,142.34,79.92z"/>
	<path class="st16" d="M160.92,85.4l1.37-6.86l2.06,1.38c0,0-0.31,2.99-1.82,4.34S160.92,85.4,160.92,85.4z"/>
	<path class="st17" d="M173.86,102.75c0,0-1.17,14.17-3.3,25.88c0,1.82,1.77,5.5,2.21,6.58c1.65-3.68,2.47-7.66,2.42-11.69
		C175.07,116.83,173.86,102.75,173.86,102.75z"/>
	<path class="st18" d="M171.61,64.84c-0.08,0.49-1.1,0.73-2.27,0.54c-1.18-0.19-2.07-0.74-2-1.22c0.08-0.48,1,0.21,2.12,0.41
		C170.59,64.77,171.67,64.35,171.61,64.84z"/>
	<path class="st15" d="M192.8,120.86c0,0,4.99-4.13,7.98-5.13c3.84-1.28,5.85,4.62,5.69,5.44c-0.07,0.44-0.37,0.82-0.78,1
		l-1.87-0.46c0,0,0.65,1,0,1.6c-0.65,0.6-2.43-0.57-2.43-0.57s-3.42,4.75-5.92,5.84c-1.11-0.87-1.96-2.04-2.43-3.37
		C192.65,123.78,192.57,122.3,192.8,120.86z"/>
	
		<rect x="199.84" y="112.32" transform="matrix(0.69 -0.7238 0.7238 0.69 -24.6231 181.9942)" class="st14" width="0.63" height="14.84"/>
	<path class="st20" d="M196.07,122.37c2.78,0,7.11-0.51,7.36,0.42c0.25,0.93-2.43,1.27-3.69,2.25c-1.26,0.99-1.56,2.58-4.25,3.53
		c-0.33-1.11-0.48-2.26-0.46-3.41C195.07,124.15,195.44,123.17,196.07,122.37z"/>
	<path class="st21" d="M170.04,149.16l36.17-28.93c0.52-0.42,1.23-0.55,1.87-0.34l9.36,2.99c0.46,0.15,0.82,0.53,0.95,1l0.1,0.39
		l-37.48,28.14L170.04,149.16z"/>
	<path class="st13" d="M170.35,150.3l36.27-28.99c0.46-0.37,1.07-0.48,1.64-0.31l10.24,3.23l-36.11,28.44
		c-0.67,0.53-1.56,0.7-2.37,0.46L170.35,150.3z"/>
	<path class="st15" d="M164.97,142.08c1.72,0.89,3.56,1.52,5.47,1.88c1.9,0.29,2.99-0.85,4.5-1.15c3.28-0.67,3.65-1.18,3.65-0.38
		s-3.31,2.89-3.31,2.89s2.84,1.83,5.3,1.78c2.45-0.05,3.99,0.14,2.76,1.13c-1.01,0.62-2.2,0.88-3.38,0.75c0,0,2.78-0.38,3.29-0.11
		c0.51,0.27-1,2.59-5.76,3.99c-3.48,1-15.48-0.89-15.48-0.89c1.29-1.6,2.3-3.4,2.99-5.34C165.46,145.15,165.45,143.56,164.97,142.08
		z"/>
</g>
</svg>
