<?xml version="1.0" encoding="utf-8"?>
<!-- Generator: Adobe Illustrator 23.0.1, SVG Export Plug-In . SVG Version: 6.00 Build 0)  -->
<svg version="1.0" id="Layer_1" xmlns="http://www.w3.org/2000/svg" xmlns:xlink="http://www.w3.org/1999/xlink" x="0px" y="0px"
	 viewBox="0 0 360 300" style="enable-background:new 0 0 360 300;" xml:space="preserve">
<style type="text/css">
	.st0{fill:#DBEDFF;}
	.st1{fill:#E34998;}
	.st2{fill:#BBB1D5;}
	.st3{fill:#F1A2CA;}
	.st4{fill:#05C5DB;}
	.st5{fill:#FFD6A4;}
	.st6{fill:#246AFC;}
	.st7{fill:#FFFFFF;}
	.st8{fill:#0D232B;}
	.st9{fill:#F5CFBF;}
	.st10{fill:#F29D9D;}
	.st11{fill:#E85F5B;}
	.st12{opacity:0.1;enable-background:new    ;}
	.st13{fill:#474866;}
	.st14{opacity:0.3;enable-background:new    ;}
	.st15{opacity:0.1;}
</style>
<g>
	<rect x="120.85" y="10.44" class="st0" width="197.73" height="145.85"/>
	<path class="st1" d="M165.81,26.45h-15.76c-1.15,0-2.07-0.93-2.07-2.07c0-1.15,0.93-2.07,2.07-2.07h15.76
		c1.15,0,2.07,0.93,2.07,2.07C167.88,25.52,166.95,26.45,165.81,26.45z"/>
	<path class="st1" d="M165.81,73.6h-15.76c-1.08-0.02-1.95-0.91-1.95-1.99c-0.02-1.08,0.83-1.97,1.91-1.99c0.01,0,0.03,0,0.04,0
		h15.76c1.08-0.02,1.97,0.83,1.99,1.91c0,0.03,0,0.06,0,0.08C167.8,72.71,166.91,73.6,165.81,73.6z"/>
	<path class="st2" d="M181.9,65.72h-23.89c-1.1,0-1.99-0.89-1.99-1.99c0.02-1.09,0.9-1.97,1.99-1.99h23.89
		c1.09,0.02,1.97,0.9,1.99,1.99C183.89,64.83,183,65.72,181.9,65.72z"/>
	<path class="st2" d="M181.9,42.17h-23.89c-1.1,0-1.99-0.89-1.99-1.99c0.02-1.09,0.9-1.97,1.99-1.99h23.89
		c1.09,0.02,1.97,0.9,1.99,1.99C183.89,41.27,183,42.17,181.9,42.17z"/>
	<path class="st3" d="M233.61,34.33h-75.6c-1.09-0.02-1.97-0.9-1.99-1.99c0-1.1,0.89-1.99,1.99-1.99h75.6
		c1.08-0.02,1.97,0.83,1.99,1.91c0,0.03,0,0.06,0,0.08C235.6,33.44,234.71,34.33,233.61,34.33z"/>
	<path class="st4" d="M209.77,49.92h-43.96c-1.09,0.16-2.1-0.6-2.26-1.68c-0.16-1.09,0.6-2.1,1.68-2.26c0.19-0.03,0.38-0.03,0.57,0
		h43.96c1.09,0.16,1.84,1.17,1.68,2.26C211.32,49.11,210.64,49.79,209.77,49.92z"/>
	<path class="st4" d="M209.77,57.88h-43.96c-1.09-0.02-1.97-0.9-1.99-1.99c0.09-1.03,0.95-1.83,1.99-1.82h43.96
		c1.08,0,1.95,0.87,1.95,1.95c0,0.01,0,0.03,0,0.04C211.63,57.08,210.79,57.87,209.77,57.88z"/>
	<path class="st5" d="M241.58,49.92h-23.85c-1.09,0.16-2.1-0.6-2.26-1.68c-0.16-1.09,0.6-2.1,1.68-2.26c0.19-0.03,0.38-0.03,0.57,0
		h23.85c1.09-0.16,2.1,0.6,2.26,1.68c0.16,1.09-0.6,2.1-1.68,2.26C241.96,49.95,241.77,49.95,241.58,49.92z"/>
	<path class="st2" d="M273.63,49.92h-24.09c-1.09,0.16-2.1-0.6-2.26-1.68c-0.16-1.09,0.6-2.1,1.68-2.26c0.19-0.03,0.38-0.03,0.57,0
		h24.09c1.09-0.16,2.1,0.6,2.26,1.68c0.16,1.09-0.6,2.1-1.68,2.26C274.02,49.95,273.82,49.95,273.63,49.92z"/>
	<path class="st6" d="M241.58,57.88h-23.85c-1.1,0-1.99-0.89-1.99-1.99c-0.02-1.08,0.83-1.97,1.91-1.99c0.03,0,0.06,0,0.08,0h23.85
		c1.08-0.02,1.97,0.83,1.99,1.91c0,0.03,0,0.06,0,0.08C243.57,56.99,242.68,57.88,241.58,57.88z"/>
	<path class="st5" d="M273.63,57.88h-24.09c-1.09-0.02-1.97-0.9-1.99-1.99c0-1.1,0.89-1.99,1.99-1.99h24.09
		c1.1,0,1.99,0.89,1.99,1.99C275.6,56.98,274.72,57.86,273.63,57.88z"/>
	<path class="st2" d="M305.23,57.88h-23.85c-1.1,0-1.99-0.89-1.99-1.99c-0.02-1.08,0.83-1.97,1.91-1.99c0.03,0,0.06,0,0.08,0h23.85
		c1.08-0.02,1.97,0.83,1.99,1.91c0,0.03,0,0.06,0,0.08C307.23,56.99,306.33,57.88,305.23,57.88z"/>
	<path class="st7" d="M132.59,22.47h3.15c0.23,0,0.41,0.19,0.41,0.41v3.15c0,0.23-0.19,0.41-0.41,0.41h-3.15
		c-0.23,0-0.41-0.19-0.41-0.41v-3.15C132.18,22.65,132.36,22.47,132.59,22.47z"/>
	<circle class="st7" cx="142.09" cy="24.46" r="0.58"/>
	<path class="st7" d="M132.59,30.35h3.15c0.23,0,0.41,0.19,0.41,0.41v3.15c0,0.23-0.19,0.41-0.41,0.41h-3.15
		c-0.23,0-0.41-0.19-0.41-0.41v-3.15C132.18,30.53,132.36,30.35,132.59,30.35z"/>
	<circle class="st7" cx="142.09" cy="32.34" r="0.58"/>
	<path class="st7" d="M132.59,38.18h3.15c0.23,0,0.41,0.19,0.41,0.41v3.15c0,0.23-0.19,0.41-0.41,0.41h-3.15
		c-0.23,0-0.41-0.19-0.41-0.41V38.6C132.18,38.37,132.36,38.18,132.59,38.18z"/>
	<circle class="st7" cx="142.09" cy="40.18" r="0.58"/>
	<path class="st7" d="M132.59,46.06h3.15c0.23,0,0.41,0.19,0.41,0.41v3.15c0,0.23-0.19,0.41-0.41,0.41h-3.15
		c-0.23,0-0.41-0.19-0.41-0.41v-3.15C132.18,46.25,132.36,46.06,132.59,46.06z"/>
	<circle class="st7" cx="142.09" cy="48.05" r="0.58"/>
	<circle class="st7" cx="150.05" cy="48.05" r="0.58"/>
	<circle class="st7" cx="150.05" cy="40.18" r="0.58"/>
	<circle class="st7" cx="150.05" cy="32.34" r="0.58"/>
	<circle class="st7" cx="150.05" cy="63.73" r="0.58"/>
	<circle class="st7" cx="150.05" cy="55.89" r="0.58"/>
	<circle class="st7" cx="158.01" cy="48.05" r="0.58"/>
	<circle class="st7" cx="158.01" cy="55.89" r="0.58"/>
	<path class="st7" d="M132.59,53.9h3.15c0.23,0,0.41,0.19,0.41,0.41v3.15c0,0.23-0.19,0.41-0.41,0.41h-3.15
		c-0.23,0-0.41-0.19-0.41-0.41v-3.15C132.18,54.09,132.36,53.9,132.59,53.9z"/>
	<circle class="st7" cx="142.09" cy="55.89" r="0.58"/>
	<path class="st7" d="M132.59,61.74h3.15c0.23,0,0.41,0.19,0.41,0.41v3.15c0,0.23-0.19,0.41-0.41,0.41h-3.15
		c-0.23,0-0.41-0.19-0.41-0.41v-3.15C132.18,61.93,132.36,61.74,132.59,61.74z"/>
	<circle class="st7" cx="142.09" cy="63.73" r="0.58"/>
	<circle class="st7" cx="142.09" cy="71.61" r="0.58"/>
	<path class="st7" d="M132.59,69.62h3.15c0.23,0,0.41,0.19,0.41,0.41v3.15c0,0.23-0.19,0.41-0.41,0.41h-3.15
		c-0.23,0-0.41-0.19-0.41-0.41v-3.15C132.18,69.81,132.36,69.62,132.59,69.62z"/>
	<path class="st7" d="M132.59,77.46h3.15c0.23,0,0.41,0.19,0.41,0.41v3.15c0,0.23-0.19,0.41-0.41,0.41h-3.15
		c-0.23,0-0.41-0.19-0.41-0.41v-3.15C132.18,77.64,132.36,77.46,132.59,77.46z"/>
	<path class="st2" d="M165.81,89.28h-15.76c-1.09-0.16-1.84-1.17-1.68-2.26c0.13-0.87,0.81-1.56,1.68-1.68h15.76
		c1.09-0.16,2.1,0.6,2.26,1.68c0.16,1.09-0.6,2.1-1.68,2.26C166.19,89.3,166,89.3,165.81,89.28z"/>
	<path class="st2" d="M165.81,136.43h-15.76c-1.08-0.02-1.95-0.91-1.95-1.99c-0.02-1.08,0.83-1.97,1.91-1.99c0.01,0,0.03,0,0.04,0
		h15.76c1.08-0.02,1.97,0.83,1.99,1.91c0,0.03,0,0.06,0,0.08C167.8,135.54,166.91,136.43,165.81,136.43z"/>
	<path class="st1" d="M181.9,128.72h-23.89c-1.1,0-1.99-0.89-1.99-1.99c0.02-1.09,0.9-1.97,1.99-1.99h23.89
		c1.09,0.02,1.97,0.9,1.99,1.99C183.89,127.82,183,128.72,181.9,128.72z"/>
	<path class="st1" d="M181.9,104.99h-23.89c-1.1,0-1.99-0.89-1.99-1.99c0.02-1.09,0.9-1.97,1.99-1.99h23.89
		c1.09,0.02,1.97,0.9,1.99,1.99C183.89,104.1,183,104.99,181.9,104.99z"/>
	<path class="st3" d="M233.61,97.16h-75.6c-1.09-0.02-1.97-0.9-1.99-1.99c0-1.1,0.89-1.99,1.99-1.99h75.6
		c1.08-0.02,1.97,0.83,1.99,1.91c0,0.03,0,0.06,0,0.08C235.6,96.27,234.71,97.16,233.61,97.16z"/>
	<path class="st4" d="M209.77,112.83h-43.96c-1.15,0-2.07-0.93-2.07-2.07c0-1.15,0.93-2.07,2.07-2.07l0,0h43.96
		c1.15,0,2.07,0.93,2.07,2.07C211.84,111.9,210.91,112.83,209.77,112.83L209.77,112.83z"/>
	<path class="st4" d="M209.77,120.71h-43.96c-1.09-0.02-1.97-0.9-1.99-1.99c0-1.1,0.89-1.99,1.99-1.99h43.96
		c1.08,0,1.95,0.87,1.95,1.95c0,0.01,0,0.03,0,0.04C211.72,119.8,210.85,120.69,209.77,120.71z"/>
	<path class="st5" d="M241.58,112.83h-23.85c-1.15,0-2.07-0.93-2.07-2.07c0-1.15,0.93-2.07,2.07-2.07h23.85
		c1.15,0,2.07,0.93,2.07,2.07C243.65,111.9,242.72,112.83,241.58,112.83z"/>
	<path class="st2" d="M273.63,112.83h-24.09c-1.15,0-2.07-0.93-2.07-2.07c0-1.15,0.93-2.07,2.07-2.07h24.09
		c1.15,0,2.07,0.93,2.07,2.07C275.71,111.9,274.78,112.83,273.63,112.83z"/>
	<path class="st6" d="M241.58,120.71h-23.85c-1.1,0-1.99-0.89-1.99-1.99c-0.02-1.08,0.83-1.97,1.91-1.99c0.03,0,0.06,0,0.08,0h23.85
		c1.08-0.02,1.97,0.83,1.99,1.91c0,0.03,0,0.06,0,0.08C243.57,119.82,242.68,120.71,241.58,120.71z"/>
	<path class="st5" d="M273.63,120.71h-24.09c-1.09-0.02-1.97-0.9-1.99-1.99c0-1.1,0.89-1.99,1.99-1.99h24.09
		c1.1,0,1.99,0.89,1.99,1.99C275.6,119.81,274.72,120.69,273.63,120.71z"/>
	<path class="st2" d="M305.23,120.71h-23.85c-1.1,0-1.99-0.89-1.99-1.99c-0.02-1.08,0.83-1.97,1.91-1.99c0.03,0,0.06,0,0.08,0h23.85
		c1.08-0.02,1.97,0.83,1.99,1.91c0,0.03,0,0.06,0,0.08C307.23,119.82,306.33,120.71,305.23,120.71z"/>
	<path class="st7" d="M132.59,85.34h3.15c0.23,0,0.41,0.19,0.41,0.41v3.15c0,0.23-0.19,0.41-0.41,0.41h-3.15
		c-0.23,0-0.41-0.19-0.41-0.41v-3.15C132.18,85.52,132.36,85.34,132.59,85.34z"/>
	<circle class="st7" cx="142.09" cy="87.29" r="0.58"/>
	<path class="st7" d="M132.59,93.18h3.15c0.23,0,0.41,0.19,0.41,0.41v3.15c0,0.23-0.19,0.41-0.41,0.41h-3.15
		c-0.23,0-0.41-0.19-0.41-0.41v-3.15C132.18,93.36,132.36,93.18,132.59,93.18z"/>
	<circle class="st7" cx="142.09" cy="95.17" r="0.58"/>
	<path class="st7" d="M132.59,101.01h3.15c0.23,0,0.41,0.19,0.41,0.41v3.15c0,0.23-0.19,0.41-0.41,0.41h-3.15
		c-0.23,0-0.41-0.19-0.41-0.41v-3.15C132.18,101.2,132.36,101.01,132.59,101.01z"/>
	<circle class="st7" cx="142.09" cy="103" r="0.58"/>
	<path class="st7" d="M132.59,108.89h3.15c0.23,0,0.41,0.19,0.41,0.41v3.15c0,0.23-0.19,0.41-0.41,0.41h-3.15
		c-0.23,0-0.41-0.19-0.41-0.41v-3.15C132.18,109.08,132.36,108.89,132.59,108.89z"/>
	<circle class="st7" cx="142.09" cy="110.88" r="0.58"/>
	<circle class="st7" cx="150.05" cy="110.88" r="0.58"/>
	<circle class="st7" cx="150.05" cy="103" r="0.58"/>
	<circle class="st7" cx="150.05" cy="95.17" r="0.58"/>
	<circle class="st7" cx="150.05" cy="126.56" r="0.58"/>
	<circle class="st7" cx="150.05" cy="118.72" r="0.58"/>
	<circle class="st7" cx="158.01" cy="110.88" r="0.58"/>
	<circle class="st7" cx="158.01" cy="118.72" r="0.58"/>
	<path class="st7" d="M132.59,116.73h3.15c0.23,0,0.41,0.19,0.41,0.41v3.15c0,0.23-0.19,0.41-0.41,0.41h-3.15
		c-0.23,0-0.41-0.19-0.41-0.41v-3.15C132.18,116.92,132.36,116.73,132.59,116.73z"/>
	<circle class="st7" cx="142.09" cy="118.72" r="0.58"/>
	<path class="st7" d="M132.59,124.57h3.15c0.23,0,0.41,0.19,0.41,0.41v3.15c0,0.23-0.19,0.41-0.41,0.41h-3.15
		c-0.23,0-0.41-0.19-0.41-0.41v-3.15C132.18,124.75,132.36,124.57,132.59,124.57z"/>
	<circle class="st7" cx="142.09" cy="126.56" r="0.58"/>
	<circle class="st7" cx="142.09" cy="134.44" r="0.58"/>
	<path class="st7" d="M132.59,132.45h3.15c0.23,0,0.41,0.19,0.41,0.41v3.15c0,0.23-0.19,0.41-0.41,0.41h-3.15
		c-0.23,0-0.41-0.19-0.41-0.41v-3.15C132.18,132.63,132.36,132.45,132.59,132.45z"/>
	<path class="st7" d="M132.59,140.29h3.15c0.23,0,0.41,0.19,0.41,0.41v3.15c0,0.23-0.19,0.41-0.41,0.41h-3.15
		c-0.23,0-0.41-0.19-0.41-0.41v-3.15C132.18,140.47,132.36,140.29,132.59,140.29z"/>
	<path class="st8" d="M49.9,281.04l0.91,8.29h2.03v-6.22c1.65,1.13,3.2,2.39,4.64,3.77c2.21,2.09,5.36,2.87,8.29,2.03l-0.25-0.83
		l-11.69-7.17L49.9,281.04z"/>
	<path class="st9" d="M69.76,205.23c-3.11,27.87-8.29,73.28-8.29,74.03c0.46,4.81,4.15,7.84,4.15,9.08
		c-0.79,0.25-1.63,0.33-2.45,0.21c-2.85-0.22-5.47-1.64-7.22-3.9c-1.84-1.73-4.01-3.08-6.39-3.94c0.46-3.69,1.87-68.76,1.99-76.35
		C51.89,204.36,70.92,195.07,69.76,205.23z"/>
	<path class="st8" d="M53.84,282.82L53.84,282.82c-0.07-0.12-0.07-0.26,0-0.37c0.22-1.13-0.03-2.3-0.71-3.23
		c-0.67-0.93-1.72-1.49-2.86-1.53c0,0-0.25,0-0.25-0.33c0-0.16,0.13-0.29,0.29-0.29c1.31,0.03,2.52,0.68,3.28,1.74
		c0.79,1.09,1.09,2.46,0.83,3.77C54.42,282.57,54.17,282.82,53.84,282.82z"/>
	<path class="st8" d="M61.72,287.96c0,0-0.21,0-0.25-0.25c-0.08-0.11-0.08-0.26,0-0.37c0,0,2.28-1.58,1.91-3.4
		c-0.06-0.12-0.06-0.26,0-0.37 M63.62,283.57c0.05,0.09,0.05,0.2,0,0.29c0.5,2.36-2.03,4.15-2.16,4.15L63.62,283.57z"/>
	<path class="st8" d="M72.37,290.87l1.53,8.96h2.36v-6.64c1.91,1.23,3.71,2.62,5.39,4.15c2.69,2.41,6.44,3.26,9.91,2.24l-0.17-0.83
		l-14.14-8L72.37,290.87z"/>
	<path class="st9" d="M93.52,210.83c0.41,9.75-9.37,77.47-9.04,78.55c1.62,5.02,6.14,7.92,6.43,9.29c-0.68,0.35-1.43,0.53-2.2,0.54
		c-3.02,0.01-5.9-1.23-7.96-3.44c-2.33-2.45-5.3-4.2-8.58-5.02c-0.33-4.44,3.53-71.66,2.41-79.91H93.52z"/>
	<path class="st8" d="M76.69,292.28L76.69,292.28c-0.08,0.03-0.17,0.03-0.25,0l0,0c0.03-1.23-0.45-2.41-1.33-3.28
		c-0.82-0.79-1.93-1.21-3.07-1.16c-0.09,0.05-0.2,0.05-0.29,0 M71.75,287.55c0.07-0.06,0.18-0.06,0.25,0
		c1.32-0.04,2.61,0.45,3.57,1.37c1.03,0.96,1.59,2.32,1.53,3.73l0,0L71.75,287.55z"/>
	<path class="st8" d="M85.81,298.46c0,0-0.21,0-0.25-0.25c-0.08-0.13-0.08-0.29,0-0.41c0.58-0.75,1.99-2.99,1.58-4.15
		c-0.11-0.16-0.11-0.37,0-0.54c0,0,0.33,0,0.41,0.21c0.66,1.91-1.45,4.77-1.7,5.02C85.85,298.38,85.84,298.42,85.81,298.46z"/>
	<path class="st10" d="M127.2,23.42l3.48,2.7c0.27,0.28,0.27,0.72,0,1c-0.08,0.03-0.17,0.03-0.25,0l-1.95,1.24L127.2,23.42z"/>
	<path class="st9" d="M128.49,25.04c0.29,8.29-2.49,16.34-11.49,14.64c-9-1.7-5.1-8.05-4.69-16.63s-3.77-12.44,4.64-12.73
		C129.07,9.9,128.15,16.74,128.49,25.04z"/>
	<circle class="st10" cx="122.1" cy="26.82" r="2.57"/>
	<circle class="st8" cx="126.74" cy="22.43" r="0.58"/>
	<path class="st7" d="M125.25,29.6c-0.33,0.46,0.75,1.91,2.53,2.36l0.25-0.95c0.05-0.34,0.05-0.69,0-1.04
		c-0.53,0.04-1.07-0.03-1.58-0.21C125.91,29.48,125.58,29.19,125.25,29.6z"/>
	<path class="st11" d="M128.24,19.69L128.24,19.69h-0.29c-0.79-0.1-1.6,0.03-2.32,0.37c-0.37,0.18-0.68,0.45-0.91,0.79
		c0.33-0.16,0.68-0.29,1.04-0.37c0.35-0.12,0.71-0.21,1.08-0.25h1.08h0.41L128.24,19.69z"/>
	<path class="st1" d="M102.81,5.38c-3.9-0.5-8.63-0.54-10.53,5.1c-1.41,4.15-0.46,6.72-4.15,9.04c-3.69,2.32-9.41-1.04-11.36,5.52
		c-1.95,6.55,4.85,8.87,1.41,13.27c-3.44,4.4-9,0.71-12.44,5.93s-0.5,10.66-0.91,14.43c-0.41,3.77-6.51,2.65-8.29,9.5
		c-1.49,3.97,0.52,8.39,4.48,9.88c0.81,0.3,1.66,0.47,2.52,0.49c5.39,0.58-0.33,8.29,7.55,9.17c7.88,0.87,22.48-24.55,26.67-35.87
		c3.21-9.89,5.7-19.99,7.46-30.23L102.81,5.38z"/>
	<path class="st12" d="M105.14,23.34c-0.37,1.33-0.58,2.82-1.08,4.56c-1.33,4.56-6.22,5.97-10.53,6.47
		c-4.31,0.5-6.84,3.73-6.72,9.08c0.2,4.73-2.87,8.99-7.42,10.28c-4.15,1.45-5.6,1.49-6.64,5.72c-1.04,4.23,1.24,8.83-2.78,11.24
		c-4.02,2.41-3.94,4.69-4.15,8.63c1.82,2.16-0.87,7.42,5.6,8.29c2.87-0.2,5.52-1.6,7.3-3.86l11.57-20.32l6.47-8.63
		c0.46-1.12,0.91-2.16,1.24-3.11C101.05,42.43,103.43,32.95,105.14,23.34z"/>
	<path class="st9" d="M148.81,91.1c0,0.58-0.58,1.49-0.91,2.28c-0.05,0.16-0.12,0.31-0.21,0.46l0,0v0.37l-0.21,0.41l-1.91-0.75
		c0.5-1.04,0.83-1.87,1.2-2.57c0.79-1.41,1.04-1.87,1.45-1.74C148.76,89.87,149.01,90.52,148.81,91.1z"/>
	<path class="st1" d="M154.45,98.82L142,88.86c-0.93-0.58-1.22-1.81-0.64-2.74c0.58-0.93,1.81-1.22,2.74-0.64
		c0.12,0.08,0.24,0.17,0.34,0.27l12.44,9.95c0.86,0.69,1,1.94,0.31,2.8c-0.69,0.86-1.94,1-2.8,0.31H154.45z"/>
	<path class="st9" d="M156.85,91.39c0.41-1.2-1.37-2.16-2.03-1.04c0.5-1.2-1.66-1.99-2.41-0.54c0.41-1.16,0.41-0.91-0.79-1.37
		s-3.4,4.35-4.15,6.3c0.41-0.91-1.16-2.41-1.41-1.82c-1.41,3.19-3.69,8.67-15.47,17.29l0,0c0,4.15-0.95,7.96-0.91,11.94
		c9.5-2.28,21.11-13.98,24.14-19.33C158.22,94.29,157.51,90.19,156.85,91.39z"/>
	<path class="st9" d="M101.86,58.21c11.07-1.24,29.69-4.15,35.33-10.66c5.64-6.51,17-19.08,20.74-22.44
		c3.73-3.36,5.89-2.94,6.39-2.7c0.5,0.25-2.78,1.91-2.78,1.91c1.56-0.79,3.22-1.37,4.94-1.74c0.95,0-3.61,3.15-3.61,3.15
		s4.15-2.49,5.14-1.87c1,0.62-4.15,2.99-4.15,2.99s4.15-1.99,4.73-1.49c0.58,0.5-4.64,3.32-5.97,5.52c2.45-0.41,2.57-1,3.57-1.08
		c1-0.08,1.78,0.66,1.12,0.95c-2.58,1.82-5.36,3.34-8.29,4.52c0,0-11.4,20.11-20.82,27.08S105.68,73.6,105.68,73.6L101.86,58.21z"/>
	<path class="st12" d="M118.82,55.64c-5.6,1.19-11.26,2.09-16.96,2.7l3.77,15.18c9.57-1.83,18.91-4.68,27.87-8.5
		C129.64,60.52,124.53,57.26,118.82,55.64z"/>
	<path class="st9" d="M94.98,57.51c3.88,2.28,8.28,3.52,12.77,3.61c3.19,0.16,6.38,0.01,9.54-0.46c-0.62-0.69-1.35-1.28-2.16-1.74
		c-1.29-0.62-1.99-2.04-1.7-3.44c0.25-4.15,4.15-29.28,4.15-29.28l-13.98-1.16c-2.06,8.29-4.6,16.44-7.63,24.43
		c-1.33,1.83-3.14,3.27-5.23,4.15C91.89,55.18,93.32,56.5,94.98,57.51z"/>
	<path class="st9" d="M116.67,31.26c-3.21-0.42-5.46-3.37-5.04-6.57c0.42-3.21,3.37-5.46,6.57-5.04h0.33L116.67,31.26z"/>
	<path class="st10" d="M117.08,28.52c-1.65-0.47-2.61-2.19-2.14-3.84c0.4-1.4,1.72-2.34,3.18-2.25L117.08,28.52z"/>
	<path class="st12" d="M127.82,16.74c-0.46-3.44-2.7-5.93-9.41-7.05c-8.29-1.33-6.1,3.4-7.01,11.61c-0.16,1.38-0.24,2.76-0.25,4.15
		l-7.55-0.41c0,0-3.65,12.03-5.39,17.83c2.68-3.12,5.56-6.06,8.63-8.79c5.02-3.77,14.06-8.71,17.25-15.26
		c0.63-1.08,0.94-2.32,0.87-3.57c0.85,0.35,1.65,0.8,2.41,1.33L127.82,16.74z"/>
	<path class="st0" d="M126.41,66.72c0,0-1.04,5.02-2.61,10.28c-0.9,3.58-2.3,7.01-4.15,10.2c-2.37,3.24-6,5.32-9.99,5.72l0,0
		c-2.68,3.03-4.97,6.39-6.8,9.99l0,0c-3.39,7.7-5.18,16.01-5.27,24.43c-12.73,0-34.63,1.58-44.08-6.59
		c13.6-15.68,16.05-28.12,19.2-34.34c0.96-1.93,1.7-3.96,2.2-6.05c0.93-5.07,2.49-10,4.64-14.68c2.94-5.39,7.67-12.11,13.44-13.98
		c7.48,1.05,14.86,2.78,22.02,5.18C119.36,59.46,122.89,59.87,126.41,66.72z"/>
	<path class="st12" d="M123.8,77c-0.9,3.58-2.3,7.01-4.15,10.2c-2.37,3.24-6,5.32-9.99,5.72l0,0c-2.68,3.03-4.97,6.39-6.8,9.99
		C104.47,88.74,112.89,74.22,123.8,77z"/>
	<path class="st1" d="M130.64,9.49c-0.21-2.61-2.99-4.15-6.88-3.44c-1.59-2.89-4.28-5.02-7.46-5.89c-7.05-1.12-7.38,4.15-13.48,5.06
		c-1,2.41-2.28,2.74-2.99,5.27c-1.45,5.27-2.32,10.66-3.57,16.01c-0.83,3.53,0.54,18.87,0,22.52c1.85-5.59,4.66-10.83,8.29-15.47
		c5.23-5.35,16.59-9.62,19.41-16.38c0.43-1.48,0.56-3.03,0.37-4.56c0.5,0,2.57,2.41,2.99,2.65
		C129.62,14.32,130.99,11.94,130.64,9.49z"/>
	<path class="st9" d="M130.31,110.1c-2.99-2.24-4.77-18.21-2.2-33.63c1.12-6.76-3.86-19.2-10.58-11.57s-6.3,28.62-0.33,49.31
		c2.12,7.42,6.84,9.08,12.15,7.8C129.36,118.02,130.27,114.04,130.31,110.1z"/>
	<path class="st10" d="M124.63,118.8c-1.58-0.67-3.41-0.39-4.73,0.71c1.7,1.89,4.14,2.93,6.68,2.86c0.45-1.51-0.41-3.11-1.93-3.56
		C124.64,118.81,124.64,118.81,124.63,118.8z"/>
	<path class="st12" d="M112.77,84.3c4.58,2.2,9.92,2.12,14.43-0.21c0-1.41,0.25-2.86,0.41-4.15c-0.41-0.24-0.84-0.43-1.29-0.58
		l-13.4,0.46C112.85,81.15,112.77,82.68,112.77,84.3z"/>
	<path class="st13" d="M110.4,72.69c0.12,3.58,0.91,7.11,2.32,10.41c2.89,0.79,5.9,1.03,8.87,0.71c1.96-0.02,3.9-0.5,5.64-1.41
		c0,0,4.15-8.96,1.74-14.27s-5.56-8.67-11.32-7.05C112.93,62.9,109.97,67.63,110.4,72.69z"/>
	<path class="st12" d="M117.91,20.39c-2.86,0.25-3.57-3.48-8.29-1.87c-4.73,1.62-4.15,4.81-5.52,9.37c-1.3,3.39-4.43,5.74-8.05,6.05
		c0,5.76,0.58,12.86,0.25,15.18c1.87-5.58,4.67-10.79,8.29-15.43c4.69-4.81,14.27-8.71,18.25-14.35
		C121.23,19.84,119.58,20.19,117.91,20.39z"/>
	<path class="st13" d="M93.98,209.67c-0.27,1.12-0.99,2.08-1.99,2.65c-0.71,0.44-1.48,0.77-2.28,1c-6.68,1.09-13.51,0.81-20.07-0.83
		l0,0l-2.2-0.46c-8.83-1.99-16.59-5.1-16.59-7.3c-1.29-11.87-3.53-23.62-6.72-35.13c-0.83-3.9-1.58-7.76-2.07-11.57
		c-1.45-11.24-0.83-21.98,5.68-31.02c1.65-2.31,3.57-4.42,5.72-6.26c0,0,37.61-2.61,43.42,5.85
		C105.05,138.5,101.49,178.48,93.98,209.67z"/>
	<path class="st12" d="M93.98,209.67c-0.38,1.06-1.08,1.99-1.99,2.65c-0.71,0.44-1.48,0.77-2.28,1c1.9-19.97,2.3-40.06,1.2-60.09
		c-1.16-14.31-10.28-18.41-16.96-20.74c-8.57-2.51-17.34-4.27-26.21-5.27c1.65-2.31,3.57-4.42,5.72-6.26c0,0,37.61-2.61,43.42,5.85
		C105.05,138.5,101.49,178.48,93.98,209.67z"/>
	<path class="st12" d="M72.17,172.01c-2.65-1.82-21.65-3.15-28.03-2.41c-0.83-3.9-1.58-7.76-2.07-11.57
		c7.89,9.49,20.69,13.36,32.51,9.83C85.85,165.17,82.87,179.27,72.17,172.01z"/>
	<polygon class="st13" points="251.9,176.49 214.04,162.14 172.11,177.57 172.11,271.17 209.93,285.48 251.9,270.05 	"/>
	<polygon class="st12" points="209.93,191.92 209.93,285.48 172.11,271.17 172.11,177.57 	"/>
	<polygon class="st14" points="209.93,191.92 209.93,285.48 251.9,270.05 251.9,176.49 	"/>
	<g class="st15">
		<path d="M193.01,183.5l29.57-7.59c1.2-0.31,2.42,0.41,2.72,1.59l0,0c0.3,1.19-0.42,2.4-1.62,2.71l-29.57,7.59
			c-1.2,0.31-2.42-0.41-2.72-1.59l0,0C191.08,185.02,191.81,183.81,193.01,183.5z"/>
	</g>
	<path class="st1" d="M190.45,180.91l29.57-7.59c1.2-0.31,2.42,0.41,2.72,1.59l0,0c0.3,1.19-0.42,2.4-1.62,2.71l-29.57,7.59
		c-1.2,0.31-2.42-0.41-2.72-1.59l0,0C188.53,182.43,189.25,181.22,190.45,180.91z"/>
	<g class="st15">
		<path d="M198.82,173.56L198.82,173.56c0.25-1.2,1.44-1.96,2.65-1.71l32.46,6.87c1.21,0.26,1.99,1.44,1.73,2.63l0,0
			c-0.25,1.2-1.44,1.96-2.65,1.71l-32.46-6.87C199.34,175.94,198.57,174.76,198.82,173.56z"/>
	</g>
	<path class="st2" d="M196.19,170.93L196.19,170.93c0.25-1.2,1.44-1.96,2.65-1.71l32.46,6.87c1.21,0.26,1.99,1.44,1.73,2.63l0,0
		c-0.25,1.2-1.44,1.96-2.65,1.71l-32.46-6.87C196.71,173.31,195.94,172.13,196.19,170.93z"/>
	<g class="st15">
		<path d="M178.52,173.26l40.58-5.03c1.23-0.15,2.34,0.71,2.5,1.93l0,0c0.15,1.22-0.72,2.33-1.95,2.48l-40.58,5.03
			c-1.23,0.15-2.34-0.71-2.5-1.93l0,0C176.42,174.52,177.29,173.41,178.52,173.26z"/>
	</g>
	<path class="st4" d="M175.89,170.66l40.58-5.03c1.23-0.15,2.34,0.71,2.5,1.93l0,0c0.15,1.22-0.72,2.33-1.95,2.48l-40.58,5.03
		c-1.23,0.15-2.34-0.71-2.5-1.93l0,0C173.79,171.92,174.67,170.81,175.89,170.66z"/>
	<g class="st15">
		<path d="M176.03,173.63l52.34-14.55c1.19-0.33,2.42,0.36,2.75,1.54l0,0c0.33,1.18-0.37,2.41-1.56,2.74l-52.34,14.55
			c-1.19,0.33-2.42-0.36-2.75-1.54l0,0C174.14,175.19,174.84,173.96,176.03,173.63z"/>
	</g>
	<path class="st3" d="M173.43,171.03l52.34-14.55c1.19-0.33,2.42,0.36,2.75,1.54l0,0c0.33,1.18-0.37,2.41-1.56,2.74l-52.34,14.55
		c-1.19,0.33-2.42-0.36-2.75-1.54l0,0C171.54,172.58,172.24,171.36,173.43,171.03z"/>
	<g class="st15">
		<path d="M194.2,166.32l27.11-8.76c1.18-0.38,2.44,0.26,2.81,1.42l0,0c0.38,1.17-0.27,2.42-1.45,2.8l-27.11,8.76
			c-1.18,0.38-2.44-0.26-2.81-1.42l0,0C192.38,167.95,193.03,166.7,194.2,166.32z"/>
	</g>
	<path class="st6" d="M191.63,163.72l27.11-8.76c1.18-0.38,2.44,0.26,2.81,1.42l0,0c0.38,1.17-0.27,2.42-1.45,2.8L193,167.94
		c-1.18,0.38-2.44-0.26-2.81-1.42l0,0C189.81,165.35,190.46,164.1,191.63,163.72z"/>
	<g class="st15">
		<path d="M182.24,179.46l27.22-9.73c1.16-0.42,2.44,0.18,2.86,1.33l0,0c0.41,1.15-0.2,2.43-1.36,2.84l-27.22,9.73
			c-1.16,0.42-2.44-0.18-2.86-1.33l0,0C180.46,181.15,181.07,179.87,182.24,179.46z"/>
	</g>
	<path class="st5" d="M179.6,176.84l27.22-9.73c1.16-0.42,2.44,0.18,2.86,1.33l0,0c0.41,1.15-0.2,2.43-1.36,2.84l-27.22,9.73
		c-1.16,0.42-2.44-0.18-2.86-1.33l0,0C177.83,178.53,178.44,177.26,179.6,176.84z"/>
	<g class="st15">
		<path d="M187.13,157.52l29.79-10.43c1.17-0.41,2.44,0.2,2.85,1.35l0,0c0.4,1.16-0.21,2.43-1.38,2.83l-29.79,10.43
			c-1.17,0.41-2.44-0.2-2.85-1.35l0,0C185.34,159.2,185.96,157.93,187.13,157.52z"/>
	</g>
	<path class="st13" d="M184.5,154.93l29.79-10.43c1.17-0.41,2.44,0.2,2.85,1.35l0,0c0.4,1.16-0.21,2.43-1.38,2.83l-29.79,10.43
		c-1.17,0.41-2.44-0.2-2.85-1.35l0,0C182.72,156.6,183.33,155.33,184.5,154.93z"/>
	<g class="st15">
		<path d="M189.49,150.72l29.68-3.98c1.23-0.16,2.35,0.69,2.51,1.9l0,0c0.16,1.21-0.7,2.33-1.93,2.5l-29.68,3.98
			c-1.23,0.16-2.35-0.69-2.51-1.9l0,0C187.4,152,188.26,150.89,189.49,150.72z"/>
	</g>
	<path class="st1" d="M186.92,148.1l29.68-3.98c1.23-0.16,2.35,0.69,2.51,1.9l0,0c0.16,1.21-0.7,2.33-1.93,2.5l-29.68,3.98
		c-1.23,0.16-2.35-0.69-2.51-1.9l0,0C184.84,149.38,185.7,148.26,186.92,148.1z"/>
	<g class="st15">
		<path d="M207.5,153.11L207.5,153.11c0.22-1.21,1.38-2.01,2.6-1.79l22.36,4.04c1.22,0.22,2.03,1.38,1.81,2.58l0,0
			c-0.22,1.21-1.38,2.01-2.6,1.79l-22.36-4.04C208.09,155.48,207.28,154.32,207.5,153.11z"/>
	</g>
	<path class="st2" d="M204.92,150.49L204.92,150.49c0.22-1.21,1.38-2.01,2.6-1.79l22.36,4.04c1.22,0.22,2.03,1.38,1.81,2.58l0,0
		c-0.22,1.21-1.38,2.01-2.6,1.79l-22.36-4.04C205.51,152.86,204.7,151.7,204.92,150.49z"/>
	<g class="st15">
		<path d="M189.89,157.87l49.55-9.13c1.22-0.22,2.38,0.57,2.6,1.78l0,0c0.22,1.21-0.58,2.36-1.8,2.59l-49.55,9.13
			c-1.22,0.22-2.38-0.57-2.6-1.78l0,0C187.87,159.25,188.68,158.09,189.89,157.87z"/>
	</g>
	<path class="st4" d="M187.31,155.28l49.55-9.13c1.22-0.22,2.38,0.57,2.6,1.78l0,0c0.22,1.21-0.58,2.36-1.8,2.59l-49.55,9.13
		c-1.22,0.22-2.38-0.57-2.6-1.78l0,0C185.28,156.66,186.09,155.5,187.31,155.28z"/>
	<g class="st15">
		<path d="M194.4,172.62l27.53-5.09c1.22-0.22,2.38,0.57,2.61,1.77l0,0c0.22,1.2-0.58,2.36-1.8,2.59l-27.53,5.09
			c-1.22,0.22-2.38-0.57-2.61-1.77l0,0C192.38,174.01,193.18,172.85,194.4,172.62z"/>
	</g>
	<path class="st3" d="M191.81,169.99l27.53-5.09c1.22-0.22,2.38,0.57,2.61,1.77l0,0c0.22,1.2-0.58,2.36-1.8,2.59l-27.53,5.09
		c-1.22,0.22-2.38-0.57-2.61-1.77l0,0C189.79,171.38,190.6,170.22,191.81,169.99z"/>
	<g class="st15">
		<path d="M190.32,164.52L190.32,164.52c0.22-1.21,1.38-2,2.6-1.78l31.37,5.73c1.22,0.22,2.02,1.38,1.8,2.58l0,0
			c-0.22,1.21-1.38,2-2.6,1.78l-31.37-5.73C190.91,166.89,190.1,165.73,190.32,164.52z"/>
	</g>
	<path class="st6" d="M187.74,161.9L187.74,161.9c0.22-1.21,1.38-2,2.6-1.78l31.37,5.73c1.22,0.22,2.02,1.38,1.8,2.58l0,0
		c-0.22,1.21-1.38,2-2.6,1.78l-31.37-5.73C188.32,164.26,187.52,163.1,187.74,161.9z"/>
	<g class="st15">
		<path d="M192.36,162.4L192.36,162.4c0.07-1.22,1.14-2.15,2.37-2.08l25.75,1.57c1.23,0.08,2.17,1.13,2.1,2.35l0,0
			c-0.07,1.22-1.14,2.15-2.37,2.08l-25.75-1.57C193.22,164.68,192.28,163.62,192.36,162.4z"/>
	</g>
	<path class="st5" d="M189.76,159.79L189.76,159.79c0.07-1.22,1.14-2.15,2.37-2.08l25.75,1.57c1.23,0.08,2.17,1.13,2.1,2.35l0,0
		c-0.07,1.22-1.14,2.15-2.37,2.08l-25.75-1.57C190.62,162.07,189.68,161.01,189.76,159.79z"/>
	<g class="st15">
		<path d="M206.82,173.25L206.82,173.25c0.15-1.22,1.27-2.08,2.5-1.93l40.58,5.03c1.23,0.15,2.1,1.26,1.95,2.48l0,0
			c-0.15,1.22-1.27,2.08-2.5,1.93l-40.58-5.03C207.54,175.58,206.67,174.47,206.82,173.25z"/>
	</g>
	<path class="st4" d="M204.2,170.63L204.2,170.63c0.15-1.22,1.27-2.08,2.5-1.93l40.58,5.03c1.23,0.15,2.1,1.26,1.95,2.48l0,0
		c-0.15,1.22-1.27,2.08-2.5,1.93l-40.58-5.03C204.92,172.95,204.05,171.85,204.2,170.63z"/>
	<g class="st15">
		<path d="M197.29,163.75L197.29,163.75c0.33-1.18,1.56-1.87,2.75-1.54l52.34,14.55c1.19,0.33,1.89,1.56,1.56,2.74l0,0
			c-0.33,1.18-1.56,1.87-2.75,1.54l-52.34-14.55C197.66,166.15,196.96,164.93,197.29,163.75z"/>
	</g>
	<path class="st13" d="M194.7,161.13L194.7,161.13c0.33-1.18,1.56-1.87,2.75-1.54l52.34,14.55c1.19,0.33,1.89,1.56,1.56,2.74l0,0
		c-0.33,1.18-1.56,1.87-2.75,1.54l-52.34-14.55C195.07,163.53,194.37,162.31,194.7,161.13z"/>
	<g class="st15">
		<path d="M203.82,172.35L203.82,172.35c0.22-1.2,1.39-2,2.61-1.77l27.53,5.09c1.22,0.22,2.02,1.38,1.8,2.59l0,0
			c-0.22,1.2-1.39,2-2.61,1.77l-27.53-5.09C204.4,174.72,203.59,173.56,203.82,172.35z"/>
	</g>
	<path class="st13" d="M201.23,169.76L201.23,169.76c0.22-1.2,1.39-2,2.61-1.77l27.53,5.09c1.22,0.22,2.02,1.38,1.8,2.59l0,0
		c-0.22,1.2-1.39,2-2.61,1.77l-27.53-5.09C201.81,172.13,201.01,170.97,201.23,169.76z"/>
	<g class="st15">
		<path d="M203.49,170.85l31.25-5.74c1.21-0.22,2.37,0.57,2.59,1.77l0,0c0.22,1.2-0.58,2.35-1.8,2.58l-31.25,5.74
			c-1.21,0.22-2.37-0.57-2.59-1.77l0,0C201.48,172.23,202.28,171.08,203.49,170.85z"/>
	</g>
	<path class="st6" d="M201.46,168.94l31.37-5.73c1.22-0.22,2.38,0.57,2.6,1.78l0,0c0.22,1.21-0.59,2.36-1.8,2.58l-31.37,5.73
		c-1.22,0.22-2.38-0.57-2.6-1.78l0,0C199.43,170.32,200.24,169.16,201.46,168.94z"/>
	<g class="st15">
		<path d="M207.91,164.96l25.75-1.57c1.23-0.08,2.3,0.86,2.37,2.08l0,0c0.07,1.22-0.87,2.28-2.1,2.35l-25.75,1.57
			c-1.23,0.08-2.3-0.86-2.37-2.08l0,0C205.74,166.09,206.68,165.04,207.91,164.96z"/>
	</g>
	<path class="st5" d="M205.31,162.35l25.75-1.57c1.23-0.08,2.3,0.86,2.37,2.08l0,0c0.07,1.22-0.87,2.28-2.1,2.35l-25.75,1.57
		c-1.23,0.08-2.3-0.86-2.37-2.08l0,0C203.14,163.48,204.08,162.43,205.31,162.35z"/>
	<g class="st15">
		<path d="M185.5,157.15L185.5,157.15c0.14-1.22,1.25-2.09,2.48-1.95l26.83,3.04c1.23,0.14,2.11,1.24,1.98,2.46l0,0
			c-0.14,1.22-1.25,2.09-2.48,1.95l-26.83-3.04C186.25,159.46,185.37,158.36,185.5,157.15z"/>
	</g>
	<path class="st1" d="M182.86,154.55L182.86,154.55c0.14-1.22,1.25-2.09,2.48-1.95l26.83,3.04c1.23,0.14,2.11,1.24,1.98,2.46l0,0
		c-0.14,1.22-1.25,2.09-2.48,1.95l-26.83-3.04C183.61,156.87,182.73,155.77,182.86,154.55z"/>
</g>
</svg>
