<?xml version="1.0" encoding="utf-8"?>
<!-- Generator: Adobe Illustrator 23.0.1, SVG Export Plug-In . SVG Version: 6.00 Build 0)  -->
<svg version="1.0" id="Layer_1" xmlns="http://www.w3.org/2000/svg" xmlns:xlink="http://www.w3.org/1999/xlink" x="0px" y="0px"
	 viewBox="0 0 360 300" style="enable-background:new 0 0 360 300;" xml:space="preserve">
<style type="text/css">
	.st0{fill:#EBFAFF;}
	.st1{fill:#F2FCFF;}
	.st2{fill:#F8FDFF;}
	.st3{fill:#FFFFFF;}
	.st4{fill:#103FCD;}
	.st5{opacity:0.3;enable-background:new    ;}
	.st6{fill:#DB4990;}
	.st7{opacity:0.1;enable-background:new    ;}
	.st8{fill:#FFE65C;}
	.st9{fill:#FFC55C;}
	.st10{fill:#FF645C;}
	.st11{fill:#F5CFBF;}
	.st12{fill:#F29D9D;}
	.st13{fill:#0D1D7E;}
	.st14{fill:#5F48DC;}
	.st15{fill:#00B4FF;}
	.st16{fill:#BD422A;}
	.st17{fill:#C3B9DD;}
	.st18{opacity:0.72;fill:url(#SVGID_1_);enable-background:new    ;}
	.st19{fill:#F6D5C7;}
</style>
<g>
	<path class="st0" d="M331.04,4.07c25.05,16.33,5.17,65.64-14.97,96.74c-20.14,31.11-96.23,125.4-151.21,169.81
		c23.02-31.3,33.62-45.42,33.28-58.51C197.8,199.02,95.5,300,95.5,300l-20.15-34.68l-35.98,13.53l8.27-35l-30.41-6.74l71.83-50.81
		c0,0-39.46,8.63-33.12,5.78s98.13-70.31,98.13-70.31l-47.04,4.03c0,0,82.85-70.32,117.26-88.04S307.69-11.17,331.04,4.07z"/>
	<path class="st1" d="M327.87,6.56c23.06,15.57,5.44,61.49-12.52,90.36c-17.96,28.87-86.28,116.23-135.92,157.13
		c20.63-28.96,29.36-42.82,28.9-55.01c-0.46-12.19-95.52,79.42-95.52,79.42l-15.14-30.49l-32.66,12.25l7.13-32.66l-27.84-6.65
		l64.93-46.68c0,0-35.91,7.61-30.15,5.01c5.76-2.6,88.7-64.6,88.7-64.6l-42.9,3.2c0,0,74.76-64.77,105.97-80.99
		S306.37-7.95,327.87,6.56z"/>
	<path class="st2" d="M324.74,9.09c21.06,14.82,5.84,57.34-10.04,83.97c-15.88,26.63-76.36,107.04-120.65,144.42
		c18.23-26.67,25.12-40.21,24.49-51.58c-0.63-11.38-88.44,70.97-88.44,70.97l-10.14-26.21l-29.35,10.89l5.97-30.32l-25.25-6.57
		l58.05-42.56c0,0-32.36,6.57-27.21,4.25c5.14-2.33,79.34-58.86,79.34-58.86l-38.74,2.35c0,0,66.67-59.3,94.63-73.93
		S305.07-4.74,324.74,9.09z"/>
	<path class="st3" d="M321.52,11.61c19.05,14.08,6.19,53.2-7.55,77.56S247.54,187,208.58,220.86
		c15.84-24.34,20.91-37.55,20.15-48.07s-81.27,62.51-81.27,62.51l-5.05-21.95l-26.12,9.62l4.83-27.98l-22.67-6.5l51.15-38.43
		c0,0-28.81,5.54-24.22,3.47c4.59-2.07,69.84-53.24,69.84-53.24l-34.57,1.55c0,0,58.51-53.8,83.33-66.86S303.75-1.53,321.52,11.61z"
		/>
	<path class="st4" d="M223.36,96.27c-5.08,0.67-6.8-2.6-6.8-6.49c0.04-3.4,0.77-6.76,2.14-9.88c1.29-3.47,4.56-5.35,7.03-8.08
		c2.48-2.73,2.88-5.85,3.88-9.52c1-3.75,3.16-7.08,6.16-9.52c3.01-2.37,6.16-3.8,8.61-6.8c2.45-3.01,2.1-6.8,5.69-9.27
		c4.31-2.91,13.95-2.19,16.33,2.97c4.16,8.99-1.55,11.72-6.31,18.27c-0.76,1.96-1.39,3.96-1.89,6c-1.22,3.58-3.86,6.5-7.29,8.08
		c-3.24,1.68-5.9,4.29-7.65,7.5c-1.6,2.86-4.2,5.03-7.29,6.11c-2.8,1.04-5.16,3.02-6.68,5.59
		C227.97,93.61,225.21,96.02,223.36,96.27z"/>
	<path class="st5" d="M263.88,36.56c-3.25,4.68-7.85,12.55-10.98,16.33s-6.07,3.93-7.82,7.37c-1.76,3.44-1.82,6.54-4.44,9.02
		c-2.61,2.48-6.18,3.1-8,6.1s-1.73,6.72-3.73,9.4c-2,2.68-4.08,4.08-5.17,7.24c-0.24,1.44-0.13,2.91,0.31,4.3
		c2.02-1.22,3.73-2.88,5.02-4.86c1.64-2.56,4.01-4.57,6.8-5.77c3.1-1.12,5.7-3.3,7.35-6.15c1.77-3.18,4.43-5.77,7.66-7.44
		c3.45-1.6,6.09-4.55,7.29-8.16c0.61-1.78,1.12-4.08,1.81-5.91c4.2-4.1,7.18-9.28,8.6-14.97C267.13,40.82,265.56,38.64,263.88,36.56
		z"/>
	<path class="st6" d="M264.26,74.21c-3.73,10.33-7.99,22.45-11.99,32.66c-0.15,0.39-0.34,0.76-0.56,1.12
		c-1.44,2.26-3.86,2.34-6.71,0.69c-6.8-3.88-15.32-9.24-21.99-13.5c-2.54-1.65-3.01-3.32-1.7-5.84c4.2-8.08,9.39-17.43,13.92-25.38
		c1.36-2.37,2.98-2.86,5.71-2.07l3.5,1.02c5.44,1.63,11.65,3.59,16.55,5.36C264.11,69.38,265.35,71.23,264.26,74.21z"/>
	<path class="st7" d="M264.26,74.21c-3.73,10.33-7.99,22.45-11.99,32.66c-0.15,0.39-0.34,0.76-0.56,1.12
		c-6.46-3.77-14.26-8.64-20.41-12.57c-2.54-1.65-3.01-3.32-1.7-5.84c4.2-8.08,9.39-17.43,13.93-25.38c0.25-0.46,0.55-0.89,0.91-1.28
		c5.44,1.63,11.65,3.59,16.55,5.36C264.11,69.38,265.35,71.23,264.26,74.21z"/>
	<path class="st8" d="M222.76,93.75c-21.88,9.99-57.86,38.79-62.26,62.59c18.33-2.05,60.65-26.55,70.07-55.91L222.76,93.75z"/>
	<path class="st9" d="M223.86,93.54c-16.44,7.5-43.54,29.13-46.78,47.04c13.77-1.54,45.61-19.93,52.64-41.99L223.86,93.54z"/>
	<path class="st10" d="M225.11,93.31c-10.27,4.64-27.17,18.25-29.24,29.4c8.6-0.97,28.48-12.46,32.91-26.26L225.11,93.31z"/>
	<path class="st8" d="M245.18,105.45c-21.88,9.97-57.87,38.78-62.26,62.59c18.31-2.05,60.65-26.55,70.07-55.91L245.18,105.45z"/>
	<path class="st9" d="M246.29,105.23c-16.44,7.5-43.54,29.15-46.78,47.05c13.77-1.55,45.57-19.95,52.64-42L246.29,105.23z"/>
	<path class="st10" d="M247.52,105c-10.27,4.68-27.21,18.22-29.24,29.4c8.61-0.95,28.49-12.46,32.91-26.25L247.52,105z"/>
	<path class="st11" d="M309.03,25.14c-0.49,0.97-0.98,2-1.36,2.98c0.39-0.82,0.7-1.66,0.95-2.53c0-0.34,0.29-1.55-0.6-0.97
		c-0.46,0.51-0.86,1.07-1.2,1.66c-3.13,5.62-5.31,10.35-11.23,17.82s-16.95,20.29-26.41,26.14c-1.36,0.82-2.72,1.71-4.08,2.54
		c-0.65,2.35-10.35,11.04-0.59,10.59c9.21-0.42,20.78-13.29,27.31-21.57s15.13-18.1,20.26-27.81c0.41-0.76,0.71-1.28,1.05-1.97
		C311.69,29.8,310.41,27.43,309.03,25.14z"/>
	<path class="st12" d="M292.25,61.22c1.06-1.29,2.12-2.59,3.17-3.89c-1.06-0.89-2.63-0.79-3.58,0.22c-0.92,0.97-0.88,2.5,0.09,3.42
		c0.02,0.02,0.03,0.03,0.05,0.05C292.09,61.07,292.17,61.12,292.25,61.22z"/>
	<path class="st7" d="M266.6,73.38c5.11-1.84,10.64-2.24,15.96-1.16c-2.33,2.26-4.52,4.84-7.35,6.23
		C272.38,79.84,268.51,75.09,266.6,73.38z"/>
	<path class="st11" d="M135.27,198.13c0.54-0.73-1.44,3.35-1.95,2.59c-1.07-1.75-1.55-3.8-1.36-5.85c-0.06-2.39-0.25-4.77-0.57-7.14
		c11.38-9.21,26.33-19.24,36.19-29.06c12.11-12.06,22.49-20.26,32.94-32.89c3.12,3.37,7.7,4.99,10.72,8.48
		c-7.33,10.53-22.37,20.67-30.71,28.93c-11.96,11.84-27.55,18.3-38.21,27.08C135.89,195.5,138.74,192.9,135.27,198.13z"/>
	<path class="st11" d="M153.57,215.69c-0.23,0.27-1.36,2.8-1.92,1.99c-1.14-1.72-1.72-3.74-1.66-5.8c-0.03-2.31-0.4-4.6-1.1-6.8
		c13.4-9.73,25.72-20.87,36.74-33.23c10.21-11.66,20.85-20.87,29.93-33.05c4.26,2.23,9.24,3.31,12.93,6.44
		c-6.98,9.92-22.03,21.21-29.39,29.04c-14.29,15.16-28.57,22.44-42.62,35.76C154.81,211.47,153.76,213.5,153.57,215.69z"/>
	<path class="st7" d="M211.33,134.11c-2.87,3.89-6.13,7.48-9.74,10.69c-3.55-2.75-6.81-5.87-9.72-9.29
		c2.98-3.09,5.81-6.31,8.52-9.66C203.78,128.96,207.96,130.96,211.33,134.11z"/>
	<path class="st7" d="M228.77,145.02c-3.25,4.33-6.9,8.35-10.89,12.01c-3.54-2.6-7.01-5.29-10.75-7.59l-0.14-0.08
		c3.07-3.37,5.96-6.9,8.67-10.57C220.08,140.86,224.71,142.28,228.77,145.02z"/>
	<path class="st11" d="M258.14,83.49c2.92,1.57,5.75,3.3,8.48,5.2c0.98-2.26,2.15-3.82,2.72-6.38c0.27-1.59,0.14-3.23-0.38-4.76
		c-0.66-1.79-1.61-3.45-2.82-4.93c-0.73-1.06-1.59-0.86-1.29-3.35c0.63-5.59,1.87-11.09,3.7-16.41c-3.36-1.03-6.8-1.7-10.22-2.39
		c-2.34,4.35-2.38,10.89-4.67,14.97c-2.29,4.08-4.83,1.86-8.16,3.05c0.33,3.68-0.35,7.39-1.97,10.71
		C248.65,79.57,253.63,81.03,258.14,83.49z"/>
	<path class="st7" d="M261.51,59.34c1.32,1.11,2.83,1.97,4.45,2.54c0.76-2.99,1.55-5.95,2.52-8.87l-8.3-3.86
		C258.86,53.23,258.5,55.88,261.51,59.34z"/>
	<path class="st13" d="M132.63,190.48l-0.99-1.14l-2.33,2.07c0.49,0.23,0.97,0.48,1.44,0.72L132.63,190.48z"/>
	<path class="st5" d="M132.63,190.48l-0.99-1.14l-2.33,2.07c0.49,0.23,0.97,0.48,1.44,0.72L132.63,190.48z"/>
	<path class="st13" d="M133.83,201.72c-1.26-1.29-2.04-2.97-2.23-4.76c0.07-2.43-0.03-4.86-0.29-7.28
		c-0.68,0.56-1.36,1.14-2.01,1.73c-0.19-0.47-0.35-0.95-0.49-1.44l2.16-1.95c0.71,2.19,1.01,4.5,0.9,6.8
		c-0.14,2.05,0.33,4.09,1.36,5.86c0.48,0.8,0.83,0.61,1.36,1.2C134.25,201.91,134.13,202.07,133.83,201.72z"/>
	<path class="st12" d="M180.66,159.58c0.75,1.16,0.41,2.71-0.76,3.46c-1.03,0.66-2.4,0.48-3.21-0.44c-0.87-0.91-0.84-2.35,0.07-3.21
		c0.09-0.08,0.18-0.16,0.28-0.23c1.09-0.89,2.69-0.72,3.58,0.37C180.63,159.54,180.65,159.56,180.66,159.58z"/>
	<path class="st14" d="M133.27,200.73c0.46,0.82,0.82,0.61,1.36,1.18c0.4-1.29,0.68-2.62,0.83-3.96c-1-0.72-1.7-1.77-2-2.97
		c0.26-2.76-0.21-5.55-1.36-8.07c-0.38,0.37-0.78,0.71-1.16,1.09c0.71,2.2,1.02,4.5,0.91,6.8
		C131.72,196.88,132.22,198.94,133.27,200.73z"/>
	<path class="st13" d="M150.58,207.47l-1.06-1.09l-2.27,2.18l1.5,0.65L150.58,207.47z"/>
	<path class="st5" d="M150.58,207.47l-1.06-1.09l-2.27,2.18l1.5,0.65L150.58,207.47z"/>
	<path class="st13" d="M152.21,218.6c-1.32-1.22-2.18-2.86-2.44-4.64c-0.03-2.43-0.23-4.85-0.59-7.25l-1.95,1.82
		c-0.22-0.44-0.41-0.89-0.56-1.36c0.71-0.67,1.36-1.36,2.11-2.04c0.82,2.17,1.22,4.48,1.18,6.8c-0.05,2.04,0.53,4.05,1.65,5.76
		c0.52,0.79,0.87,0.57,1.44,1.13C152.68,218.79,152.55,218.96,152.21,218.6z"/>
	<path class="st12" d="M199.56,169.4c1.02,0.78,1.22,2.24,0.44,3.26c-0.04,0.06-0.09,0.11-0.14,0.17c-0.92,1-2.47,1.06-3.46,0.14
		c-0.9-0.83-1.05-2.2-0.35-3.21c0.81-1.06,2.33-1.27,3.39-0.46C199.48,169.34,199.52,169.37,199.56,169.4z"/>
	<path class="st14" d="M151.64,217.69c0.5,0.79,0.86,0.56,1.36,1.1c0.29-1.01,0.47-2.04,0.53-3.09c-1.1-1.58-2.15-1.24-2.12-3.63
		c0.03-2.39,0-5.71-1.62-7.95c-0.38,0.31-0.73,0.64-1.05,1.01c0.82,2.17,1.22,4.48,1.18,6.8C149.89,213.99,150.49,216,151.64,217.69
		z"/>
	<path class="st13" d="M237.77,90.37c-6.37,6.99-12.15,5.84-20.64,11.18c-8.16,5.18-17.69,16.21-23.98,24.64
		c4.75,6.88,10.84,12.74,17.89,17.24c6.65,4.41,11.48,8.8,18.04,12.93c6.5-7.63,11.59-12.82,16.68-22.19s9.93-21.93,11.23-33.13
		C250.72,97.21,243.97,94.24,237.77,90.37z"/>
	<path class="st5" d="M242.23,92.99c-6.04,6.01-11.69,5.18-19.8,10.3c-8.11,5.12-17.69,16.22-23.98,24.66
		c4.75,6.88,10.84,12.74,17.89,17.23c5.12,3.39,9.16,6.8,13.73,10.04l-0.99,1.16c-6.56-4.08-11.38-8.52-18.04-12.93
		c-7.06-4.49-13.14-10.35-17.89-17.24c6.29-8.44,15.76-19.47,23.98-24.64c8.49-5.35,14.27-4.19,20.64-11.18
		C239.24,91.29,240.73,92.14,242.23,92.99z"/>
	<path class="st15" d="M267.59,86.29c0.58-3.45,0.68-6.96,0.3-10.44c-0.5-2.99-0.68-2.34-2.34-3.96c-0.33-0.57-0.56-1.19-0.68-1.84
		c-1.86,0.88-2.65,0.72-4.82,0c-2.5-0.8-4.7-2.31-6.34-4.35c-1.6,1.35-3.59,2.16-5.67,2.31c-2.91,3.43-5.92,6.8-8.84,10.16
		c-0.64,4.08-1.17,8.16-1.76,12.25c3.03,2.72,6.15,5.06,9.35,7.57c3.12,2.61,6.56,4.81,10.23,6.56c1.24-1.47,2.2-3.13,3.32-4.69
		c2.12-0.95,4.38-1.65,5.7-3.7C268.03,92.92,267.99,90.03,267.59,86.29z"/>
	<path class="st7" d="M243.74,76.31c-1.13,4.84-3.26,9.4-6.25,13.38c0.52-3.86,1.05-7.73,1.69-11.58
		C240.69,77.54,242.22,76.89,243.74,76.31z"/>
	<path class="st12" d="M253.29,49.25c1.52-1.25,3.77-1.03,5.02,0.49c0.06,0.07,0.11,0.14,0.17,0.22c1.26,1.49,1.07,3.71-0.42,4.97
		c-0.08,0.07-0.16,0.13-0.25,0.19c-1.52,1.25-3.77,1.03-5.02-0.49c-0.06-0.07-0.11-0.14-0.17-0.22c-1.26-1.48-1.08-3.69,0.4-4.95
		C253.11,49.39,253.2,49.32,253.29,49.25z"/>
	<path class="st16" d="M254.37,50.64c0.91-0.57,2.11-0.29,2.68,0.62c0.5,0.8,0.35,1.83-0.34,2.47c-0.8,0.66-1.99,0.54-2.64-0.26
		c-0.03-0.03-0.05-0.07-0.08-0.1c-0.66-0.78-0.55-1.95,0.23-2.61C254.27,50.72,254.32,50.68,254.37,50.64z"/>
	<path class="st11" d="M267.14,54.96c-3.92,2.91-8.63,0.37-11.65-3.05c-3.02-3.42-3.78-8.67-0.26-11.62
		c5.06-4.23,8.16-1.5,11.42,2.72c0.73,0.87,1.34,1.82,1.84,2.84C270.08,49.38,270.72,52.28,267.14,54.96z"/>
	<path class="st17" d="M255.95,46.82c0.73-1.4,1.98-2.47,3.48-2.97 M259.53,43.85c0.03,0.03,0.03,0.07,0,0.1l0,0
		c-0.64,0.37-1.26,0.8-1.84,1.27c-0.29,0.24-0.56,0.5-0.8,0.78c-0.25,0.28-0.5,0.57-0.72,0.87l0,0c-0.03,0.02-0.08,0.02-0.11,0
		c-0.04,0.01-0.09,0-0.11-0.04L259.53,43.85z"/>
	<path class="st17" d="M264.3,39.92c-0.24,0.08-0.46,0.21-0.65,0.37c-0.61,0.47-1.15,1.02-1.61,1.65c-0.02,0.03-0.02,0.08,0,0.11
		c0.03,0.03,0.08,0.03,0.11,0l0,0c0.25-0.27,0.51-0.53,0.79-0.78c0.27-0.24,0.56-0.46,0.86-0.67c0.27-0.19,0.46-0.29,0.72-0.46
		C264.37,40.11,264.52,39.87,264.3,39.92z"/>
	<path d="M258.78,46.6c0.22-0.18,0.53-0.14,0.71,0.07s0.14,0.53-0.07,0.71c-0.21,0.18-0.53,0.14-0.71-0.07c0,0-0.01-0.01-0.01-0.01
		c-0.17-0.2-0.15-0.5,0.05-0.67C258.76,46.62,258.77,46.61,258.78,46.6z"/>
	<path d="M264.65,42.07c0.21-0.17,0.52-0.13,0.69,0.09c0,0,0,0.01,0.01,0.01c0.16,0.22,0.12,0.52-0.1,0.69s-0.52,0.12-0.69-0.1
		C264.4,42.54,264.44,42.23,264.65,42.07z"/>
	<path class="st12" d="M268.52,45.87c-0.82,0.16-1.44,0.24-2.01-0.5c-0.55-0.69-0.48-1.69,0.18-2.29l0,0
		C267.34,43.97,267.96,44.91,268.52,45.87z"/>
	<path class="st12" d="M259.73,48.26c0.67-0.55,1.65-0.45,2.2,0.22c0.02,0.03,0.05,0.06,0.07,0.09c0.55,0.66,0.47,1.63-0.19,2.19
		c-0.03,0.03-0.06,0.05-0.09,0.07c-0.67,0.55-1.65,0.45-2.2-0.22c-0.02-0.03-0.05-0.06-0.07-0.09c-0.55-0.66-0.47-1.63,0.19-2.19
		C259.67,48.31,259.7,48.28,259.73,48.26z"/>
	<path class="st7" d="M260.99,41.2c1.49,0.32,3.02,0.39,4.53,0.2c-1.79-2.45-4.47-4.1-7.46-4.6l-5.63,6.6l-0.65,10.03l1.36,1.69
		c3.97-5.44,2.6-9.93,3.61-16.15C257.98,40.01,259.43,40.78,260.99,41.2z"/>
	<path class="st12" d="M262.48,43.8c0.87,0.42,1.78,0.8,2.63,1.24c0.3,0.15,0.29,0.33,0.24,0.61c0,0.08,0,0.11-0.12,0.16
		c-0.38,0.33-0.8,0.67-1.2,0.98L262.48,43.8z"/>
	<path class="st3" d="M267.23,47.17c0.63,0.75-0.26,1.77-0.9,2.26c-0.64,0.49-1.86,1.09-2.42,0.29s1.05-1.16,1.5-1.5
		C265.85,47.88,266.6,46.41,267.23,47.17z"/>
	<path class="st4" d="M263.91,34.36c-2.41-0.8-7.97-2.18-10.42,1.47c-1.21,1.81-3.22,4.3-3.08,6.98c0.22,3.88,0.68,8.01,0.99,11.89
		c3.93-3.86,3.29-8.25,3.78-13.1c0.19-1.97,1.14-1.46,1.74-2.99c1.9,1.36,5.03,0.2,6.67-0.2c2.16-0.54,3.61,5.62,4.61,3.47
		C269.21,39.72,267.59,35.58,263.91,34.36z"/>
	<path class="st11" d="M241.32,67.69c-5.35,2.27-15.12,6.23-19.51,8.3c-5.55,2.6-15.4,6.8-13.54,12.45c2.19,6.54,11.44,0,15.99-1.92
		c5.35-2.19,13.25-5.96,18.9-8.76C242.57,74.37,242.08,70.97,241.32,67.69z"/>
	
		<linearGradient id="SVGID_1_" gradientUnits="userSpaceOnUse" x1="-7659.5337" y1="3166.4277" x2="-7652.0771" y2="3168.1558" gradientTransform="matrix(0.39 0.92 -0.92 0.39 6126.3101 5896.5303)">
		<stop  offset="0" style="stop-color:#F0C3A8"/>
		<stop  offset="1" style="stop-color:#FFFFFF"/>
	</linearGradient>
	<path class="st18" d="M241.32,67.69c-5.35,2.27-15.12,6.23-19.51,8.3c-5.55,2.6-15.4,6.8-13.54,12.45c2.19,6.54,11.44,0,15.99-1.92
		c5.35-2.19,13.25-5.96,18.9-8.76C242.57,74.37,242.08,70.97,241.32,67.69z"/>
	<path class="st15" d="M251.05,74.55c4.49-4.42-2.14-7.65-6.61-7.46c-2.92,0.29-5.76,1.17-8.33,2.59c1.55,1.13,2.8,2.63,3.63,4.37
		c0.67,1.74,1.02,3.58,1.03,5.44C244.34,78.2,248.22,77.34,251.05,74.55z"/>
	<path class="st11" d="M238.39,61c-6.98,1.36-32.15,20.06-30.22,27.21c1.93,7.16,18.4-7.96,20.87-10.64
		c2.48-2.68,6.99-5.74,8.72-9.17c0.08,0.38,0.08,0.76,0.14,1.16c2.14-1.19,3.67-3.23,4.2-5.62C242.72,61.41,240.26,60.63,238.39,61z
		"/>
	<path class="st15" d="M267.66,86.73c2.3-3.29,7.99-5.58,10.08-8.5c2.53-3.55-6.15-9.31-9.8-7.95c-2.64,0.99-6.8,5.17-7.36,8.67
		C260.03,82.44,265.06,85.05,267.66,86.73z"/>
	<path class="st13" d="M250.53,66.75c1.58,10.59-5.93,16.55-13.96,22.12c-0.1,0-0.42,0.23-0.56,0.3c0.07-1.17,0.18-2.35,0.27-3.54
		c0.18-0.12,0.34-0.2,0.53-0.34c7.02-4.82,8.59-10.42,9.52-18.67L250.53,66.75z"/>
	<path class="st13" d="M267.77,88.01c-0.86-5.55-1.86-12.11-2.86-17.17c-0.29-1.46,0.26-0.82,0.8,1.02c0.54,1.84,2.07,12,2.27,14.18
		C268.19,88.21,268.12,86.82,267.77,88.01z"/>
	<path class="st19" d="M308.7,31.42c0.6,0.41,1.28-0.73,1.54-1.14c-0.2,0.59-0.82,1.71-0.08,2.18c0.73,0.46,1.59-1.1,1.88-1.61
		c-0.16,0.48-0.67,1.61,0,1.92c0.67,0.31,1.36-0.98,1.62-1.36c0.68-3.5,0-5.69-2.94-6.91c-0.62-0.26-1.33-0.04-1.69,0.53
		c-1.03,1.63-2.72,4.46-1.71,5.44c0.69,0.73,1.14-0.84,1.36-1.06C308.56,29.92,308.1,31.01,308.7,31.42z"/>
</g>
</svg>
