<?xml version="1.0" encoding="utf-8"?>
<!-- Generator: Adobe Illustrator 23.0.1, SVG Export Plug-In . SVG Version: 6.00 Build 0)  -->
<svg version="1.0" id="Layer_1" xmlns="http://www.w3.org/2000/svg" xmlns:xlink="http://www.w3.org/1999/xlink" x="0px" y="0px"
	 viewBox="0 0 360 300" style="enable-background:new 0 0 360 300;" xml:space="preserve">
<style type="text/css">
	.st0{fill:#171733;}
	.st1{fill:#F0C3A8;}
	.st2{opacity:0.72;fill:url(#SVGID_1_);enable-background:new    ;}
	.st3{fill:#103FCD;}
	.st4{fill:#F5CFBF;}
	.st5{opacity:0.1;enable-background:new    ;}
	.st6{fill:#F29D9D;}
	.st7{fill:#5068E8;}
	.st8{fill:#A48F90;}
	.st9{fill:#246AFC;}
	.st10{fill:#FFFFFF;}
	.st11{fill:#3D6ACC;}
	.st12{fill:#EB7373;}
	.st13{fill:#ECD25E;}
	.st14{fill:#E34998;}
	.st15{fill:#0D1D7E;}
	.st16{opacity:0.58;fill:#3D6ACC;enable-background:new    ;}
	.st17{fill:#05C5DB;}
	.st18{opacity:0.05;enable-background:new    ;}
	.st19{fill:#FFCB8A;}
	.st20{fill:#B9EDFD;}
	.st21{fill:#F68987;}
	.st22{fill:#292969;}
	.st23{fill:#E04B97;}
	.st24{fill:#E8A48B;}
	.st25{fill:#F4D5C2;}
</style>
<g>
	<path class="st0" d="M318.03,192.74c0,0,6.46,61.7,8.97,107.21h-41.26l-8.96-81.43l-0.72,1.08l-6.22,80.35h-41.12l-4.67-79.98
		L318.03,192.74z"/>
	<path class="st1" d="M341.79,156.25l7.54-2.43c3.86,7.26,6.59,15.06,8.09,23.14c1.97,12.14-1.44,16.77-4.58,18.02
		C349.69,196.24,341.79,156.25,341.79,156.25z"/>
	
		<linearGradient id="SVGID_1_" gradientUnits="userSpaceOnUse" x1="621.6105" y1="15705.167" x2="618.293" y2="15742.418" gradientTransform="matrix(1 0 0 1 -270.52 -15548.0498)">
		<stop  offset="0" style="stop-color:#F0C3A8"/>
		<stop  offset="1" style="stop-color:#FFFFFF"/>
	</linearGradient>
	<path class="st2" d="M341.79,156.25l7.54-2.43c3.86,7.26,6.59,15.06,8.09,23.14c1.97,12.14-1.44,16.77-4.58,18.02
		C349.69,196.24,341.79,156.25,341.79,156.25z"/>
	<path class="st3" d="M248.23,36.75c-8.85,1.1-12.36,5.71-12.36,5.71s-18.64-13.84-12-26.39c6.65-12.55,18.08-7.19,25.09-2.02
		s7.89,4.49,17.47,3.94c9.58-0.55,16.11,6.45,16.11,16.23s7.75,20.05-5.53,32.78C261.4,81.97,248.23,36.75,248.23,36.75z"/>
	<path class="st4" d="M283.08,121.73c-1.71,2.92-3.99,5.47-6.71,7.5c-4.47,0.76-8.86,1.68-13.05,2.32
		c-4.12-0.89-8.01-2.65-11.4-5.16c-6.59-4.57-12.03-10.57-17.32-16.71c14.05-7.48,17.53-5.26,18.05-11.35
		c0.59-6.73-6.9-40.7-6.9-40.7l29.8-4.61c0,0,6.79,33.64,8.64,39.12c1.12,3.32,5.58,5,11.82,6.57
		C292.56,106.74,287.86,114.27,283.08,121.73z"/>
	<path class="st5" d="M254.93,87.22c-1.13,0.2-2.27,0.31-3.42,0.32c-2.19-11.64-4.42-22.49-4.42-22.49l20.15-3.19
		C268.56,74.62,264.44,85.65,254.93,87.22z"/>
	
		<ellipse transform="matrix(0.9867 -0.1626 0.1626 0.9867 -5.1249 45.2417)" class="st1" cx="273.76" cy="53.92" rx="9.78" ry="9.78"/>
	<circle class="st6" cx="273.77" cy="53.92" r="5.15"/>
	<path class="st4" d="M237.53,59.73c2.25,13.58,5.78,24.27,18.81,21.98c11.48-2.34,19.64-14.34,17.4-27.95s-9.37-24.18-24.03-21.61
		C232.06,35.25,235.28,46.14,237.53,59.73z"/>
	<circle cx="257.67" cy="52.37" r="1.38"/>
	<circle cx="240.19" cy="55.22" r="1.21"/>
	<path class="st6" d="M242.16,62.87c0.32,2-0.79,3.95-2.67,4.69c-0.88-2.54-1.54-5.16-1.96-7.82c0-0.14,0-0.28-0.07-0.43
		C239.72,59.06,241.79,60.62,242.16,62.87z"/>
	<circle class="st6" cx="261.79" cy="59.66" r="4.29"/>
	<path class="st6" d="M248.4,52.9l-3.03,8.97c-0.26,0.79,0.16,1.65,0.95,1.92c0.22,0.07,0.46,0.09,0.69,0.06l5.06-0.68L248.4,52.9z"
		/>
	<path class="st7" d="M272.35,46.21l1.39,7.58l-2.63,0.59c-0.42-2.67-1.03-5.31-1.83-7.89L272.35,46.21z"/>
	<path class="st8" d="M262.96,46.89c-0.48,0-0.92-0.08-1.38-0.12h-0.67c-0.22,0-0.45,0-0.67,0c-0.43,0-0.87,0-1.31,0
		c-0.45,0-0.87,0-1.29,0.08c-0.85,0.1-1.68,0.27-2.5,0.52c-0.82,0.26-1.62,0.59-2.38,1.01h-0.05c-0.2,0.1-0.44,0.03-0.55-0.17
		c0,0,0,0,0,0c-0.08-0.13-0.08-0.29,0-0.41c0.62-0.82,1.43-1.47,2.37-1.9c0.91-0.44,1.89-0.72,2.89-0.83c0.5-0.04,1.01-0.04,1.51,0
		c0.5,0.02,0.99,0.08,1.48,0.17c0.48,0.1,0.96,0.23,1.43,0.38c0.45,0.17,0.89,0.37,1.31,0.59c0.19,0.11,0.27,0.35,0.16,0.55
		c-0.07,0.13-0.21,0.22-0.36,0.22l0,0L262.96,46.89z"/>
	<path class="st8" d="M244.45,49.62c-0.37,0.02-0.75,0.02-1.12,0c-0.37,0-0.73,0-1.09,0l-1.01,0.07c-0.33,0-0.69,0.06-1.01,0.13
		c-0.65,0.09-1.28,0.27-1.88,0.54c-0.29,0.14-0.56,0.3-0.82,0.49c-0.26,0.19-0.5,0.39-0.72,0.62l-0.08,0.09
		c-0.15,0.15-0.39,0.16-0.54,0.01c0,0-0.01-0.01-0.01-0.01c-0.1-0.09-0.14-0.23-0.12-0.36c0.09-0.45,0.28-0.87,0.56-1.23
		c0.13-0.18,0.28-0.35,0.43-0.51c0.16-0.16,0.33-0.3,0.52-0.43c0.71-0.5,1.52-0.82,2.38-0.94c0.41-0.07,0.83-0.1,1.24-0.1
		c0.4,0.01,0.8,0.04,1.2,0.1c0.79,0.12,1.56,0.35,2.29,0.7c0.2,0.1,0.29,0.34,0.19,0.55c-0.06,0.13-0.18,0.22-0.32,0.23
		L244.45,49.62z"/>
	<path class="st9" d="M208.08,168.52c0,0-1.71-38.05,9.23-47.92s21.97-13.58,24.49-14.86s8.43-3.76,8.43-3.76s3.94,7.01,16.51,5.38
		c12.56-1.63,20.98-12.2,20.98-12.2c3.94,1.78,8.02,3.22,12.2,4.31c5.06,1.07,25.65,3.03,33.89,15.06
		c8.24,12.03,18.65,40.54,18.65,40.54s-6.27,4.3-17.75,8.43C323.22,167.62,208.08,168.52,208.08,168.52z"/>
	<path class="st10" d="M256.12,66.73c0.26,1.6-1.67,3.25-4.33,3.69c-2.66,0.45-5.06-0.49-5.29-2.08c-0.23-1.6,2.12-0.77,4.77-1.21
		S255.88,65.17,256.12,66.73z"/>
	<path class="st11" d="M266,111.32c6.33-0.59,16.68-2.56,25.75-14.46c-2.33-0.92-4.05-1.69-4.05-1.69s-8.44,10.58-20.99,12.2
		c-12.55,1.62-16.5-5.38-16.5-5.38s-1.68,0.71-3.62,1.57C251.52,110.81,259.86,111.87,266,111.32z"/>
	<path class="st5" d="M251.74,33.73l-3.54-1.27c-12.54,3.93-12.36,10-12.36,12.79C235.84,45.25,248.8,39.99,251.74,33.73z"/>
	<path class="st3" d="M267.41,27.15l-26.39-0.87l-7.39,10.46l2.24,5.72c0.5-1.01,0.7-2.68,2.42-4.39c2.68,0.6,5.47,0.49,8.09-0.32
		c1.31-0.43,3.9-2.72,5.34-4.05c3.45,0.2,6.66,1.36,7.71,3.21c4.3,7.63,7.4,3.03,9.83,9.57l3.09-0.28L267.41,27.15z"/>
	<path class="st9" d="M154.5,70.08c5.06-3.03,6.76-11.13,4.19-15.17c-1.92-3.03-6.38-3.89-6.7-6.94c-0.6-5.86-8.36-11.48-15.17-9.45
		c-8.76,2.63-12.14-1.16-15.96-6.7c-4.05-5.94-6.28-11.82-20.44-11.82s-17.94-2.32-19.37-9.34S67.9-3.85,54.86,2.25
		S36.93,14.08,29.58,9.78S15.02-0.46,6.76,5.63S1.7,26.98,10.89,28.42c9.18,1.45,2.69,11.48-0.87,17.57s1.43,17.19,13.62,15.24
		c12.2-1.95,14.16,1.8,16.86,8.44s12.55,8.09,17.93,5.38s11.66-4.48,17.76,0.88s7.89,8.43,16.5,6.45c8.61-1.97,9.99-0.48,14.11,2.75
		c4.12,3.23,13.88,1.38,13.88,1.38L154.5,70.08z"/>
	<path class="st5" d="M133.67,78.68l1.85-6.89l-24.19-5.06c-11.96-7.89-15.06-6.46-23.91-5.74s-5.98-9.1-14.35-13.63
		s-11.48,3.13-19.61,1.45c-8.13-1.68-4.3-9.33-14.83-10.52c-9.93-1.13-12.41,6.07-26.15,3.44C11.64,43.25,10.75,44.71,10,46
		c-3.59,6.07,1.44,17.19,13.63,15.24c12.2-1.95,14.16,1.79,16.86,8.44s12.55,8.09,17.93,5.38s11.66-4.48,17.75,0.87
		c6.09,5.35,7.89,8.44,16.51,6.46c8.62-1.97,9.74-0.95,13.88,2.27s13.38,2.63,13.38,2.63L133.67,78.68z"/>
	<path class="st4" d="M133.5,125.4c-0.47-6.65,7.33-41.72,7.33-41.72l-27.84-4.38c0,0-7.08,34.72-8.95,40.15
		c-1.87,5.43-12.14,6.48-24.39,9.99c-1.81,0.54-3.56,1.29-5.19,2.25c1.14,4.39,2.78,8.63,4.88,12.64c2.15,4.4,4.5,8.71,6.61,13.15
		c11.02,7.7,22.42,5.46,34.22,7.21c3.97,0.6,14.97-5.11,18.41-4.3c5.93-7.56,8.24-14.78,13.15-23.01
		C137.43,128.96,133.91,131.59,133.5,125.4z"/>
	<path class="st5" d="M117.43,90.77c0.82,5.16,5.21,19.71,17.55,22.44c1.11-6.17,2.4-12.71,3.47-18.09L117.43,90.77z"/>
	<circle class="st1" cx="117.64" cy="73.96" r="9.68"/>
	<circle class="st6" cx="117.64" cy="73.96" r="5.1"/>
	<path class="st4" d="M152,86.26c-4.66,12.8-12.14,21.75-25.12,16.94c-7.41-2.75-13.63-16.55-8.97-29.33s10.11-21.36,25.71-16.91
		C158.69,61.23,156.65,73.44,152,86.26z"/>
	<circle cx="131.76" cy="76" r="1.27"/>
	<circle cx="149.68" cy="82.05" r="1.26"/>
	<path class="st6" d="M152.01,86.14c-1.68-1.64-4.37-1.62-6.01,0.06c-1.64,1.68-1.62,4.37,0.06,6.01c0.75,0.73,1.74,1.16,2.78,1.21
		c1.32-2.26,2.38-4.67,3.14-7.18L152.01,86.14z"/>
	<circle class="st6" cx="127.53" cy="81.74" r="4.24"/>
	<path class="st6" d="M140.38,79.45l1.4,7.15c0.12,0.63-0.29,1.24-0.92,1.36c0,0,0,0,0,0c-0.17,0.05-0.35,0.05-0.53,0l-3.79-1
		L140.38,79.45z"/>
	<path class="st12" d="M141.32,92.09c-0.16,0.63-2.68,1.26-5.26,0.47c-2.58-0.8-4.28-2.58-4.1-3.34c0.21-0.92,1.87,1.45,4.45,2.24
		C138.99,92.24,141.59,91.15,141.32,92.09z"/>
	<circle class="st13" cx="113.86" cy="80.01" r="0.82"/>
	<path class="st5" d="M108.21,71.56c7.18,4.48,12.48,2.69,16.43,1.25s5.21-11.33,10.76-12.04c5.55-0.71,6.14,3.69,12.05,3.24
		c6.91-0.55,7.69,4.48,7.69,4.48s0.38-5.83-8.77-11.03c-9.15-5.21-19.75-7.08-26.57-2.02c-2.24,1.65-2.02,6.34-4.46,7.89
		C109.28,67.15,108.21,71.56,108.21,71.56z"/>
	<path class="st9" d="M110.24,65.99c7.19,4.48,10.11,5.92,14.02,4.48s5.2-11.3,10.73-12.03c5.53-0.73,5.92,3.79,11.83,4.13
		c6.33,0.36,7.89,3.59,7.89,3.59s3.93-7.17-5.21-12.37s-23.26-5.74-30.13-0.73C115.13,56.39,111.96,60.88,110.24,65.99z"/>
	<path class="st14" d="M164.98,300H41.22c0,0,17.44-72.45,35.4-108.58c17.57,4.38,43.7,5.5,61.22,0.72
		C137.84,192.15,163.78,260.06,164.98,300z"/>
	<path class="st15" d="M149.32,176.6c-0.78,6.45-11.48,15.56-11.48,15.56c-17.53,4.78-43.65,3.65-61.22-0.72
		c0,0-2.02-15.78-5.86-24.63c-0.87-5.33-3.34-10.27-7.08-14.16c-3.53-3.67-5.93-4.65-7.32-4.81c-0.38-0.04-0.66-0.39-0.62-0.77
		c0.02-0.13,0.07-0.26,0.15-0.36c2.19-2.63,6.57-7.8,10.66-10.84c4.02-2.95,8.42-5.33,13.08-7.08c0.4-0.13,0.83,0.1,0.96,0.51
		c0.01,0.05,0.01,0.1,0,0.15c0.47,4.69,3.21,26.3,13.91,29.33c12.03,3.41,45.92-1.08,45.92-1.08S150.51,166.55,149.32,176.6z"/>
	<path class="st11" d="M56.38,147.86c1.4,0.17,3.79,1.15,7.32,4.82c3.74,3.89,6.21,8.83,7.08,14.16l0.43,1.01
		c0.7-0.75,1.44-1.56,2.19-2.45c4.93-5.74,0.87-13.15-1.97-15.78c-3.54-3.31-8.05-5.4-12.87-5.96c-1.01,1.18-1.95,2.27-2.63,3.09
		c-0.25,0.28-0.22,0.72,0.06,0.97c0.02,0.01,0.03,0.03,0.05,0.04C56.15,147.84,56.27,147.86,56.38,147.86z"/>
	<path class="st16" d="M75.57,171.02c-1.17-5.32-2.45-9.44-2.45-9.44l-3.89-0.3c0.75,1.77,1.28,3.62,1.57,5.52
		c1.55,3.89,2.76,7.91,3.61,12.02C75.17,176.29,75.56,173.67,75.57,171.02z"/>
	<path class="st17" d="M134.44,128.6c-3.81,2.75-8.89,4.23-14.78,4.23c-6.57,0-14.46-3.14-18.49-10.11l-0.61,0.36
		c4.09,6.59,11.34,10.54,19.1,10.43c6.07,0,11.33-1.55,15.27-4.42C134.76,128.94,134.59,128.78,134.44,128.6z"/>
	<path class="st11" d="M86.48,158.22c6.2,6.18,14.52,6.27,27.36,5.46c10.42-0.66,24.47-2.43,29.33-3.03c-0.84-1-1.75-1.95-2.71-2.83
		c0,0-33.91,4.48-45.93,1.01c-10.7-3.03-13.44-24.69-13.91-29.33c-0.04-0.42-0.41-0.72-0.83-0.69h-0.16
		c-1.03,0.35-2.05,0.75-3.03,1.21C78.29,139.84,80.7,152.43,86.48,158.22z"/>
	<path class="st4" d="M174.3,143.86c0,0,5.06-27.85,6.22-36.7c0.65-4.79,1.68-13.15,2.95-19.82c1.07-5.6,2.1-9.89,3.62-9.71
		c2.51,0.29,1.17,5.56,0.72,10.58c-0.26,3.03-0.29,6.34-0.28,8.32c0,0.38,0.31,0.69,0.69,0.69c0.18,0,0.36-0.08,0.49-0.21
		c2.27-2.31,7.33-6.83,10.24-4.56c3.83,3.03-3.41,12.62-3.41,12.62l5.83,2.69c-0.69,2.72-5.06,8.32-6.42,9.17l-1.14,30L174.3,143.86
		z"/>
	<path class="st18" d="M180.52,107.19c0.65-4.79,1.68-13.15,2.95-19.82c1.07-5.6,2.1-9.89,3.62-9.71c2.51,0.29,1.17,5.56,0.72,10.58
		c-0.26,3.03-0.29,6.34-0.28,8.32c0,0.38,0.31,0.69,0.69,0.69c0.18,0,0.36-0.08,0.49-0.21c2.27-2.31,7.33-6.83,10.24-4.56
		c3.83,3.03-3.41,12.62-3.41,12.62S179.33,116,180.52,107.19z"/>
	<path class="st4" d="M200.85,102.59c1.79,1.01,2.69,3.58,1.01,5.26c-1.68,1.68-8.79,5.97-9.92,5.2c-1.08-1.06-1.09-2.78-0.04-3.86
		c0.14-0.15,0.3-0.28,0.47-0.39C194.01,107.9,200.85,102.59,200.85,102.59z"/>
	<path class="st6" d="M193.82,111.49c-0.47-0.43-2.02,0.45-2.49,0.77c0.12,0.32,0.33,0.59,0.61,0.79c0.36,0.24,1.31,0,2.49-0.54
		C194.32,112.12,194.11,111.77,193.82,111.49z"/>
	<path class="st4" d="M198.52,98.57c1.62,0.3,3.24,0.6,3.65,2.52c0.41,1.92-7.95,9.02-10.46,9.57s-3.03-3.41-0.3-5.21
		S198.52,98.57,198.52,98.57z"/>
	<path class="st6" d="M192.34,108.42c-0.45-0.49-2.31,0.69-2.68,0.94c0.14,0.89,0.98,1.49,1.87,1.35c0,0,0.01,0,0.01,0h0.17
		c0.51-0.15,0.99-0.37,1.45-0.64C193.08,109.44,192.79,108.86,192.34,108.42z"/>
	<path class="st4" d="M199.24,92.71c2.57,2.87,0.3,6.65-3.51,10.17c-3.81,3.53-5.2,3.03-6.4,2.4c-1.2-0.64,1.31-3.51,3.89-6.14
		C195.8,96.51,199.24,92.71,199.24,92.71z"/>
	<path class="st6" d="M193.64,104.58c-0.23-0.46-0.85-1.52-1.61-1.35c-0.76,0.17-2.18,1.85-2.44,2.19
		C190.48,105.86,191.56,106.04,193.64,104.58z"/>
	<path class="st4" d="M196.49,102.02c1.18-1.28,0.72-2.77-3.5-2.87c-4.22-0.1-9.54,3.79-9.54,3.79c-0.83,0.41-1.7,0.8-2.53,1.12
		c-0.1,0.75-0.19,1.45-0.27,2.09c-0.26,1.92-0.68,4.63-1.18,7.76h0.19c8.71-0.31,11.51-10.9,11.51-10.9S195.71,102.86,196.49,102.02
		z"/>
	<path class="st6" d="M196.7,100.11c-0.66-0.5-1.45-0.79-2.28-0.83c-0.18,0.53,0.11,1.1,0.64,1.28c0.04,0.01,0.09,0.03,0.13,0.03
		c0.47,0.13,0.96,0.16,1.44,0.09L196.7,100.11z"/>
	<path class="st11" d="M318.91,115.34L217,133.87l-101.9-18.53c-2.82-0.53-5.54,1.33-6.06,4.16c0,0.01,0,0.01,0,0.02
		c-0.05,0.3-0.08,0.61-0.08,0.92v125.16c0,2.53,1.83,4.68,4.32,5.11l103.75,18.86l0,0h0.14v-0.06l103.6-18.8
		c2.46-0.46,4.25-2.6,4.25-5.11V120.44c-0.01-2.86-2.33-5.18-5.19-5.18C319.52,115.26,319.21,115.29,318.91,115.34z"/>
	<path class="st15" d="M318.91,116.42L217,134.95l-101.9-18.53c-2.82-0.53-5.54,1.33-6.06,4.16c0,0.01,0,0.01,0,0.02
		c-0.05,0.3-0.08,0.61-0.08,0.92v125.16c-0.02,2.54,1.81,4.72,4.32,5.15l103.75,18.86l0,0h0.14v-0.05l103.6-18.81
		c2.46-0.46,4.25-2.6,4.25-5.11v-125.2c-0.01-2.86-2.33-5.18-5.19-5.18C319.52,116.34,319.21,116.36,318.91,116.42z"/>
	<polygon class="st10" points="217.03,263.6 115.74,245.37 115.74,123.39 216.97,141.8 	"/>
	<polygon class="st19" points="200.15,246.27 164.29,239.81 164.29,206.11 200.14,212.59 	"/>
	<path class="st11" d="M200.12,159.87l-68.65-12.46v-4.81l68.62,12.46v4.82L200.12,159.87z M200.12,168.97l-68.65-12.43v4.81
		l68.63,12.45v-4.82L200.12,168.97z M200.12,182.9l-68.65-12.42v4.82l68.63,12.43v-4.82L200.12,182.9z M200.12,196.82l-68.65-12.4
		v4.82l68.64,12.41v-4.81L200.12,196.82z M157.64,204.92l-26.17-4.73v4.82l26.21,4.73v-4.82L157.64,204.92z M157.64,219.62
		l-26.17-4.73v4.82l26.21,4.72v-4.82L157.64,219.62z M157.64,233.78l-26.17-4.7v4.82l26.24,4.77v-4.82L157.64,233.78z"/>
	<polygon class="st20" points="318.26,245.37 217,263.78 217,141.81 318.26,123.39 	"/>
	<polygon class="st21" points="283.19,177.73 233.1,186.83 233.1,155 283.19,145.89 	"/>
	<path class="st11" d="M301.4,188.55l-68.64,12.46v-4.81l68.64-12.47V188.55z M301.4,197.65l-68.64,12.46v4.81l68.64-12.44v-4.8
		V197.65z M301.4,211.6l-68.64,12.46v4.81l68.64-12.45v-4.79V211.6z M301.4,225.55l-68.64,12.48v4.82l68.64-12.45v-4.82V225.55z
		 M301.4,142.8l-12.56,2.29v4.05l12.56-2.23V142.8z"/>
	<path class="st22" d="M179.55,296.04h75c1.78,0,3.22,1.44,3.22,3.22v0.73h-81.43v-0.73C176.34,297.48,177.78,296.04,179.55,296.04z
		"/>
	<polygon class="st16" points="198.31,227.2 188.27,258.56 217.24,264.4 246.37,258.45 235.75,227.2 	"/>
	<path class="st11" d="M238.15,294.73l-44.13,0.24l5.26-63.97l33.8,1.2L238.15,294.73z M217.23,251.72
		c-6.05,0-10.95,4.9-10.95,10.95c0,6.05,4.9,10.95,10.95,10.95s10.95-4.9,10.95-10.95l0,0l0,0c-0.01-6.04-4.9-10.94-10.94-10.95
		L217.23,251.72z"/>
	<path class="st15" d="M242.21,300h-50.36l6.47-72.82h37.42L242.21,300z M217.24,253.47c-6.05,0-10.95,4.9-10.95,10.95
		c0,6.05,4.9,10.95,10.95,10.95c6.05,0,10.95-4.9,10.95-10.95l0,0l0,0C228.19,258.38,223.29,253.47,217.24,253.47L217.24,253.47
		L217.24,253.47z"/>
	<polygon class="st11" points="235.89,228.88 235.75,227.2 198.31,227.2 198.17,228.88 	"/>
	<circle class="st23" cx="197.71" cy="157.84" r="7.11"/>
	<path class="st24" d="M130.2,70.15c0.38-0.09,0.78-0.16,1.18-0.22s0.81-0.06,1.21-0.06c0.82,0.02,1.64,0.14,2.43,0.37
		c0.8,0.24,1.55,0.61,2.23,1.09c0.69,0.48,1.26,1.11,1.67,1.84c0.07,0.11,0.03,0.26-0.08,0.33c0,0,0,0,0,0
		c-0.09,0.07-0.21,0.07-0.3,0l0,0c-0.52-0.51-1.11-0.95-1.75-1.31c-0.96-0.55-2.01-0.93-3.09-1.13c-0.36-0.09-0.73-0.13-1.1-0.19
		s-0.75-0.06-1.13-0.1c-0.38-0.04-0.76,0-1.15-0.06l0,0c-0.14,0.01-0.25-0.1-0.26-0.23c-0.05-0.12,0.01-0.27,0.14-0.32
		C130.19,70.16,130.19,70.16,130.2,70.15z"/>
	<path class="st24" d="M145.84,75.84c0.35-0.08,0.71-0.14,1.07-0.2c0.36-0.05,0.73-0.08,1.1-0.07c0.73,0,1.47,0.08,2.18,0.24
		c0.73,0.18,1.43,0.46,2.08,0.84c0.67,0.37,1.25,0.89,1.68,1.53c0.07,0.11,0.04,0.27-0.07,0.34c-0.09,0.06-0.2,0.06-0.28,0l0,0
		c-0.53-0.4-1.11-0.74-1.72-1.01c-0.61-0.26-1.25-0.47-1.9-0.63l-0.5-0.11c-0.16,0-0.33-0.06-0.5-0.09
		c-0.33-0.07-0.68-0.09-1.01-0.14c-0.33-0.05-0.69-0.06-1.01-0.1c-0.32-0.04-0.7,0-1.01-0.08l0,0c-0.13-0.02-0.23-0.14-0.22-0.27
		C145.73,75.99,145.77,75.89,145.84,75.84z"/>
	<path class="st4" d="M326.68,130.45c6.38,1.01,9.92,2.75,13.87,11.71c3.78,8.6,11.97,26.23,14.39,37.42
		c2.43,11.2,1.83,17.08-6.69,17.42c-9.5,0.38-16.62-19.99-18.1-29.54c-1.56-10-3.59-19.09-3.59-19.09c-2.5-0.21-4.98-0.62-7.41-1.2
		c-3.48-0.87-6.66,2.08-7.79,0.36c-1.13-1.72,2.58-4.45,7.45-4.38c-1.9-0.48-3.89-0.48-5.8,0c-3.4,0.79-4.51,0.93-4.86-0.36
		c-0.35-1.29,3.94-3.46,6.96-3.54c3.01-0.08,4.53-0.24,4.53-0.24s-5.37-1.01-8.09,0.21c-2.72,1.22-4.89,2.63-5.57,1.19
		c-0.69-1.44,3.03-4.31,7.17-5.29c4.14-0.98,5.06-0.62,5.06-0.62s-5.15-0.37-7.89,0.76c-2.74,1.13-3.91,2.13-4.82,1.01
		c-0.91-1.12,1.43-3.39,5.56-4.85C315.19,129.96,319.16,129.29,326.68,130.45z"/>
	<path class="st25" d="M310.08,142.26L310.08,142.26c0.05-0.37-0.09-0.75-0.35-1.01c-0.06-0.06-0.12-0.1-0.19-0.14
		c-1.01,0.61-1.56,1.25-1.41,1.75l0,0c0.05,0.05,0.12,0.1,0.18,0.13c0.03,0.05,0.06,0.1,0.1,0.14c0.35,0.34,0.91,0.34,1.26,0
		C309.9,142.89,310.04,142.58,310.08,142.26z"/>
	<path class="st25" d="M311.18,147.21c0.5,0.31,1.16,0.18,1.51-0.3c0.29-0.58,0.14-1.28-0.37-1.68c-0.04-0.04-0.08-0.07-0.13-0.09
		C311.37,145.81,310.98,146.56,311.18,147.21z"/>
	<path class="st25" d="M307.3,135.51c0.21-0.31,0.21-0.71,0-1.01c-0.2-0.29-0.56-0.43-0.91-0.35l-0.17,0.07
		c-0.84,0.83-1.13,1.6-0.71,2.12c0.13,0.18,0.31,0.32,0.52,0.41l0,0C306.56,136.47,307,136.04,307.3,135.51z"/>
	<path class="st25" d="M307.47,140.57c0.29-0.2,0.49-0.51,0.58-0.85c0.1-0.35-0.01-0.72-0.28-0.95c-0.28-0.24-0.69-0.29-1.01-0.1
		c-0.27,0.16-0.49,0.39-0.64,0.66l0,0c-0.23,0.33-0.29,0.76-0.14,1.13c0.06,0.15,0.17,0.28,0.29,0.37c0.16,0.08,0.35,0.11,0.53,0.08
		C307.05,140.91,307.3,140.78,307.47,140.57z"/>
	<path class="st4" d="M123.29,220.4c3.71-0.52,7.72-1.45,7.31-3.03c-0.32-1.28-2.95-1.46-5.81-1.24c2.15-0.54,3.84-1.28,3.51-2.28
		c-0.79-2.48-14.16-0.33-14.16-0.33s2.57-1.21,3.46-1.67c1.41-0.72,3.11-2.09,1.5-3.12c-1.61-1.02-9.68,1.56-20.9,5.56
		c-11.83,1.31-40.36-0.2-40.36-0.2s-0.47-6.96,3.22-22.88c1.84-7.97,8.76-22.9,12.04-29.61c0,0-0.05-4.73-7.13-10.22
		c-2.87-2.13-6.31-3.35-9.87-3.51c-8.15,10.87-13.73,23.44-16.31,36.78c-4.39,23.26-3.9,43.26,10.11,48.33
		c14.02,5.07,52.07-1.28,56.49-1.9c4.42-0.62,20.11-1.97,19.74-4.62c-0.18-1.34-2.33-1.75-4.42-1.82c3.75-0.26,8.74-0.94,8.64-2.69
		C130.24,220.41,126.66,220.24,123.29,220.4z"/>
	<path class="st25" d="M126.72,212.88c-0.14,0.07-0.27,0.15-0.39,0.24c-0.19,0.08-0.36,0.19-0.52,0.32
		c-0.35,0.32-0.38,0.87-0.06,1.23c0,0,0,0,0,0.01l0,0c0.46,0.37,1.06,0.53,1.65,0.43c0.68-0.37,1.01-0.82,0.88-1.31
		C128.16,213.3,127.58,213.06,126.72,212.88z"/>
	<path class="st25" d="M127.5,221.99c-0.06,0.94,0.74,1.24,1.57,1.25c0.8-0.35,1.27-0.81,1.24-1.37c-0.03-0.56-0.6-0.94-1.47-1.18
		C128.17,220.9,127.55,221.27,127.5,221.99z"/>
	<path class="st25" d="M130.6,217.35c-0.14-0.57-0.72-0.91-1.55-1.11c-0.78,0.35-1.43,0.96-1.2,1.78c0.22,0.82,0.83,0.9,1.54,0.88
		C130.26,218.45,130.75,217.95,130.6,217.35z"/>
	<path class="st25" d="M126.1,226.4c-0.02-0.15-0.06-0.3-0.13-0.43c-0.81,0-1.6,0.26-2.25,0.76c-0.38,0.31-0.56,0.8-0.47,1.28
		c0.02,0.1,0.06,0.19,0.11,0.27C125.11,227.75,126.2,227.11,126.1,226.4z"/>
	<path class="st25" d="M119.12,208.71c-0.5-0.31-1.62-0.28-3.27,0c0.03,0.36,0.27,0.66,0.62,0.77c0.96,0.14,1.93,0.09,2.87-0.13
		c0.1-0.02,0.19-0.05,0.27-0.1C119.5,209.03,119.33,208.84,119.12,208.71z"/>
</g>
</svg>
