<?xml version="1.0" encoding="utf-8"?>
<!-- Generator: Adobe Illustrator 23.0.1, SVG Export Plug-In . SVG Version: 6.00 Build 0)  -->
<svg version="1.0" id="Layer_1" xmlns="http://www.w3.org/2000/svg" xmlns:xlink="http://www.w3.org/1999/xlink" x="0px" y="0px"
	 viewBox="0 0 360 300" style="enable-background:new 0 0 360 300;" xml:space="preserve">
<style type="text/css">
	.st0{fill:#FFFFFF;}
	.st1{fill:#171733;}
	.st2{fill:#00B4FF;}
	.st3{fill:#14286C;}
	.st4{opacity:0.1;enable-background:new    ;}
	.st5{fill:#F5CFBF;}
	.st6{fill:#5F48DC;}
	.st7{fill:#0D1D7E;}
	.st8{fill:#F29D9D;}
	.st9{fill:#161632;}
	.st10{fill:#F0C3A8;}
	.st11{fill:#E8A48B;}
	.st12{fill:#DB4990;}
	.st13{opacity:0.3;enable-background:new    ;}
	.st14{fill:#F6D4C6;}
	.st15{fill:#DBEDFF;}
	.st16{fill:#283B42;}
</style>
<g>
	<rect x="107.59" y="7.31" class="st0" width="143.04" height="120.01"/>
	<path class="st1" d="M251.06,0H107.15c-3.79-0.01-6.88,3.06-6.88,6.86c0,0,0,0.01,0,0.01v120.91c0,3.79,3.08,6.87,6.87,6.87
		c0,0,0.01,0,0.01,0h143.91c3.79,0.01,6.86-3.06,6.87-6.84c0-0.01,0-0.02,0-0.03V6.87c0.01-3.79-3.06-6.86-6.84-6.87
		C251.08,0,251.07,0,251.06,0z M250.63,127.32H107.64V7.31h142.98V127.32z"/>
	<path class="st0" d="M148.22,84.91c-4.33-0.01-7.85-3.51-7.88-7.84v-8.9c0.01-21.72,17.62-39.32,39.35-39.32
		c21.71,0.01,39.31,17.61,39.32,39.32v8.9c-0.01,4.35-3.53,7.87-7.88,7.88L148.22,84.91z"/>
	<path class="st2" d="M179.67,30.47c20.82,0,37.7,16.88,37.7,37.7l0,0v8.9c0.01,3.45-2.78,6.25-6.23,6.26c0,0-0.01,0-0.01,0h-62.9
		c-3.45-0.01-6.25-2.81-6.25-6.26v-8.9C141.98,47.34,158.85,30.47,179.67,30.47 M179.67,27.2c-22.61,0.03-40.93,18.35-40.95,40.96
		v8.9c0,5.25,4.25,9.51,9.5,9.51h62.9c5.23-0.04,9.45-4.28,9.46-9.51v-8.9C220.56,45.57,202.27,27.25,179.67,27.2z"/>
	<path class="st3" d="M149.66,74.24h60.03c1.36,0,2.46,1.1,2.46,2.46l0,0c0,1.36-1.1,2.46-2.46,2.46h-60.03
		c-1.36,0-2.46-1.1-2.46-2.46l0,0C147.2,75.34,148.3,74.24,149.66,74.24z"/>
	<path class="st2" d="M149.62,75.02h29.8c0.92,0,1.67,0.75,1.67,1.67l0,0c0,0.92-0.75,1.67-1.67,1.67h-29.8
		c-0.92,0-1.67-0.75-1.67-1.67l0,0C147.94,75.77,148.69,75.02,149.62,75.02z"/>
	<path class="st3" d="M150.76,61.19c0.67-1.98,1.56-3.87,2.66-5.65c0.56-0.87,0.31-2.03-0.56-2.59c-0.04-0.02-0.08-0.05-0.12-0.07
		l-0.77-0.44c-0.93-0.5-2.09-0.16-2.59,0.77c-0.02,0.04-0.04,0.09-0.06,0.13c-1.01,2.17-1.75,4.46-2.22,6.8
		c-0.22,1.03,0.43,2.04,1.46,2.26c0.14,0.03,0.28,0.04,0.41,0.04l0,0C149.77,62.45,150.49,61.95,150.76,61.19z"/>
	<path class="st3" d="M165.23,39.95l1.91,3.31c0.43,0.74,1.3,1.1,2.13,0.88c1.31-0.31,2.64-0.52,3.99-0.62
		c0.99-0.06,1.77-0.88,1.79-1.87v-4.52c0-1.06-0.86-1.91-1.91-1.91c-0.13,0-0.26,0.01-0.38,0.04c-2.28,0.42-4.5,1.08-6.64,1.95
		c-0.97,0.41-1.42,1.52-1.01,2.49C165.13,39.78,165.18,39.87,165.23,39.95z"/>
	<path class="st3" d="M156.1,50.09c0.73,0.41,1.63,0.3,2.25-0.27c0.39-0.35,0.77-0.68,1.18-0.98c0.9-0.7,1.85-1.34,2.84-1.91
		c0.88-0.53,1.17-1.67,0.64-2.55l-1.33-2.35c-0.52-0.91-1.69-1.22-2.6-0.7c-0.07,0.04-0.14,0.09-0.21,0.14
		c-1.2,0.89-2.34,1.88-3.4,2.94c-0.58,0.58-1.13,1.2-1.66,1.83c-0.68,0.81-0.58,2.02,0.23,2.7c0.1,0.09,0.22,0.16,0.34,0.23
		L156.1,50.09z"/>
	<path class="st3" d="M196.99,57.47c0.5,1.15,0.9,2.33,1.21,3.55c0.22,0.84,0.98,1.43,1.85,1.44h10.34c1.06-0.01,1.91-0.87,1.9-1.93
		c0-0.17-0.03-0.35-0.08-0.51c-0.91-3.17-2.25-6.21-3.99-9.02c-0.55-0.85-1.67-1.11-2.54-0.6l-7.97,4.57
		C196.84,55.47,196.53,56.57,196.99,57.47z"/>
	<path class="st3" d="M188.4,36.02c-2.35-0.7-4.77-1.14-7.21-1.33c-1.05-0.09-1.98,0.69-2.07,1.75c0,0.05-0.01,0.09-0.01,0.14v5.59
		c0.02,0.9,0.65,1.66,1.53,1.85c1.14,0.26,2.26,0.61,3.35,1.04c0.88,0.37,1.89,0.03,2.38-0.78l3.18-5.5
		c0.5-0.94,0.15-2.11-0.79-2.61C188.64,36.11,188.52,36.06,188.4,36.02z"/>
	<path class="st3" d="M192.68,50.94c0.45,0.48,0.89,0.97,1.33,1.47l8.56-4.93c0.91-0.53,1.22-1.71,0.68-2.62
		c-0.09-0.15-0.19-0.28-0.31-0.4c-0.77-0.76-1.58-1.48-2.42-2.15c-1.34-1.09-2.76-2.07-4.25-2.94c-0.9-0.55-2.08-0.27-2.63,0.63
		c-0.01,0.01-0.02,0.03-0.03,0.04l-3.64,6.3c-0.47,0.81-0.3,1.84,0.41,2.44C191.2,49.46,191.97,50.18,192.68,50.94z"/>
	<path class="st2" d="M177.64,62.01l18.23-15.67c0.43-0.36,1.07-0.31,1.44,0.12c0.33,0.38,0.33,0.95,0,1.33l-15.65,18.23
		c-1.02,1.19-2.82,1.33-4.01,0.31c-1.19-1.02-1.33-2.82-0.31-4.01l0,0C177.42,62.2,177.52,62.1,177.64,62.01z"/>
	<path class="st3" d="M178.13,65.52c-0.85-0.83-0.86-2.2-0.03-3.04c0.83-0.85,2.2-0.86,3.04-0.03l0,0c0.9,0.77,1,2.12,0.24,3.02
		c-0.77,0.9-2.12,1-3.02,0.24c-0.08-0.07-0.16-0.15-0.24-0.24V65.52z M180.15,63.51c-0.28-0.28-0.73-0.28-1.01,0
		c-0.28,0.28-0.28,0.73,0,1.01c0.28,0.28,0.73,0.28,1.01,0c0,0,0,0,0,0C180.43,64.24,180.43,63.79,180.15,63.51z"/>
	<path class="st4" d="M181.65,66.02c-1.02,1.18-2.8,1.31-3.99,0.31c-0.15-0.12-0.28-0.27-0.39-0.43c1.2,1,2.97,0.83,3.97-0.36
		c0.01-0.01,0.01-0.02,0.02-0.02l15.65-18.23c0.26-0.3,0.31-0.73,0.15-1.09c0.14,0.06,0.26,0.15,0.36,0.27
		c0.31,0.39,0.31,0.94,0,1.33L181.65,66.02z"/>
	<circle class="st2" cx="179.67" cy="101.71" r="5.63"/>
	<circle class="st2" cx="157.16" cy="101.71" r="5.63"/>
	<circle class="st3" cx="202.19" cy="101.71" r="5.63"/>
	<path class="st5" d="M250.99,88.64c-4.43-0.27-8.89-0.1-13.29,0.5c1.33-2.14,2.18-9.67,2.38-12.64l0,0
		c1.33,0.73,5.78-0.17,9.7-2.39c0.85,0.89,1.96,1.49,3.18,1.71C251.26,79.88,250.58,84.27,250.99,88.64z"/>
	<path class="st1" d="M210.68,292.03l-4.23,2.82l-7.69,5.13h-14.62c0-2.1,7.1-1.58,11.51-6.35c3.59-3.88,4.65-11.8,4.7-12.78
		c0.48,0.3,1.01,0.53,1.55,0.69c2.66,0.62,5.38,0.91,8.11,0.86h0.81C209.87,285.74,211.28,288.25,210.68,292.03z"/>
	<polygon points="206.46,294.84 206.46,299.97 208.71,299.97 210.68,292.03 	"/>
	<path class="st1" d="M253.68,288.83l-4.24,2.82l-7.69,5.13h-14.62c0-2.1,7.1-1.59,11.51-6.35c3.59-3.88,4.66-11.8,4.7-12.8
		c0.16,0.11,0.33,0.21,0.5,0.31c2.07,1.01,6.23,1.21,8.84,1.25h1.12C252.86,282.54,254.2,285.05,253.68,288.83z"/>
	<polygon points="249.44,291.64 249.44,296.77 251.69,296.77 253.68,288.83 	"/>
	<path class="st6" d="M226.22,216.16c-2.06,4.81-4.96,10.94-5.59,12.93c-0.11,1.99-0.11,14.86-1.14,20.71
		c-0.9,5.05-7.65,26.81-9.49,32.59c-2.73,0.04-5.45-0.25-8.11-0.86c0.68-7.04,2.9-33.39,3.26-36.75c0.41-3.99,0.94-13.18,1.33-16.64
		c0.2-1.86,1.1-7.97,1.98-13.55C214.34,215.44,220.27,215.97,226.22,216.16z"/>
	<path class="st6" d="M255.13,228.18c0.25,1.98,1.13,14.51,1.18,20.46c0,5.16-2.99,24.59-3.64,30.56c-2.66,0-6.76-0.24-8.84-1.25
		c-0.27-8.65-0.88-28.18-1.13-31.26c-0.32-3.99-1.41-13.29-1.69-16.8c-0.16-1.91-0.4-8.4-0.56-14.08c6.16-0.52,12.26-1.64,18.2-3.34
		C257.59,217.66,255.4,225.88,255.13,228.18z"/>
	<path class="st5" d="M193.25,173.12c0.78,6.42-2.27,8.16-3.07,9.13c-0.8,0.97-0.37,2.76-0.31,3.87c0.07,1.1-0.27,1.5-0.48,1.33
		c-0.68-0.9-0.73-3.32-0.78-3.99c-0.23,1.27-0.32,2.56-0.27,3.85c0,0.86-0.2,1.24-0.52,1.09c-0.55-1.1-0.8-2.32-0.74-3.55
		c-0.3,1.1-0.51,2.23-0.64,3.36c0,0.62-0.65,0.32-0.65-0.16c0-8.46,3.69-16.66,4.81-19.59c1.02-2.66,11.06-24.36,14.36-31.45
		c2.66,1.18,6.11,2.38,8.73,3.35C208.72,153.95,196.97,170.7,193.25,173.12z"/>
	<path class="st7" d="M278.26,204.62c-6.29,3.17-12.86,5.78-19.61,7.79c-5.92,1.7-12,2.83-18.14,3.37
		c-4.73,0.41-9.48,0.53-14.23,0.37c-5.95-0.19-11.89-0.71-17.78-1.57c-2.66-0.36-5.31-0.8-8.07-1.33
		c8.78-31.66,21.13-76.61,26.11-82.21c-0.13-2.66-2.47-9.3-3.65-10.63c-2.37,4.42-4.77,14.04-7.97,20.28l-1.22-0.47
		c-2.66-0.97-6.09-2.17-8.73-3.35c-0.97-0.41-1.9-0.9-2.79-1.47c13.29-44.43,34.24-46.17,34.24-46.17s1.51-3.11,2.29-3.2
		c4.7-0.66,9.46-0.87,14.2-0.62c0.4,0-1.16,3.28-0.8,3.35c7.97,1.53,15.56,23.92,16.81,41.19c-0.58,0.06-1.16,0.14-1.73,0.27
		c-3.63,0.75-7.18,1.81-10.63,3.16l-1.51,0.68c-0.9-3.35-2.44-12.2-2.79-15.13c-1.19,2.63-2.12,5.37-2.79,8.17
		c1.66,3.12,3.61,6.47,6.34,12.56c1.71,3.83,3.73,8.72,6.18,15.32l0,0C266.11,165.93,271.33,181.54,278.26,204.62z"/>
	<path class="st5" d="M255.98,66.64c-0.49,3.2-3.19,5.75-6.25,7.49c-3.92,2.22-8.44,3.12-9.7,2.39l0,0
		c-2.23-1.33-3.83-3.34-3.68-4.37c0.3-2.26,0.8-4.48,1.5-6.64c0.32-1,0.66-1.98,1.05-2.94l0.53-0.37c0.49-0.34,0.78-0.9,0.77-1.5
		V60.6c-0.01-0.62,0.15-1.24,0.45-1.78c0.88-1.94,2.26-3.62,3.99-4.88C252.11,49.79,257.14,59.31,255.98,66.64z"/>
	<path class="st8" d="M238.88,62.54c-0.39,0.96-0.73,1.94-1.05,2.94l-1.93-0.88L238.88,62.54z"/>
	<circle class="st8" cx="241.33" cy="66.34" r="2.46"/>
	<circle class="st9" cx="241.47" cy="62.48" r="0.6"/>
	<path class="st10" d="M251.65,65.57c-0.01,3-2.44,5.43-5.45,5.43c-0.78,0.01-1.55-0.17-2.26-0.5l3.79-8.94
		C249.9,62.01,251.65,63.26,251.65,65.57z"/>
	<path class="st8" d="M249.55,65.49c0,1.67-1.35,3.02-3.02,3.02c0,0-0.01,0-0.01,0c-0.43,0-0.86-0.09-1.25-0.27l2.1-4.97
		C248.57,63.53,249.55,64.22,249.55,65.49z"/>
	<path class="st11" d="M241.51,59.86c0.53,0.02,1.04,0.14,1.53,0.35c0.51,0.19,0.95,0.53,1.26,0.97c0.07,0.08,0.06,0.21-0.02,0.28
		c-0.07,0.06-0.17,0.06-0.24,0.01l0,0l-0.6-0.37c-0.2-0.12-0.41-0.22-0.62-0.32c-0.44-0.2-0.89-0.35-1.33-0.52
		c-0.1-0.03-0.16-0.13-0.13-0.23c0-0.01,0-0.02,0.01-0.02C241.38,59.93,241.44,59.87,241.51,59.86z"/>
	<path class="st12" d="M296.47,88.08c-3.14,4.86-6.9,3.71-9.3,1.83c-2.4-1.87-4.33-2.66-10.92-2.83s-8.66-1.24-10.76-4.65
		c-2.1-3.41-4.96-6.07-9.69-6.22c-0.97-0.03-1.93-0.15-2.87-0.37c-1.21-0.22-2.32-0.82-3.18-1.71c-0.5-0.54-0.78-1.24-0.81-1.98
		c-0.08-2.03,2.35-1.46,3.11-5.81c0.49-2.83-1.65-3.99-3.22-4.48l-0.2-0.07c-0.36-0.09-0.68-0.16-0.92-0.2h-0.4l-0.82,2.11
		l-0.74-0.31c-0.07-4.34,1.14-4.82,1.81-6.64s-1.57-2.38-2.86-2.74c-0.11-0.84,0.57-3.81,5.65-4.76c6.05-1.12,6.28,3.14,11.04,2.98
		c4.76-0.16,5.43,4.72,12.49,4.72c7.06,0,9.3,7.02,9.17,10.4c-0.08,2.26,2.46,6.34,7.97,6.91C301.22,75.22,299.6,83.22,296.47,88.08
		z"/>
	<path class="st5" d="M262.05,154.98c-2.44-6.64-4.46-11.49-6.18-15.32c0.68-2.02,0.94-4.15,0.76-6.27c3.45-1.35,7-2.41,10.63-3.16
		C267.55,133.24,267.89,142.28,262.05,154.98z"/>
	<path class="st4" d="M297.89,85.34c-0.38,0.96-0.86,1.88-1.42,2.74c-3.15,4.86-6.91,3.71-9.3,1.83c-2.39-1.87-4.34-2.66-10.92-2.83
		c-6.58-0.17-8.68-1.24-10.76-4.65c-2.09-3.41-4.97-6.07-9.69-6.23c-0.97-0.02-1.93-0.14-2.87-0.36c-1.21-0.23-2.32-0.83-3.18-1.71
		c-0.5-0.54-0.78-1.24-0.81-1.98c-0.07-2.03,2.34-1.46,3.11-5.82c0.05-0.24,0.07-0.49,0.07-0.73c3.84,1.44,14.27,0.69,17.99,6.95
		C274.34,79.72,288.24,73.82,297.89,85.34z"/>
	<path class="st4" d="M213.7,140.27c-0.32,0.89-0.66,1.77-1.04,2.66c-2.46-0.89-5.38-1.91-7.69-2.96c-0.41-0.17-0.78-0.37-1.16-0.56
		c0.45-0.93,0.84-1.78,1.16-2.47C207.62,138.19,211.08,139.32,213.7,140.27z"/>
	<path class="st4" d="M267.37,133.23h-0.17c-3.6,0.75-7.13,1.81-10.55,3.18l0,0c0.11-1.02,0.11-2.05,0-3.07
		c3.42-1.34,6.95-2.38,10.55-3.12C267.31,131.22,267.36,132.22,267.37,133.23z"/>
	<path class="st4" d="M226.22,216.17c-0.89,2.09-1.95,4.42-2.91,6.58c-4.61-0.24-9.57-0.7-14.88-1.46l-1-0.15
		c0.31-2.07,0.66-4.34,1-6.55C214.32,215.44,220.26,215.97,226.22,216.17z"/>
	<path class="st4" d="M258.65,212.45c-0.43,2.09-1.04,4.66-1.63,7.14c-5.36,1.43-10.83,2.39-16.36,2.86
		c-0.07-2.13-0.15-4.45-0.21-6.64C246.61,215.27,252.71,214.15,258.65,212.45z"/>
	<path class="st13" d="M226.5,131.09c-0.13-2.66-2.48-9.3-3.67-10.63c0.93-1.54,1.97-3,3.11-4.38
		C225.94,116.08,227.93,128.89,226.5,131.09z"/>
	<path class="st13" d="M255.87,133.71l-0.77,0.36c-0.89-3.35-2.44-12.21-2.78-15.13c1.53-3.12,2.79-6.37,3.77-9.71
		C257.79,119.36,253.87,124.99,255.87,133.71z"/>
	<path class="st14" d="M74.93,284.91l-11.43-0.56c-0.09,2.02-0.11,3.79-0.2,5.22c-0.23,3.22,13.1,4.9,11.85,1.06
		C74.76,288.75,74.68,286.81,74.93,284.91z"/>
	<path class="st15" d="M90.37,298.15l-0.35,1.33c-0.05,0.29-0.29,0.5-0.58,0.52H61.97c-0.44,0-0.7-0.56-0.53-1.08l0.4-1.16
		c1.69-0.63,3.44-1.08,5.22-1.33c4.23,0,10.1,1.65,12.13,1.65h10.92L90.37,298.15z"/>
	<path class="st1" d="M90.12,298.15H79.19c-2.03,0-7.91-1.58-12.13-1.65c-1.78,0.25-3.54,0.69-5.22,1.33
		c-0.99-2.58-0.92-5.44,0.19-7.97c1.21-2.17,1.86,1.12,6.03,1.22c5.46,0.13,5.85-4.49,7.37-3.51c1.53,0.98,3.43,5.7,7.97,6.64
		C87.95,295.16,91.13,296.07,90.12,298.15z"/>
	<path class="st1" d="M69.49,298.41c0-0.45-1-0.82-2.25-0.84c-1.25-0.01-2.29,0.36-2.29,0.81c0,0.45,1,0.82,2.25,0.82
		C68.46,299.2,69.49,298.84,69.49,298.41z"/>
	<path class="st14" d="M119.87,284.56l-11.44,0.36c0.16,1.67,0.22,3.36,0.16,5.04c-0.11,3.04,13.29,4.36,11.89,0.45
		C120.04,288.49,119.84,286.53,119.87,284.56z"/>
	<path class="st15" d="M136.01,297.97l-0.29,1.44c-0.03,0.3-0.27,0.54-0.57,0.57h-27.5c-0.43,0-0.72-0.54-0.57-1.02l0.37-1.12
		c1.67-0.62,3.39-1.07,5.16-1.33c4.24,0,10.18,1.49,12.2,1.49h10.92L136.01,297.97z"/>
	<path class="st1" d="M135.7,297.97h-10.92c-2.02,0-7.97-1.53-12.2-1.49c-1.76,0.26-3.49,0.7-5.16,1.33
		c-1.1-2.44-1.15-5.22-0.12-7.69c1.14-2.14,1.91,0.97,6.09,0.9c5.45-0.09,5.66-4.84,7.24-3.99c1.58,0.85,3.63,5.67,8.21,6.64
		C133.43,294.65,136.63,295.64,135.7,297.97z"/>
	<path class="st1" d="M115.11,298.41c0-0.45-1.04-0.8-2.29-0.8s-2.27,0.37-2.26,0.81c0.01,0.44,1.02,0.8,2.29,0.8
		S115.11,298.86,115.11,298.41z"/>
	<path class="st7" d="M120.37,286.86c-0.15,3.68-13.29,7.15-13.29,3.83c0-7.72-1.51-28.37-2.79-39.62l-1.09-8.44
		c-0.4-2.8-0.9-5.6-1.5-8.4c-1.21-5.61-2.8-11.14-4.78-16.53c-0.54-1.55-1.16-3.11-1.81-4.66l-0.08-0.17
		c-0.76,2.21-1.51,4.42-2.23,6.64c-2.51,7.36-4.92,14.68-7.06,22.06c-0.05,0.12-0.09,0.25-0.12,0.39
		c-0.97,3.32-1.88,6.66-2.72,10.01l-0.5,1.83l-0.36,1.5c-0.27,1.12-0.52,2.23-0.77,3.34c-0.12,0.5-0.24,1.02-0.37,1.54l-0.96,4.12
		l-0.85,4.12c-0.5,2.76-1.13,5.51-1.57,8.3c0,0,0,0.2-0.09,0.54c0.01,0.07,0.01,0.15,0,0.23c-0.08,0.4-0.17,0.94-0.28,1.55
		c0,0.19-0.08,0.39-0.11,0.58l-0.36,1.93c0,0.31-0.12,0.61-0.17,0.9s-0.12,0.61-0.17,0.92c-0.11,0.57-0.23,1.16-0.35,1.73
		c0,0.21-0.08,0.43-0.13,0.64s-0.07,0.31-0.09,0.45c-0.02,0.09-0.04,0.18-0.07,0.27l-0.15,0.73l0,0c0,0.09,0,0.19-0.07,0.27
		c-2.06,1.33-5.12,7.28-13.62,2.66c0.25-1.01,0.39-2.05,0.43-3.1c0-0.25,0-0.52,0.07-0.78c0.05-0.18,0.08-0.36,0.11-0.54
		c0.08-1.06,0.13-2.13,0.16-3.19c0-0.56,0-1.1,0-1.65c0-0.17,0-0.36,0-0.54c0-0.19,0-0.7,0-1.04v-1.47l0.08-2.27
		c0.17-2.9,0.52-5.81,0.74-8.7l0.39-4.4l0.54-4.37c0.23-1.69,0.43-3.39,0.66-5.08c0.16-1.22,0.33-2.44,0.54-3.65l0.23-1.33
		l1.33-7.39c0.52-2.9,1.06-5.77,1.45-8.69c0.39-2.92,0.85-5.81,1.17-8.74s0.64-5.86,0.82-8.82c0.27-3.3,0.35-6.64,0.33-9.99
		c0-0.64,0-1.33,0-1.91c0-0.88,0-1.74,0-2.66c-0.16-7.14-0.54-14.26-0.24-20.93c0-1.4,0.13-2.78,0.24-4.17c0-0.09,0-0.17,0-0.27
		c0-0.56,0-1.1,0.11-1.66s0.08-1.42,0.15-2.13c0-0.4,0.08-0.81,0.13-1.21c0.05-0.4,0-0.61,0.09-0.9l0.24-1.86
		c0-0.58,0.13-1.17,0.21-1.75c0.08-0.58,0.21-1.45,0.33-2.17c0.44-2.45,1.02-4.88,1.71-7.27c0.44-1.24,0.74-2.38,1.18-3.57
		c0.11-0.29,0.23-0.6,0.35-0.89c0.12-0.29,0.23-0.6,0.36-0.89c0.13-0.29,0.27-0.61,0.41-0.9c0.15-0.29,0.28-0.61,0.43-0.92h38.16
		c0,2.52-0.19,5-0.16,7.59c0.03,2.59,0,5.14,0.17,7.83l0.2,3.99c0.08,1.33,0.2,2.66,0.29,4.08l0.28,4.08l0.35,4.16
		c0.96,11.11,2.3,22.59,3.41,34.16c1.12,11.57,1.85,23.32,2.21,35.07C121.89,260.98,120.77,275.86,120.37,286.86z"/>
	<path class="st4" d="M95.05,213.03c-3.3,9.45-6.56,18.91-9.3,28.49c-0.05,0.12-0.09,0.25-0.12,0.39c-1.22,3.91-2.3,7.89-3.23,11.88
		l-0.36,1.5c-0.27,1.12-0.52,2.23-0.77,3.34c-1.41,6.21-2.66,12.41-3.8,18.6c0.01,0.07,0.01,0.15,0,0.23l-0.39,1.58
		c0,0.2,0,0.39-0.11,0.58l-0.36,1.93c0,0.31-0.12,0.6-0.17,0.9s-0.12,0.61-0.17,0.92c-0.11,0.57-0.23,1.16-0.35,1.73
		c0,0.21-0.08,0.43-0.13,0.64s-0.07,0.31-0.09,0.45c-0.02,0.09-0.04,0.18-0.07,0.27c-0.08,0.24-0.13,0.48-0.15,0.73l0,0
		c0,0.09,0,0.19-0.07,0.27c-2.06,1.33-5.12,7.28-13.62,2.66c0.27-1.01,0.44-2.05,0.49-3.1c0.01-0.06,0.01-0.12,0-0.19v-0.6
		c0.07-0.18,0.13-0.36,0.17-0.54c0.08-1.06,0.13-2.13,0.16-3.19c0-0.54,0-1.09,0-1.65c0-0.17,0-0.36,0-0.54c0-0.19,0-0.69,0-1.04
		v-1.47l0.08-2.27c0.21-4.37,0.65-8.76,1.13-13.1c0,0,0-0.12,0-0.17c0.35-3.1,0.73-6.19,1.2-9.3c0.23-1.65,0.49-3.3,0.77-4.94
		c0-0.23,0.07-0.44,0.11-0.66c2.48-14.24,4.92-28.49,4.96-42.97c0-0.64,0-1.33,0-1.91v-0.36c0-0.76,0-1.5,0-2.26
		c-0.16-8.37-0.5-16.7,0-25.1c0-0.09,0-0.17,0-0.27c0-0.56,0-1.1,0.11-1.66c0.08-1.12,0.17-2.23,0.28-3.34c0-0.31,0-0.61,0.09-0.9
		c0.12-1.21,0.27-2.42,0.45-3.61c0.09-0.72,0.21-1.45,0.33-2.17c0.6-3.57,1.53-7.08,2.78-10.48l0.12-0.36
		c0.11-0.29,0.23-0.6,0.35-0.89c0.12-0.29,0.23-0.6,0.36-0.89c0.13-0.29,0.27-0.61,0.41-0.9c0.15-0.29,0.28-0.61,0.43-0.92h3.31
		c-1.01,3.11-1.69,6.32-2.02,9.58c-0.3,3.12-0.3,6.27,0,9.39c0.15,1.53,0.36,3.07,0.6,4.58c0.24,1.51,0.61,2.98,0.97,4.46
		c0.36,1.49,0.77,2.94,1.21,4.38c0.44,1.45,0.93,2.87,1.45,4.29c3.41,9.65,8.93,18.6,12.84,27.8L95.05,213.03z"/>
	<path class="st16" d="M111.51,50.36c0,1.71,0.47,3.27,0.5,4.96c-0.05,0.29-0.16,0.58-0.31,0.84c-1.63-2.34-3.89-0.76-4.28,1.57
		c-0.17,1.41,0.42,2.8,1.54,3.65c-0.11,0.24-0.24,0.43-0.36,0.65c-1.13,2.41-2.81,4.54-4.89,6.21c-1.03,0.59-2.2,0.89-3.39,0.86
		c-1.74,0-3.36-0.24-3.87-1.67s0-2.1-0.94-3.55c-1.46-3.02-2.15-6.35-1.99-9.7c0.73-4.52,4.2-6.58,4.12-10.43
		c0-2.34,4.78-2.94,7.63-2.54s7.77,2.11,7.64,6.03c0,1.05-0.7,1.06-1.12,1.93C111.63,49.54,111.53,49.95,111.51,50.36z"/>
	<path class="st10" d="M111.69,56.17c-1.62-2.39-3.85-0.72-4.28,1.54c-0.15,1.39,0.44,2.77,1.55,3.61c0.72,0.53,1.54,0.89,2.42,1.05
		c0.2-1.83,0.48-3.71,0.49-5.5C111.9,56.62,111.84,56.37,111.69,56.17z M111.14,60.64c-0.49-0.11-0.95-0.33-1.33-0.65
		c-0.52-0.45-0.78-1.13-0.7-1.81c0.19-1.13,1.22-2.02,2.15-0.98c0.14,0.14,0.21,0.33,0.19,0.53
		C111.4,58.71,111.3,59.68,111.14,60.64z"/>
	<path class="st8" d="M111.39,57.73c-0.03,0.97-0.11,1.95-0.25,2.91c-0.49-0.11-0.95-0.33-1.33-0.65c-0.52-0.45-0.78-1.13-0.7-1.81
		c0.19-1.13,1.22-2.02,2.15-0.98C111.38,57.35,111.43,57.54,111.39,57.73z"/>
	<path class="st8" d="M115.27,59.79h-1.73c0-1.01,0-2.02,0-3.03C114.11,57.85,114.68,58.85,115.27,59.79z"/>
	<path class="st5" d="M110.3,69.59c-0.93,2.38-1.02,10.88-1.24,13.82c-4.66-1.43-9.51-2.13-14.38-2.07
		c0.52-3.15,1.25-10.82,1.78-13.95c0.7,1.53,2.1,1.61,3.92,1.69c1.2,0.05,2.4-0.24,3.44-0.84c2.08-1.67,3.76-3.79,4.89-6.21
		c0.12-0.23,0.24-0.43,0.36-0.64c0.71,0.47,1.51,0.81,2.35,0.98c0.25-1.82,0.45-3.71,0.52-5.51c0-0.32-0.16-0.43-0.16-0.69
		s0.31-0.6,0.29-0.85c0-1.7-0.57-3.23-0.52-4.96c0.02-0.43,0.13-0.85,0.31-1.24c1.05,1.87,1.61,3.98,1.65,6.13c0,0.44,0,1.33,0,1.58
		c0,0.72,0,2.66,0,2.92C113.42,62.7,114.07,68.74,110.3,69.59z"/>
	<path class="st15" d="M79.61,112.13c-2.13,1.86-4.22,3.76-6.28,5.69c1.51,2.16,3.11,4.25,4.82,6.27
		c-0.49,3.99-1.33,8.52-1.74,11.96c-11.92-2.51-17.73-20.02-14.23-25.95c6.94-11.77,10.42-12.28,17.78-20.61
		C80.7,97.03,80.58,104.62,79.61,112.13z"/>
	<path class="st4" d="M79.61,112.13c-2.13,1.86-4.22,3.76-6.28,5.69c1.51,2.16,3.11,4.25,4.82,6.27c-0.49,3.99-1.33,8.52-1.74,11.96
		c-11.92-2.51-17.73-20.02-14.23-25.95c6.94-11.77,10.42-12.28,17.78-20.61C80.7,97.03,80.58,104.62,79.61,112.13z"/>
	<path class="st15" d="M172.75,75.56c-4.42,8.49-10.54,20.85-15.25,28.08s-5.22,6.51-13.9,7.04c-4.78,0.28-15.2-1.83-20.93-2.14
		c-4.21,17.27-5.99,34.65-7.97,52.31c-13.54-4.72-31.82,6.26-42.27-4.82c1.79-6.87,2.66-12.52,3.91-19.93
		c0.49-2.87,1.33-8.49,1.83-12.04c0.5-3.55,1.1-8.42,1.44-11.83c0.77-7.85,1.33-14.93,0.29-22.59c3.73-2.95,7.81-6.31,12.04-8.34
		c3.68-1.94,12.3,0.48,17.59,1.9c1.63,0.44,3.87,1.33,5.78,2.1c9.6,3.61,19.41,6.63,29.38,9.04c7.09-7.08,13.14-15.14,17.98-23.92
		c0.45,0.21,0.56,0.24,1.08,0.49c1.91,0.9,4.56,2.15,6.34,3.1C171.06,74.35,171.97,74.88,172.75,75.56z"/>
	<path class="st5" d="M176.55,66.65c-0.64,1.9-1.44,1.95-2.74,1.9c-0.62,2.14-1.89,4.04-3.64,5.43c-2.13-1.09-4.29-2.14-6.47-3.15
		c2.92-6.59,7.03-12.59,12.13-17.69c0.96,0.8,0.81,1.4,0,2.5c-0.81,1.1-1.98,2.54-2.87,3.76C175.17,60.87,177.19,64.75,176.55,66.65
		z"/>
	<path class="st4" d="M122.58,108.5c-1.9,8.21-3.44,16.46-4.85,24.77c-1.81-8.4-2.32-17.03-1.5-25.58L122.58,108.5z"/>
</g>
</svg>
