<?xml version="1.0" encoding="utf-8"?>
<!-- Generator: Adobe Illustrator 23.0.1, SVG Export Plug-In . SVG Version: 6.00 Build 0)  -->
<svg version="1.0" id="Layer_1" xmlns="http://www.w3.org/2000/svg" xmlns:xlink="http://www.w3.org/1999/xlink" x="0px" y="0px"
	 viewBox="0 0 360 300" style="enable-background:new 0 0 360 300;" xml:space="preserve">
<style type="text/css">
	.st0{fill:#FFFFFF;}
	.st1{fill:#171733;}
	.st2{opacity:0.3;fill:#3D6AC7;enable-background:new    ;}
	.st3{fill:#474866;}
	.st4{fill:#DDD8EA;}
	.st5{opacity:0.1;enable-background:new    ;}
	.st6{fill:none;stroke:#FF6966;stroke-width:0.58;stroke-linecap:round;stroke-linejoin:round;}
	.st7{fill:#00B4FF;}
	.st8{fill:#AAE350;}
	.st9{fill:#FFC55C;}
	.st10{fill:#9596A4;}
	.st11{fill:#FF6966;}
	.st12{fill:#E3F5FF;}
	.st13{fill:#14286C;}
	.st14{fill:#F5CFBF;}
	.st15{fill:#F29D9D;}
	.st16{fill:#2A2F76;}
	.st17{opacity:0.3;enable-background:new    ;}
	.st18{opacity:0.1;}
</style>
<g>
	<path class="st0" d="M30.73,3.69h298.56c2.04,0,3.69,1.65,3.69,3.69v218.51c0,2.04-1.65,3.69-3.69,3.69H30.73
		c-2.04,0-3.69-1.65-3.69-3.69V7.38C27.04,5.34,28.69,3.69,30.73,3.69z"/>
	<path class="st1" d="M329.29,7.36v218.53H30.71V7.36H329.29 M329.29,0H30.71c-4.07,0-7.36,3.3-7.36,7.36c0,0,0,0,0,0v218.53
		c0,4.07,3.3,7.36,7.36,7.36h298.58c4.07,0,7.36-3.3,7.36-7.36V7.36C336.65,3.3,333.36,0,329.29,0z"/>
	<path class="st2" d="M51.01,268.1h260.57c1.92,0,3.48,1.56,3.48,3.48v0c0,1.92-1.56,3.48-3.48,3.48H51.01
		c-1.92,0-3.48-1.56-3.48-3.48v0C47.52,269.66,49.08,268.1,51.01,268.1z"/>
	<path class="st2" d="M117.15,270.12h128.29c0.82,0,1.49,0.66,1.49,1.48v0c0,0.82-0.67,1.48-1.49,1.48H117.15
		c-0.82,0-1.49-0.66-1.49-1.48v0C115.67,270.78,116.33,270.12,117.15,270.12z"/>
	<rect x="263.33" y="75.46" class="st3" width="5.48" height="8.76"/>
	<rect x="239.72" y="150.28" class="st4" width="75.34" height="45.63"/>
	<rect x="239.72" y="186.53" class="st5" width="75.34" height="9.4"/>
	<path class="st3" d="M265.79,156.77l-5.59,6.83c-0.59-0.37-1.26-0.6-1.95-0.68v-8.85C260.98,154.23,263.59,155.16,265.79,156.77z
		 M255.92,173.85c0.48,0.12,0.97,0.19,1.47,0.19c1.79,0.01,3.47-0.86,4.51-2.32l7.88,3.96c-2.57,4.4-7.29,7.11-12.39,7.11
		c-1.72,0-3.43-0.31-5.04-0.91L255.92,173.85z M256.5,154.14v8.81c-3.05,0.43-5.17,3.25-4.74,6.29c0.23,1.64,1.18,3.09,2.58,3.96
		l-3.59,8.03c-7.02-3.65-9.76-12.3-6.11-19.33c2.32-4.47,6.82-7.39,11.85-7.7V154.14z M261.62,164.77l5.59-6.83
		c2.93,2.71,4.59,6.52,4.58,10.51c0,1.95-0.39,3.88-1.14,5.67l-7.88-3.98c0.19-0.55,0.28-1.13,0.27-1.71
		c-0.01-1.38-0.54-2.71-1.49-3.72L261.62,164.77z"/>
	<path class="st0" d="M304.91,167.65h-7.72c-3.21,0-5.81-2.6-5.81-5.81v-1.43c0-3.21,2.6-5.81,5.81-5.81h7.72
		c3.21,0,5.81,2.6,5.81,5.81v1.43C310.72,165.05,308.12,167.65,304.91,167.65z"/>
	<path class="st5" d="M307.78,180.72h-27.44c-1.63,0-2.96-1.32-2.96-2.96v-0.73c0-1.63,1.32-2.96,2.96-2.96h27.44
		c1.63,0,2.96,1.32,2.96,2.96v0.73C310.74,179.4,309.41,180.72,307.78,180.72z"/>
	<path class="st0" d="M296.22,192.97h-30.24c-0.86,0-1.55-0.7-1.55-1.55v-0.39c0-0.86,0.7-1.55,1.55-1.55h30.24
		c0.86,0,1.55,0.7,1.55,1.55v0.39C297.77,192.27,297.07,192.97,296.22,192.97z"/>
	<path class="st0" d="M258.94,192.97h-0.39c-0.86,0-1.55-0.7-1.55-1.55v-0.39c0-0.86,0.7-1.55,1.55-1.55h0.39
		c0.86,0,1.55,0.7,1.55,1.55v0.39C260.5,192.27,259.8,192.97,258.94,192.97z"/>
	<rect x="44.96" y="150.28" class="st4" width="75.34" height="45.63"/>
	<rect x="44.96" y="186.53" class="st5" width="75.34" height="9.4"/>
	<path class="st0" d="M110.16,167.65h-7.72c-3.21,0-5.81-2.6-5.81-5.81v-1.43c0-3.21,2.6-5.81,5.81-5.81h7.72
		c3.21,0,5.81,2.6,5.81,5.81v1.43C115.97,165.05,113.37,167.65,110.16,167.65z"/>
	<rect x="48.77" y="154.07" class="st3" width="6.82" height="28.67"/>
	<rect x="56.49" y="167.04" class="st3" width="6.82" height="15.68"/>
	<rect x="64.19" y="162.63" class="st3" width="6.82" height="20.11"/>
	<rect x="71.92" y="174.06" class="st3" width="6.82" height="8.68"/>
	<path class="st5" d="M113.02,180.72H85.58c-1.63,0-2.96-1.32-2.96-2.96v-0.73c0-1.63,1.32-2.96,2.96-2.96h27.44
		c1.63,0,2.96,1.32,2.96,2.96v0.73C115.97,179.4,114.65,180.72,113.02,180.72z"/>
	<path class="st0" d="M101.43,192.97H71.2c-0.86,0-1.55-0.7-1.55-1.55v-0.39c0-0.86,0.7-1.55,1.55-1.55h30.24
		c0.86,0,1.55,0.7,1.55,1.55v0.39C102.99,192.27,102.29,192.97,101.43,192.97z"/>
	<path class="st0" d="M64.19,192.97H63.8c-0.86,0-1.55-0.7-1.55-1.55v-0.39c0-0.86,0.7-1.55,1.55-1.55h0.39
		c0.86,0,1.55,0.7,1.55,1.55v0.39C65.75,192.27,65.05,192.97,64.19,192.97z"/>
	<polyline class="st6" points="129.96,38.28 132.65,38.28 136.52,42.16 138.32,42.16 142.79,45.13 145.48,40.08 147.71,42.76 
		149.49,43.05 	"/>
	<polyline class="st6" points="129.96,50.51 132.27,50.51 134.44,52.29 138.83,52.29 143.24,51.92 146.21,54.68 147.63,57.67 
		149.49,58.34 	"/>
	<polyline class="st6" points="129.96,63.33 134.06,63.33 136.61,68.84 138.69,66.91 141,70.33 142.79,64.3 145.32,63.33 
		147.94,66.01 149.49,70.93 	"/>
	<polyline class="st6" points="129.96,76.6 131.91,78.24 134.29,75.85 136.46,76.45 139.05,79.35 141.22,83.83 143.17,83.83 
		145.63,81.81 149.49,82.94 	"/>
	<polyline class="st6" points="129.96,88.3 132.2,93.97 134.73,93.07 138.69,96.79 140.93,92.56 143.02,95.08 145.63,90.23 
		147.94,93.6 149.49,91.51 	"/>
	<polyline class="st6" points="129.96,103.51 132.05,106.12 133.84,102.99 136.61,101.05 141,107.54 145.17,104.29 148.16,105.68 
		149.49,109.47 	"/>
	<polyline class="st6" points="129.96,121.7 132.58,120.5 136.46,116.69 138.61,116.69 143.24,119.21 145.25,114.25 147.63,114.25 
		149.49,116.47 	"/>
	<path class="st7" d="M158.22,39.33h19.61c1.17,0,2.12,0.95,2.12,2.12v0.53c0,1.17-0.95,2.12-2.12,2.12h-19.61
		c-1.17,0-2.12-0.95-2.12-2.12v-0.53C156.1,40.27,157.05,39.33,158.22,39.33z"/>
	<path class="st8" d="M276.18,39.33h12.76c1.17,0,2.12,0.95,2.12,2.12v0.53c0,1.17-0.95,2.12-2.12,2.12h-12.76
		c-1.17,0-2.12-0.95-2.12-2.12v-0.53C274.06,40.27,275.01,39.33,276.18,39.33z"/>
	<path class="st8" d="M276.18,52.04h12.76c1.17,0,2.12,0.95,2.12,2.12v0.53c0,1.17-0.95,2.12-2.12,2.12h-12.76
		c-1.17,0-2.12-0.95-2.12-2.12v-0.53C274.06,52.98,275.01,52.04,276.18,52.04z"/>
	<path class="st8" d="M276.18,64.74h12.76c1.17,0,2.12,0.95,2.12,2.12v0.53c0,1.17-0.95,2.12-2.12,2.12h-12.76
		c-1.17,0-2.12-0.95-2.12-2.12v-0.53C274.06,65.69,275.01,64.74,276.18,64.74z"/>
	<path class="st8" d="M276.18,77.45h12.76c1.17,0,2.12,0.95,2.12,2.12v0.53c0,1.17-0.95,2.12-2.12,2.12h-12.76
		c-1.17,0-2.12-0.95-2.12-2.12v-0.53C274.06,78.4,275.01,77.45,276.18,77.45z"/>
	<path class="st8" d="M276.18,90.16h12.76c1.17,0,2.12,0.95,2.12,2.12v0.53c0,1.17-0.95,2.12-2.12,2.12h-12.76
		c-1.17,0-2.12-0.95-2.12-2.12v-0.53C274.06,91.11,275.01,90.16,276.18,90.16z"/>
	<path class="st8" d="M276.18,102.87h12.76c1.17,0,2.12,0.95,2.12,2.12v0.53c0,1.17-0.95,2.12-2.12,2.12h-12.76
		c-1.17,0-2.12-0.95-2.12-2.12v-0.53C274.06,103.82,275.01,102.87,276.18,102.87z"/>
	<path class="st8" d="M276.18,115.58h12.76c1.17,0,2.12,0.95,2.12,2.12v0.53c0,1.17-0.95,2.12-2.12,2.12h-12.76
		c-1.17,0-2.12-0.95-2.12-2.12v-0.53C274.06,116.53,275.01,115.58,276.18,115.58z"/>
	<path class="st9" d="M298.39,39.33h14.55c1.17,0,2.12,0.95,2.12,2.12v0.53c0,1.17-0.95,2.12-2.12,2.12h-14.55
		c-1.17,0-2.12-0.95-2.12-2.12v-0.53C296.27,40.27,297.22,39.33,298.39,39.33z"/>
	<path class="st9" d="M298.39,52.04h14.55c1.17,0,2.12,0.95,2.12,2.12v0.53c0,1.17-0.95,2.12-2.12,2.12h-14.55
		c-1.17,0-2.12-0.95-2.12-2.12v-0.53C296.27,52.98,297.22,52.04,298.39,52.04z"/>
	<path class="st9" d="M298.39,64.74h14.55c1.17,0,2.12,0.95,2.12,2.12v0.53c0,1.17-0.95,2.12-2.12,2.12h-14.55
		c-1.17,0-2.12-0.95-2.12-2.12v-0.53C296.27,65.69,297.22,64.74,298.39,64.74z"/>
	<path class="st9" d="M298.39,77.45h14.55c1.17,0,2.12,0.95,2.12,2.12v0.53c0,1.17-0.95,2.12-2.12,2.12h-14.55
		c-1.17,0-2.12-0.95-2.12-2.12v-0.53C296.27,78.4,297.22,77.45,298.39,77.45z"/>
	<path class="st9" d="M298.39,90.16h14.55c1.17,0,2.12,0.95,2.12,2.12v0.53c0,1.17-0.95,2.12-2.12,2.12h-14.55
		c-1.17,0-2.12-0.95-2.12-2.12v-0.53C296.27,91.11,297.22,90.16,298.39,90.16z"/>
	<path class="st9" d="M298.39,102.87h14.55c1.17,0,2.12,0.95,2.12,2.12v0.53c0,1.17-0.95,2.12-2.12,2.12h-14.55
		c-1.17,0-2.12-0.95-2.12-2.12v-0.53C296.27,103.82,297.22,102.87,298.39,102.87z"/>
	<path class="st9" d="M298.39,115.58h14.55c1.17,0,2.12,0.95,2.12,2.12v0.53c0,1.17-0.95,2.12-2.12,2.12h-14.55
		c-1.17,0-2.12-0.95-2.12-2.12v-0.53C296.27,116.53,297.22,115.58,298.39,115.58z"/>
	<path class="st7" d="M158.22,52.04h10.68c1.17,0,2.12,0.95,2.12,2.12v0.53c0,1.17-0.95,2.12-2.12,2.12h-10.68
		c-1.17,0-2.12-0.95-2.12-2.12v-0.53C156.1,52.98,157.05,52.04,158.22,52.04z"/>
	<path class="st7" d="M158.22,64.74h38.69c1.17,0,2.12,0.95,2.12,2.12v0.53c0,1.17-0.95,2.12-2.12,2.12h-38.69
		c-1.17,0-2.12-0.95-2.12-2.12v-0.53C156.1,65.69,157.05,64.74,158.22,64.74z"/>
	<path class="st7" d="M158.22,77.45h42.43c1.17,0,2.12,0.95,2.12,2.12v0.53c0,1.17-0.95,2.12-2.12,2.12h-42.43
		c-1.17,0-2.12-0.95-2.12-2.12v-0.53C156.1,78.4,157.05,77.45,158.22,77.45z"/>
	<path class="st7" d="M158.22,90.16h39.44c1.17,0,2.12,0.95,2.12,2.12v0.53c0,1.17-0.95,2.12-2.12,2.12h-39.44
		c-1.17,0-2.12-0.95-2.12-2.12v-0.53C156.1,91.11,157.05,90.16,158.22,90.16z"/>
	<path class="st7" d="M158.22,102.87h43.48c1.17,0,2.12,0.95,2.12,2.12v0.53c0,1.17-0.95,2.12-2.12,2.12h-43.48
		c-1.17,0-2.12-0.95-2.12-2.12v-0.53C156.1,103.82,157.05,102.87,158.22,102.87z"/>
	<path class="st7" d="M158.22,115.58h32.88c1.17,0,2.12,0.95,2.12,2.12v0.53c0,1.17-0.95,2.12-2.12,2.12h-32.88
		c-1.17,0-2.12-0.95-2.12-2.12v-0.53C156.1,116.53,157.05,115.58,158.22,115.58z"/>
	<rect x="256.69" y="37.33" class="st3" width="12.11" height="8.76"/>
	<rect x="254.94" y="50.04" class="st3" width="13.87" height="8.76"/>
	<rect x="253.41" y="62.75" class="st3" width="15.39" height="8.76"/>
	<rect x="249.99" y="88.17" class="st3" width="18.83" height="8.76"/>
	<rect x="259.39" y="100.88" class="st3" width="9.41" height="8.76"/>
	<rect x="244.25" y="113.59" class="st3" width="24.57" height="8.76"/>
	<rect x="210.03" y="37.33" class="st4" width="25.68" height="8.76"/>
	<rect x="235.71" y="37.33" class="st10" width="20.98" height="8.76"/>
	<rect x="210.03" y="50.04" class="st4" width="31.6" height="8.76"/>
	<rect x="241.64" y="50.04" class="st10" width="13.31" height="8.76"/>
	<rect x="210.03" y="62.75" class="st4" width="31.6" height="8.76"/>
	<rect x="241.64" y="62.75" class="st10" width="11.77" height="8.76"/>
	<rect x="210.03" y="75.46" class="st4" width="47.03" height="8.76"/>
	<rect x="257.06" y="75.46" class="st10" width="6.27" height="8.76"/>
	<rect x="210.03" y="88.17" class="st4" width="17.44" height="8.76"/>
	<rect x="227.47" y="88.17" class="st10" width="22.52" height="8.76"/>
	<rect x="210.03" y="100.88" class="st4" width="39.96" height="8.76"/>
	<rect x="249.99" y="100.88" class="st10" width="9.41" height="8.76"/>
	<rect x="210.03" y="113.59" class="st4" width="18.86" height="8.76"/>
	<rect x="228.89" y="113.59" class="st10" width="15.36" height="8.76"/>
	<rect x="203.83" y="171" class="st4" width="7.62" height="24.91"/>
	<rect x="192.78" y="165.26" class="st8" width="7.62" height="30.65"/>
	<rect x="214.88" y="159.21" class="st8" width="7.62" height="36.69"/>
	<rect x="181.73" y="165.26" class="st4" width="7.62" height="30.65"/>
	<rect x="170.67" y="150.3" class="st8" width="7.62" height="45.63"/>
	<rect x="159.6" y="179" class="st4" width="7.62" height="16.91"/>
	<rect x="148.55" y="157.16" class="st8" width="7.62" height="38.74"/>
	<rect x="137.5" y="177.61" class="st4" width="7.62" height="18.3"/>
	<path class="st3" d="M53.62,37.33h39.77c4.78,0,8.66,3.88,8.66,8.66v2.15c0,4.78-3.88,8.66-8.66,8.66H53.62
		c-4.78,0-8.66-3.88-8.66-8.66v-2.15C44.96,41.2,48.84,37.33,53.62,37.33z"/>
	<path class="st4" d="M48.67,61.19h49.68c2.05,0,3.71,1.66,3.71,3.71v0.91c0,2.05-1.66,3.71-3.71,3.71H48.67
		c-2.05,0-3.71-1.66-3.71-3.71V64.9C44.96,62.85,46.62,61.19,48.67,61.19z"/>
	<path class="st3" d="M150.87,134.02h49.68c2.05,0,3.71,1.66,3.71,3.71v0.91c0,2.05-1.66,3.71-3.71,3.71h-49.68
		c-2.05,0-3.71-1.66-3.71-3.71v-0.91C147.17,135.68,148.83,134.02,150.87,134.02z"/>
	<path class="st4" d="M243.41,134.02h49.68c2.05,0,3.71,1.66,3.71,3.71v0.91c0,2.05-1.66,3.71-3.71,3.71h-49.68
		c-2.05,0-3.71-1.66-3.71-3.71v-0.91C239.71,135.68,241.37,134.02,243.41,134.02z"/>
	<rect x="44.96" y="117" class="st4" width="79.5" height="1.91"/>
	<path class="st11" d="M46.8,80.15h31.21c1.02,0,1.84,0.83,1.84,1.84v0.48c0,1.02-0.83,1.84-1.84,1.84H46.8
		c-1.02,0-1.84-0.83-1.84-1.84V82C44.96,80.98,45.78,80.15,46.8,80.15z"/>
	<path class="st11" d="M46.8,86.22h31.21c1.02,0,1.84,0.83,1.84,1.84v0.48c0,1.02-0.83,1.84-1.84,1.84H46.8
		c-1.02,0-1.84-0.83-1.84-1.84v-0.48C44.96,87.04,45.78,86.22,46.8,86.22z"/>
	<path class="st11" d="M46.8,92.3h31.21c1.02,0,1.84,0.83,1.84,1.84v0.48c0,1.02-0.83,1.84-1.84,1.84H46.8
		c-1.02,0-1.84-0.83-1.84-1.84v-0.48C44.96,93.13,45.78,92.3,46.8,92.3z"/>
	<path class="st11" d="M46.8,98.36h31.21c1.02,0,1.84,0.83,1.84,1.84v0.48c0,1.02-0.83,1.84-1.84,1.84H46.8
		c-1.02,0-1.84-0.83-1.84-1.84v-0.48C44.96,99.19,45.78,98.36,46.8,98.36z"/>
	<path class="st11" d="M46.8,104.45h24.86c1.02,0,1.84,0.83,1.84,1.84v0.48c0,1.02-0.83,1.84-1.84,1.84H46.8
		c-1.02,0-1.84-0.83-1.84-1.84v-0.48C44.96,105.27,45.78,104.45,46.8,104.45z"/>
	<path class="st9" d="M118.55,105.92l-5.53-6.75c-0.6,0.35-1.26,0.58-1.95,0.67v8.76C113.77,108.43,116.36,107.5,118.55,105.92z
		 M108.76,89.04c0.47-0.12,0.96-0.19,1.45-0.19c1.78,0,3.45,0.86,4.48,2.31l7.82-3.95c-3.51-5.97-10.8-8.57-17.31-6.17L108.76,89.04
		z M109.34,108.61v-8.76c-3.01-0.46-5.08-3.27-4.62-6.29c0.24-1.57,1.14-2.95,2.47-3.81l-3.55-7.99c-6.99,3.6-9.73,12.18-6.13,19.17
		C99.82,105.4,104.32,108.33,109.34,108.61z M114.35,98.06l5.55,6.83c4.43-4.09,5.8-10.53,3.42-16.08l-7.81,3.95
		c0.59,1.86,0.15,3.89-1.14,5.35L114.35,98.06z"/>
	<circle class="st7" cx="51.31" cy="134.02" r="6.35"/>
	<circle class="st8" cx="68" cy="134.02" r="6.35"/>
	<circle class="st9" cx="84.71" cy="134.02" r="6.35"/>
	<circle class="st11" cx="101.4" cy="134.02" r="6.35"/>
	<circle class="st3" cx="118.11" cy="134.02" r="6.35"/>
	<path class="st12" d="M172.28,291.33h-7.65c0,0-1.35,6.3,0,7.65c1.35,1.35,6.3,1.35,7.65,0
		C173.63,297.64,172.28,291.33,172.28,291.33z"/>
	<path class="st1" d="M172.28,290.1h-7.65c0,0-1.35,6.3,0,7.65s6.3,1.35,7.65,0S172.28,290.1,172.28,290.1z"/>
	<path class="st12" d="M187.74,291.33h7.65c0,0,1.35,6.3,0,7.65c-1.35,1.35-6.3,1.35-7.65,0
		C186.39,297.64,187.74,291.33,187.74,291.33z"/>
	<path class="st1" d="M187.74,290.1h7.65c0,0,1.35,6.3,0,7.65s-6.3,1.35-7.65,0S187.74,290.1,187.74,290.1z"/>
	<path class="st13" d="M197.37,173.14c-0.17-1.61-0.34-2.92-0.51-3.91l0,0c-0.67-4.01-33.06-4.01-33.72,0l0,0
		c-0.17,0.99-0.32,2.31-0.51,3.91c-2.43,22.31-5.55,99.85,0.51,116.4c0.29,0.55,0.78,0.98,1.37,1.2c0.67,0.28,1.38,0.48,2.1,0.6
		c1.63,0.27,3.29,0.27,4.92,0c0.31-0.06,0.62-0.14,0.92-0.24c1.02-0.32,1.71-0.85,1.71-1.55c-0.39-11.55,4.61-62.44,5.12-86.51l0,0
		c0.22-0.7,0.51-1.04,0.79-1.02l0,0c0.29,0,0.58,0.32,0.8,1.02l0,0c0.48,24.07,5.48,74.96,5.12,86.51c0,0.7,0.65,1.23,1.71,1.55
		c0.3,0.1,0.61,0.18,0.92,0.24c1.63,0.27,3.29,0.27,4.92,0c0.72-0.11,1.43-0.31,2.1-0.6c0.59-0.21,1.08-0.64,1.37-1.2
		C202.93,272.99,199.82,195.45,197.37,173.14z"/>
	<path class="st5" d="M197.6,175.67c-11.07-5.67-24.2-5.67-35.28,0c0.09-0.91,0.17-1.71,0.26-2.55c0.19-1.59,0.34-2.9,0.51-3.89l0,0
		c0.67-4.01,33.06-4.01,33.72,0l0,0c0.17,0.99,0.34,2.31,0.51,3.89C197.46,173.91,197.6,174.76,197.6,175.67z"/>
	<path class="st14" d="M186.68,98.74c-0.61,1.09-1.84,1.71-4.1,1.79c-3.95,0.17-7.45-1.23-7.81-5.86c-0.36-4.63,1.13-8.7,6.15-9.02
		c4.51-0.31,5.55,1.71,5.93,4.78c0.12,0.91,0.17,1.91,0.26,2.97c0,0.1,0,0.2,0,0.31C187.41,95.4,187.27,97.13,186.68,98.74z"/>
	<path class="st5" d="M186.68,98.74c-0.61,1.09-1.84,1.71-4.1,1.79c-3.91-0.55-2.08-5.12,2.31-2.72
		C185.5,98.18,185.76,99.36,186.68,98.74z"/>
	<path class="st15" d="M187.11,93.41c-0.16-0.06-0.31-0.13-0.44-0.22c-0.72-0.43-0.96-1.36-0.53-2.08c0.02-0.03,0.04-0.06,0.06-0.09
		c0.16-0.26,0.39-0.46,0.67-0.58C186.97,91.34,187.02,92.35,187.11,93.41z"/>
	<polygon class="st16" points="185.93,90.11 185.93,93.27 185.21,94.14 184.54,91.57 	"/>
	<polygon class="st5" points="185.93,90.11 185.93,93.27 185.21,94.14 184.54,91.57 	"/>
	<path class="st14" d="M188.52,113.81c-1.98-0.6-2.75-3.72-3.3-5.72c-0.55-2-0.21-13.94-0.21-13.94l-10.25,0.31
		c0,0-0.21,11.58-0.5,13.53c-0.17,1.16-1.54,5.53-3.5,6.42C172.59,116.85,187.17,116.16,188.52,113.81z"/>
	<path class="st15" d="M184.54,95.82c0.16-0.08,0.3-0.18,0.43-0.31c0.76-0.91,0.94-2.18,0.44-3.26c-0.13-0.34-0.35-0.64-0.63-0.87
		C184.66,92.78,184.61,94.26,184.54,95.82z"/>
	<path class="st3" d="M185.45,91.07c2.25-4.19,2-9.28-0.65-13.22c-1.84-2.39-3.42,1.71-6.83,1.33c-4.66,0.08-8.39,3.88-8.39,8.54
		c0.19,5.5,3.59,7.43,5.12,12.47c0.31,1.25,6.95,1.04,8.75-0.85C185.84,97.22,183.81,93.32,185.45,91.07z"/>
	<path class="st5" d="M183.47,99.29c-1.71,1.9-8.44,2.1-8.75,0.85c-0.56-1.63-1.31-3.18-2.24-4.63c2.58,2.25,8.54,1.14,10.97-0.75
		c0.55-0.32,1-0.78,1.3-1.33C184.63,95.48,185.14,97.83,183.47,99.29z"/>
	<path class="st14" d="M168.64,170.51c0,1.06-1.49,1.71-2.89,1.71c-1.56,0.02-3.06,0.63-4.19,1.71c-1.29,0.98-2.76,1.68-4.32,2.08
		c-1.37,1.39-3.61,1.41-5,0.04c-0.01-0.01-0.03-0.03-0.04-0.04l-0.99-0.75c1.04,0.8,2.87-0.41,5.12-1.95
		c1.44-0.83,1.94-2.66,1.11-4.1c-0.07-0.12-0.14-0.23-0.23-0.34l2.27-0.89l2.53-2.27l0.26,2.29c0.09,0.84,0.85,1.45,1.69,1.36
		c0.1-0.01,0.21-0.03,0.3-0.06c1.52-0.24,4.15-0.41,4.36,0.84C168.66,170.25,168.66,170.38,168.64,170.51z"/>
	<path class="st14" d="M191.36,170.51c0.1,1.06,1.5,1.71,2.9,1.71c1.56,0.02,3.05,0.63,4.17,1.71c1.29,0.97,2.76,1.68,4.32,2.08
		c1.35,1.42,3.58,1.47,5,0.13c0.04-0.04,0.08-0.08,0.13-0.13l0.99-0.75c-1.04,0.8-2.87-0.41-5.12-1.95
		c-1.44-0.83-1.94-2.66-1.11-4.1c0.07-0.12,0.14-0.23,0.23-0.34l-2.27-0.89l-2.61-2.27c0,0-0.21,1.83-0.24,2.29
		c-0.11,0.86-0.9,1.47-1.76,1.35c-0.09-0.01-0.17-0.03-0.25-0.05c-1.5-0.24-4.13-0.41-4.34,0.84
		C191.36,170.25,191.36,170.38,191.36,170.51z"/>
	<path class="st1" d="M221.2,142.39c-4.81-8.07-10.43-15.63-16.78-22.57l-15.37-6.51l-2.17-3.86c-2.21-0.53-4.46-0.83-6.73-0.89
		h-0.12c-2.27,0.06-4.52,0.36-6.73,0.89l-2.17,3.86l-15.49,6.51c-6.34,6.93-11.96,14.49-16.76,22.57
		c-3.02,5.22-3.34,11.58-0.87,17.08c3.11,6.23,7.66,11.64,13.27,15.77l0,0c1.04,0.8,2.87-0.41,5.12-1.95
		c1.44-0.83,1.94-2.66,1.11-4.1c-0.07-0.12-0.14-0.23-0.23-0.34c-1.56-1.26-2.94-2.72-4.12-4.34c-6.06-8.2-4.41-19.74,3.71-25.92
		l0.17-0.14c1.38,3.99,2.11,8.17,2.17,12.39c0,5.43-0.94,11.05,2.89,14.88l0.26,2.29c0.05,0.53,0.38,0.98,0.85,1.21
		c0.37,0.11,0.77,0.11,1.14,0c1.52-0.24,4.15-0.41,4.36,0.84c0.02,0.12,0.02,0.24,0,0.36c2.07,0.84,4.1-0.7,11.31-0.7h0.12
		c7.21,0,9.24,1.54,11.29,0.7c-0.01-0.12-0.01-0.24,0-0.36c0.21-1.25,2.84-1.08,4.34-0.84c0.37,0.11,0.77,0.11,1.14,0
		c0.48-0.23,0.81-0.69,0.87-1.21c0-0.46,0.24-2.29,0.24-2.29c3.83-3.83,2.89-9.45,2.89-14.88c0.06-4.22,0.79-8.4,2.17-12.39
		l0.19,0.14c8.12,6.17,9.77,17.72,3.71,25.92c-1.21,1.65-2.65,3.13-4.27,4.39c-1.01,1.32-0.77,3.2,0.55,4.22
		c0.11,0.08,0.22,0.16,0.34,0.23c2.27,1.54,4.1,2.75,5.12,1.95l0,0c5.6-4.13,10.15-9.54,13.26-15.77
		C224.53,154.02,224.23,147.63,221.2,142.39z"/>
	<path class="st17" d="M180.82,198.76v4.22c-0.22-0.7-0.51-1.04-0.8-1.02c-0.29,0.02-0.56,0.32-0.79,1.02l0,0v-4.27
		c0.01-0.45,0.37-0.81,0.82-0.82C180.5,197.92,180.85,198.31,180.82,198.76C180.82,198.76,180.82,198.76,180.82,198.76z"/>
	<path class="st5" d="M168.55,170.73c-0.54,1.04-1.69,1.63-2.85,1.47c-1.56,0.02-3.06,0.63-4.19,1.71
		c-1.29,0.98-2.76,1.68-4.32,2.08c-1.37,1.39-3.61,1.41-5,0.04c-0.01-0.01-0.03-0.03-0.04-0.04l-0.99-0.75
		c1.04,0.8,2.87-0.41,5.12-1.95c0.86-0.51,1.42-1.41,1.5-2.41c0.77,0.67,1.86,0.82,2.78,0.38
		C162.11,170.83,167.8,172.35,168.55,170.73z"/>
	<path class="st5" d="M191.39,170.73c0.55,1.05,1.7,1.64,2.87,1.47c1.56,0.02,3.05,0.63,4.17,1.71c1.29,0.97,2.76,1.68,4.32,2.08
		c1.35,1.42,3.58,1.47,5,0.13c0.04-0.04,0.08-0.08,0.13-0.13l0.99-0.75c-1.04,0.8-2.87-0.41-5.12-1.95
		c-0.86-0.51-1.42-1.41-1.5-2.41c-0.77,0.67-1.86,0.82-2.78,0.38C197.9,170.83,192.21,172.35,191.39,170.73z"/>
	<g class="st18">
		<path d="M150.26,147.97c1.13-3.74,3.42-7.03,6.54-9.38l0.17-0.14c-0.46-1.64-0.82-3.31-1.09-4.99
			C151.08,139.18,149.88,143.99,150.26,147.97z"/>
		<path d="M204.12,133.47c-0.27,1.68-0.63,3.35-1.09,4.99l0.19,0.14c3.11,2.36,5.4,5.64,6.54,9.38
			C210.13,143.99,208.92,139.18,204.12,133.47z"/>
		<path d="M180,112.44L180,112.44c2.98,0.12,5.95,0.42,8.9,0.87l-2.17-3.86c-2.21-0.53-4.46-0.83-6.73-0.89h-0.12
			c-2.27,0.06-4.52,0.36-6.73,0.89l-2.17,3.86c2.95-0.46,5.92-0.75,8.9-0.87H180z"/>
		<path d="M204.63,120.56L204.63,120.56c-8.14-1.23-16.34-2-24.57-2.29h-0.12c-8.23,0.29-16.43,1.06-24.57,2.29l0,0
			c0,0.29,17.49-2.03,24.55-2.03h0.14C187.12,118.52,204.69,120.85,204.63,120.56z"/>
	</g>
</g>
</svg>
