<?xml version="1.0" encoding="utf-8"?>
<!-- Generator: Adobe Illustrator 23.0.1, SVG Export Plug-In . SVG Version: 6.00 Build 0)  -->
<svg version="1.0" xmlns="http://www.w3.org/2000/svg" xmlns:xlink="http://www.w3.org/1999/xlink" x="0px" y="0px"
	 viewBox="0 0 1920 750" style="enable-background:new 0 0 1920 750;" xml:space="preserve">
<style type="text/css">
	.st0{fill:#8BEBFF;}
	.st1{fill:#34E0FF;}
	.st2{fill:#FFFFFF;}
	.st3{display:none;}
	.st4{display:inline;}
	.st5{opacity:0.12;fill:#00CCFF;}
	.st6{opacity:0.25;fill:#00CCFF;}
	.st7{fill:#33CCFF;}
	.st8{fill:#00236E;}
	.st9{fill:#8270E4;}
	.st10{fill:#25274D;}
	.st11{fill:#103FCD;}
	.st12{fill:#DB4990;}
	.st13{fill:#00CCFF;}
	.st14{fill:#0D1D7E;}
	.st15{fill:#E4F9FF;}
	.st16{fill:#ACEFFF;}
	.st17{opacity:0.1;enable-background:new    ;}
	.st18{opacity:0.3;enable-background:new    ;}
	.st19{fill:#00B4FF;}
	.st20{fill:#5D589D;}
	.st21{fill:#F5CFBF;}
	.st22{fill:#0D232B;}
	.st23{fill:#F29D9D;}
	.st24{fill:#BD422A;}
	.st25{fill:#C3B9DD;}
	.st26{opacity:0.45;fill:#FFFFFF;enable-background:new    ;}
	.st27{fill:#233182;}
	.st28{fill:#5F5F72;}
	.st29{fill:#171733;}
	.st30{fill:#F6D5C7;}
</style>
<g id="Layer_3">
	<rect x="1" class="st0" width="1919" height="750"/>
</g>
<g id="Layer_7">
</g>
<g id="Layer_6">
</g>
<g id="Layer_5">
	<path class="st1" d="M0,0v412.36C444.76,958.4,1133.98,635.06,1161,0H0z"/>
	<path class="st2" d="M0.35,0L0,514.59C597.31,806.29,1208.14,535.11,1114.94,0H0.35z"/>
</g>
<g id="Layer_1" class="st3">
	<g class="st4">
		<path class="st5" d="M885.16,518.37c0.07,39.84-18.78,77.36-50.8,101.07c-21.25,15.8-47.03,24.31-73.51,24.28
			c-3.15,0-6.26-0.12-9.31-0.36c-5.12-0.39-10.22-1.12-15.24-2.18c-9.24,16.51-23.38,29.74-40.48,37.86
			c-12.1,5.75-25.33,8.73-38.73,8.72c-13.77-0.05-27.36-3.16-39.78-9.09c-1.29,3.02-2.72,5.96-4.28,8.82
			c-8.44,15.48-20.66,28.58-35.51,38.08c-48.27,30.68-112.27,16.42-142.96-31.85c-3.95-6.21-7.22-12.82-9.77-19.73
			c-6.48,1.36-13.08,2.07-19.7,2.12c-14.93-0.09-29.63-3.64-42.96-10.37c-48.17-24.53-67.33-83.46-42.8-131.63
			c8.45-16.59,21.45-30.42,37.48-39.88c-1.38-3.15-2.59-6.38-3.67-9.68c-19.08-58.81,13.13-121.94,71.93-141.02
			c45.23-14.67,94.8,0.83,123.6,38.66c7.07-7.48,15.25-13.83,24.26-18.81c1.66-0.92,3.36-1.8,5.09-2.62
			c13.64-6.56,28.58-9.95,43.71-9.92c38.12,0,71.15,21.18,88.95,52.74c15.81-6.97,32.9-10.58,50.18-10.6
			c38.34,0.01,74.5,17.8,97.91,48.16c17.17,22.08,26.46,49.27,26.4,77.25L885.16,518.37z"/>
		<path class="st6" d="M880.59,484.55c-4.38-15.76-11.79-30.52-21.83-43.43c-0.64-0.82-1.29-1.65-1.96-2.47
			c-0.38-0.46-0.76-0.91-1.14-1.36c-0.29-0.35-0.57-0.69-0.87-1.03c-0.44-0.51-0.89-1.02-1.34-1.53l-0.72-0.81
			c-0.48-0.53-0.97-1.06-1.46-1.58l-0.65-0.7c-0.51-0.54-1.03-1.07-1.56-1.61l-0.62-0.62c-0.54-0.54-1.09-1.08-1.65-1.62
			c-0.18-0.18-0.36-0.35-0.55-0.52c-0.57-0.55-1.15-1.1-1.74-1.64l-0.47-0.43c-0.62-0.56-1.23-1.12-1.85-1.66l-0.28-0.23
			c-0.62-0.56-1.27-1.11-1.92-1.65l0,0c-18.23-15.25-40.49-24.9-64.08-27.78v53.39h80.64c3.33,6.84,6.03,13.97,8.07,21.3
			c1.44,5.24,2.55,10.56,3.31,15.94h-59.66v77.35h46.06c-5.38,10.06-12.11,19.33-20,27.57v-11.64h-82.79v49.8
			c-2.2,0.12-4.4,0.2-6.63,0.2c-3.16,0-6.26-0.12-9.31-0.36c-5.12-0.4-10.22-1.13-15.24-2.18c-6.14,10.98-14.5,20.57-24.54,28.16
			V622.7h-82.84v44.65c-3.98-1.28-7.88-2.83-11.66-4.62c-1.29,3.02-2.72,5.96-4.28,8.82c-5.76,10.57-13.31,20.06-22.3,28.07v-58.27
			h-82.78v77.3h51.93c-2.57,1.01-5.17,1.94-7.84,2.74c-32.68,9.88-68.14,3.02-94.78-18.33c32.99,41.2,91.72,50.91,136.21,22.51
			c14.85-9.51,27.06-22.6,35.5-38.08c1.57-2.88,3-5.82,4.28-8.82c12.43,5.94,26.03,9.05,39.81,9.09c13.4,0.01,26.63-2.97,38.73-8.72
			c17.09-8.11,31.24-21.34,40.48-37.86c5.03,1.06,10.12,1.78,15.24,2.18c3.05,0.23,6.16,0.35,9.31,0.36
			c26.48,0.03,52.27-8.48,73.52-24.28C876.12,588.32,894.48,534.75,880.59,484.55z"/>
		<polygon class="st7" points="334.75,729.69 335.09,731.77 337.3,733.93 341.45,736.12 347.62,738.37 355.85,740.67 366.13,743.01 
			378.52,745.4 392.97,747.81 409.46,750.26 427.92,752.74 448.25,755.24 470.36,757.75 494.08,760.26 519.27,762.77 545.71,765.27 
			573.2,767.73 601.51,770.15 630.38,772.54 659.55,774.87 688.74,777.15 717.69,779.35 746.1,781.48 773.73,783.53 800.31,785.51 
			763.78,782.35 745.26,780.16 728.37,778.13 710.84,776.06 692.76,773.95 674.32,771.79 655.66,769.6 636.95,767.38 618.35,765.13 
			600.04,762.86 582.16,760.57 564.89,758.27 548.36,755.96 532.71,753.66 518.07,751.35 504.54,749.07 492.2,746.79 481.15,744.54 
			471.44,742.3 463.1,740.1 456.18,737.93 450.68,735.78 446.6,733.68 443.92,731.62 443,730.18 442.61,729.58 442.65,727.59 
			443.98,725.64 446.54,723.73 450.28,721.85 455.14,720.01 461.03,718.2 467.89,716.43 475.65,714.69 484.21,712.99 493.5,711.29 
			503.44,709.63 513.95,707.99 524.95,706.37 536.37,704.76 548.13,703.18 560.13,701.6 572.31,700.02 584.61,698.44 596.94,696.88 
			609.24,695.3 621.42,693.74 633.43,692.17 645.21,690.57 630.53,691.88 613,693.36 595.4,694.85 577.73,696.32 560.11,697.79 
			542.57,699.26 525.21,700.74 508.06,702.23 491.24,703.73 474.78,705.23 458.8,706.76 443.37,708.3 428.56,709.88 414.48,711.47 
			401.2,713.11 388.85,714.78 377.49,716.48 367.25,718.22 358.2,720.01 350.49,721.85 344.18,723.73 339.4,725.66 336.22,727.65 		
			"/>
		<polygon class="st8" points="442.61,729.58 443,730.18 443.94,728.8 446.52,726.86 450.27,724.94 455.14,723.08 461.06,721.24 
			467.94,719.45 475.7,717.67 484.27,715.94 493.6,714.23 503.54,712.54 514.08,710.88 525.09,709.23 536.52,707.61 548.28,705.99 
			560.31,704.4 572.51,702.81 584.82,701.23 597.16,699.64 609.47,698.06 621.67,696.48 633.69,694.91 645.47,693.32 656.96,691.7 
			668.07,690.12 678.77,688.49 688.98,686.85 698.67,685.22 707.8,683.55 716.31,681.88 724.17,680.18 731.31,678.47 737.81,676.73 
			743.57,674.99 748.63,673.24 752.99,671.47 756.65,669.68 759.63,667.88 761.96,666.08 763.68,664.26 764.78,662.42 765.3,660.59 
			765.24,658.73 765.13,658.39 764.73,659.68 763.57,661.52 761.82,663.34 759.45,665.15 756.43,666.95 752.75,668.74 
			748.37,670.52 743.28,672.28 737.52,674.03 731.02,675.76 723.86,677.47 715.99,679.15 707.49,680.84 698.37,682.49 
			688.69,684.15 678.48,685.76 667.78,687.39 656.68,688.98 645.21,690.57 633.43,692.17 621.42,693.74 609.24,695.3 596.94,696.88 
			584.61,698.44 572.31,700.02 560.13,701.6 548.13,703.18 536.37,704.76 524.95,706.37 513.95,707.99 503.44,709.63 493.5,711.29 
			484.21,712.99 475.65,714.69 467.89,716.43 461.03,718.2 455.14,720.01 450.28,721.85 446.54,723.73 443.98,725.64 442.65,727.59 
					"/>
		<path class="st6" d="M409.01,484.55h-55.88c1.08,3.29,2.3,6.53,3.67,9.68c-12.14,7.14-22.58,16.83-30.61,28.4v39.22h82.82V484.55z
			"/>
		<path class="st6" d="M655.75,360.78h-77.74c-1.72,0.82-3.43,1.7-5.09,2.62v74.71h82.82V360.78z"/>
		<path class="st6" d="M444.95,611.59h-82.82v54.16c13.32,6.74,28.03,10.3,42.96,10.39c6.62-0.05,13.22-0.76,19.7-2.12
			c1.89,5.14,4.19,10.12,6.88,14.89h13.29V611.59z"/>
		<polygon class="st6" points="581.31,518.14 581.31,586.49 664.13,586.49 664.13,518.14 664.13,509.19 581.31,509.19 		"/>
		<path class="st6" d="M497.96,344.87c-26.92-9.73-56.52-8.86-82.82,2.41v65.86h82.82V344.87z"/>
		<polygon class="st6" points="462.5,471.85 462.5,540.2 545.33,540.2 545.33,471.85 545.33,462.9 462.5,462.9 		"/>
		<polygon class="st6" points="769.2,455.36 769.2,446.41 686.38,446.41 686.38,455.36 686.38,523.72 769.2,523.72 		"/>
		<rect x="607.04" y="625.68" class="st9" width="82.82" height="68.35"/>
		<rect x="607.03" y="616.73" class="st10" width="82.82" height="8.95"/>
		<rect x="644.21" y="647.16" class="st10" width="16.92" height="16.92"/>
		<rect x="320.22" y="487.54" class="st9" width="82.82" height="68.36"/>
		<rect x="320.22" y="478.59" class="st10" width="82.82" height="8.95"/>
		<rect x="357.38" y="501.55" class="st10" width="8.5" height="40.32"/>
		<rect x="566.96" y="363.76" class="st9" width="82.82" height="68.36"/>
		<rect x="566.96" y="354.81" class="st10" width="82.82" height="8.95"/>
		<rect x="802.34" y="487.54" class="st9" width="82.82" height="68.36"/>
		<rect x="802.34" y="478.59" class="st10" width="82.82" height="8.95"/>
		<rect x="356.17" y="614.58" class="st7" width="82.82" height="68.36"/>
		<rect x="356.17" y="605.63" class="st10" width="82.82" height="8.95"/>
		<rect x="745.58" y="580.78" class="st11" width="82.82" height="68.36"/>
		<rect x="745.58" y="571.83" class="st10" width="82.82" height="8.95"/>
		<rect x="769.97" y="372.99" class="st7" width="82.82" height="68.36"/>
		<rect x="769.97" y="364.04" class="st10" width="82.82" height="8.95"/>
		<rect x="575.34" y="512.17" class="st7" width="82.82" height="68.36"/>
		<rect x="575.34" y="503.22" class="st10" width="82.82" height="8.95"/>
		<rect x="409.17" y="338.81" class="st12" width="82.82" height="68.36"/>
		<rect x="409.17" y="329.87" class="st10" width="82.82" height="8.95"/>
		<rect x="456.53" y="465.88" class="st11" width="82.82" height="68.36"/>
		<rect x="456.53" y="456.93" class="st10" width="82.82" height="8.95"/>
		<path class="st10" d="M512.82,491.02v23.37h-29.56v-6.88C499.59,507.5,512.82,500.13,512.82,491.02z"/>
		<rect x="680.41" y="449.4" class="st12" width="82.82" height="68.36"/>
		<rect x="680.41" y="440.45" class="st10" width="82.82" height="8.95"/>
		<rect x="485.97" y="644.34" class="st12" width="82.82" height="68.36"/>
		<rect x="485.97" y="635.39" class="st10" width="82.82" height="8.95"/>
		<path class="st2" d="M374.38,509.94h-7.01v-8.39c0-0.82-0.66-1.49-1.48-1.49c0,0,0,0-0.01,0h-8.51c-0.82,0-1.49,0.67-1.49,1.49
			c0,0,0,0,0,0.01v18.42h-7c-0.82,0-1.49,0.67-1.49,1.49l0,0v20.41c0,0.82,0.66,1.49,1.48,1.49c0,0,0,0,0.01,0h25.49
			c0.83,0,1.49-0.67,1.49-1.49l0,0v-30.43C375.87,510.61,375.2,509.94,374.38,509.94C374.38,509.94,374.38,509.94,374.38,509.94z
			 M350.38,522.96h5.51v17.46h-5.51V522.96z M358.87,521.46v-18.42h5.51v37.37h-5.51V521.46z M372.89,540.41h-5.52v-27.48h5.52
			V540.41z"/>
		<path class="st2" d="M661.71,645.79c-0.18-0.08-0.38-0.12-0.57-0.12h-16.92c-0.2,0-0.39,0.04-0.57,0.12
			c-0.18,0.07-0.35,0.19-0.48,0.33l-8.46,8.45c-0.14,0.14-0.25,0.31-0.33,0.49c-0.07,0.18-0.11,0.37-0.11,0.57v16.92
			c0,0.82,0.66,1.48,1.48,1.49c0,0,0.01,0,0.01,0h16.92c0.19,0,0.39-0.04,0.57-0.11c0.18-0.08,0.35-0.19,0.49-0.33l8.46-8.46
			c0.14-0.14,0.25-0.31,0.32-0.49c0.08-0.18,0.12-0.37,0.12-0.57v-16.92c0-0.2-0.04-0.39-0.12-0.57
			C662.36,646.23,662.07,645.94,661.71,645.79z M645.71,657.11h5.48v5.48h-5.48V657.11z M652.06,654.13h-6.35v-5.48h11.83
			L652.06,654.13z M642.73,654.13h-3.37l3.37-3.37V654.13z M637.24,657.11h5.48v6.36l-5.48,5.48V657.11z M644.83,665.57h6.35v5.48
			h-11.82L644.83,665.57z M654.17,665.57h3.37l-3.37,3.37V665.57z M659.64,662.59h-5.48v-6.35l5.48-5.48L659.64,662.59z"/>
		<path class="st2" d="M613.89,418.85c0.46-0.04,0.87-0.28,1.12-0.66l6.28-9.42l4.86,3.24c0.4,0.26,0.9,0.32,1.35,0.16
			c0.45-0.17,0.79-0.54,0.91-1l10.66-38.07c0.22-0.79-0.24-1.62-1.03-1.84c-0.79-0.22-1.62,0.24-1.84,1.03l-10.11,36.11l-4.39-2.93
			c-0.69-0.45-1.61-0.27-2.07,0.41l-6.03,9.08l-18.52-19.94c-0.32-0.35-0.8-0.53-1.27-0.47c-0.48,0.06-0.9,0.34-1.13,0.77
			l-14.89,27.17c-0.39,0.72-0.13,1.62,0.59,2.01c0.01,0,0.02,0.01,0.03,0.01c0.22,0.12,0.47,0.19,0.72,0.19
			c0.54,0,1.04-0.29,1.3-0.77l13.86-25.36l18.4,19.81C613,418.71,613.44,418.88,613.89,418.85z"/>
		<path class="st2" d="M843.75,503.47c-10.08,0-18.25,8.17-18.25,18.25s8.17,18.25,18.25,18.25c10.08,0,18.25-8.17,18.25-18.25
			c0,0,0,0,0-0.01C861.99,511.64,853.83,503.48,843.75,503.47z M858.95,520.22h-13.7v-13.7
			C852.49,507.24,858.23,512.97,858.95,520.22z M843.75,536.98c-8.43,0.03-15.29-6.78-15.32-15.21
			c-0.03-7.89,5.97-14.51,13.83-15.25v15.19c0,0.83,0.67,1.49,1.49,1.49l0,0h15.2C858.17,531.02,851.6,536.97,843.75,536.98z"/>
		<path class="st2" d="M414.37,632.41h-33.59c-0.82,0-1.49,0.67-1.49,1.49v24.44c0,0.82,0.66,1.49,1.48,1.49c0,0,0,0,0.01,0h11.68
			v2.29h-7.87c-0.82,0.05-1.45,0.76-1.4,1.59c0.05,0.75,0.65,1.35,1.4,1.4h25.98c0.82,0.05,1.53-0.57,1.59-1.4
			c0.05-0.82-0.57-1.53-1.4-1.59c-0.06,0-0.13,0-0.19,0h-7.87v-2.3h11.68c0.83,0,1.49-0.67,1.49-1.49V633.9
			C415.87,633.08,415.2,632.41,414.37,632.41C414.38,632.41,414.38,632.41,414.37,632.41z M412.89,656.84h-30.61v-21.45h30.61
			L412.89,656.84z"/>
		<path class="st2" d="M808.74,625.68h-3.46v-22.94c0-0.83-0.67-1.49-1.49-1.49l0,0H770.2c-0.82,0-1.49,0.67-1.49,1.49
			c0,0,0,0,0,0.01v22.94h-3.46c-0.82-0.05-1.53,0.57-1.59,1.4c-0.05,0.82,0.57,1.53,1.4,1.59c0.06,0,0.13,0,0.19,0h43.5
			c0.82-0.05,1.45-0.76,1.4-1.59C810.09,626.32,809.49,625.72,808.74,625.68L808.74,625.68z M771.7,625.68v-21.44h30.61v21.44H771.7
			z"/>
		<path class="st2" d="M794.59,420.88h33.59c0.83,0,1.49-0.67,1.49-1.49c0,0,0,0,0,0v-20.36c0-0.83-0.67-1.49-1.49-1.49l0,0h-11.82
			l-2.57-3.46c-0.28-0.38-0.72-0.61-1.2-0.62h-17.99c-0.82,0-1.49,0.67-1.49,1.49c0,0,0,0,0,0.01v24.45
			C793.1,420.22,793.77,420.88,794.59,420.88z M796.08,396.45h15.75l2.57,3.46c0.28,0.38,0.72,0.61,1.2,0.62h11.08v17.39h-30.6
			L796.08,396.45z"/>
		<path class="st2" d="M609.64,545.11c0.01,0.82,0.67,1.48,1.49,1.48h11.27c0.82,0.05,1.53-0.57,1.59-1.4
			c0.05-0.82-0.57-1.53-1.4-1.59c-0.06,0-0.13,0-0.19,0h-11.27c-0.82,0-1.49,0.66-1.49,1.48
			C609.64,545.1,609.64,545.1,609.64,545.11z"/>
		<path class="st2" d="M622.4,548.75h-11.27c-0.83,0-1.49,0.67-1.49,1.5c0,0.82,0.67,1.49,1.49,1.49h11.27
			c0.83,0,1.49-0.67,1.49-1.5C623.9,549.42,623.23,548.75,622.4,548.75L622.4,548.75z"/>
		<path class="st2" d="M622.4,553.87h-5.61c-0.83,0-1.5,0.67-1.5,1.49c0,0.83,0.67,1.5,1.49,1.5c0,0,0,0,0,0h5.61
			c0.83,0,1.49-0.67,1.49-1.5C623.89,554.54,623.22,553.87,622.4,553.87z"/>
		<path class="st2" d="M611.13,539.07h5.25c0.82,0.05,1.53-0.57,1.59-1.4c0.05-0.82-0.57-1.53-1.4-1.59c-0.06,0-0.13,0-0.19,0h-5.25
			c-0.82,0.05-1.45,0.76-1.4,1.59C609.79,538.42,610.38,539.02,611.13,539.07z"/>
		<path class="st2" d="M629.36,538.1c0-0.05,0-0.1-0.05-0.15c-0.07-0.15-0.17-0.29-0.28-0.41l0,0l-6.88-6.88l0,0
			c-0.12-0.11-0.26-0.21-0.41-0.28c-0.05-0.02-0.11-0.04-0.17-0.06c-0.11-0.04-0.23-0.06-0.35-0.07c-0.04,0-0.07,0-0.11,0h-15.57
			c-0.82,0-1.49,0.67-1.49,1.49v29.27c0,0.82,0.66,1.49,1.48,1.49c0,0,0,0,0.01,0h22.43c0.83,0,1.49-0.67,1.49-1.49v-22.45
			c0-0.04,0-0.06,0-0.1C629.44,538.34,629.41,538.22,629.36,538.1z M626.48,559.49h-19.44V533.2h12.56v5.36
			c0,0.83,0.67,1.49,1.49,1.49h5.38L626.48,559.49z"/>
		<path class="st2" d="M459.99,356.5h-18.82c-0.82,0-1.49,0.67-1.49,1.49c0,0,0,0,0,0.01v29.99c0,0.82,0.67,1.49,1.49,1.49h18.82
			c0.82,0,1.49-0.66,1.49-1.48c0,0,0,0,0-0.01V358C461.48,357.17,460.81,356.5,459.99,356.5z M458.5,386.49h-15.84V359.5h15.84
			V386.49z"/>
		<path class="st2" d="M447.98,363.99h5.2c0.82,0.05,1.53-0.57,1.59-1.4c0.05-0.82-0.57-1.53-1.4-1.59c-0.06,0-0.13,0-0.19,0h-5.2
			c-0.82,0.05-1.45,0.76-1.4,1.59C446.63,363.35,447.23,363.94,447.98,363.99z"/>
		<path class="st2" d="M450.6,382.38c-0.88,0-1.59,0.71-1.59,1.59c0,0.88,0.71,1.59,1.59,1.59c0.88,0,1.59-0.71,1.59-1.59
			C452.19,383.09,451.48,382.38,450.6,382.38L450.6,382.38z"/>
		<path class="st2" d="M521.11,513.34l-3.09-3.09c-0.56-0.6-1.51-0.64-2.11-0.08c-0.6,0.56-0.64,1.51-0.08,2.11
			c0.03,0.03,0.05,0.05,0.08,0.08l0.52,0.52h-2.14v-21.86c0-0.83-0.67-1.49-1.49-1.49l0,0c-0.83,0-1.49,0.67-1.49,1.49
			c0,8.11-12.85,14.97-28.06,14.97c-0.82,0.01-1.49,0.68-1.49,1.5v5.4h-1.37v-26.64l0.52,0.52c0.58,0.58,1.53,0.58,2.11,0
			c0.58-0.58,0.58-1.53,0-2.11l-3.09-3.09c-0.59-0.58-1.53-0.58-2.11,0l-3.09,3.09c-0.58,0.58-0.58,1.53,0,2.11
			c0.58,0.58,1.53,0.58,2.11,0l0.52-0.52v28.14c0,0.82,0.66,1.49,1.48,1.49c0,0,0,0,0.01,0h37.55l-0.52,0.52
			c-0.56,0.6-0.53,1.55,0.08,2.11c0.57,0.53,1.46,0.53,2.03,0l3.09-3.09c0.14-0.14,0.25-0.31,0.32-0.49c0.15-0.37,0.15-0.78,0-1.14
			C521.32,513.63,521.23,513.48,521.11,513.34z M511.33,512.91h-26.58v-3.93c1.04,0,2.06-0.09,3.09-0.17l0.44-0.04
			c1.4-0.13,2.75-0.3,4.08-0.53l0.33-0.06l1.23-0.23l0.4-0.09c1.23-0.27,2.47-0.58,3.62-0.93l0.43-0.13l1-0.34l0.36-0.13
			c0.62-0.23,1.28-0.48,1.9-0.73c0.12-0.05,0.24-0.09,0.36-0.15c0.3-0.13,0.62-0.27,0.9-0.41c0.16-0.07,0.31-0.14,0.47-0.22
			l0.85-0.42l0.22-0.12c0.54-0.29,1.07-0.62,1.57-0.9l0.46-0.29l0.68-0.46c0.16-0.1,0.31-0.22,0.46-0.33
			c0.35-0.25,0.69-0.52,1.01-0.78l0.48-0.4l0.52-0.48l0.42-0.4c0.17-0.16,0.33-0.33,0.48-0.49c0.15-0.17,0.29-0.31,0.43-0.48
			s0.25-0.27,0.36-0.4L511.33,512.91z"/>
		<path class="st2" d="M736.52,476.95c-1.8,0-3.56,0.49-5.1,1.41c-2.87-6.76-10.68-9.91-17.44-7.04c-3.49,1.48-6.18,4.39-7.4,7.98
			c-4.91-0.29-9.12,3.46-9.41,8.37c-0.01,0.14-0.01,0.27-0.01,0.41c0.01,4.86,3.95,8.8,8.8,8.8h30.56
			c5.5,0.14,10.07-4.21,10.21-9.71c0.14-5.5-4.21-10.07-9.71-10.21C736.85,476.95,736.69,476.95,736.52,476.95L736.52,476.95z
			 M736.52,493.9h-30.56c-3.21,0-5.82-2.6-5.82-5.81c0-3.21,2.6-5.82,5.81-5.82c0,0,0.01,0,0.01,0c0.46,0,0.91,0.05,1.36,0.16
			c0.39,0.1,0.79,0.03,1.13-0.19c0.34-0.21,0.58-0.55,0.67-0.94c1.24-5.56,6.76-9.05,12.31-7.81c3.84,0.86,6.86,3.84,7.78,7.67
			c0.19,0.8,1,1.29,1.8,1.09c0.25-0.06,0.48-0.19,0.67-0.37c2.78-2.67,7.2-2.58,9.86,0.2c2.67,2.78,2.58,7.2-0.2,9.87
			c-1.3,1.25-3.03,1.95-4.84,1.94H736.52z"/>
		<path class="st2" d="M520.46,671.69c-0.58-0.58-1.51-0.59-2.1-0.01c0,0-0.01,0.01-0.01,0.01l-5.78,5.8
			c-0.58,0.58-0.59,1.51-0.01,2.1c0,0,0.01,0.01,0.01,0.01l5.78,5.78c0.58,0.58,1.52,0.58,2.11,0c0.58-0.58,0.58-1.52,0-2.11
			l-4.72-4.72l4.72-4.73c0.59-0.57,0.59-1.51,0.02-2.1C520.47,671.71,520.46,671.7,520.46,671.69z"/>
		<path class="st2" d="M536.42,671.69c-0.58-0.58-1.52-0.58-2.11,0s-0.58,1.52,0,2.11l4.72,4.73l-4.72,4.72
			c-0.58,0.58-0.58,1.52,0,2.11s1.52,0.58,2.11,0l5.79-5.78c0.58-0.58,0.58-1.52,0-2.11L536.42,671.69z"/>
		<path class="st2" d="M530.93,666.62c-0.79-0.22-1.61,0.22-1.85,1.01l-6.24,20.94c-0.24,0.79,0.21,1.62,1,1.85c0,0,0,0,0,0
			c0.14,0.04,0.28,0.06,0.43,0.06c0.66,0,1.24-0.43,1.43-1.07l6.25-20.94C532.18,667.68,531.73,666.85,530.93,666.62
			C530.93,666.62,530.93,666.62,530.93,666.62z"/>
		<circle class="st10" cx="593.96" cy="396.03" r="2.98"/>
		<circle class="st10" cx="613.77" cy="417.36" r="2.98"/>
		<circle class="st10" cx="626.97" cy="410.76" r="2.98"/>
		<circle class="st10" cx="620.88" cy="406.69" r="2.98"/>
		<circle class="st10" cx="637.64" cy="372.67" r="2.98"/>
		<circle class="st10" cx="579.11" cy="423.2" r="2.98"/>
		<path class="st10" d="M489.05,563.98h51.97c2.38,0,4.3,1.93,4.3,4.3v29.49c0,2.38-1.93,4.3-4.3,4.3h-51.97
			c-2.38,0-4.3-1.93-4.3-4.3v-29.49C484.75,565.91,486.68,563.98,489.05,563.98z"/>
		<polygon class="st7" points="617.74,615.19 606.93,614.17 590.15,612.61 573.91,611.14 558.32,609.74 543.47,608.44 529.48,607.2 
			516.39,606.05 504.31,604.96 493.28,603.95 483.35,603.02 474.55,602.15 466.92,601.32 460.45,600.57 455.16,599.85 
			451.07,599.19 448.12,598.57 446.32,597.98 445.64,597.42 446.02,596.88 447.46,596.37 449.89,595.85 453.27,595.37 
			457.56,594.87 462.68,594.4 468.59,593.88 475.26,593.38 482.58,592.84 484.75,592.69 490.55,592.31 499.08,591.73 508.1,591.14 
			517.6,590.53 527.48,589.87 537.7,589.18 545.33,588.67 545.33,593.43 543.35,593.85 540.21,594.67 537.7,595.47 535.84,596.3 
			534.64,597.11 534.16,597.96 534.42,598.81 535.13,599.42 535.44,599.68 537.22,600.6 539.77,601.53 541.68,602.08 543.08,602.48 
			547.18,603.48 552.01,604.52 557.58,605.6 563.85,606.72 570.78,607.89 578.33,609.12 586.43,610.38 595.04,611.72 604.12,613.1 
			613.52,614.54 		"/>
		<polygon class="st7" points="855.35,658.81 854.8,660.96 852.67,663.08 848.96,665.17 843.8,667.19 837.22,669.17 829.37,671.11 
			820.27,673.01 810.07,674.89 798.85,676.69 786.69,678.46 773.68,680.2 759.87,681.9 745.43,683.55 730.35,685.19 714.73,686.79 
			698.64,688.37 689.86,689.2 689.86,686.71 698.67,685.21 707.8,683.55 716.31,681.87 724.16,680.18 731.3,678.46 737.81,676.74 
			743.57,674.99 748.62,673.24 752.99,671.47 756.64,669.67 759.64,667.88 761.96,666.07 763.67,664.25 764.78,662.43 765.3,660.58 
			765.24,658.73 765.13,658.39 764.63,656.88 763.43,655.02 761.66,653.13 759.3,651.24 756.31,649.34 752.69,647.45 748.41,645.54 
			743.48,643.66 737.89,641.74 731.67,639.85 724.81,637.96 717.34,636.07 709.3,634.23 700.77,632.38 691.79,630.57 689.86,630.2 
			682.43,628.79 672.77,627.03 665.02,625.68 662.89,625.31 652.89,623.64 642.83,622.01 621.12,619.11 589.77,615.62 
			606.54,617.17 623.73,618.81 641.22,620.52 658.87,622.29 676.55,624.15 694.15,626.08 711.46,628.05 728.4,630.08 744.82,632.16 
			760.53,634.29 775.49,636.47 789.49,638.68 802.41,640.9 814.13,643.14 824.58,645.39 833.6,647.67 841.16,649.93 847.14,652.18 
			851.52,654.42 854.26,656.63 		"/>
		<polygon class="st7" points="773.95,787.39 776.12,787.67 790.27,789.53 803.31,791.37 815.19,793.14 825.82,794.87 
			835.21,796.58 843.31,798.22 850.12,799.85 855.64,801.44 859.85,802.99 862.79,804.52 863.98,805.6 864.44,806.02 864.84,807.5 
			864,808.97 861.93,810.43 858.67,811.88 854.21,813.32 848.58,814.76 841.81,816.2 833.9,817.66 824.91,819.13 814.84,820.61 
			803.74,822.13 791.66,823.67 834.25,819.89 860.66,817.95 878.65,816.72 895.41,815.54 910.84,814.42 924.83,813.33 
			937.23,812.28 947.95,811.25 956.83,810.25 963.79,809.25 968.71,808.25 971.48,807.25 972,806.22 970.22,805.15 966.06,804.06 
			959.51,802.91 950.55,801.7 939.21,800.45 925.49,799.1 909.53,797.69 891.34,796.19 871.15,794.6 849.06,792.93 825.25,791.16 
			799.93,789.3 		"/>
		<polygon class="st13" points="165.94,935.24 166.78,942.12 170.81,949.15 178.22,956.28 189.13,963.49 203.7,970.74 
			222.47,978.11 266.92,991.78 401.77,976.91 359.92,965.02 345.02,959.32 332.18,953.46 321.91,947.6 314.18,941.76 308.95,935.96 
			306.14,930.24 305.91,927.53 305.66,924.61 307.41,919.09 311.25,913.7 317.05,908.45 324.69,903.37 334.03,898.42 344.93,893.65 
			357.24,889.06 370.83,884.62 385.56,880.36 401.3,876.28 417.92,872.37 435.32,868.62 453.35,865.03 471.92,861.6 490.9,858.33 
			510.21,855.22 529.74,852.24 549.38,849.4 569.07,846.69 588.69,844.13 608.18,841.66 627.44,839.3 646.39,837.07 664.97,834.93 
			683.09,832.86 700.67,830.89 717.66,829.01 733.99,827.19 749.57,825.43 764.38,823.74 778.36,822.09 791.4,820.5 803.49,818.94 
			805.47,818.66 800.11,819.03 778.27,820.55 755.66,822.16 732.4,823.85 708.58,825.66 684.24,827.56 659.48,829.57 634.36,831.69 
			608.96,833.94 583.35,836.31 557.6,838.84 531.78,841.49 505.98,844.3 480.28,847.27 454.76,850.42 429.49,853.74 404.62,857.23 
			380.2,860.92 356.36,864.79 333.22,868.88 310.92,873.18 289.57,877.7 269.34,882.44 250.37,887.4 232.84,892.59 216.9,898.03 
			202.77,903.68 190.61,909.57 180.65,915.67 173.07,922 168.11,928.52 		"/>
		<polygon class="st14" points="545.33,593.43 545.33,596.02 543.4,596.45 540.24,597.28 537.7,598.11 535.82,598.93 535.13,599.42 
			534.42,598.81 534.16,597.96 534.64,597.11 535.84,596.3 537.7,595.47 540.21,594.67 543.35,593.85 		"/>
		<polygon class="st8" points="445.57,600.14 446.23,600.72 448.02,601.34 450.94,601.98 455.03,602.67 460.3,603.4 466.74,604.19 
			474.35,605.03 483.12,605.92 493.05,606.88 504.05,607.91 516.11,608.99 529.17,610.17 543.15,611.41 557.97,612.74 
			573.55,614.14 589.78,615.62 606.54,617.17 623.73,618.8 641.22,620.52 658.87,622.3 676.56,624.15 694.14,626.08 711.46,628.05 
			728.4,630.09 744.81,632.17 760.54,634.3 775.49,636.47 789.49,638.68 802.41,640.9 814.13,643.15 824.57,645.4 833.61,647.66 
			841.15,649.93 847.14,652.18 851.52,654.41 854.26,656.63 855.35,658.81 855.36,656.07 854.32,653.85 851.64,651.63 
			847.31,649.36 841.37,647.09 833.87,644.82 824.88,642.52 814.47,640.25 802.77,637.99 789.87,635.74 775.91,633.52 
			760.97,631.33 745.25,629.18 728.85,627.09 711.92,625.05 694.57,623.06 676.99,621.15 659.3,619.28 641.63,617.51 624.14,615.79 
			617.87,615.19 617.75,615.18 606.93,614.17 590.15,612.6 573.91,611.13 558.32,609.75 543.47,608.44 529.48,607.2 516.39,606.05 
			504.31,604.97 493.28,603.95 483.35,603.02 474.55,602.15 466.91,601.32 460.45,600.57 455.17,599.85 451.07,599.19 
			448.11,598.57 446.32,597.98 445.63,597.42 		"/>
		<polygon class="st8" points="334.67,732.95 334.98,735.09 337.18,737.28 341.32,739.52 347.47,741.82 355.66,744.16 
			365.94,746.53 378.29,748.96 392.73,751.43 409.2,753.91 427.63,756.43 447.94,758.96 470.04,761.5 493.73,764.04 518.9,766.57 
			545.34,769.08 572.82,771.55 601.11,773.99 629.98,776.38 659.13,778.73 688.32,780.99 717.28,783.2 745.7,785.31 773.33,787.34 
			773.95,787.39 799.93,789.3 825.25,791.16 849.06,792.93 871.15,794.6 891.34,796.19 909.53,797.69 925.49,799.1 939.21,800.45 
			950.55,801.7 959.51,802.91 966.06,804.06 970.22,805.15 972,806.22 972,802.84 970.25,801.73 966.13,800.6 959.63,799.4 
			950.7,798.16 939.39,796.87 925.72,795.49 909.79,794.03 891.63,792.5 871.47,790.88 849.39,789.18 825.62,787.39 800.31,785.51 
			773.73,783.53 746.1,781.48 717.69,779.35 688.74,777.15 659.55,774.87 630.38,772.54 601.51,770.15 573.2,767.73 545.71,765.27 
			519.27,762.77 494.08,760.26 470.36,757.75 448.25,755.24 427.92,752.74 409.46,750.26 392.97,747.81 378.52,745.4 366.13,743.01 
			355.85,740.67 347.62,738.37 341.45,736.12 337.3,733.93 335.09,731.77 334.75,729.69 		"/>
		<polygon class="st8" points="305.66,924.61 305.91,927.53 307.32,923.06 311.19,917.61 317.01,912.29 324.68,907.15 
			334.03,902.15 344.94,897.32 357.25,892.67 370.86,888.18 385.61,883.88 401.38,879.75 418.02,875.8 435.4,872.01 453.46,868.38 
			472.04,864.93 491.04,861.64 510.36,858.48 529.89,855.48 549.57,852.62 569.25,849.89 588.89,847.29 608.38,844.83 
			627.65,842.47 646.61,840.2 665.2,838.06 683.32,835.99 700.91,834.04 717.92,832.13 734.24,830.33 749.83,828.58 764.64,826.9 
			778.6,825.26 791.66,823.67 803.74,822.13 814.84,820.61 824.91,819.13 833.9,817.66 841.81,816.2 848.58,814.76 854.21,813.32 
			858.67,811.88 861.93,810.43 864,808.97 864.84,807.5 864.44,806.02 863.98,805.6 863.97,805.63 861.87,807.12 858.56,808.57 
			854.08,810.04 848.43,811.5 841.63,812.95 833.7,814.42 824.7,815.91 814.61,817.41 805.56,818.65 805.47,818.66 803.49,818.94 
			791.4,820.5 778.36,822.09 764.38,823.74 749.57,825.43 733.99,827.19 717.66,829.01 700.67,830.89 683.09,832.86 664.97,834.93 
			646.39,837.07 627.44,839.3 608.18,841.66 588.69,844.13 569.07,846.69 549.38,849.4 529.74,852.24 510.21,855.22 490.9,858.33 
			471.92,861.6 453.35,865.03 435.32,868.62 417.92,872.37 401.3,876.28 385.56,880.36 370.83,884.62 357.24,889.06 344.93,893.65 
			334.03,898.42 324.69,903.37 317.05,908.45 311.25,913.7 307.41,919.09 		"/>
		<path class="st8" d="M165.8,939.44l0.83,6.96l3.99,7.1l7.41,7.22l10.89,7.3l14.56,7.34l0,0c12.45,4.96,25.33,8.78,38.48,11.41
			l24.98,5l-44.46-13.67l-18.77-7.34l-14.57-7.25l-10.92-7.21l-7.41-7.13l-4.03-7.03l-0.82-6.9L165.8,939.44z"/>
		<path class="st15" d="M447.67,749.61c-3.96,0-7.76,1.53-10.61,4.28c-2.75-11.48-14.29-18.57-25.77-15.82
			c-7.94,1.9-14.1,8.15-15.89,16.12c-7.11-1.7-14.25,2.68-15.96,9.79c-1.7,7.11,2.68,14.25,9.79,15.96
			c1.01,0.24,2.04,0.36,3.08,0.36h55.35c8.47,0,15.34-6.87,15.34-15.34c0-8.47-6.87-15.34-15.34-15.34L447.67,749.61z"/>
		<path class="st16" d="M463.02,764.95c0,8.48-6.87,15.35-15.35,15.35h-55.35c-4.65,0-8.96-2.43-11.35-6.42
			c2.06,1.22,4.4,1.86,6.79,1.85h55.35c8.48,0,15.35-6.88,15.34-15.36c0-2.95-0.85-5.84-2.46-8.32
			C460.38,754.88,463.03,759.74,463.02,764.95z"/>
		<rect x="412" y="780.3" class="st14" width="8.54" height="202.63"/>
		<rect x="417.53" y="780.3" class="st17" width="3" height="202.63"/>
		<polygon class="st2" points="347.37,789.95 412,789.95 412,813.95 347.37,813.95 335.37,801.95 		"/>
		<polygon class="st2" points="347.37,816.91 412,816.91 412,840.91 347.37,840.91 335.37,828.91 		"/>
		<polygon class="st2" points="347.37,843.88 412,843.88 412,867.87 347.37,867.87 335.37,855.87 		"/>
		<polygon class="st2" points="347.37,870.84 412,870.84 412,894.84 347.37,894.84 335.37,882.84 		"/>
		<polygon class="st2" points="347.37,897.81 412,897.81 412,921.8 347.37,921.8 335.37,909.8 		"/>
		<polygon class="st11" points="446.42,789.95 418.58,789.95 418.58,813.95 446.42,813.95 458.42,801.95 		"/>
		<rect x="428.19" y="797.16" class="st2" width="10.15" height="9.57"/>
		<rect x="437.76" y="797.16" class="st18" width="0.58" height="9.57"/>
		<rect x="390.95" y="797.16" class="st19" width="10.15" height="9.57"/>
		<rect x="400.52" y="797.16" class="st18" width="0.58" height="9.57"/>
		<rect x="378.13" y="797.16" class="st19" width="10.15" height="9.57"/>
		<rect x="387.7" y="797.16" class="st18" width="0.58" height="9.57"/>
		<rect x="365.31" y="797.16" class="st19" width="10.15" height="9.57"/>
		<rect x="374.88" y="797.16" class="st18" width="0.58" height="9.57"/>
		<rect x="352.48" y="797.16" class="st19" width="10.15" height="9.57"/>
		<rect x="362.05" y="797.16" class="st18" width="0.58" height="9.57"/>
		<rect x="390.95" y="824.13" class="st19" width="10.15" height="9.57"/>
		<rect x="400.52" y="824.13" class="st18" width="0.58" height="9.57"/>
		<rect x="378.13" y="824.13" class="st19" width="10.15" height="9.57"/>
		<rect x="387.7" y="824.13" class="st18" width="0.58" height="9.57"/>
		<rect x="390.95" y="851.09" class="st19" width="10.15" height="9.57"/>
		<rect x="400.52" y="851.09" class="st18" width="0.58" height="9.57"/>
		<rect x="378.13" y="851.09" class="st19" width="10.15" height="9.57"/>
		<rect x="387.7" y="851.09" class="st18" width="0.58" height="9.57"/>
		<rect x="365.31" y="851.09" class="st19" width="10.15" height="9.57"/>
		<rect x="374.88" y="851.09" class="st18" width="0.58" height="9.57"/>
		<rect x="390.95" y="878.05" class="st19" width="10.15" height="9.57"/>
		<rect x="400.52" y="878.05" class="st18" width="0.58" height="9.57"/>
		<rect x="378.13" y="878.05" class="st19" width="10.15" height="9.57"/>
		<rect x="387.7" y="878.05" class="st18" width="0.58" height="9.57"/>
		<rect x="365.31" y="878.05" class="st19" width="10.15" height="9.57"/>
		<rect x="374.88" y="878.05" class="st18" width="0.58" height="9.57"/>
		<rect x="352.48" y="878.05" class="st19" width="10.15" height="9.57"/>
		<rect x="362.05" y="878.05" class="st18" width="0.58" height="9.57"/>
		<rect x="390.95" y="905.02" class="st19" width="10.15" height="9.57"/>
		<rect x="400.52" y="905.02" class="st18" width="0.58" height="9.57"/>
		<rect x="378.13" y="905.02" class="st19" width="10.15" height="9.57"/>
		<rect x="387.7" y="905.02" class="st18" width="0.58" height="9.57"/>
		<rect x="365.31" y="905.02" class="st19" width="10.15" height="9.57"/>
		<rect x="374.88" y="905.02" class="st18" width="0.58" height="9.57"/>
		<polygon class="st18" points="456.91,801.95 444.91,813.95 446.42,813.95 458.42,801.95 446.42,789.95 444.91,789.95 		"/>
		<path class="st19" d="M418.15,770.82h-3.75l-2.53,2.89c-0.7,0.79-1.85,0.98-2.77,0.46l-2.47-1.42c-0.91-0.53-1.33-1.63-0.99-2.62
			l1.23-3.64l-1.85-3.25l-3.77-0.75c-1.04-0.2-1.78-1.11-1.78-2.17v-2.84c0-1.06,0.75-1.96,1.78-2.17l3.77-0.75l1.85-3.25
			l-1.23-3.63c-0.34-1,0.07-2.1,0.99-2.62l2.47-1.42c0.91-0.53,2.07-0.34,2.77,0.46l2.53,2.88h3.75l2.53-2.88
			c0.69-0.8,1.85-0.99,2.77-0.46l2.47,1.42c0.91,0.53,1.33,1.63,0.99,2.62l-1.23,3.63l1.85,3.25l3.77,0.75
			c1.03,0.21,1.78,1.11,1.78,2.17v2.84c0,1.05-0.74,1.96-1.78,2.17l-3.77,0.75l-1.85,3.25l1.23,3.64c0.34,1-0.07,2.1-0.99,2.62
			l-2.47,1.42c-0.91,0.52-2.07,0.33-2.77-0.46L418.15,770.82z M422.2,758.89c0-3.28-2.66-5.95-5.95-5.95
			c-3.28,0-5.95,2.66-5.95,5.95s2.66,5.95,5.95,5.95c0,0,0,0,0.01,0C419.54,764.84,422.2,762.18,422.2,758.89
			C422.2,758.9,422.2,758.9,422.2,758.89z"/>
		<polygon class="st20" points="339.24,855.87 347.37,867.88 335.37,855.87 347.37,843.88 		"/>
		<polygon class="st20" points="339.24,882.83 347.37,894.84 335.37,882.83 347.37,870.84 		"/>
		<polygon class="st20" points="339.24,909.79 347.37,921.8 335.37,909.79 347.37,897.8 		"/>
		<polygon class="st20" points="339.24,801.95 347.37,813.95 335.37,801.95 347.37,789.95 		"/>
		<polygon class="st20" points="339.24,828.91 347.37,840.91 335.37,828.91 347.37,816.91 		"/>
		<path class="st21" d="M517.22,891.74c-6.31,8.48-18.48,15.51-19.29,15.1c-0.38-0.19,0.06-0.72,0.62-1.23
			c-0.65,0.43-1.36,0.77-1.71,0.59c-0.35-0.19,0.28-0.99,1.04-1.71c-0.85,0.67-1.85,1.3-2.3,1.06c-0.44-0.24,0.52-1.31,1.52-2.21
			c-0.81,0.62-1.69,1.13-2.07,0.93c-0.39-0.2,0.99-1.72,2.47-3.14l-0.23,0.22c-0.8,0.73-1.78,0.15,0.2-1.69
			c1.99-1.83,5.31-2.38,14.75-12.93L517.22,891.74z"/>
		<path class="st21" d="M410.46,878.86c-0.76,0.11-1.53,0.01-2.23-0.3c-1.34-0.5-2.72-0.88-4.12-1.12c-1.5-0.25-2.11,0.25-0.96,0.77
			c0.6,0.27,1.22,0.52,1.85,0.73c-1.06,0.19-2.14,0.28-3.22,0.26c-2.06,0-3.82-0.56-3.85,0.17s1.23,0.85,1.23,0.85s-1.8,0-1.63,0.56
			s2.83,0.86,2.83,0.86s-0.99,0.22-0.9,0.9c0.09,0.69,2.47,0.34,2.47,0.34s-1.23-0.04-1.12,0.62c0.12,0.66,1.5,0.77,4.32,0.77
			c1.82-0.01,3.64-0.14,5.45-0.38l0.09-5.03h-0.2V878.86z"/>
		<path class="st17" d="M409.27,878.84c0.39,0.07,0.78,0.07,1.17,0h0.22l-0.09,5.02c0,0-0.96,0.14-2.36,0.26L409.27,878.84z"/>
		<path class="st21" d="M418.95,893.59c-0.66,0.38-3.75,1.43-4.51,1.4c-1.43,0.02-2.85,0.17-4.25,0.46
			c-1.49,0.31-1.85,1.01-0.62,1.07c0.66,0.03,1.32,0.03,1.98,0c-0.92,0.56-1.89,1.04-2.9,1.41c-1.92,0.75-3.76,0.87-3.53,1.57
			s1.48,0.34,1.48,0.34s-1.68,0.65-1.32,1.12s2.95-0.23,2.95-0.23s-0.84,0.56-0.51,1.17c0.33,0.61,2.4-0.57,2.4-0.57
			s-1.14,0.4-0.82,0.97c0.31,0.57,1.68,0.17,4.32-0.86c1.7-0.67,5.67-2.32,7.27-3.2l-1.75-4.7l-0.2,0.07L418.95,893.59z"/>
		<path class="st17" d="M417.87,893.99c0.39-0.07,0.76-0.22,1.09-0.43l0.2-0.08l1.75,4.71c0,0-0.85,0.48-2.1,1.09L417.87,893.99z"/>
		<path class="st14" d="M461,857.57c0,0,6.66-1.72,9.74-0.04c3.09,1.67,11.07,28.97,9.78,37.34c-1.29,8.37-13.25,3.99-13.25,3.99
			L461,857.57z"/>
		<path class="st21" d="M451.83,994.43c0.05,1.22,0.3,2.42,0.73,3.56c0,0-9.95-0.86-9.78-0.82s1.41-1.76,1.33-2.62L451.83,994.43z"
			/>
		<path class="st2" d="M452.72,997.85c0,0,0.93,2.7,0.48,3.45c-0.45,0.75-1.4,0.56-7.07,0.56c-5.67,0-11.9,0.65-12.19-0.37
			s1.59-1.3,4.37-2.14c1.6-0.46,3.11-1.19,4.46-2.16L452.72,997.85z"/>
		<path class="st22" d="M434.19,1000.76c1.06,0.72,6.79,0.17,12.03,0.17c5.68,0,6.61,0.19,7.08-0.56v-0.04
			c0.06,0.33,0.02,0.66-0.11,0.96c-0.48,0.75-1.4,0.56-7.07,0.56c-5.67,0-11.91,0.65-12.19-0.37
			C433.85,1001.2,433.96,1000.92,434.19,1000.76z"/>
		<polygon class="st21" points="484.61,991.43 486.74,995.68 477.61,996.49 477.17,994.17 		"/>
		<path class="st2" d="M486.77,995.35c0,0,1.44,2.35,1.07,3.16c-0.37,0.8-1.44,0.15-6.79,2.09c-4.4,1.61-12.03,1.44-12.56,0.62
			c-0.96-1.59,1.75-0.96,4.4-2.16c1.52-0.69,2.94-1.58,4.22-2.67L486.77,995.35z"/>
		<path class="st22" d="M468.5,1000.34c1.2,0.7,8.26,0.76,12.4-0.76c5.33-1.93,6.42-1.29,6.79-2.09c0.02-0.06,0.04-0.13,0.04-0.19
			c0.19,0.38,0.24,0.82,0.14,1.23c-0.36,0.8-1.44,0.15-6.79,2.09c-4.4,1.61-12.04,1.44-12.56,0.62
			C468.24,1000.79,468.27,1000.52,468.5,1000.34z"/>
		<path class="st11" d="M470.87,905.32c1.8,8.24,0.51,30.87,2.32,43.77c1.8,12.9,12.61,43.15,12.61,43.15
			c-1.65,0.82-6.93,2.77-9.26,2.96c0,0-11.56-26.06-15.92-39.18c-4.37-13.13-7.22-30.64-7.22-30.64s-3.37,27.78-2.83,39.14
			s2.06,30.38,2.06,30.38c-2.12,0.51-7.71,0.77-9.79,0.26c0,0-4.89-26.27-5.92-48.41c-0.55-13.95,0.31-27.93,2.57-41.71l19.06-4.38
			L470.87,905.32z"/>
		<path class="st12" d="M446.23,858.86c-4.46,4.21-12.1,15.62-18.71,17.25c-6.61,1.63-17.68,2.04-17.68,2.04l-0.25,5.92
			c6.62,0.98,13.37,0.74,19.91-0.69c10.39-2.41,16.48-6.61,16.48-6.61L446.23,858.86z"/>
		<path class="st17" d="M437.98,880.79c-0.55-3.9-0.83-7.84-0.82-11.77c3.49-3.7,6.74-7.94,9.07-10.15l-0.2,14.31l-1.23,4.32
			C442.61,878.77,440.34,879.87,437.98,880.79z"/>
		<path class="st17" d="M438.79,909.25c0.04-0.35,0.09-0.67,0.14-0.96l11.3,3.57l-0.48-3.19l13.23-6.3l7.88,2.95
			c0.2,0.95,0.35,1.92,0.46,2.88c-1.26-0.62-2.65-0.91-4.06-0.85c-3.22,0.26-7.85,6.57-10.69,8.11c-1.28,0.69-2.65,1.21-4.06,1.54
			c0.14,2.51,0.4,5.66,0.84,8.38c0,0-0.25,2.14-0.62,5.46l-3.99-14.73l-3.09-1.16c-3.09-1.16-6.82-4.76-6.82-4.76L438.79,909.25z"/>
		<path class="st21" d="M460.08,856.02c-0.77-0.3-1-0.62-1.36-1.54c-0.8-2.04-1.75-13.35-1.75-13.35l-9.19,1.36
			c0,0,1.13,11.15,1.08,13.02c-0.17,0.89-0.5,1.74-0.98,2.51C452.56,861.36,458.92,858.54,460.08,856.02z"/>
		<path class="st17" d="M456.92,851.31c0.37-0.05,0.74-0.12,1.09-0.23c-0.44-3.83-0.78-7.41-0.78-7.41l-6.59,0.94
			C451.47,848.71,453.81,851.73,456.92,851.31z"/>
		<path class="st21" d="M461.14,840.08c0.14,4.49-1.44,8.24-5.75,8.31c-3.3,0.1-6.08-3.47-6.17-7.96c-0.09-4.49,0.9-8.19,5.75-8.31
			C460.27,831.96,461,835.59,461.14,840.08z"/>
		<path class="st14" d="M445.71,833.49c-0.96,2.27-2.62,4.72,2.15,9.82l3.03-1.14l-2.4-6.59L445.71,833.49z"/>
		<circle cx="458.56" cy="838.85" r="0.45"/>
		<path class="st23" d="M452.09,843.39c-1.76,0.15-3.3-1.16-3.45-2.91c-0.15-1.76,1.16-3.3,2.91-3.45c0.06-0.01,0.12-0.01,0.18-0.01
			h0.17L452.09,843.39z"/>
		<path class="st24" d="M452.05,841.87c-0.93,0.03-1.71-0.71-1.74-1.64c-0.03-0.93,0.71-1.71,1.64-1.73l0,0l0,0L452.05,841.87z"/>
		<circle class="st23" cx="457.17" cy="841.34" r="1.4"/>
		<path class="st23" d="M460.52,838.43l2.02,2.53c0.18,0.22,0.14,0.55-0.09,0.73c0,0,0,0,0,0c-0.06,0.05-0.13,0.08-0.21,0.1
			l-1.72,0.38V838.43L460.52,838.43z"/>
		<path class="st14" d="M451.98,837.78v2.51h0.88c-0.03-0.88,0-1.76,0.1-2.63L451.98,837.78z"/>
		<path class="st14" d="M456.85,837.16c0.24-0.09,0.49-0.16,0.74-0.2c0.26-0.04,0.51-0.05,0.77-0.04c0.26,0.01,0.52,0.04,0.77,0.11
			c0.13,0.04,0.25,0.08,0.38,0.13l0.18,0.09l0.09,0.06h0.04l0,0c-0.06-0.01-0.11,0.03-0.14,0.08c0.03-0.07,0.1-0.1,0.17-0.07
			c0.07,0.03,0.1,0.11,0.08,0.18c0,0,0,0,0,0c-0.03,0.06-0.1,0.09-0.16,0.08h-0.06l-0.67-0.06c-0.23,0-0.48-0.03-0.71-0.03h-0.72
			c-0.25-0.01-0.49-0.02-0.73-0.06c-0.07-0.01-0.13-0.07-0.12-0.15c0,0,0-0.01,0-0.01l0,0C456.77,837.22,456.8,837.18,456.85,837.16
			z"/>
		<path class="st2" d="M460.41,843.58c0.13,0.05,0.27,0.08,0.41,0.11c-0.04,0.21-0.19,0.65-0.24,0.83
			c-0.16-0.01-0.32-0.05-0.48-0.12c-0.68-0.27-1.14-0.77-0.99-1.17C459.26,842.83,459.72,843.31,460.41,843.58z"/>
		<path class="st14" d="M461.77,829.51c-0.91-0.9-2.68-0.31-3.62,0.09c-0.28-0.14-0.58-0.26-0.88-0.36
			c-2.53-0.95-5.34-0.88-7.82,0.2c-2.02,0.86-2.61,1.7-3.62,3.24c-0.97,1.35-1.11,3.13-0.34,4.61c1.54,3.28,5.96,1.59,7.17,1.01
			c1.64-0.77,2.26-2.75,2.8-5.22c0,0,1.4-0.65,4.32,0.87C461.45,833.24,463.05,830.76,461.77,829.51z"/>
		<path class="st12" d="M458.74,853.89c3.63,3.52,7.74,7.98,9.47,19.57c1.72,11.58,3.52,33.82,3.52,33.82s-4.38-1.72-8.5,0.85
			c-4.12,2.57-8.41,6.44-15.44,5.41c-7.03-1.03-9.01-5.32-9.01-5.32s0.96-13.65,0.51-23.17c-0.45-9.53,3.4-23.39,9.43-29.25
			l1.56,1.78c1.66-0.37,3.27-0.92,4.82-1.63C457.13,854.92,458.74,853.89,458.74,853.89z"/>
		<path class="st17" d="M458.74,853.89c0.62,0.62,1.29,1.27,1.95,1.98c-1.02,1.07-2.14,2.04-3.35,2.89
			c-1.32,1.02-2.77,1.85-4.32,2.47l-2.77-3.62c1.66-0.38,3.27-0.92,4.81-1.63C457.13,854.92,458.74,853.89,458.74,853.89z"/>
		<path class="st17" d="M448.71,855.79l1.56,1.78l-2.51,2.06c-0.5-0.35-0.9-0.82-1.16-1.37
			C447.23,857.38,447.93,856.55,448.71,855.79z"/>
		<path class="st17" d="M439.29,885.04c-0.08-2.38,0.04-4.76,0.36-7.12c1.6-1.33,4.65-4.04,6.42-6.62c2.47-3.61,5.41-8.24,8.64-8.16
			c3.24,0.08,8.64,5.15,8.64,5.15c0.17,4.38-2.06,13.22-10.39,21.8c-6.05,6.26-11.38,9.15-13.84,10.31
			C439.36,895.77,439.48,889.88,439.29,885.04z"/>
		<path class="st14" d="M464.95,859.81c-4.89-0.69-10.72-0.17-13.65,3.37s-3,5.56-3,5.56s3.7-5.27,7.7-6.41
			c3.99-1.14,10.99,1.09,10.99,1.09L464.95,859.81z"/>
		<path class="st14" d="M454.48,882.81c0,0,3.77,5.49,8.58,7.13c2.96,0.99,6.01,1.68,9.1,2.06l0.34,3.61
			c-4.42-0.59-8.73-1.84-12.79-3.7c-6.35-3-8.16-7.98-8.16-7.98L454.48,882.81z"/>
		<path class="st12" d="M456.01,862.35c-5.95,0.4-12.42,16.54-19.92,21.18c-7.5,4.64-17.24,8.64-17.24,8.64
			c-0.23,2.03,0.37,6.52,1.85,7.57c0,0,8.4-1.59,21.52-8.45s17.1-13.24,18.94-15.57C464.58,871.36,465.21,861.71,456.01,862.35z"/>
		<path class="st11" d="M567.58,976.05c-1.06,0.76-2.25,1.34-3.51,1.69c-1.83,0.49-3.73,0.6-5.61,0.33
			c-3.41-8.51-7.8-18.83-9.67-25.93c-3.43-13.05-5.5-33.65-5.5-33.65s-6.52,23.52-6.69,43.09c-0.06,6.54-0.31,13.06-0.62,18.84
			c-2.81,0.47-5.68,0.58-8.52,0.3c-1.33-9.09-3.09-21.18-3.4-30.82c-0.51-16.99,3.27-42.23,5.5-48.78c0,0,24.89-7.71,28.24-1.54
			c3.35,6.16,2.65,22.49,3.17,34.66c0.52,12.18,2.57,19.91,5.15,33.3C566.68,970.35,567.15,973.24,567.58,976.05z"/>
		<path class="st21" d="M536,980.45c-0.62,11.52-1.44,20.12-1.44,20.12h-1.36l-0.26-3.27c0,0-7.29,4.38-10.21,4.38
			c-0.75,0-1.39,0-1.93,0c-0.34,0-0.62-0.28-0.62-0.62c0-0.22,0.12-0.42,0.32-0.52c2.69-1.44,7.74-5.08,8.35-6.66
			c0.37-0.96-0.38-6.17-1.4-13.13C530.31,981.03,533.18,980.93,536,980.45z"/>
		<path class="st21" d="M570.27,997.32l-1.2,0.35l-0.52-3.78c0,0-0.43-0.51-3,2.75c-2.57,3.27-6.61,4.12-8.33,3.95
			c-1.72-0.17-1.03-1.23-1.03-1.23s5.3-3.26,6.7-6.7c0.62-1.57-1.54-7.41-4.41-14.6c1.87,0.27,3.78,0.16,5.61-0.33
			c1.26-0.35,2.45-0.92,3.51-1.69C569.28,987.01,570.27,997.32,570.27,997.32z"/>
		<path class="st12" d="M578.64,858.84c3.45-1.57,3.78-5.19,2.16-7.22c-1.62-2.03-1.56-3.17-4.56-5.8s-4.39-2.28-7.58-3.18
			c-3.19-0.9-3.55-2.66-5.59-5.37c-1.75-2.59-4.51-4.33-7.6-4.8c-3.52-0.69-4.59,0.08-8.14-1.73c-3.55-1.82-2.75-4.04-6.61-4.94
			c-4.63-1.07-6.79,2.77-6.94,6.5c-0.15,3.73,6.64,11.73,6.64,11.73c1.15,1.15,2.23,2.36,3.25,3.63c2.3,2.77,3.7,3.37,7.85,3.24
			s6.12,1.23,7.74,2.83c1.62,1.6,4.48,2.3,7.03,1.85c2.55-0.45,4.38,0.22,6.47,1.8C574.85,858.96,577.38,859.41,578.64,858.84z"/>
		<path class="st17" d="M536.61,834.69l7.91,4.14c4.12,1.12,5.4-0.15,7.31,2.04c1.91,2.19,3.82,4.43,5.82,4.94
			c2.01,0.51,5.17-0.41,7.59,1.39c2.43,1.8,2.89,4.45,5.48,5.56c2.59,1.11,3.9,0.58,5.75,3.03c0.67,0.95,1.07,2.08,1.15,3.24
			c-1.77,0-3.5-0.6-4.88-1.71c-2.09-1.59-3.92-2.28-6.47-1.8c-2.55,0.48-5.4-0.25-7.03-1.85c-1.62-1.6-3.58-2.95-7.75-2.83
			c-4.17,0.12-5.56-0.48-7.85-3.24c-1.01-1.27-2.1-2.48-3.24-3.63c-1.8-2.13-3.43-4.41-4.87-6.79L536.61,834.69z"/>
		<path class="st21" d="M538.11,864.91c-2.45,0.31-4.87,0.82-7.24,1.51c-0.48-1.47-0.48-2.95-0.62-4.51
			c-0.07-0.86,0.67-2.04,1.23-3.09c0.55-1.14,1.5-2.05,2.67-2.55c0.71-0.19,1.19-0.86,1.14-1.59c0.2-2.05,0.06-12.97,0.06-12.97
			l8.64-1.15c0,0-0.07,10.82,0.46,12.52c0.48,1.54,3.17,2.02,6.51,2.99c-1.44,2.63-1.5,6.17-0.78,9.11
			C546.3,863.06,541.9,864.45,538.11,864.91z"/>
		<path class="st17" d="M539.03,847.93c-1.2,0.36-2.45,0.52-3.7,0.48c-0.09-3.42-0.05-6.69-0.05-6.69l7.02-0.92
			C542.6,844.19,541.26,847.14,539.03,847.93z"/>
		<circle class="st23" cx="542.43" cy="838.71" r="2.99"/>
		<circle class="st24" cx="542.43" cy="838.71" r="1.57"/>
		<path class="st21" d="M531.17,839.09c0.3,4.32,2.14,7.7,5.78,7.52c3.09-0.17,5.56-3.78,5.51-8.08c-0.05-4.3-1.89-7.66-6.17-7.52
			C530.03,831.23,530.87,834.76,531.17,839.09z"/>
		<path class="st25" d="M538.82,835.86c-0.82-0.33-1.74-0.33-2.56,0c-0.01,0.02-0.01,0.04,0,0.06c0.01,0.02,0.04,0.02,0.05,0
			c0,0,0,0,0,0l0,0c0.41-0.09,0.82-0.13,1.23-0.14c0.21-0.01,0.41,0.01,0.62,0.03c0.21,0,0.42,0.06,0.62,0.1
			c0.02,0.01,0.04,0.01,0.06,0C538.85,835.9,538.84,835.87,538.82,835.86z"/>
		<path class="st25" d="M533.58,836.17c-0.42-0.13-0.86-0.17-1.3-0.12c-0.43,0.05-0.85,0.18-1.23,0.39c-0.01,0.02-0.01,0.04,0,0.06
			c0.01,0.02,0.04,0.02,0.05,0c0,0,0,0,0,0l0,0c0.4-0.13,0.81-0.22,1.23-0.27c0.2-0.03,0.41-0.04,0.62-0.03
			c0.21,0,0.41,0.01,0.62,0.04c0,0,0.05,0,0.06-0.04l0,0C533.62,836.17,533.6,836.16,533.58,836.17z"/>
		<circle cx="537.72" cy="837.45" r="0.41"/>
		<circle cx="531.97" cy="837.77" r="0.41"/>
		<path class="st23" d="M531.22,839.01h0.09c0.72-0.07,1.36,0.46,1.43,1.17c0.07,0.72-0.46,1.36-1.17,1.43l0,0
			c-0.17-0.76-0.28-1.52-0.32-2.3C531.24,839.2,531.23,839.11,531.22,839.01z"/>
		<circle class="st23" cx="538.06" cy="839.76" r="1.31"/>
		<path class="st17" d="M533.29,833.8c-0.7,0.52-1.47,0.93-2.28,1.23c0.35-4.42,3.37-4.28,3.37-4.28l5.47,0.77l5.56,5.56l0.08,1.67
			c-5.98,1.12-7.39-6.91-10.48-7.4C534.73,832.34,534.13,833.2,533.29,833.8z"/>
		<path class="st2" d="M532.95,841.6c0,0.56,0.85,0.96,1.82,0.91c0.97-0.05,1.73-0.56,1.69-1.12c-0.04-0.56-0.81-0.1-1.77-0.04
			C533.72,841.41,532.92,841.04,532.95,841.6z"/>
		<circle class="st2" cx="543.02" cy="840.83" r="0.25"/>
		<path class="st26" d="M529.51,838.91c-0.12-0.18-0.19-0.4-0.2-0.62l-0.04-0.92c-0.03-0.68,0.49-1.26,1.17-1.3c0,0,0.01,0,0.01,0
			l0.75-0.04C530.64,837.02,530.09,837.98,529.51,838.91z M533.51,836.13c-0.65,1.1-1.28,2.22-1.93,3.31l1.44-0.07
			c0.68-0.03,1.2-0.61,1.17-1.29l-0.04-0.93C534.13,836.72,533.89,836.33,533.51,836.13L533.51,836.13z M538.84,839.08h0.2
			c0.68-0.03,1.2-0.61,1.17-1.29l-0.04-0.93c-0.01-0.15-0.05-0.3-0.1-0.43C539.69,837.34,539.27,838.22,538.84,839.08L538.84,839.08
			z M536.48,839.19c0.62-1.13,1.18-2.29,1.68-3.48l-1.71,0.09c-0.68,0.03-1.21,0.61-1.17,1.29c0,0,0,0,0,0l0.04,0.93
			C535.36,838.65,535.86,839.15,536.48,839.19L536.48,839.19z"/>
		<path class="st22" d="M530.54,839.78c-0.81,0-1.48-0.64-1.53-1.44l-0.04-0.93c-0.04-0.84,0.6-1.56,1.44-1.6l2.41-0.12
			c0.84-0.04,1.55,0.61,1.6,1.44l0.04,0.93c0.04,0.84-0.6,1.56-1.44,1.61L530.54,839.78z M532.92,836.27h-0.05l-2.4,0.12
			c-0.51,0.04-0.91,0.47-0.9,0.99l0.04,0.93c0.03,0.51,0.47,0.91,0.98,0.9l2.41-0.12c0.52-0.03,0.91-0.47,0.9-0.98l-0.04-0.93
			C533.83,836.67,533.42,836.28,532.92,836.27L532.92,836.27z"/>
		<path class="st22" d="M536.52,839.5c-0.81,0-1.48-0.64-1.53-1.44l-0.04-0.93c-0.03-0.84,0.63-1.55,1.47-1.58l2.41-0.12
			c0.84-0.04,1.56,0.61,1.61,1.44l0.04,0.93c0.04,0.84-0.61,1.56-1.44,1.61L536.52,839.5z M538.9,835.99h-0.05l-2.41,0.12
			c-0.51,0.04-0.91,0.47-0.9,0.99l0.04,0.93c0.04,0.51,0.47,0.91,0.99,0.9l2.41-0.12c0.51-0.03,0.91-0.47,0.9-0.98l-0.04-0.93
			C539.8,836.39,539.4,836,538.9,835.99L538.9,835.99z"/>
		<path class="st22" d="M543.09,837.17c-0.33,0.04-0.66,0-0.96-0.12c-0.62-0.01-1.23,0.14-1.77,0.44l-0.29-0.48
			c0.57-0.32,1.2-0.51,1.85-0.53c0.22-0.02,0.44,0.04,0.62,0.16C542.67,836.86,542.86,837.04,543.09,837.17z"/>
		
			<rect x="534.22" y="837.2" transform="matrix(0.9988 -0.0494 0.0494 0.9988 -40.6971 27.4225)" class="st22" width="1.03" height="0.58"/>
		<path class="st23" d="M534.57,837.79l-0.98,2.08c-0.08,0.18,0,0.39,0.18,0.48c0.05,0.01,0.1,0.01,0.15,0h1.23L534.57,837.79z"/>
		<path class="st12" d="M540.79,830.18c0,0-0.96-1.3-4.57-1.85c-3.06-0.48-4.94,0.26-5.85,2.11c-0.62,1.29,0.17,2.63,0.9,3.55l0,0
			c1.23-0.27,1.8-1.04,3.66-2.91c0.73,0.09,1.46,0.25,2.16,0.48c1.72,0.65,3.26,7.22,9.14,6.12L540.79,830.18z"/>
		<path class="st17" d="M559.19,903.54c-0.9-3.85-1.67-5.06-4.06-5.77c-7.29-2.19-25.51,3.42-25.54,3.42
			c-0.41,1.27-0.76,2.55-1.04,3.85c6.79,1.44,8.85-2.22,9.88-2.32c1.05,1.94,3,3.23,5.19,3.43c2.85,0.21,6.79-1.68,9.82-2.41
			l0.1,11.35c0.44,3.66,5.24,1.64,7.01,1.72C560.36,911.78,560,907.09,559.19,903.54z"/>
		<path class="st19" d="M536.18,863.91c2.12,0.32,7.41-0.13,7.41-0.13l-1.54,8.5l-5.98,0.06L536.18,863.91z"/>
		<path class="st14" d="M546.92,854.75c0,0-0.43,12.04-7.63,17.13c0,0-5.73-5.98-4.89-16.15c0,0-7.53,3.48-10.11,9.47
			c-2.06,4.81-4.57,13.58-9.72,19.14c-0.77,0.82-1.55,1.64-2.33,2.41l5,5c1.12-1.11,2.25-2.35,3.37-3.7
			c6.96-8.34,8.76-11.73,8.76-11.73c0.56,1.83,1.52,3.5,2.83,4.89c2.06,2.06,0.62,7.71-1.02,13.14c-1.64,5.43-2.51,7.34-2.51,7.34
			s3.37,1.54,5.92,1.54c1.85,0,3.93-1.54,3.93-1.54c1.06,1.57,2.8,2.55,4.7,2.64c6.56,0.52,16.15-3.67,16.15-3.67
			s-3.37-8.11-4.5-15.71c-1.14-7.59,1.41-12.87,1.41-12.87c1.98,1.72,3.79,3.62,5.4,5.69c2.27-1.62,4.66-3.09,7.04-4.56
			C562.91,864.17,553.9,855.67,546.92,854.75z"/>
		<path class="st27" d="M533.06,856.38c0.51-0.62,1.09-1.19,1.73-1.67c0.14-0.12,0.36-0.1,0.48,0.04c0,0,0,0,0,0
			c0.04,0.05,0.07,0.11,0.07,0.18c0.36,3.07,0.93,6.12,1.7,9.11c1.23,4.57,2.25,7.85,2.25,7.85c1.64-2.95,3-6.05,4.05-9.26
			c0.88-2.77,1.48-5.61,1.8-8.5c0.04-0.24,0.26-0.39,0.5-0.35c0,0,0,0,0,0c0.08,0.01,0.15,0.05,0.21,0.1
			c0.57,0.32,2.64,1.16,2.64,1.16s-0.56,6.17-2.47,9.82c-1.54,2.93-3.88,5.37-6.74,7.04c0,0-3.28-2.38-4.89-7.66
			C532.79,858.97,533.06,856.38,533.06,856.38z"/>
		<path class="st17" d="M554.86,884.97c-1.16-7.6,1.41-12.87,1.41-12.87c-1.61-1.34-3.31-2.57-5.09-3.67c0,0-0.57,10.23,1.99,15.58
			c0.58,1.24,1.3,2.42,2.14,3.5C555.13,886.65,554.98,885.8,554.86,884.97z"/>
		<path class="st17" d="M524.21,878.52c-0.86,2.39-1.48,4.85-1.85,7.36c5.49-6.79,6.97-9.55,6.97-9.55
			c-0.83-2.47,1.68-9.78,1.68-9.78C528.05,870.1,525.74,874.15,524.21,878.52z"/>
		<path class="st17" d="M539.27,871.89c-0.77,3.41-0.45,5.73,0.25,8.95c0.7,3.22-1.03,20.86-1.03,20.86
			c0.39,0.61,0.9,1.14,1.49,1.54c0,0,1.28-14.03,0.89-17.76c-0.39-3.73-1.41-5.6-1.61-7.66
			C539.16,875.84,539.16,873.86,539.27,871.89z"/>
		<path class="st17" d="M535.06,951.22c0.62,3.66,1.15,6.67,1.57,9.14c0.42-19.3,6.67-41.84,6.67-41.84
			c-0.96-5.66-2.06-10.72-2.06-10.72S532.24,934.74,535.06,951.22z"/>
		<path class="st28" d="M555.87,892.81l25.8-3.09c1.39-0.17,2.66,0.83,2.83,2.22l1.97,16.42c0.17,1.39-0.83,2.66-2.22,2.83
			l-25.8,3.09c-1.39,0.17-2.66-0.83-2.83-2.22l-1.97-16.42C553.48,894.24,554.47,892.97,555.87,892.81z"/>
		<path class="st29" d="M555.49,893.45l25.8-3.09c1.39-0.17,2.66,0.83,2.83,2.22l1.97,16.42c0.17,1.39-0.83,2.66-2.22,2.83
			l-25.8,3.09c-1.39,0.17-2.66-0.83-2.83-2.22l-1.97-16.42C553.1,894.88,554.09,893.61,555.49,893.45z"/>
		<path class="st17" d="M569.76,910.19l1.37,0.34l-1.23-19.33l-6.17,0.75C565.77,896.28,569.76,910.19,569.76,910.19z"/>
		<path class="st14" d="M568.7,873.21c-2.41,1.44-4.77,2.93-7.04,4.55c1,1.28,1.86,2.66,2.59,4.11c2.07,4.25,3.31,6.84,4.06,11.26
			l7.09-1.13c-0.34-3.04-0.96-6.04-1.85-8.97C572.35,879.57,570.72,876.27,568.7,873.21z"/>
		<path class="st30" d="M575.45,913.02c-0.26,2.19-3.61,3.09-5.03,2.96c-1.42-0.12-1.16-2.32-1.16-2.32l-1.8,0.13
			c0.38-1.41,2.32-3.61,2.32-3.61s-0.38-6.7-1.03-13.52c-0.12-1.32-0.27-2.47-0.45-3.55l7.09-1.12
			C576.15,898.98,576.17,906.03,575.45,913.02z"/>
		<path class="st22" d="M532.15,996.7c-1.44,1.03-5.75,3-5.75,3c-0.47-0.71-1.03-1.34-1.68-1.89c-1.34,0.99-2.74,1.89-4.19,2.71
			c-0.28,0.16-0.39,0.51-0.25,0.8c0.1,0.2,0.3,0.32,0.52,0.32c0.52,0,1.16,0,1.93,0c2.92,0,10.21-4.38,10.21-4.38l0.25,3.27h1.38
			c0,0,0.19-1.98,0.48-5.3C534.03,995.61,533.06,996.1,532.15,996.7z"/>
		<path class="st22" d="M557.21,1000.57c1.72,0.17,5.75-0.69,8.32-3.95s3.01-2.75,3.01-2.75l0.51,3.78l1.2-0.35
			c0,0-0.22-2.34-0.62-5.97c-0.82,0.08-2.47,1.96-3.95,3.85c-1.08,1.33-2.53,2.3-4.16,2.8l-1.77-1.31c-1.11,0.99-2.3,1.88-3.56,2.68
			C556.2,999.36,555.49,1000.4,557.21,1000.57z"/>
		<path class="st22" d="M575.82,908.41c0-0.32,0.04-0.67,0.05-1.04c-2.08,0.24-4.17,0.28-6.25,0.12c0,0.38,0.04,0.73,0.07,1.04
			c0.79,0.07,1.57,0.09,2.32,0.09C573.28,908.62,574.55,908.55,575.82,908.41z"/>
	</g>
</g>
</svg>
