<?xml version="1.0" encoding="utf-8"?>
<!-- Generator: Adobe Illustrator 23.0.1, SVG Export Plug-In . SVG Version: 6.00 Build 0)  -->
<svg version="1.0" xmlns="http://www.w3.org/2000/svg" xmlns:xlink="http://www.w3.org/1999/xlink" x="0px" y="0px"
	 viewBox="0 0 816 687.67" style="enable-background:new 0 0 816 687.67;" xml:space="preserve">
<style type="text/css">
	.st0{display:none;}
	.st1{display:inline;fill:#8BEBFF;}
	.st2{display:inline;fill:#34E0FF;}
	.st3{display:inline;fill:#FFFFFF;}
	.st4{opacity:0.12;fill:#00CCFF;}
	.st5{opacity:0.25;fill:#00CCFF;}
	.st6{fill:#33CCFF;}
	.st7{fill:#00236E;}
	.st8{fill:#8270E4;}
	.st9{fill:#25274D;}
	.st10{fill:#103FCD;}
	.st11{fill:#DB4990;}
	.st12{fill:#FFFFFF;}
	.st13{fill:#00CCFF;}
	.st14{fill:#0D1D7E;}
	.st15{fill:#E4F9FF;}
	.st16{fill:#ACEFFF;}
	.st17{opacity:0.1;enable-background:new    ;}
	.st18{opacity:0.3;enable-background:new    ;}
	.st19{fill:#00B4FF;}
	.st20{fill:#5D589D;}
	.st21{fill:#F5CFBF;}
	.st22{fill:#0D232B;}
	.st23{fill:#F29D9D;}
	.st24{fill:#BD422A;}
	.st25{fill:#C3B9DD;}
	.st26{opacity:0.45;fill:#FFFFFF;enable-background:new    ;}
	.st27{fill:#233182;}
	.st28{fill:#5F5F72;}
	.st29{fill:#171733;}
	.st30{fill:#F6D5C7;}
</style>
<g id="Layer_3" class="st0">
	<rect x="1" y="-0.11" class="st1" width="1919" height="965.11"/>
</g>
<g id="Layer_7" class="st0">
</g>
<g id="Layer_6" class="st0">
	<path class="st2" d="M1169.44,0.11C1297.89,792.56,490,1233.11,1,590.11v-590H1169.44z"/>
</g>
<g id="Layer_5" class="st0">
	<path class="st3" d="M1122.78,0.11c221,686-459.11,1060.22-1123.11,710.22L0.11,0.11H1122.78z"/>
</g>
<g id="Layer_1">
	<g>
		<path class="st4" d="M723.83,199.65c0.07,39.84-18.78,77.36-50.8,101.07c-21.25,15.8-47.03,24.31-73.51,24.28
			c-3.15,0-6.26-0.12-9.31-0.36c-5.12-0.39-10.22-1.12-15.24-2.18c-9.24,16.51-23.38,29.74-40.48,37.86
			c-12.1,5.75-25.33,8.73-38.73,8.72c-13.77-0.05-27.36-3.16-39.78-9.09c-1.29,3.02-2.72,5.96-4.29,8.82
			c-8.44,15.48-20.66,28.58-35.51,38.08c-48.27,30.68-112.27,16.42-142.96-31.85c-3.95-6.21-7.22-12.82-9.77-19.73
			c-6.48,1.36-13.08,2.07-19.7,2.12c-14.93-0.08-29.63-3.64-42.96-10.37c-48.17-24.53-67.33-83.46-42.8-131.63
			c8.45-16.59,21.45-30.42,37.48-39.88c-1.38-3.15-2.59-6.38-3.67-9.68c-19.08-58.81,13.13-121.94,71.93-141.02
			c45.23-14.67,94.8,0.83,123.6,38.66c7.07-7.48,15.25-13.83,24.26-18.81c1.66-0.92,3.37-1.8,5.09-2.62
			c13.64-6.56,28.58-9.95,43.71-9.92c38.12,0,71.15,21.18,88.95,52.74c15.81-6.97,32.9-10.58,50.18-10.6
			c38.34,0.01,74.5,17.8,97.91,48.16c17.17,22.08,26.46,49.27,26.4,77.25L723.83,199.65z"/>
		<path class="st5" d="M719.26,165.83c-4.38-15.76-11.79-30.52-21.83-43.43c-0.64-0.82-1.29-1.65-1.96-2.47
			c-0.38-0.46-0.76-0.91-1.14-1.36c-0.29-0.35-0.57-0.69-0.87-1.03c-0.44-0.51-0.89-1.02-1.34-1.53l-0.72-0.81
			c-0.48-0.53-0.97-1.06-1.46-1.58l-0.65-0.7c-0.51-0.54-1.03-1.07-1.56-1.61l-0.62-0.62c-0.54-0.54-1.09-1.08-1.65-1.62
			c-0.18-0.18-0.36-0.35-0.55-0.52c-0.57-0.55-1.15-1.1-1.74-1.64l-0.47-0.43c-0.62-0.56-1.23-1.12-1.85-1.66l-0.28-0.23
			c-0.62-0.56-1.27-1.11-1.92-1.65l0,0c-18.23-15.25-40.49-24.9-64.08-27.78v53.39h80.64c3.33,6.84,6.03,13.97,8.07,21.3
			c1.44,5.24,2.55,10.56,3.31,15.94h-59.66v77.35H693c-5.38,10.06-12.11,19.33-20,27.57v-11.64h-82.79v49.8
			c-2.2,0.12-4.4,0.2-6.63,0.2c-3.16,0-6.26-0.12-9.31-0.36c-5.12-0.4-10.22-1.13-15.24-2.18c-6.14,10.98-14.5,20.57-24.54,28.16
			v-30.71h-82.84v44.65c-3.98-1.28-7.88-2.83-11.66-4.62c-1.29,3.02-2.72,5.96-4.29,8.82c-5.76,10.57-13.31,20.06-22.3,28.07v-58.27
			h-82.78v77.3h51.93c-2.57,1.01-5.17,1.94-7.84,2.74c-32.68,9.88-68.14,3.02-94.78-18.33c32.99,41.2,91.72,50.91,136.21,22.51
			c14.85-9.51,27.06-22.6,35.5-38.08c1.57-2.88,3-5.82,4.29-8.82c12.43,5.94,26.03,9.04,39.81,9.09c13.4,0.01,26.63-2.97,38.73-8.72
			c17.09-8.11,31.24-21.34,40.48-37.86c5.03,1.06,10.12,1.78,15.24,2.18c3.05,0.23,6.16,0.35,9.31,0.36
			c26.48,0.03,52.27-8.48,73.52-24.28C714.79,269.59,733.14,216.03,719.26,165.83z"/>
		<polygon class="st6" points="173.42,410.97 173.75,413.05 175.97,415.21 180.12,417.39 186.29,419.65 194.51,421.94 204.8,424.29 
			217.19,426.67 231.63,429.09 248.13,431.54 266.59,434.02 286.92,436.52 309.02,439.03 332.75,441.54 357.94,444.05 
			384.38,446.54 411.87,449.01 440.17,451.43 469.04,453.82 498.21,456.14 527.4,458.42 556.36,460.63 584.77,462.76 612.4,464.81 
			638.98,466.78 602.45,463.63 583.92,461.44 567.04,459.4 549.51,457.34 531.43,455.22 512.99,453.06 494.32,450.88 475.61,448.66 
			457.02,446.41 438.7,444.14 420.82,441.85 403.56,439.55 387.02,437.24 371.38,434.94 356.74,432.63 343.21,430.35 330.87,428.06 
			319.82,425.82 310.11,423.58 301.77,421.38 294.85,419.2 289.35,417.06 285.26,414.96 282.58,412.89 281.66,411.45 281.28,410.86 
			281.31,408.87 282.65,406.92 285.2,405.01 288.95,403.13 293.81,401.29 299.7,399.48 306.56,397.71 314.32,395.96 322.88,394.27 
			332.17,392.57 342.11,390.91 352.62,389.27 363.62,387.65 375.03,386.04 386.8,384.45 398.79,382.87 410.98,381.3 423.27,379.72 
			435.61,378.16 447.9,376.58 460.09,375.02 472.09,373.45 483.88,371.85 469.2,373.16 451.67,374.64 434.07,376.12 416.4,377.59 
			398.78,379.06 381.24,380.53 363.88,382.02 346.73,383.5 329.9,385 313.44,386.5 297.46,388.04 282.03,389.58 267.23,391.16 
			253.14,392.75 239.87,394.39 227.52,396.06 216.16,397.75 205.92,399.5 196.87,401.29 189.15,403.13 182.84,405.01 178.07,406.94 
			174.88,408.93 		"/>
		<polygon class="st7" points="281.28,410.86 281.66,411.45 282.6,410.08 285.18,408.13 288.94,406.22 293.81,404.35 299.73,402.51 
			306.6,400.72 314.36,398.95 322.94,397.22 332.26,395.51 342.21,393.82 352.74,392.15 363.75,390.51 375.19,388.89 386.94,387.27 
			398.98,385.68 411.18,384.08 423.49,382.51 435.83,380.92 448.14,379.34 460.34,377.76 472.35,376.19 484.14,374.59 
			495.63,372.98 506.74,371.4 517.44,369.77 527.65,368.13 537.34,366.49 546.46,364.83 554.98,363.16 562.83,361.45 569.98,359.74 
			576.47,358.01 582.24,356.27 587.3,354.52 591.66,352.75 595.32,350.96 598.3,349.16 600.63,347.36 602.34,345.54 603.45,343.7 
			603.97,341.86 603.91,340.01 603.79,339.67 603.4,340.96 602.24,342.8 600.49,344.62 598.12,346.43 595.1,348.23 591.41,350.02 
			587.04,351.8 581.95,353.56 576.18,355.3 569.69,357.03 562.52,358.75 554.66,360.43 546.16,362.12 537.04,363.77 527.36,365.42 
			517.15,367.04 506.45,368.67 495.35,370.26 483.88,371.85 472.09,373.45 460.09,375.02 447.9,376.58 435.61,378.16 423.27,379.72 
			410.98,381.3 398.79,382.87 386.8,384.45 375.03,386.04 363.62,387.65 352.62,389.27 342.11,390.91 332.17,392.57 322.88,394.27 
			314.32,395.96 306.56,397.71 299.7,399.48 293.81,401.29 288.95,403.13 285.2,405.01 282.65,406.92 281.31,408.87 		"/>
		<path class="st5" d="M247.68,165.83H191.8c1.08,3.29,2.3,6.53,3.67,9.68c-12.14,7.14-22.58,16.83-30.61,28.4v39.22h82.82V165.83z"
			/>
		<path class="st5" d="M494.41,42.05h-77.74c-1.72,0.82-3.43,1.7-5.09,2.62v74.71h82.82V42.05z"/>
		<path class="st5" d="M283.62,292.87H200.8v54.16c13.32,6.74,28.03,10.3,42.96,10.39c6.62-0.05,13.22-0.76,19.7-2.12
			c1.89,5.14,4.19,10.12,6.88,14.89h13.29V292.87z"/>
		<polygon class="st5" points="419.98,199.41 419.98,267.77 502.8,267.77 502.8,199.41 502.8,190.47 419.98,190.47 		"/>
		<path class="st5" d="M336.63,26.15c-26.92-9.73-56.52-8.86-82.82,2.41v65.86h82.82V26.15z"/>
		<polygon class="st5" points="301.17,153.12 301.17,221.48 383.99,221.48 383.99,153.12 383.99,144.18 301.17,144.18 		"/>
		<polygon class="st5" points="607.87,136.64 607.87,127.69 525.05,127.69 525.05,136.64 525.05,205 607.87,205 		"/>
		<rect x="445.71" y="306.96" class="st8" width="82.82" height="68.35"/>
		<rect x="445.7" y="298.01" class="st9" width="82.82" height="8.95"/>
		<rect x="482.88" y="328.44" class="st9" width="16.92" height="16.92"/>
		<rect x="158.89" y="168.81" class="st8" width="82.82" height="68.36"/>
		<rect x="158.89" y="159.87" class="st9" width="82.82" height="8.95"/>
		<rect x="196.05" y="182.83" class="st9" width="8.5" height="40.32"/>
		<rect x="405.63" y="45.04" class="st8" width="82.82" height="68.36"/>
		<rect x="405.63" y="36.09" class="st9" width="82.82" height="8.95"/>
		<rect x="641.01" y="168.81" class="st8" width="82.82" height="68.36"/>
		<rect x="641.01" y="159.87" class="st9" width="82.82" height="8.95"/>
		<rect x="194.83" y="295.86" class="st6" width="82.82" height="68.36"/>
		<rect x="194.83" y="286.91" class="st9" width="82.82" height="8.95"/>
		<rect x="584.25" y="262.05" class="st10" width="82.82" height="68.36"/>
		<rect x="584.25" y="253.11" class="st9" width="82.82" height="8.95"/>
		<rect x="608.63" y="54.27" class="st6" width="82.82" height="68.36"/>
		<rect x="608.63" y="45.32" class="st9" width="82.82" height="8.95"/>
		<rect x="414.01" y="193.44" class="st6" width="82.82" height="68.36"/>
		<rect x="414.01" y="184.5" class="st9" width="82.82" height="8.95"/>
		<rect x="247.83" y="20.09" class="st11" width="82.82" height="68.36"/>
		<rect x="247.83" y="11.14" class="st9" width="82.82" height="8.95"/>
		<rect x="295.2" y="147.15" class="st10" width="82.82" height="68.36"/>
		<rect x="295.2" y="138.21" class="st9" width="82.82" height="8.95"/>
		<path class="st9" d="M351.48,172.3v23.37h-29.56v-6.88C338.25,188.78,351.48,181.4,351.48,172.3z"/>
		<rect x="519.08" y="130.67" class="st11" width="82.82" height="68.36"/>
		<rect x="519.08" y="121.73" class="st9" width="82.82" height="8.95"/>
		<rect x="324.64" y="325.62" class="st11" width="82.82" height="68.36"/>
		<rect x="324.64" y="316.67" class="st9" width="82.82" height="8.95"/>
		<path class="st12" d="M213.04,191.22h-7.01v-8.39c0-0.82-0.66-1.49-1.48-1.49c0,0,0,0-0.01,0h-8.51c-0.82,0-1.49,0.67-1.49,1.49
			c0,0,0,0,0,0.01v18.42h-7c-0.82,0-1.49,0.67-1.49,1.49l0,0v20.41c0,0.82,0.66,1.49,1.48,1.49c0,0,0,0,0.01,0h25.49
			c0.83,0,1.49-0.67,1.49-1.49v0v-30.43C214.54,191.89,213.87,191.22,213.04,191.22C213.04,191.22,213.04,191.22,213.04,191.22z
			 M189.04,204.24h5.51v17.45h-5.51V204.24z M197.54,202.74v-18.42h5.51v37.37h-5.51V202.74z M211.55,221.69h-5.52v-27.48h5.52
			V221.69z"/>
		<path class="st12" d="M500.37,327.06c-0.18-0.08-0.38-0.12-0.57-0.12h-16.92c-0.2,0-0.39,0.04-0.57,0.12
			c-0.18,0.07-0.35,0.19-0.48,0.33l-8.46,8.45c-0.14,0.14-0.25,0.31-0.33,0.49c-0.07,0.18-0.11,0.37-0.11,0.57v16.92
			c0,0.82,0.66,1.48,1.48,1.49c0,0,0.01,0,0.01,0h16.92c0.19,0,0.39-0.04,0.57-0.11c0.18-0.08,0.35-0.19,0.49-0.33l8.46-8.46
			c0.14-0.14,0.25-0.31,0.32-0.49c0.08-0.18,0.12-0.37,0.12-0.57v-16.92c0-0.2-0.04-0.39-0.12-0.57
			C501.03,327.51,500.74,327.22,500.37,327.06z M484.38,338.39h5.48v5.48h-5.48V338.39z M490.73,335.4h-6.35v-5.48h11.83
			L490.73,335.4z M481.39,335.4h-3.37l3.37-3.37V335.4z M475.91,338.39h5.48v6.36l-5.48,5.48V338.39z M483.5,346.85h6.35v5.48
			h-11.82L483.5,346.85z M492.83,346.85h3.37l-3.37,3.37V346.85z M498.31,343.86h-5.48v-6.35l5.48-5.48L498.31,343.86z"/>
		<path class="st12" d="M452.55,100.12c0.46-0.04,0.87-0.28,1.12-0.66l6.28-9.42l4.86,3.24c0.4,0.26,0.9,0.32,1.35,0.16
			c0.45-0.17,0.79-0.54,0.91-1l10.66-38.07c0.22-0.79-0.24-1.62-1.03-1.84c-0.79-0.22-1.62,0.24-1.84,1.03l-10.11,36.11l-4.39-2.93
			c-0.69-0.45-1.61-0.27-2.07,0.41l-6.03,9.08L433.75,76.3c-0.32-0.35-0.8-0.53-1.27-0.47c-0.48,0.06-0.9,0.34-1.13,0.77
			l-14.89,27.17c-0.39,0.72-0.13,1.62,0.59,2.01c0.01,0,0.02,0.01,0.03,0.01c0.22,0.12,0.47,0.19,0.72,0.19
			c0.54,0,1.04-0.29,1.3-0.77l13.86-25.36l18.4,19.81C451.66,99.98,452.1,100.16,452.55,100.12z"/>
		<path class="st12" d="M682.42,184.74c-10.08,0-18.25,8.17-18.25,18.25s8.17,18.25,18.25,18.25c10.08,0,18.25-8.17,18.25-18.25
			c0,0,0,0,0-0.01C700.66,192.92,692.49,184.75,682.42,184.74z M697.61,201.5h-13.7v-13.7C691.16,188.52,696.9,194.25,697.61,201.5z
			 M682.42,218.26c-8.43,0.03-15.29-6.78-15.32-15.21c-0.03-7.89,5.97-14.51,13.83-15.25v15.19c0,0.83,0.67,1.49,1.49,1.49l0,0h15.2
			C696.83,212.29,690.27,218.25,682.42,218.26z"/>
		<path class="st12" d="M253.04,313.69h-33.59c-0.82,0-1.49,0.67-1.49,1.49v24.44c0,0.82,0.66,1.49,1.48,1.49c0,0,0,0,0.01,0h11.68
			v2.29h-7.87c-0.82,0.05-1.45,0.76-1.4,1.59c0.05,0.75,0.65,1.35,1.4,1.4h25.98c0.82,0.05,1.53-0.57,1.59-1.4
			c0.05-0.82-0.57-1.53-1.4-1.59c-0.06,0-0.13,0-0.19,0h-7.87v-2.3h11.68c0.83,0,1.49-0.67,1.49-1.49v-24.43
			C254.53,314.36,253.87,313.69,253.04,313.69C253.04,313.69,253.04,313.69,253.04,313.69z M251.55,338.12h-30.61v-21.45h30.61
			L251.55,338.12z"/>
		<path class="st12" d="M647.41,306.95h-3.46v-22.94c0-0.83-0.67-1.49-1.49-1.49l0,0h-33.59c-0.82,0-1.49,0.67-1.49,1.49
			c0,0,0,0,0,0.01v22.94h-3.46c-0.82-0.05-1.53,0.57-1.59,1.4c-0.05,0.82,0.57,1.53,1.4,1.59c0.06,0,0.13,0,0.19,0h43.5
			c0.82-0.05,1.45-0.76,1.4-1.59C648.76,307.6,648.16,307,647.41,306.95L647.41,306.95z M610.36,306.95v-21.44h30.61v21.44H610.36z"
			/>
		<path class="st12" d="M633.25,102.16h33.59c0.83,0,1.49-0.67,1.49-1.49c0,0,0,0,0,0V80.3c0-0.83-0.67-1.49-1.49-1.49l0,0h-11.82
			l-2.57-3.46c-0.28-0.38-0.72-0.61-1.2-0.62h-17.99c-0.82,0-1.49,0.67-1.49,1.49c0,0,0,0,0,0.01v24.45
			C631.77,101.49,632.43,102.16,633.25,102.16z M634.75,77.72h15.75l2.57,3.46c0.28,0.38,0.72,0.61,1.2,0.62h11.08v17.39h-30.6
			L634.75,77.72z"/>
		<path class="st12" d="M448.3,226.39c0.01,0.82,0.67,1.48,1.49,1.48h11.27c0.82,0.05,1.53-0.57,1.59-1.4
			c0.05-0.82-0.57-1.53-1.4-1.59c-0.06,0-0.13,0-0.19,0H449.8c-0.82,0-1.49,0.66-1.49,1.48C448.3,226.37,448.3,226.38,448.3,226.39z
			"/>
		<path class="st12" d="M461.07,230.03H449.8c-0.83,0-1.49,0.67-1.49,1.5c0,0.82,0.67,1.49,1.49,1.49h11.27
			c0.83,0,1.49-0.67,1.49-1.5C462.56,230.7,461.9,230.03,461.07,230.03L461.07,230.03z"/>
		<path class="st12" d="M461.07,235.15h-5.61c-0.83,0-1.5,0.67-1.5,1.49c0,0.83,0.67,1.5,1.49,1.5c0,0,0,0,0,0h5.61
			c0.83,0,1.49-0.67,1.49-1.5C462.56,235.82,461.89,235.15,461.07,235.15z"/>
		<path class="st12" d="M449.8,220.35h5.25c0.82,0.05,1.53-0.57,1.59-1.4c0.05-0.82-0.57-1.53-1.4-1.59c-0.06,0-0.13,0-0.19,0h-5.25
			c-0.82,0.05-1.45,0.76-1.4,1.59C448.45,219.7,449.05,220.3,449.8,220.35z"/>
		<path class="st12" d="M468.03,219.38c0-0.05,0-0.1-0.05-0.15c-0.07-0.15-0.17-0.29-0.28-0.41l0,0l-6.88-6.88l0,0
			c-0.12-0.11-0.26-0.21-0.41-0.28c-0.05-0.02-0.11-0.04-0.17-0.06c-0.11-0.04-0.23-0.06-0.35-0.07c-0.04,0-0.07,0-0.11,0H444.2
			c-0.82,0-1.49,0.67-1.49,1.49v29.27c0,0.82,0.66,1.49,1.48,1.49c0,0,0,0,0.01,0h22.43c0.83,0,1.49-0.67,1.49-1.49v-22.45
			c0-0.04,0-0.06,0-0.1C468.11,219.62,468.07,219.5,468.03,219.38z M465.14,240.77H445.7v-26.29h12.56v5.36
			c0,0.83,0.67,1.49,1.49,1.49h5.38L465.14,240.77z"/>
		<path class="st12" d="M298.66,37.78h-18.82c-0.82,0-1.49,0.67-1.49,1.49c0,0,0,0,0,0.01v29.99c0,0.82,0.67,1.49,1.49,1.49h18.82
			c0.82,0,1.49-0.66,1.49-1.48c0,0,0,0,0-0.01V39.28C300.15,38.45,299.48,37.78,298.66,37.78z M297.17,67.77h-15.84V40.78h15.84
			V67.77z"/>
		<path class="st12" d="M286.65,45.27h5.2c0.82,0.05,1.53-0.57,1.59-1.4c0.05-0.82-0.57-1.53-1.4-1.59c-0.06,0-0.13,0-0.19,0h-5.2
			c-0.82,0.05-1.45,0.76-1.4,1.59C285.3,44.63,285.9,45.22,286.65,45.27z"/>
		<path class="st12" d="M289.26,63.66c-0.88,0-1.59,0.71-1.59,1.59c0,0.88,0.71,1.59,1.59,1.59c0.88,0,1.59-0.71,1.59-1.59
			C290.86,64.37,290.14,63.66,289.26,63.66L289.26,63.66z"/>
		<path class="st12" d="M359.78,194.62l-3.09-3.09c-0.56-0.6-1.51-0.64-2.11-0.08c-0.6,0.56-0.64,1.51-0.08,2.11
			c0.03,0.03,0.05,0.05,0.08,0.08l0.52,0.52h-2.14V172.3c0-0.83-0.67-1.49-1.49-1.49l0,0c-0.83,0-1.49,0.67-1.49,1.49
			c0,8.11-12.85,14.97-28.06,14.97c-0.82,0.01-1.49,0.68-1.49,1.5v5.4h-1.37v-26.64l0.52,0.52c0.58,0.58,1.53,0.58,2.11,0
			c0.58-0.58,0.58-1.53,0-2.11l-3.09-3.09c-0.59-0.58-1.53-0.58-2.11,0l-3.09,3.09c-0.58,0.58-0.58,1.53,0,2.11s1.53,0.58,2.11,0
			l0.52-0.52v28.14c0,0.82,0.66,1.49,1.48,1.49c0,0,0,0,0.01,0h37.55l-0.52,0.52c-0.56,0.6-0.53,1.55,0.08,2.11
			c0.57,0.53,1.46,0.53,2.03,0l3.09-3.09c0.14-0.14,0.25-0.31,0.32-0.49c0.15-0.37,0.15-0.78,0-1.14
			C359.99,194.91,359.89,194.75,359.78,194.62z M350,194.18h-26.58v-3.93c1.04,0,2.06-0.09,3.09-0.17l0.44-0.04
			c1.4-0.13,2.75-0.3,4.08-0.53l0.33-0.06l1.23-0.23l0.4-0.09c1.23-0.27,2.47-0.58,3.62-0.93l0.43-0.13l1-0.34l0.36-0.13
			c0.62-0.23,1.28-0.48,1.9-0.73c0.12-0.05,0.24-0.09,0.36-0.15c0.3-0.13,0.62-0.27,0.9-0.41c0.16-0.07,0.31-0.14,0.47-0.22
			l0.85-0.42l0.22-0.12c0.54-0.29,1.07-0.62,1.57-0.9l0.46-0.29l0.68-0.46c0.16-0.1,0.31-0.22,0.46-0.33
			c0.35-0.25,0.69-0.52,1.01-0.78l0.48-0.4l0.52-0.48l0.42-0.4c0.17-0.16,0.33-0.33,0.48-0.49s0.29-0.31,0.43-0.48
			s0.25-0.27,0.36-0.4L350,194.18z"/>
		<path class="st12" d="M575.19,158.23c-1.8,0-3.56,0.49-5.1,1.41c-2.87-6.76-10.68-9.91-17.44-7.04c-3.49,1.48-6.18,4.39-7.4,7.98
			c-4.91-0.29-9.12,3.46-9.41,8.37c-0.01,0.14-0.01,0.27-0.01,0.41c0.01,4.86,3.95,8.8,8.8,8.8h30.56
			c5.5,0.14,10.07-4.21,10.21-9.71c0.14-5.5-4.21-10.07-9.71-10.21C575.52,158.23,575.35,158.23,575.19,158.23L575.19,158.23z
			 M575.19,175.17h-30.56c-3.21,0-5.82-2.6-5.82-5.81c0-3.21,2.6-5.82,5.81-5.82c0,0,0.01,0,0.01,0c0.46,0,0.91,0.05,1.36,0.16
			c0.39,0.1,0.79,0.03,1.13-0.19c0.34-0.21,0.58-0.55,0.67-0.94c1.24-5.56,6.76-9.05,12.31-7.81c3.84,0.86,6.86,3.84,7.78,7.67
			c0.19,0.8,1,1.29,1.8,1.09c0.25-0.06,0.48-0.19,0.67-0.37c2.78-2.67,7.2-2.58,9.86,0.2c2.67,2.78,2.58,7.2-0.2,9.87
			c-1.3,1.25-3.03,1.95-4.84,1.94H575.19z"/>
		<path class="st12" d="M359.12,352.96c-0.58-0.58-1.51-0.59-2.1-0.01c0,0-0.01,0.01-0.01,0.01l-5.78,5.8
			c-0.58,0.58-0.59,1.51-0.01,2.1c0,0,0.01,0.01,0.01,0.01l5.78,5.78c0.58,0.58,1.52,0.58,2.11,0c0.58-0.58,0.58-1.52,0-2.11
			l-4.72-4.72l4.72-4.73c0.59-0.57,0.59-1.51,0.02-2.1C359.13,352.98,359.13,352.98,359.12,352.96z"/>
		<path class="st12" d="M375.09,352.96c-0.58-0.58-1.52-0.58-2.11,0c-0.58,0.58-0.58,1.52,0,2.11l4.72,4.73l-4.72,4.72
			c-0.58,0.58-0.58,1.52,0,2.11s1.52,0.58,2.11,0l5.79-5.78c0.58-0.58,0.58-1.52,0-2.11L375.09,352.96z"/>
		<path class="st12" d="M369.6,347.9c-0.79-0.22-1.61,0.22-1.85,1.01l-6.24,20.94c-0.24,0.79,0.21,1.62,1,1.85c0,0,0,0,0,0
			c0.14,0.04,0.28,0.06,0.43,0.06c0.66,0,1.24-0.43,1.43-1.07l6.25-20.94C370.85,348.96,370.39,348.13,369.6,347.9
			C369.6,347.9,369.6,347.9,369.6,347.9z"/>
		<circle class="st9" cx="432.63" cy="77.31" r="2.98"/>
		<circle class="st9" cx="452.44" cy="98.64" r="2.98"/>
		<circle class="st9" cx="465.64" cy="92.04" r="2.98"/>
		<circle class="st9" cx="459.55" cy="87.97" r="2.98"/>
		<circle class="st9" cx="476.31" cy="53.95" r="2.98"/>
		<circle class="st9" cx="417.78" cy="104.48" r="2.98"/>
		<path class="st9" d="M327.72,245.26h51.97c2.38,0,4.3,1.93,4.3,4.3v29.49c0,2.38-1.93,4.3-4.3,4.3h-51.97
			c-2.38,0-4.3-1.93-4.3-4.3v-29.49C323.42,247.19,325.34,245.26,327.72,245.26z"/>
		<polygon class="st6" points="456.41,296.46 445.59,295.44 428.81,293.89 412.57,292.42 396.99,291.02 382.13,289.72 
			368.14,288.48 355.05,287.33 342.98,286.24 331.94,285.23 322.02,284.3 313.22,283.43 305.58,282.6 299.12,281.85 293.83,281.13 
			289.74,280.47 286.78,279.85 284.99,279.26 284.31,278.7 284.69,278.16 286.12,277.64 288.55,277.13 291.94,276.64 296.22,276.15 
			301.35,275.67 307.26,275.16 313.93,274.66 321.25,274.12 323.42,273.97 329.21,273.59 337.75,273.01 346.77,272.41 
			356.27,271.81 366.15,271.15 376.37,270.46 383.99,269.95 383.99,274.7 382.02,275.13 378.88,275.95 376.37,276.75 374.5,277.58 
			373.3,278.39 372.82,279.24 373.09,280.09 373.79,280.7 374.11,280.96 375.89,281.87 378.44,282.81 380.34,283.35 381.75,283.76 
			385.84,284.76 390.68,285.79 396.25,286.87 402.52,288 409.45,289.17 417,290.39 425.1,291.66 433.71,292.99 442.78,294.38 
			452.19,295.81 		"/>
		<polygon class="st6" points="694.02,340.09 693.46,342.24 691.33,344.36 687.62,346.44 682.47,348.46 675.89,350.45 
			668.03,352.39 658.94,354.29 648.74,356.16 637.51,357.97 625.35,359.74 612.35,361.47 598.54,363.18 584.1,364.83 569.01,366.47 
			553.4,368.07 537.31,369.65 528.53,370.48 528.53,367.99 537.33,366.49 546.46,364.83 554.98,363.15 562.83,361.45 569.97,359.74 
			576.47,358.02 582.24,356.27 587.29,354.52 591.66,352.75 595.31,350.95 598.31,349.16 600.63,347.35 602.34,345.53 603.45,343.7 
			603.97,341.86 603.91,340 603.79,339.67 603.29,338.16 602.1,336.29 600.32,334.4 597.97,332.52 594.98,330.62 591.35,328.73 
			587.08,326.82 582.15,324.93 576.56,323.02 570.34,321.13 563.48,319.24 556,317.34 547.97,315.5 539.44,313.66 530.45,311.84 
			528.53,311.48 521.09,310.07 511.44,308.31 503.69,306.96 501.56,306.59 491.56,304.92 481.49,303.29 459.79,300.38 428.44,296.9 
			445.21,298.45 462.4,300.09 479.89,301.8 497.54,303.57 515.22,305.43 532.81,307.35 550.13,309.33 567.06,311.36 583.49,313.44 
			599.2,315.57 614.16,317.75 628.15,319.96 641.08,322.17 652.8,324.42 663.25,326.67 672.27,328.95 679.83,331.21 685.81,333.45 
			690.19,335.7 692.93,337.91 		"/>
		<polygon class="st6" points="612.62,468.67 614.79,468.94 628.94,470.81 641.98,472.65 653.86,474.42 664.48,476.15 
			673.88,477.85 681.98,479.5 688.79,481.13 694.3,482.72 698.52,484.26 701.45,485.79 702.65,486.88 703.11,487.29 703.5,488.78 
			702.66,490.25 700.6,491.7 697.34,493.16 692.88,494.6 687.25,496.04 680.48,497.48 672.56,498.93 663.58,500.4 653.5,501.88 
			642.41,503.4 630.33,504.95 672.92,501.17 699.32,499.22 717.32,497.99 734.07,496.82 749.51,495.7 763.5,494.61 775.9,493.56 
			786.62,492.53 795.5,491.52 802.46,490.52 807.38,489.53 810.15,488.52 810.67,487.5 808.89,486.42 804.73,485.34 798.18,484.19 
			789.22,482.98 777.87,481.73 764.16,480.38 748.19,478.97 730,477.47 709.81,475.88 687.72,474.2 663.91,472.43 638.59,470.58 		
			"/>
		<polygon class="st13" points="4.61,616.52 5.45,623.4 9.47,630.42 16.88,637.55 27.8,644.77 42.37,652.02 61.14,659.39 
			105.58,673.06 240.44,658.19 198.58,646.3 183.69,640.6 170.85,634.74 160.57,628.87 152.84,623.04 147.62,617.24 144.8,611.52 
			144.57,608.81 144.33,605.89 146.07,600.37 149.92,594.98 155.72,589.73 163.36,584.65 172.7,579.7 183.6,574.93 195.9,570.33 
			209.5,565.89 224.22,561.64 239.96,557.55 256.59,553.64 273.98,549.9 292.01,546.31 310.59,542.88 329.57,539.6 348.87,536.5 
			368.41,533.52 388.05,530.68 407.73,527.97 427.36,525.4 446.85,522.93 466.11,520.58 485.06,518.35 503.63,516.2 521.76,514.13 
			539.33,512.17 556.33,510.29 572.66,508.47 588.24,506.71 603.05,505.02 617.03,503.37 630.07,501.78 642.16,500.22 
			644.14,499.94 638.78,500.31 616.93,501.82 594.32,503.43 571.06,505.13 547.25,506.94 522.9,508.84 498.15,510.84 473.03,512.97 
			447.63,515.22 422.02,517.59 396.27,520.12 370.45,522.77 344.65,525.58 318.95,528.55 293.43,531.69 268.16,535.02 243.28,538.5 
			218.87,542.2 195.03,546.07 171.88,550.16 149.58,554.46 128.24,558.97 108,563.72 89.04,568.68 71.51,573.87 55.56,579.31 
			41.44,584.95 29.28,590.85 19.31,596.95 11.74,603.27 6.78,609.8 		"/>
		<polygon class="st14" points="383.99,274.7 383.99,277.3 382.07,277.73 378.9,278.56 376.37,279.38 374.49,280.21 373.79,280.7 
			373.09,280.09 372.82,279.24 373.3,278.39 374.5,277.58 376.37,276.75 378.88,275.95 382.02,275.13 		"/>
		<polygon class="st7" points="284.24,281.42 284.89,282 286.69,282.61 289.61,283.26 293.7,283.95 298.96,284.68 305.41,285.47 
			313.02,286.31 321.79,287.2 331.71,288.16 342.72,289.18 354.78,290.27 367.84,291.45 381.82,292.69 396.64,294.02 412.22,295.41 
			428.45,296.9 445.21,298.45 462.4,300.08 479.89,301.8 497.54,303.58 515.22,305.43 532.81,307.35 550.13,309.33 567.07,311.37 
			583.48,313.45 599.21,315.58 614.16,317.75 628.15,319.96 641.08,322.17 652.8,324.43 663.24,326.67 672.27,328.94 679.82,331.21 
			685.81,333.45 690.19,335.69 692.93,337.91 694.01,340.09 694.03,337.34 692.99,335.13 690.31,332.9 685.98,330.64 680.04,328.37 
			672.53,326.09 663.55,323.8 653.14,321.53 641.44,319.27 628.53,317.02 614.57,314.79 599.63,312.61 583.91,310.46 567.51,308.37 
			550.58,306.33 533.24,304.34 515.66,302.43 497.97,300.56 480.3,298.78 462.8,297.07 456.54,296.47 456.42,296.46 445.59,295.44 
			428.82,293.88 412.57,292.41 396.99,291.02 382.14,289.72 368.15,288.48 355.06,287.33 342.98,286.24 331.94,285.23 322.02,284.3 
			313.22,283.43 305.58,282.6 299.12,281.85 293.83,281.13 289.73,280.47 286.78,279.85 284.99,279.26 284.3,278.7 		"/>
		<polygon class="st7" points="173.34,414.23 173.64,416.37 175.85,418.56 179.98,420.8 186.14,423.09 194.33,425.43 204.6,427.8 
			216.96,430.24 231.39,432.71 247.87,435.18 266.3,437.71 286.61,440.24 308.7,442.78 332.4,445.32 357.57,447.85 384,450.36 
			411.49,452.82 439.78,455.27 468.65,457.66 497.8,460 526.99,462.26 555.94,464.47 584.37,466.59 612,468.62 612.62,468.67 
			638.59,470.58 663.91,472.43 687.72,474.2 709.81,475.88 730,477.47 748.19,478.97 764.16,480.38 777.87,481.73 789.22,482.98 
			798.18,484.19 804.73,485.34 808.89,486.42 810.67,487.5 810.67,484.11 808.92,483.01 804.8,481.88 798.3,480.68 789.37,479.44 
			778.06,478.14 764.39,476.77 748.45,475.31 730.29,473.78 710.14,472.16 688.06,470.46 664.28,468.67 638.98,466.78 612.4,464.81 
			584.77,462.76 556.36,460.63 527.4,458.42 498.21,456.14 469.04,453.82 440.17,451.43 411.87,449.01 384.38,446.54 357.94,444.05 
			332.75,441.54 309.02,439.03 286.92,436.52 266.59,434.02 248.13,431.54 231.63,429.09 217.19,426.67 204.8,424.29 194.51,421.94 
			186.29,419.65 180.12,417.39 175.97,415.21 173.75,413.05 173.42,410.97 		"/>
		<polygon class="st7" points="144.33,605.89 144.57,608.81 145.98,604.34 149.85,598.88 155.68,593.57 163.34,588.43 172.7,583.42 
			183.61,578.6 195.92,573.95 209.53,569.46 224.27,565.16 240.04,561.02 256.68,557.08 274.07,553.29 292.12,549.66 310.71,546.2 
			329.71,542.91 349.03,539.76 368.56,536.76 388.23,533.9 407.92,531.17 427.56,528.57 447.05,526.11 466.32,523.75 485.28,521.48 
			503.86,519.34 521.98,517.27 539.57,515.31 556.58,513.41 572.9,511.61 588.5,509.86 603.31,508.18 617.27,506.54 630.33,504.95 
			642.41,503.4 653.5,501.88 663.58,500.4 672.56,498.93 680.48,497.48 687.25,496.04 692.88,494.6 697.34,493.16 700.6,491.7 
			702.66,490.25 703.5,488.78 703.11,487.29 702.65,486.88 702.63,486.91 700.53,488.4 697.22,489.85 692.74,491.32 687.09,492.78 
			680.29,494.23 672.37,495.7 663.36,497.19 653.28,498.69 644.23,499.93 644.14,499.94 642.16,500.22 630.07,501.78 617.03,503.37 
			603.05,505.02 588.24,506.71 572.66,508.47 556.33,510.29 539.33,512.17 521.76,514.13 503.63,516.2 485.06,518.35 466.11,520.58 
			446.85,522.93 427.36,525.4 407.73,527.97 388.05,530.68 368.41,533.52 348.87,536.5 329.57,539.6 310.59,542.88 292.01,546.31 
			273.98,549.9 256.59,553.64 239.96,557.55 224.22,561.64 209.5,565.89 195.9,570.33 183.6,574.93 172.7,579.7 163.36,584.65 
			155.72,589.73 149.92,594.98 146.07,600.37 		"/>
		<path class="st7" d="M4.47,620.72l0.83,6.96l3.99,7.1l7.41,7.22l10.89,7.3l14.56,7.34l0,0c12.45,4.96,25.33,8.78,38.48,11.41
			l24.98,5l-44.46-13.67l-18.77-7.34l-14.57-7.25l-10.92-7.21l-7.41-7.13l-4.03-7.03l-0.82-6.9L4.47,620.72z"/>
		<path class="st15" d="M286.34,430.89c-3.96,0-7.76,1.53-10.61,4.28c-2.75-11.48-14.29-18.57-25.77-15.82
			c-7.94,1.9-14.1,8.15-15.89,16.12c-7.11-1.7-14.25,2.68-15.96,9.79c-1.7,7.11,2.68,14.25,9.79,15.96
			c1.01,0.24,2.04,0.36,3.08,0.36h55.35c8.47,0,15.34-6.87,15.34-15.34c0-8.47-6.87-15.34-15.34-15.34L286.34,430.89z"/>
		<path class="st16" d="M301.69,446.23c0,8.48-6.87,15.35-15.35,15.35h-55.35c-4.65,0-8.96-2.43-11.35-6.42
			c2.06,1.22,4.4,1.86,6.79,1.85h55.35c8.48,0,15.35-6.88,15.34-15.36c0-2.95-0.85-5.84-2.46-8.32
			C299.05,436.16,301.69,441.02,301.69,446.23z"/>
		<rect x="250.66" y="461.58" class="st14" width="8.54" height="202.63"/>
		<rect x="256.2" y="461.58" class="st17" width="3" height="202.63"/>
		<polygon class="st12" points="186.04,471.23 250.66,471.23 250.66,495.23 186.04,495.23 174.04,483.23 		"/>
		<polygon class="st12" points="186.04,498.19 250.66,498.19 250.66,522.19 186.04,522.19 174.04,510.19 		"/>
		<polygon class="st12" points="186.04,525.16 250.66,525.16 250.66,549.15 186.04,549.15 174.04,537.15 		"/>
		<polygon class="st12" points="186.04,552.12 250.66,552.12 250.66,576.11 186.04,576.11 174.04,564.12 		"/>
		<polygon class="st12" points="186.04,579.08 250.66,579.08 250.66,603.08 186.04,603.08 174.04,591.08 		"/>
		<polygon class="st10" points="285.09,471.23 257.25,471.23 257.25,495.23 285.09,495.23 297.09,483.23 		"/>
		<rect x="266.86" y="478.44" class="st12" width="10.15" height="9.57"/>
		<rect x="276.42" y="478.44" class="st18" width="0.58" height="9.57"/>
		<rect x="229.61" y="478.44" class="st19" width="10.15" height="9.57"/>
		<rect x="239.19" y="478.44" class="st18" width="0.58" height="9.57"/>
		<rect x="216.8" y="478.44" class="st19" width="10.15" height="9.57"/>
		<rect x="226.37" y="478.44" class="st18" width="0.58" height="9.57"/>
		<rect x="203.97" y="478.44" class="st19" width="10.15" height="9.57"/>
		<rect x="213.54" y="478.44" class="st18" width="0.58" height="9.57"/>
		<rect x="191.15" y="478.44" class="st19" width="10.15" height="9.57"/>
		<rect x="200.71" y="478.44" class="st18" width="0.58" height="9.57"/>
		<rect x="229.61" y="505.41" class="st19" width="10.15" height="9.57"/>
		<rect x="239.19" y="505.41" class="st18" width="0.58" height="9.57"/>
		<rect x="216.8" y="505.41" class="st19" width="10.15" height="9.57"/>
		<rect x="226.37" y="505.41" class="st18" width="0.58" height="9.57"/>
		<rect x="229.61" y="532.37" class="st19" width="10.15" height="9.57"/>
		<rect x="239.19" y="532.37" class="st18" width="0.58" height="9.57"/>
		<rect x="216.8" y="532.37" class="st19" width="10.15" height="9.57"/>
		<rect x="226.37" y="532.37" class="st18" width="0.58" height="9.57"/>
		<rect x="203.97" y="532.37" class="st19" width="10.15" height="9.57"/>
		<rect x="213.54" y="532.37" class="st18" width="0.58" height="9.57"/>
		<rect x="229.61" y="559.33" class="st19" width="10.15" height="9.57"/>
		<rect x="239.19" y="559.33" class="st18" width="0.58" height="9.57"/>
		<rect x="216.8" y="559.33" class="st19" width="10.15" height="9.57"/>
		<rect x="226.37" y="559.33" class="st18" width="0.58" height="9.57"/>
		<rect x="203.97" y="559.33" class="st19" width="10.15" height="9.57"/>
		<rect x="213.54" y="559.33" class="st18" width="0.58" height="9.57"/>
		<rect x="191.15" y="559.33" class="st19" width="10.15" height="9.57"/>
		<rect x="200.71" y="559.33" class="st18" width="0.58" height="9.57"/>
		<rect x="229.61" y="586.29" class="st19" width="10.15" height="9.57"/>
		<rect x="239.19" y="586.29" class="st18" width="0.58" height="9.57"/>
		<rect x="216.8" y="586.29" class="st19" width="10.15" height="9.57"/>
		<rect x="226.37" y="586.29" class="st18" width="0.58" height="9.57"/>
		<rect x="203.97" y="586.29" class="st19" width="10.15" height="9.57"/>
		<rect x="213.54" y="586.29" class="st18" width="0.58" height="9.57"/>
		<polygon class="st18" points="295.58,483.23 283.58,495.23 285.09,495.23 297.09,483.23 285.09,471.23 283.58,471.23 		"/>
		<path class="st19" d="M256.81,452.09h-3.75l-2.53,2.89c-0.7,0.79-1.85,0.98-2.77,0.46l-2.47-1.42c-0.91-0.53-1.33-1.63-0.99-2.62
			l1.23-3.64l-1.85-3.25l-3.77-0.75c-1.04-0.2-1.78-1.11-1.78-2.17v-2.84c0-1.06,0.75-1.96,1.78-2.17l3.77-0.75l1.85-3.25
			l-1.23-3.63c-0.34-1,0.07-2.1,0.99-2.62l2.47-1.42c0.91-0.53,2.07-0.34,2.77,0.46l2.53,2.88h3.75l2.53-2.88
			c0.69-0.8,1.85-0.99,2.77-0.46l2.47,1.42c0.91,0.53,1.33,1.63,0.99,2.62l-1.23,3.63l1.85,3.25l3.77,0.75
			c1.03,0.21,1.78,1.11,1.78,2.17v2.84c0,1.05-0.74,1.96-1.78,2.17l-3.77,0.75l-1.85,3.25l1.23,3.64c0.34,1-0.07,2.1-0.99,2.62
			l-2.47,1.42c-0.91,0.52-2.07,0.33-2.77-0.46L256.81,452.09z M260.86,440.17c0-3.28-2.66-5.95-5.95-5.95
			c-3.28,0-5.95,2.66-5.95,5.95s2.66,5.95,5.95,5.95c0,0,0,0,0.01,0C258.2,446.12,260.86,443.46,260.86,440.17
			C260.86,440.18,260.86,440.17,260.86,440.17z"/>
		<polygon class="st20" points="177.9,537.15 186.04,549.16 174.04,537.15 186.04,525.16 		"/>
		<polygon class="st20" points="177.9,564.11 186.04,576.11 174.04,564.11 186.04,552.12 		"/>
		<polygon class="st20" points="177.9,591.07 186.04,603.08 174.04,591.07 186.04,579.08 		"/>
		<polygon class="st20" points="177.9,483.23 186.04,495.23 174.04,483.23 186.04,471.23 		"/>
		<polygon class="st20" points="177.9,510.18 186.04,522.19 174.04,510.18 186.04,498.19 		"/>
		<path class="st21" d="M355.89,573.01c-6.31,8.48-18.48,15.51-19.29,15.1c-0.38-0.19,0.06-0.72,0.62-1.23
			c-0.65,0.43-1.36,0.77-1.71,0.59c-0.35-0.19,0.28-0.99,1.04-1.71c-0.85,0.67-1.85,1.3-2.3,1.06c-0.44-0.24,0.52-1.31,1.52-2.21
			c-0.81,0.62-1.69,1.13-2.07,0.93c-0.39-0.2,0.99-1.72,2.47-3.14l-0.23,0.22c-0.8,0.73-1.78,0.15,0.2-1.69
			c1.99-1.83,5.31-2.38,14.75-12.93L355.89,573.01z"/>
		<path class="st21" d="M249.13,560.14c-0.76,0.11-1.53,0.01-2.23-0.3c-1.34-0.5-2.72-0.88-4.12-1.12c-1.5-0.25-2.11,0.25-0.96,0.77
			c0.6,0.27,1.22,0.52,1.85,0.73c-1.06,0.19-2.14,0.28-3.22,0.26c-2.06,0-3.82-0.56-3.85,0.17c-0.04,0.73,1.23,0.85,1.23,0.85
			s-1.8,0-1.63,0.56c0.17,0.56,2.83,0.86,2.83,0.86s-0.99,0.22-0.9,0.9c0.09,0.69,2.47,0.34,2.47,0.34s-1.23-0.04-1.12,0.62
			c0.12,0.66,1.5,0.77,4.32,0.77c1.82-0.01,3.64-0.14,5.45-0.38l0.09-5.03h-0.2V560.14z"/>
		<path class="st17" d="M247.94,560.12c0.39,0.07,0.78,0.07,1.17,0h0.22l-0.09,5.02c0,0-0.96,0.14-2.36,0.26L247.94,560.12z"/>
		<path class="st21" d="M257.62,574.87c-0.66,0.38-3.75,1.43-4.51,1.4c-1.43,0.02-2.85,0.17-4.25,0.46
			c-1.49,0.31-1.85,1.01-0.62,1.07c0.66,0.03,1.32,0.03,1.98,0c-0.92,0.56-1.89,1.04-2.9,1.41c-1.92,0.75-3.76,0.87-3.53,1.57
			s1.48,0.34,1.48,0.34s-1.68,0.65-1.32,1.12c0.36,0.46,2.95-0.23,2.95-0.23s-0.84,0.56-0.51,1.17c0.33,0.61,2.4-0.57,2.4-0.57
			s-1.14,0.4-0.82,0.97s1.68,0.17,4.32-0.86c1.7-0.67,5.67-2.32,7.27-3.2l-1.75-4.7l-0.2,0.07L257.62,574.87z"/>
		<path class="st17" d="M256.54,575.27c0.39-0.07,0.76-0.22,1.09-0.43l0.2-0.08l1.75,4.71c0,0-0.85,0.48-2.1,1.09L256.54,575.27z"/>
		<path class="st14" d="M299.66,538.85c0,0,6.66-1.72,9.74-0.04s11.07,28.97,9.78,37.34c-1.29,8.37-13.25,3.99-13.25,3.99
			L299.66,538.85z"/>
		<path class="st21" d="M290.5,675.71c0.05,1.22,0.3,2.42,0.73,3.56c0,0-9.95-0.86-9.78-0.82c0.17,0.04,1.41-1.76,1.33-2.62
			L290.5,675.71z"/>
		<path class="st12" d="M291.38,679.13c0,0,0.93,2.7,0.48,3.45s-1.4,0.56-7.07,0.56s-11.9,0.65-12.19-0.37s1.59-1.3,4.37-2.14
			c1.6-0.46,3.11-1.19,4.46-2.16L291.38,679.13z"/>
		<path class="st22" d="M272.85,682.03c1.06,0.72,6.79,0.17,12.03,0.17c5.68,0,6.61,0.19,7.08-0.56v-0.04
			c0.06,0.33,0.02,0.66-0.11,0.96c-0.48,0.75-1.4,0.56-7.07,0.56s-11.91,0.65-12.19-0.37C272.52,682.48,272.62,682.19,272.85,682.03
			z"/>
		<polygon class="st21" points="323.27,672.71 325.41,676.96 316.28,677.77 315.84,675.45 		"/>
		<path class="st12" d="M325.43,676.63c0,0,1.44,2.35,1.07,3.16c-0.37,0.8-1.44,0.15-6.79,2.09c-4.4,1.61-12.03,1.44-12.56,0.62
			c-0.96-1.59,1.75-0.96,4.4-2.16c1.52-0.69,2.94-1.58,4.22-2.67L325.43,676.63z"/>
		<path class="st22" d="M307.17,681.61c1.2,0.7,8.26,0.76,12.4-0.76c5.33-1.93,6.42-1.29,6.79-2.09c0.02-0.06,0.04-0.13,0.04-0.19
			c0.19,0.38,0.24,0.82,0.14,1.23c-0.36,0.8-1.44,0.15-6.79,2.09c-4.4,1.61-12.04,1.44-12.56,0.62
			C306.91,682.07,306.94,681.79,307.17,681.61z"/>
		<path class="st10" d="M309.54,586.6c1.8,8.24,0.51,30.87,2.32,43.77c1.8,12.9,12.61,43.15,12.61,43.15
			c-1.65,0.82-6.93,2.77-9.26,2.96c0,0-11.56-26.06-15.92-39.18c-4.37-13.13-7.22-30.64-7.22-30.64s-3.37,27.78-2.83,39.14
			c0.54,11.35,2.06,30.38,2.06,30.38c-2.12,0.51-7.71,0.77-9.79,0.26c0,0-4.89-26.27-5.92-48.41c-0.55-13.95,0.31-27.93,2.57-41.71
			l19.06-4.38L309.54,586.6z"/>
		<path class="st11" d="M284.9,540.14c-4.46,4.21-12.1,15.62-18.71,17.25c-6.61,1.63-17.68,2.04-17.68,2.04l-0.25,5.92
			c6.62,0.98,13.37,0.74,19.91-0.69c10.39-2.41,16.48-6.61,16.48-6.61L284.9,540.14z"/>
		<path class="st17" d="M276.65,562.07c-0.55-3.9-0.83-7.84-0.82-11.77c3.49-3.7,6.74-7.94,9.07-10.15l-0.2,14.31l-1.23,4.32
			C281.28,560.05,279,561.15,276.65,562.07z"/>
		<path class="st17" d="M277.46,590.53c0.04-0.35,0.09-0.67,0.14-0.96l11.3,3.57l-0.48-3.19l13.23-6.3l7.88,2.95
			c0.2,0.95,0.35,1.92,0.46,2.88c-1.26-0.62-2.65-0.91-4.06-0.85c-3.22,0.26-7.85,6.57-10.69,8.11c-1.28,0.69-2.65,1.21-4.06,1.54
			c0.14,2.51,0.4,5.66,0.84,8.38c0,0-0.25,2.14-0.62,5.46l-3.99-14.73l-3.09-1.16c-3.09-1.16-6.82-4.76-6.82-4.76L277.46,590.53z"/>
		<path class="st21" d="M298.75,537.3c-0.77-0.3-1-0.62-1.36-1.54c-0.8-2.04-1.75-13.35-1.75-13.35l-9.19,1.36
			c0,0,1.13,11.15,1.08,13.02c-0.17,0.89-0.5,1.74-0.98,2.51C291.22,542.64,297.59,539.82,298.75,537.3z"/>
		<path class="st17" d="M295.59,532.58c0.37-0.05,0.74-0.12,1.09-0.23c-0.44-3.83-0.78-7.41-0.78-7.41l-6.59,0.94
			C290.14,529.99,292.48,533.01,295.59,532.58z"/>
		<path class="st21" d="M299.81,521.36c0.14,4.49-1.44,8.24-5.75,8.31c-3.3,0.1-6.08-3.47-6.17-7.96c-0.09-4.49,0.9-8.19,5.75-8.31
			C298.94,513.24,299.67,516.86,299.81,521.36z"/>
		<path class="st14" d="M284.38,514.76c-0.96,2.27-2.62,4.72,2.15,9.82l3.03-1.14l-2.4-6.59L284.38,514.76z"/>
		<circle cx="297.23" cy="520.13" r="0.45"/>
		<path class="st23" d="M290.76,524.67c-1.76,0.15-3.3-1.16-3.45-2.91c-0.15-1.76,1.16-3.3,2.91-3.45c0.06-0.01,0.12-0.01,0.18-0.01
			h0.17L290.76,524.67z"/>
		<path class="st24" d="M290.72,523.15c-0.93,0.03-1.71-0.71-1.73-1.64c-0.03-0.93,0.71-1.71,1.64-1.73l0,0l0,0L290.72,523.15z"/>
		<circle class="st23" cx="295.84" cy="522.61" r="1.4"/>
		<path class="st23" d="M299.19,519.71l2.02,2.53c0.18,0.22,0.14,0.55-0.09,0.73c0,0,0,0,0,0c-0.06,0.05-0.13,0.08-0.21,0.1
			l-1.72,0.38V519.71L299.19,519.71z"/>
		<path class="st14" d="M290.64,519.06v2.51h0.88c-0.03-0.88,0-1.76,0.1-2.63L290.64,519.06z"/>
		<path class="st14" d="M295.52,518.44c0.24-0.09,0.49-0.16,0.74-0.2c0.26-0.04,0.51-0.05,0.77-0.04c0.26,0.01,0.52,0.04,0.77,0.11
			c0.13,0.04,0.25,0.08,0.38,0.13l0.18,0.09l0.09,0.06h0.04l0,0c-0.06-0.01-0.11,0.03-0.14,0.08c0.03-0.07,0.1-0.1,0.17-0.07
			c0.07,0.03,0.1,0.11,0.07,0.18c0,0,0,0,0,0c-0.03,0.06-0.1,0.09-0.16,0.08h-0.06l-0.67-0.06c-0.23,0-0.48-0.03-0.71-0.03h-0.72
			c-0.25-0.01-0.49-0.02-0.73-0.06c-0.07-0.01-0.13-0.07-0.12-0.15c0,0,0-0.01,0-0.01l0,0C295.44,518.5,295.47,518.46,295.52,518.44
			z"/>
		<path class="st12" d="M299.08,524.85c0.13,0.05,0.27,0.08,0.41,0.11c-0.04,0.21-0.19,0.65-0.24,0.83
			c-0.16-0.01-0.32-0.05-0.48-0.12c-0.68-0.27-1.14-0.77-0.99-1.17C297.93,524.11,298.38,524.59,299.08,524.85z"/>
		<path class="st14" d="M300.43,510.79c-0.91-0.9-2.68-0.31-3.62,0.09c-0.28-0.14-0.58-0.26-0.88-0.36
			c-2.53-0.95-5.34-0.88-7.82,0.2c-2.02,0.86-2.61,1.7-3.62,3.24c-0.97,1.35-1.11,3.13-0.34,4.61c1.54,3.28,5.96,1.59,7.17,1.01
			c1.64-0.77,2.26-2.75,2.8-5.22c0,0,1.4-0.65,4.32,0.87C300.11,514.52,301.72,512.04,300.43,510.79z"/>
		<path class="st11" d="M297.41,535.16c3.63,3.52,7.74,7.98,9.47,19.57c1.72,11.58,3.52,33.82,3.52,33.82s-4.38-1.72-8.5,0.85
			s-8.41,6.44-15.44,5.41c-7.03-1.03-9.01-5.32-9.01-5.32s0.96-13.65,0.51-23.17s3.4-23.39,9.43-29.25l1.56,1.78
			c1.66-0.37,3.27-0.92,4.82-1.63C295.8,536.2,297.41,535.16,297.41,535.16z"/>
		<path class="st17" d="M297.41,535.16c0.62,0.62,1.29,1.27,1.95,1.98c-1.02,1.07-2.14,2.04-3.35,2.89
			c-1.32,1.02-2.77,1.85-4.32,2.47l-2.77-3.62c1.66-0.38,3.27-0.92,4.81-1.63C295.8,536.2,297.41,535.16,297.41,535.16z"/>
		<path class="st17" d="M287.38,537.07l1.56,1.78l-2.51,2.06c-0.5-0.35-0.9-0.82-1.16-1.37
			C285.89,538.65,286.6,537.83,287.38,537.07z"/>
		<path class="st17" d="M277.96,566.32c-0.08-2.38,0.04-4.76,0.36-7.12c1.6-1.33,4.65-4.04,6.42-6.62c2.47-3.61,5.41-8.24,8.64-8.16
			c3.24,0.08,8.64,5.15,8.64,5.15c0.17,4.38-2.06,13.22-10.39,21.8c-6.05,6.26-11.38,9.15-13.84,10.31
			C278.03,577.05,278.15,571.16,277.96,566.32z"/>
		<path class="st14" d="M303.61,541.09c-4.89-0.69-10.72-0.17-13.65,3.37c-2.93,3.54-3,5.56-3,5.56s3.7-5.27,7.7-6.41
			s10.99,1.09,10.99,1.09L303.61,541.09z"/>
		<path class="st14" d="M293.14,564.09c0,0,3.77,5.49,8.58,7.13c2.96,0.99,6.01,1.68,9.1,2.06l0.34,3.61
			c-4.42-0.59-8.73-1.84-12.79-3.7c-6.35-3-8.16-7.98-8.16-7.98L293.14,564.09z"/>
		<path class="st11" d="M294.68,543.62c-5.95,0.4-12.42,16.54-19.92,21.18c-7.5,4.64-17.24,8.64-17.24,8.64
			c-0.23,2.03,0.37,6.52,1.85,7.57c0,0,8.4-1.59,21.52-8.45S298,559.33,299.84,557C303.25,552.64,303.88,542.99,294.68,543.62z"/>
		<path class="st10" d="M406.25,657.33c-1.06,0.76-2.25,1.34-3.51,1.69c-1.83,0.49-3.73,0.6-5.61,0.33
			c-3.41-8.51-7.8-18.83-9.67-25.93c-3.43-13.05-5.5-33.65-5.5-33.65s-6.52,23.52-6.69,43.09c-0.06,6.54-0.31,13.06-0.62,18.84
			c-2.81,0.47-5.68,0.58-8.52,0.3c-1.33-9.09-3.09-21.18-3.4-30.82c-0.51-16.99,3.27-42.23,5.5-48.78c0,0,24.89-7.71,28.24-1.54
			c3.35,6.16,2.65,22.49,3.17,34.66c0.52,12.18,2.57,19.91,5.15,33.3C405.34,651.63,405.81,654.52,406.25,657.33z"/>
		<path class="st21" d="M374.67,661.73c-0.62,11.52-1.44,20.12-1.44,20.12h-1.36l-0.26-3.27c0,0-7.29,4.38-10.21,4.38
			c-0.75,0-1.39,0-1.93,0c-0.34,0-0.62-0.28-0.62-0.62c0-0.22,0.12-0.42,0.32-0.52c2.69-1.44,7.74-5.08,8.35-6.66
			c0.37-0.96-0.38-6.17-1.4-13.13C368.98,662.31,371.85,662.21,374.67,661.73z"/>
		<path class="st21" d="M408.94,678.6l-1.2,0.35l-0.52-3.78c0,0-0.43-0.51-3,2.75c-2.57,3.27-6.61,4.12-8.33,3.95
			c-1.72-0.17-1.03-1.23-1.03-1.23s5.3-3.26,6.7-6.7c0.62-1.57-1.54-7.41-4.41-14.6c1.87,0.27,3.78,0.16,5.61-0.33
			c1.26-0.35,2.45-0.92,3.51-1.69C407.94,668.28,408.94,678.6,408.94,678.6z"/>
		<path class="st11" d="M417.3,540.12c3.45-1.57,3.78-5.19,2.16-7.22c-1.62-2.03-1.56-3.17-4.56-5.8c-2.99-2.64-4.39-2.28-7.58-3.18
			c-3.19-0.9-3.55-2.66-5.59-5.37c-1.75-2.59-4.51-4.33-7.6-4.8c-3.52-0.69-4.59,0.08-8.14-1.73c-3.55-1.82-2.75-4.04-6.61-4.94
			c-4.63-1.07-6.79,2.77-6.94,6.5c-0.15,3.73,6.64,11.73,6.64,11.73c1.15,1.15,2.23,2.36,3.25,3.63c2.3,2.77,3.7,3.37,7.85,3.24
			c4.14-0.14,6.12,1.23,7.74,2.83s4.48,2.3,7.03,1.85c2.55-0.45,4.38,0.22,6.47,1.8C413.52,540.24,416.04,540.69,417.3,540.12z"/>
		<path class="st17" d="M375.28,515.97l7.91,4.14c4.12,1.12,5.4-0.15,7.31,2.04c1.91,2.19,3.82,4.43,5.82,4.94
			c2.01,0.51,5.17-0.41,7.59,1.39c2.43,1.8,2.89,4.45,5.48,5.56c2.59,1.11,3.9,0.58,5.75,3.03c0.67,0.95,1.07,2.08,1.15,3.24
			c-1.77,0-3.5-0.6-4.88-1.71c-2.09-1.59-3.92-2.28-6.47-1.8s-5.4-0.25-7.03-1.85s-3.58-2.95-7.75-2.83
			c-4.17,0.12-5.56-0.48-7.85-3.24c-1.01-1.27-2.1-2.48-3.24-3.63c-1.8-2.13-3.43-4.41-4.87-6.79L375.28,515.97z"/>
		<path class="st21" d="M376.77,546.19c-2.45,0.31-4.87,0.82-7.24,1.51c-0.48-1.47-0.48-2.95-0.62-4.51
			c-0.07-0.86,0.67-2.04,1.23-3.09c0.55-1.14,1.5-2.05,2.67-2.55c0.71-0.19,1.19-0.86,1.14-1.59c0.2-2.05,0.06-12.97,0.06-12.97
			l8.64-1.15c0,0-0.07,10.82,0.46,12.52c0.48,1.54,3.17,2.02,6.51,2.99c-1.44,2.63-1.5,6.17-0.78,9.11
			C384.97,544.33,380.57,545.72,376.77,546.19z"/>
		<path class="st17" d="M377.69,529.21c-1.2,0.36-2.45,0.52-3.7,0.48c-0.09-3.42-0.05-6.69-0.05-6.69l7.02-0.92
			C381.26,525.47,379.92,528.42,377.69,529.21z"/>
		<circle class="st23" cx="381.1" cy="519.99" r="2.99"/>
		<circle class="st24" cx="381.1" cy="519.99" r="1.57"/>
		<path class="st21" d="M369.83,520.37c0.3,4.32,2.14,7.7,5.78,7.52c3.09-0.17,5.56-3.78,5.51-8.08c-0.05-4.3-1.89-7.66-6.17-7.52
			C368.7,512.5,369.53,516.04,369.83,520.37z"/>
		<path class="st25" d="M377.48,517.14c-0.82-0.33-1.74-0.33-2.56,0c-0.01,0.02-0.01,0.04,0,0.06c0.01,0.02,0.04,0.02,0.05,0
			c0,0,0,0,0,0l0,0c0.41-0.09,0.82-0.13,1.23-0.14c0.21-0.01,0.41,0.01,0.62,0.03c0.21,0,0.42,0.06,0.62,0.1
			c0.02,0.01,0.04,0.01,0.06,0C377.52,517.18,377.51,517.15,377.48,517.14z"/>
		<path class="st25" d="M372.25,517.44c-0.42-0.13-0.86-0.17-1.3-0.12c-0.43,0.05-0.85,0.18-1.23,0.39c-0.01,0.02-0.01,0.04,0,0.06
			c0.01,0.02,0.04,0.02,0.05,0c0,0,0,0,0,0l0,0c0.4-0.13,0.81-0.22,1.23-0.27c0.2-0.03,0.41-0.04,0.62-0.03
			c0.21,0,0.41,0.01,0.62,0.04c0,0,0.05,0,0.06-0.04l0,0C372.29,517.45,372.27,517.44,372.25,517.44z"/>
		<circle cx="376.38" cy="518.73" r="0.41"/>
		<circle cx="370.64" cy="519.05" r="0.41"/>
		<path class="st23" d="M369.89,520.29h0.09c0.72-0.07,1.36,0.46,1.43,1.17c0.07,0.72-0.46,1.36-1.17,1.43l0,0
			c-0.17-0.76-0.28-1.52-0.32-2.3C369.9,520.48,369.9,520.38,369.89,520.29z"/>
		<circle class="st23" cx="376.73" cy="521.04" r="1.31"/>
		<path class="st17" d="M371.96,515.08c-0.7,0.52-1.47,0.93-2.28,1.23c0.35-4.42,3.37-4.28,3.37-4.28l5.47,0.77l5.56,5.56l0.08,1.67
			c-5.98,1.12-7.39-6.91-10.48-7.4C373.4,513.62,372.79,514.48,371.96,515.08z"/>
		<path class="st12" d="M371.62,522.88c0,0.56,0.85,0.96,1.82,0.91c0.97-0.05,1.73-0.56,1.69-1.12c-0.04-0.56-0.81-0.1-1.77-0.04
			C372.39,522.69,371.58,522.32,371.62,522.88z"/>
		<circle class="st12" cx="381.68" cy="522.11" r="0.25"/>
		<path class="st26" d="M368.17,520.19c-0.12-0.18-0.19-0.4-0.2-0.62l-0.04-0.92c-0.03-0.68,0.49-1.26,1.17-1.3c0,0,0.01,0,0.01,0
			l0.75-0.04C369.31,518.3,368.76,519.25,368.17,520.19z M372.17,517.41c-0.65,1.1-1.28,2.22-1.93,3.31l1.44-0.07
			c0.68-0.03,1.2-0.61,1.17-1.29l-0.04-0.93C372.8,518,372.55,517.61,372.17,517.41L372.17,517.41z M377.5,520.36h0.2
			c0.68-0.03,1.2-0.61,1.17-1.29l-0.04-0.93c-0.01-0.15-0.05-0.3-0.1-0.43C378.36,518.62,377.94,519.5,377.5,520.36L377.5,520.36z
			 M375.15,520.46c0.62-1.13,1.18-2.29,1.68-3.48l-1.71,0.09c-0.68,0.03-1.21,0.61-1.17,1.29c0,0,0,0,0,0l0.04,0.93
			C374.02,519.93,374.53,520.43,375.15,520.46L375.15,520.46z"/>
		<path class="st22" d="M369.21,521.06c-0.81,0-1.48-0.64-1.53-1.44l-0.04-0.93c-0.04-0.84,0.6-1.56,1.44-1.6l2.41-0.12
			c0.84-0.04,1.55,0.61,1.6,1.44l0.04,0.93c0.04,0.84-0.6,1.56-1.44,1.61L369.21,521.06z M371.59,517.55h-0.05l-2.4,0.12
			c-0.51,0.04-0.91,0.47-0.9,0.99l0.04,0.93c0.03,0.51,0.47,0.91,0.98,0.9l2.41-0.12c0.52-0.03,0.91-0.47,0.9-0.98l-0.04-0.93
			C372.49,517.95,372.09,517.56,371.59,517.55L371.59,517.55z"/>
		<path class="st22" d="M375.19,520.78c-0.81,0-1.48-0.64-1.53-1.44l-0.04-0.93c-0.03-0.84,0.63-1.55,1.47-1.58l2.41-0.12
			c0.84-0.04,1.56,0.61,1.61,1.44l0.04,0.93c0.04,0.84-0.61,1.56-1.44,1.61L375.19,520.78z M377.57,517.27h-0.05l-2.41,0.12
			c-0.51,0.04-0.91,0.47-0.9,0.99l0.04,0.93c0.04,0.51,0.47,0.91,0.99,0.9l2.41-0.12c0.51-0.03,0.91-0.47,0.9-0.98l-0.04-0.93
			C378.47,517.67,378.07,517.28,377.57,517.27L377.57,517.27z"/>
		<path class="st22" d="M381.76,518.44c-0.33,0.04-0.66,0-0.96-0.12c-0.62-0.01-1.23,0.14-1.77,0.44l-0.29-0.48
			c0.57-0.32,1.2-0.51,1.85-0.53c0.22-0.02,0.44,0.04,0.62,0.16C381.33,518.14,381.53,518.32,381.76,518.44z"/>
		
			<rect x="372.88" y="518.48" transform="matrix(0.9988 -0.0494 0.0494 0.9988 -25.1576 19.0684)" class="st22" width="1.03" height="0.58"/>
		<path class="st23" d="M373.24,519.07l-0.98,2.08c-0.08,0.18,0,0.39,0.18,0.48c0.05,0.01,0.1,0.01,0.15,0h1.23L373.24,519.07z"/>
		<path class="st11" d="M379.45,511.45c0,0-0.96-1.3-4.57-1.85c-3.06-0.48-4.94,0.26-5.85,2.11c-0.62,1.29,0.17,2.63,0.9,3.55l0,0
			c1.23-0.27,1.8-1.04,3.66-2.91c0.73,0.09,1.46,0.25,2.16,0.48c1.72,0.65,3.26,7.22,9.14,6.12L379.45,511.45z"/>
		<path class="st17" d="M397.86,584.81c-0.9-3.85-1.67-5.06-4.06-5.77c-7.29-2.19-25.51,3.42-25.54,3.42
			c-0.41,1.27-0.76,2.55-1.04,3.85c6.79,1.44,8.85-2.22,9.88-2.32c1.05,1.94,3,3.23,5.19,3.43c2.85,0.21,6.79-1.68,9.82-2.41
			l0.1,11.35c0.44,3.66,5.24,1.64,7.01,1.72C399.03,593.06,398.67,588.36,397.86,584.81z"/>
		<path class="st19" d="M374.85,545.19c2.12,0.32,7.41-0.13,7.41-0.13l-1.54,8.5l-5.98,0.06L374.85,545.19z"/>
		<path class="st14" d="M385.59,536.03c0,0-0.43,12.04-7.63,17.13c0,0-5.73-5.98-4.89-16.15c0,0-7.53,3.48-10.11,9.47
			c-2.06,4.81-4.57,13.58-9.72,19.14c-0.77,0.82-1.55,1.64-2.33,2.41l5,5c1.12-1.11,2.25-2.35,3.37-3.7
			c6.96-8.34,8.76-11.73,8.76-11.73c0.56,1.83,1.52,3.5,2.83,4.89c2.06,2.06,0.62,7.71-1.02,13.14c-1.64,5.43-2.51,7.34-2.51,7.34
			s3.37,1.54,5.92,1.54c1.85,0,3.93-1.54,3.93-1.54c1.06,1.57,2.8,2.55,4.7,2.64c6.56,0.52,16.15-3.67,16.15-3.67
			s-3.37-8.11-4.5-15.71c-1.14-7.59,1.41-12.87,1.41-12.87c1.98,1.72,3.79,3.62,5.4,5.69c2.27-1.62,4.66-3.09,7.04-4.56
			C401.58,545.45,392.57,536.94,385.59,536.03z"/>
		<path class="st27" d="M371.72,537.65c0.51-0.62,1.09-1.19,1.73-1.67c0.14-0.12,0.36-0.1,0.48,0.04c0,0,0,0,0,0
			c0.04,0.05,0.07,0.11,0.07,0.18c0.36,3.07,0.93,6.12,1.7,9.11c1.23,4.57,2.25,7.85,2.25,7.85c1.64-2.95,3-6.05,4.05-9.26
			c0.88-2.77,1.48-5.61,1.8-8.5c0.04-0.24,0.26-0.39,0.5-0.35c0,0,0,0,0,0c0.08,0.01,0.15,0.05,0.21,0.1
			c0.57,0.32,2.64,1.16,2.64,1.16s-0.56,6.17-2.47,9.82c-1.54,2.93-3.88,5.37-6.74,7.04c0,0-3.28-2.38-4.89-7.66
			C371.46,540.25,371.72,537.65,371.72,537.65z"/>
		<path class="st17" d="M393.53,566.25c-1.16-7.6,1.41-12.87,1.41-12.87c-1.61-1.34-3.31-2.57-5.09-3.67c0,0-0.57,10.23,1.99,15.58
			c0.58,1.24,1.3,2.42,2.14,3.5C393.8,567.93,393.64,567.08,393.53,566.25z"/>
		<path class="st17" d="M362.88,559.79c-0.86,2.39-1.48,4.85-1.85,7.36c5.49-6.79,6.97-9.55,6.97-9.55
			c-0.83-2.47,1.68-9.78,1.68-9.78C366.71,551.38,364.41,555.43,362.88,559.79z"/>
		<path class="st17" d="M377.94,553.16c-0.77,3.41-0.45,5.73,0.25,8.95c0.7,3.22-1.03,20.86-1.03,20.86
			c0.39,0.61,0.9,1.14,1.49,1.54c0,0,1.28-14.03,0.89-17.76c-0.39-3.73-1.41-5.6-1.61-7.66
			C377.83,557.12,377.83,555.14,377.94,553.16z"/>
		<path class="st17" d="M373.73,632.5c0.62,3.66,1.15,6.67,1.57,9.14c0.42-19.3,6.67-41.84,6.67-41.84
			c-0.96-5.66-2.06-10.72-2.06-10.72S370.9,616.02,373.73,632.5z"/>
		<path class="st28" d="M394.53,574.08l25.8-3.09c1.39-0.17,2.66,0.83,2.83,2.22l1.97,16.42c0.17,1.39-0.83,2.66-2.22,2.83
			l-25.8,3.09c-1.39,0.17-2.66-0.83-2.83-2.22l-1.97-16.42C392.14,575.52,393.14,574.25,394.53,574.08z"/>
		<path class="st29" d="M394.15,574.72l25.8-3.09c1.39-0.17,2.66,0.83,2.83,2.22l1.97,16.42c0.17,1.39-0.83,2.66-2.22,2.83
			l-25.8,3.09c-1.39,0.17-2.66-0.83-2.83-2.22l-1.97-16.42C391.76,576.16,392.76,574.89,394.15,574.72z"/>
		<path class="st17" d="M408.43,591.47l1.37,0.34l-1.23-19.33l-6.17,0.75C404.44,577.56,408.43,591.47,408.43,591.47z"/>
		<path class="st14" d="M407.37,554.49c-2.41,1.44-4.77,2.93-7.04,4.55c1,1.28,1.86,2.66,2.59,4.11c2.07,4.25,3.31,6.84,4.06,11.26
			l7.09-1.13c-0.34-3.04-0.96-6.04-1.85-8.97C411.02,560.84,409.39,557.55,407.37,554.49z"/>
		<path class="st30" d="M414.12,594.3c-0.26,2.19-3.61,3.09-5.03,2.96c-1.42-0.12-1.16-2.32-1.16-2.32l-1.8,0.13
			c0.38-1.41,2.32-3.61,2.32-3.61s-0.38-6.7-1.03-13.52c-0.12-1.32-0.27-2.47-0.45-3.55l7.09-1.12
			C414.81,580.26,414.83,587.31,414.12,594.3z"/>
		<path class="st22" d="M370.82,677.98c-1.44,1.03-5.75,3-5.75,3c-0.47-0.71-1.03-1.34-1.68-1.89c-1.34,0.99-2.74,1.89-4.19,2.71
			c-0.28,0.16-0.39,0.51-0.25,0.8c0.1,0.2,0.3,0.32,0.52,0.32c0.52,0,1.16,0,1.93,0c2.92,0,10.21-4.38,10.21-4.38l0.25,3.27h1.38
			c0,0,0.19-1.98,0.48-5.3C372.7,676.89,371.72,677.38,370.82,677.98z"/>
		<path class="st22" d="M395.88,681.85c1.72,0.17,5.75-0.69,8.32-3.95s3.01-2.75,3.01-2.75l0.51,3.78l1.2-0.35
			c0,0-0.22-2.34-0.62-5.97c-0.82,0.08-2.47,1.96-3.95,3.85c-1.08,1.33-2.53,2.3-4.16,2.8l-1.77-1.31c-1.11,0.99-2.3,1.88-3.56,2.68
			C394.87,680.63,394.16,681.68,395.88,681.85z"/>
		<path class="st22" d="M414.49,589.68c0-0.32,0.04-0.67,0.05-1.04c-2.08,0.24-4.17,0.28-6.25,0.12c0,0.38,0.04,0.73,0.07,1.04
			c0.79,0.07,1.57,0.09,2.32,0.09C411.94,589.9,413.22,589.83,414.49,589.68z"/>
	</g>
</g>
</svg>
