<?xml version="1.0" encoding="utf-8"?>
<!-- Generator: Adobe Illustrator 23.0.1, SVG Export Plug-In . SVG Version: 6.00 Build 0)  -->
<svg version="1.1" id="Layer_1" xmlns="http://www.w3.org/2000/svg" xmlns:xlink="http://www.w3.org/1999/xlink" x="0px" y="0px"
	 viewBox="0 0 1920 400" style="enable-background:new 0 0 1920 400;" xml:space="preserve">
<style type="text/css">
	.st0{fill:#14286C;}
	.st1{fill:#FFFFFF;}
	.st2{fill:#F5CFBF;}
	.st3{opacity:0.1;enable-background:new    ;}
	.st4{fill:#0D1D7E;}
	.st5{fill:#0D232B;}
	.st6{fill:#103FCD;}
	.st7{fill:#DB4990;}
	.st8{fill:#F29D9D;}
	.st9{fill:#BD422A;}
	.st10{fill:#C3B9DD;}
	.st11{opacity:0.45;fill:#FFFFFF;enable-background:new    ;}
	.st12{fill:#00B4FF;}
	.st13{fill:#233182;}
	.st14{fill:#5F5F72;}
	.st15{fill:#171733;}
	.st16{fill:#F6D5C7;}
	.st17{fill:#E4F9FF;}
</style>
<path class="st0" d="M1311.1,414.4c-52.7-121.5,382.8-30.8,408.9-129.8c8.6-32.8-62.8-51.6-30.8-75.3
	c72.4-53.7,206.8-1.8,300.4-23.1c16.3-3.7,27.4-3.1,12.4,4.1c-57.5,27.9-237.3-19.2-257.8,27.3c-10.5,23.7,85.9,30.3,90.1,68.7
	c6.4,59.7-193.2,72.8-149.9,132.1C1777.3,546,1350.6,505.5,1311.1,414.4z"/>
<path class="st1" d="M1308.5,411.4c-52.7-121.5,382.8-30.8,408.9-129.8c8.6-32.8-62.8-51.6-30.8-75.3
	c72.4-53.7,206.8-1.8,300.4-23.1c16.3-3.7,27.4-3.1,12.4,4.1c-57.5,27.9-237.3-19.2-257.8,27.3c-10.5,23.7,85.9,30.3,90.1,68.7
	c6.4,59.7-193.2,72.8-149.9,132.1C1774.7,543,1348.1,502.5,1308.5,411.4z"/>
<title>Logos SkyPlanner</title>
<g>
	<path class="st2" d="M1654.6,182.4c-9.7,13-28.4,23.9-29.7,23.2c-0.6-0.3,0.1-1.1,1-1.9c-1,0.7-2.1,1.2-2.6,0.9s0.4-1.5,1.6-2.6
		c-1.3,1-2.9,2-3.5,1.6c-0.7-0.4,0.8-2,2.3-3.4c-1.2,1-2.6,1.7-3.2,1.4c-0.6-0.3,1.5-2.6,3.8-4.8l-0.4,0.3c-1.2,1.1-2.7,0.2,0.3-2.6
		c3-2.8,8.2-3.7,22.7-19.9L1654.6,182.4z"/>
	<path class="st2" d="M1490.4,162.6c-1.2,0.2-2.4,0-3.4-0.5c-2-0.8-4.2-1.3-6.4-1.7c-2.3-0.4-3.2,0.4-1.5,1.2
		c0.9,0.4,1.9,0.8,2.9,1.1c-1.6,0.3-3.3,0.4-5,0.4c-3.2,0-5.9-0.9-5.9,0.3c-0.1,1.1,1.9,1.3,1.9,1.3s-2.8,0-2.5,0.9
		c0.2,0.9,4.4,1.3,4.4,1.3s-1.5,0.3-1.4,1.4c0.1,1.1,3.8,0.5,3.8,0.5s-1.9-0.1-1.7,1c0.2,1,2.3,1.2,6.6,1.2c2.8,0,5.6-0.2,8.4-0.6
		l0.1-7.7L1490.4,162.6L1490.4,162.6z"/>
	<path class="st3" d="M1488.6,162.5c0.6,0.1,1.2,0.1,1.8,0h0.3l-0.1,7.7c0,0-1.5,0.2-3.6,0.4L1488.6,162.5z"/>
	<path class="st2" d="M1503.4,185.2c-1,0.6-5.8,2.2-6.9,2.1c-2.2,0-4.4,0.3-6.5,0.7c-2.3,0.5-2.9,1.5-1,1.6c1,0.1,2,0.1,3,0
		c-1.4,0.9-2.9,1.6-4.5,2.2c-2.9,1.2-5.8,1.3-5.4,2.4s2.3,0.5,2.3,0.5s-2.6,1-2,1.7c0.6,0.7,4.5-0.4,4.5-0.4s-1.3,0.9-0.8,1.8
		c0.5,0.9,3.7-0.9,3.7-0.9s-1.7,0.6-1.3,1.5s2.6,0.3,6.6-1.3c2.6-1,8.7-3.6,11.2-4.9l-2.7-7.2L1503.4,185.2L1503.4,185.2z"/>
	<path class="st3" d="M1501.8,185.8c0.6-0.1,1.2-0.3,1.7-0.7l0.3-0.1l2.7,7.3c0,0-1.3,0.7-3.2,1.7L1501.8,185.8z"/>
	<path class="st4" d="M1568.1,129.8c0,0,10.2-2.6,15-0.1c4.7,2.6,17,44.6,15,57.4c-2,12.9-20.4,6.1-20.4,6.1L1568.1,129.8z"/>
	<path class="st2" d="M1554,340.3c0.1,1.9,0.5,3.7,1.1,5.5c0,0-15.3-1.3-15-1.3s2.2-2.7,2-4L1554,340.3z"/>
	<path class="st1" d="M1555.4,345.6c0,0,1.4,4.2,0.7,5.3c-0.7,1.1-2.1,0.9-10.9,0.9s-18.3,1-18.8-0.6c-0.4-1.6,2.4-2,6.7-3.3
		c2.5-0.7,4.8-1.8,6.9-3.3L1555.4,345.6z"/>
	<path class="st5" d="M1526.9,350c1.6,1.1,10.4,0.2,18.5,0.2c8.7,0,10.2,0.3,10.9-0.9v-0.1c0.1,0.5,0,1-0.2,1.5
		c-0.7,1.1-2.1,0.9-10.9,0.9s-18.3,1-18.8-0.6C1526.3,350.7,1526.5,350.3,1526.9,350z"/>
	<polygon class="st2" points="1604.4,335.7 1607.7,342.2 1593.7,343.5 1593,339.9 	"/>
	<path class="st1" d="M1607.7,341.7c0,0,2.2,3.6,1.6,4.9c-0.6,1.2-2.2,0.2-10.4,3.2c-6.8,2.5-18.5,2.2-19.3,1
		c-1.5-2.4,2.7-1.5,6.8-3.3c2.3-1.1,4.5-2.4,6.5-4.1L1607.7,341.7z"/>
	<path class="st5" d="M1579.7,349.4c1.9,1.1,12.7,1.2,19.1-1.2c8.2-3,9.9-2,10.4-3.2c0-0.1,0.1-0.2,0.1-0.3c0.3,0.6,0.4,1.3,0.2,1.9
		c-0.6,1.2-2.2,0.2-10.4,3.2c-6.8,2.5-18.5,2.2-19.3,1C1579.3,350.1,1579.3,349.6,1579.7,349.4z"/>
	<path class="st6" d="M1583.3,203.3c2.8,12.7,0.8,47.5,3.6,67.3s19.4,66.4,19.4,66.4c-2.5,1.3-10.7,4.3-14.2,4.6
		c0,0-17.8-40.1-24.5-60.3s-11.1-47.1-11.1-47.1s-5.2,42.7-4.3,60.2c0.8,17.5,3.2,46.7,3.2,46.7c-3.3,0.8-11.8,1.2-15.1,0.4
		c0,0-7.5-40.4-9.1-74.5c-0.9-21.5,0.5-43,4-64.1l29.3-6.7L1583.3,203.3z"/>
	<path class="st7" d="M1545.4,131.8c-6.9,6.5-18.6,24-28.8,26.5s-27.2,3.1-27.2,3.1l-0.4,9.1c10.2,1.5,20.6,1.1,30.6-1.1
		c16-3.7,25.4-10.2,25.4-10.2L1545.4,131.8z"/>
	<path class="st3" d="M1532.7,165.5c-0.8-6-1.3-12.1-1.3-18.1c5.4-5.7,10.4-12.2,13.9-15.6l-0.3,22l-1.9,6.6
		C1539.8,162.4,1536.3,164.1,1532.7,165.5z"/>
	<path class="st3" d="M1534,209.3c0.1-0.5,0.1-1,0.2-1.5l17.4,5.5l-0.7-4.9l20.4-9.7l12.1,4.5c0.3,1.5,0.5,2.9,0.7,4.4
		c-1.9-1-4.1-1.4-6.2-1.3c-5,0.4-12.1,10.1-16.4,12.5c-2,1.1-4.1,1.9-6.3,2.4c0.2,3.8,0.6,8.7,1.3,12.9c0,0-0.4,3.3-1,8.4l-6.1-22.7
		l-4.7-1.8c-4.7-1.8-10.5-7.3-10.5-7.3L1534,209.3z"/>
	<path class="st2" d="M1566.7,127.4c-1.2-0.5-1.5-1-2.1-2.4c-1.2-3.1-2.7-20.5-2.7-20.5l-14.1,2.1c0,0,1.7,17.1,1.7,20
		c-0.3,1.4-0.8,2.7-1.5,3.8C1555.1,135.7,1564.9,131.3,1566.7,127.4z"/>
	<path class="st3" d="M1561.8,120.2c0.6-0.1,1.1-0.2,1.7-0.3c-0.7-5.9-1.2-11.4-1.2-11.4l-10.1,1.4
		C1553.5,116.2,1557.1,120.8,1561.8,120.2z"/>
	<path class="st2" d="M1568.3,102.9c0.2,6.9-2.2,12.7-8.8,12.8c-5.1,0.2-9.4-5.3-9.5-12.2c-0.1-6.9,1.4-12.6,8.8-12.8
		C1567,90.4,1568.1,96,1568.3,102.9z"/>
	<path class="st4" d="M1544.6,92.8c-1.5,3.5-4,7.3,3.3,15.1l4.6-1.7l-3.7-10.1L1544.6,92.8z"/>
	<circle cx="1564.4" cy="101" r="0.7"/>
	<path class="st8" d="M1554.4,108c-2.7,0.2-5.1-1.8-5.3-4.5c-0.2-2.7,1.8-5.1,4.5-5.3c0.1,0,0.2,0,0.3,0h0.2L1554.4,108z"/>
	<path class="st9" d="M1554.3,105.7c-1.4,0-2.6-1.1-2.7-2.5c0-1.4,1.1-2.6,2.5-2.7l0,0l0,0L1554.3,105.7z"/>
	<circle class="st8" cx="1562.2" cy="104.8" r="2.1"/>
	<path class="st8" d="M1567.4,100.4l3.1,3.9c0.3,0.3,0.2,0.8-0.1,1.1l0,0c-0.1,0.1-0.2,0.1-0.3,0.2l-2.6,0.6L1567.4,100.4
		L1567.4,100.4z"/>
	<path class="st4" d="M1554.2,99.4v3.8h1.4c-0.1-1.4,0-2.7,0.2-4L1554.2,99.4z"/>
	<path class="st4" d="M1561.7,98.4c0.4-0.1,0.7-0.2,1.1-0.3c0.4-0.1,0.8-0.1,1.2-0.1c0.4,0,0.8,0.1,1.2,0.2c0.2,0.1,0.4,0.1,0.6,0.2
		l0.3,0.1l0.1,0.1h0.1l0,0c-0.1,0-0.2,0-0.2,0.1c0-0.1,0.2-0.2,0.3-0.1s0.2,0.2,0.1,0.3l0,0c-0.1,0.1-0.2,0.1-0.2,0.1h-0.1l-1-0.1
		c-0.4,0-0.7,0-1.1,0h-1.1c-0.4,0-0.7,0-1.1-0.1c-0.1,0-0.2-0.1-0.2-0.2c0,0,0,0,0,0l0,0C1561.6,98.5,1561.6,98.5,1561.7,98.4z"/>
	<path class="st1" d="M1567.2,108.3c0.2,0.1,0.4,0.1,0.6,0.2c-0.1,0.3-0.3,1-0.4,1.3c-0.2,0-0.5-0.1-0.7-0.2
		c-1.1-0.4-1.7-1.2-1.5-1.8S1566.1,107.9,1567.2,108.3z"/>
	<path class="st4" d="M1569.3,86.6c-1.4-1.4-4.1-0.5-5.6,0.1c-0.4-0.2-0.9-0.4-1.3-0.6c-3.9-1.5-8.2-1.4-12,0.3
		c-3.1,1.3-4,2.6-5.6,5c-1.5,2.1-1.7,4.8-0.5,7.1c2.4,5.1,9.2,2.4,11,1.5c2.5-1.2,3.5-4.2,4.3-8c0,0,2.2-1,6.6,1.3
		C1568.8,92.4,1571.3,88.6,1569.3,86.6z"/>
	<path class="st7" d="M1564.6,124.2c5.6,5.4,11.9,12.3,14.6,30.1c2.6,17.8,5.4,52,5.4,52s-6.7-2.6-13.1,1.3
		c-6.4,4-12.9,9.9-23.7,8.3c-10.8-1.6-13.9-8.2-13.9-8.2s1.5-21,0.8-35.6c-0.7-14.7,5.2-36,14.5-45l2.4,2.7c2.5-0.6,5-1.4,7.4-2.5
		C1562.2,125.7,1564.6,124.2,1564.6,124.2z"/>
	<path class="st3" d="M1564.6,124.2c1,1,2,2,3,3c-1.6,1.6-3.3,3.1-5.1,4.4c-2,1.6-4.3,2.9-6.6,3.8l-4.2-5.6c2.5-0.6,5-1.4,7.4-2.5
		C1562.2,125.7,1564.6,124.2,1564.6,124.2z"/>
	<path class="st3" d="M1549.2,127.1l2.4,2.7l-3.8,3.2c-0.8-0.5-1.4-1.3-1.8-2.1C1546.9,129.5,1548,128.2,1549.2,127.1z"/>
	<path class="st3" d="M1534.7,172.1c-0.1-3.7,0.1-7.3,0.6-10.9c2.5-2,7.2-6.2,9.9-10.2c3.8-5.5,8.3-12.7,13.3-12.6
		c5,0.1,13.3,7.9,13.3,7.9c0.3,6.7-3.2,20.3-16,33.5c-9.3,9.6-17.5,14.1-21.3,15.8C1534.8,188.6,1535,179.5,1534.7,172.1z"/>
	<path class="st4" d="M1574.2,133.2c-7.5-1.1-16.5-0.3-21,5.2c-4.5,5.5-4.6,8.6-4.6,8.6s5.7-8.1,11.8-9.9c6.1-1.8,16.9,1.7,16.9,1.7
		L1574.2,133.2z"/>
	<path class="st4" d="M1558.1,168.6c0,0,5.8,8.4,13.2,11c4.6,1.5,9.2,2.6,14,3.2l0.5,5.5c-6.8-0.9-13.4-2.8-19.7-5.7
		c-9.8-4.6-12.6-12.3-12.6-12.3L1558.1,168.6z"/>
	<path class="st7" d="M1560.4,137.1c-9.1,0.6-19.1,25.4-30.6,32.6c-11.5,7.1-26.5,13.3-26.5,13.3c-0.4,3.1,0.6,10,2.9,11.6
		c0,0,12.9-2.4,33.1-13c20.2-10.5,26.3-20.4,29.1-24C1573.6,151,1574.6,136.2,1560.4,137.1z"/>
	<path class="st6" d="M1732,312c-1.6,1.2-3.5,2-5.4,2.6c-2.8,0.7-5.7,0.9-8.6,0.5c-5.2-13.1-12-29-14.9-39.9
		c-5.3-20.1-8.5-51.8-8.5-51.8s-10,36.2-10.3,66.3c-0.1,10.1-0.5,20.1-1,29c-4.3,0.7-8.7,0.9-13.1,0.5c-2-14-4.7-32.6-5.2-47.4
		c-0.8-26.1,5-64.9,8.5-75c0,0,38.3-11.8,43.4-2.4c5.1,9.5,4.1,34.6,4.9,53.3c0.8,18.7,4,30.6,7.9,51.2
		C1730.6,303.3,1731.4,307.7,1732,312z"/>
	<path class="st2" d="M1683.5,318.8c-1,17.7-2.2,30.9-2.2,30.9h-2.1l-0.4-5c0,0-11.2,6.7-15.7,6.7c-1.2,0-2.1,0-3,0
		c-0.5,0-1-0.4-1-1c0-0.3,0.2-0.7,0.5-0.8c4.1-2.2,11.9-7.8,12.8-10.2c0.6-1.5-0.6-9.5-2.2-20.2
		C1674.7,319.7,1679.1,319.5,1683.5,318.8z"/>
	<path class="st2" d="M1736.2,344.7l-1.8,0.5l-0.8-5.8c0,0-0.7-0.8-4.6,4.2c-4,5-10.2,6.3-12.8,6.1c-2.6-0.3-1.6-1.9-1.6-1.9
		s8.2-5,10.3-10.3c1-2.4-2.4-11.4-6.8-22.5c2.9,0.4,5.8,0.2,8.6-0.5c1.9-0.5,3.8-1.4,5.4-2.6
		C1734.6,328.9,1736.2,344.7,1736.2,344.7z"/>
	<path class="st7" d="M1749,131.8c5.3-2.4,5.8-8,3.3-11.1s-2.4-4.9-7-8.9c-4.6-4.1-6.8-3.5-11.7-4.9c-4.9-1.4-5.5-4.1-8.6-8.3
		c-2.7-4-6.9-6.7-11.7-7.4c-5.4-1.1-7.1,0.1-12.5-2.7c-5.5-2.8-4.2-6.2-10.2-7.6c-7.1-1.6-10.4,4.3-10.7,10
		c-0.2,5.7,10.2,18,10.2,18c1.8,1.8,3.4,3.6,5,5.6c3.5,4.2,5.7,5.2,12.1,5c6.4-0.2,9.4,1.9,11.9,4.4c2.5,2.5,6.9,3.5,10.8,2.9
		s6.7,0.3,9.9,2.8C1743.2,131.9,1747.1,132.6,1749,131.8z"/>
	<path class="st3" d="M1684.4,94.6l12.2,6.4c6.4,1.7,8.3-0.2,11.3,3.1c2.9,3.4,5.9,6.8,9,7.6s7.9-0.6,11.7,2.1
		c3.7,2.8,4.4,6.9,8.4,8.6c4,1.7,6,0.9,8.9,4.7c1,1.5,1.6,3.2,1.8,5c-2.7,0-5.4-0.9-7.5-2.6c-3.2-2.4-6-3.5-9.9-2.8
		c-3.9,0.7-8.3-0.4-10.8-2.9c-2.5-2.5-5.5-4.5-11.9-4.4c-6.4,0.2-8.6-0.7-12.1-5c-1.6-2-3.2-3.8-5-5.6c-2.8-3.3-5.3-6.8-7.5-10.4
		L1684.4,94.6z"/>
	<path class="st2" d="M1686.7,141.1c-3.8,0.5-7.5,1.3-11.1,2.3c-0.7-2.3-0.7-4.5-1-6.9c-0.1-1.3,1-3.1,1.9-4.7
		c0.9-1.8,2.3-3.2,4.1-3.9c1.1-0.3,1.8-1.3,1.7-2.4c0.3-3.2,0.1-19.9,0.1-19.9l13.3-1.8c0,0-0.1,16.6,0.7,19.2
		c0.7,2.4,4.9,3.1,10,4.6c-2.2,4-2.3,9.5-1.2,14C1699.3,138.3,1692.5,140.4,1686.7,141.1z"/>
	<path class="st3" d="M1688.1,115c-1.8,0.6-3.8,0.8-5.7,0.7c-0.1-5.3-0.1-10.3-0.1-10.3l10.8-1.4
		C1693.6,109.2,1691.5,113.8,1688.1,115z"/>
	<circle class="st8" cx="1693.4" cy="100.8" r="4.6"/>
	<circle class="st9" cx="1693.4" cy="100.8" r="2.4"/>
	<path class="st2" d="M1676,101.4c0.5,6.6,3.3,11.8,8.9,11.6c4.7-0.2,8.6-5.8,8.5-12.4c-0.1-6.6-2.9-11.8-9.5-11.6
		C1674.3,89.3,1675.6,94.7,1676,101.4z"/>
	<path class="st10" d="M1687.8,96.4c-1.3-0.5-2.7-0.5-3.9,0c0,0,0,0.1,0,0.1c0,0,0.1,0,0.1,0l0,0l0,0c0.6-0.1,1.3-0.2,1.9-0.2
		c0.3,0,0.6,0,1,0C1687.1,96.3,1687.4,96.4,1687.8,96.4C1687.8,96.5,1687.8,96.5,1687.8,96.4C1687.8,96.5,1687.8,96.4,1687.8,96.4z"
		/>
	<path class="st10" d="M1679.7,96.9c-0.7-0.2-1.3-0.3-2-0.2c-0.7,0.1-1.3,0.3-1.9,0.6c0,0,0,0.1,0,0.1c0,0,0.1,0,0.1,0l0,0l0,0
		c0.6-0.2,1.2-0.3,1.9-0.4c0.3,0,0.6-0.1,1,0C1679.1,96.9,1679.4,96.9,1679.7,96.9C1679.7,97,1679.8,97,1679.7,96.9L1679.7,96.9
		C1679.8,96.9,1679.8,96.9,1679.7,96.9z"/>
	<circle cx="1686.1" cy="98.9" r="0.6"/>
	<circle cx="1677.3" cy="99.4" r="0.6"/>
	<path class="st8" d="M1676.1,101.3h0.1c1.1-0.1,2.1,0.7,2.2,1.8c0.1,1.1-0.7,2.1-1.8,2.2l0,0c-0.3-1.2-0.4-2.3-0.5-3.5
		C1676.1,101.6,1676.1,101.4,1676.1,101.3z"/>
	<circle class="st8" cx="1686.6" cy="102.4" r="2"/>
	<path class="st3" d="M1679.3,93.2c-1.1,0.8-2.3,1.4-3.5,1.9c0.5-6.8,5.2-6.6,5.2-6.6l8.4,1.2l8.6,8.6l0.1,2.6
		c-9.2,1.7-11.4-10.6-16.1-11.4C1681.5,91,1680.6,92.3,1679.3,93.2z"/>
	<path class="st1" d="M1678.8,105.2c0,0.9,1.3,1.5,2.8,1.4c1.5-0.1,2.7-0.9,2.6-1.7c-0.1-0.9-1.2-0.2-2.7-0.1
		C1680,105,1678.7,104.4,1678.8,105.2z"/>
	<circle class="st1" cx="1694.3" cy="104.1" r="0.4"/>
	<path class="st11" d="M1673.5,101.1c-0.2-0.3-0.3-0.6-0.3-1l-0.1-1.4c-0.1-1.1,0.7-1.9,1.8-2c0,0,0,0,0,0l1.1-0.1
		C1675.2,98.2,1674.4,99.7,1673.5,101.1z M1679.6,96.8c-1,1.7-2,3.4-3,5.1l2.2-0.1c1.1-0.1,1.9-0.9,1.8-2l-0.1-1.4
		C1680.6,97.7,1680.2,97.2,1679.6,96.8L1679.6,96.8z M1687.8,101.4h0.3c1.1-0.1,1.9-0.9,1.8-2l-0.1-1.4c0-0.2-0.1-0.5-0.2-0.7
		C1689.1,98.7,1688.5,100,1687.8,101.4L1687.8,101.4z M1684.2,101.5c1-1.7,1.8-3.5,2.6-5.3l-2.6,0.1c-1.1,0.1-1.9,0.9-1.8,2l0,0
		l0.1,1.4C1682.5,100.7,1683.2,101.5,1684.2,101.5L1684.2,101.5z"/>
	<path class="st5" d="M1675.1,102.5c-1.2,0-2.3-1-2.4-2.2l-0.1-1.4c-0.1-1.3,0.9-2.4,2.2-2.5l3.7-0.2c1.3-0.1,2.4,0.9,2.5,2.2
		l0.1,1.4c0.1,1.3-0.9,2.4-2.2,2.5L1675.1,102.5z M1678.7,97.1L1678.7,97.1l-3.8,0.2c-0.8,0.1-1.4,0.7-1.4,1.5l0.1,1.4
		c0.1,0.8,0.7,1.4,1.5,1.4l3.7-0.2c0.8,0,1.4-0.7,1.4-1.5l-0.1-1.4C1680.1,97.7,1679.5,97.1,1678.7,97.1L1678.7,97.1z"/>
	<path class="st5" d="M1684.3,102c-1.2,0-2.3-1-2.4-2.2l-0.1-1.4c0-1.3,1-2.4,2.3-2.4l3.7-0.2c1.3-0.1,2.4,0.9,2.5,2.2l0.1,1.4
		c0.1,1.3-0.9,2.4-2.2,2.5L1684.3,102z M1687.9,96.6L1687.9,96.6l-3.8,0.2c-0.8,0.1-1.4,0.7-1.4,1.5l0.1,1.4
		c0.1,0.8,0.7,1.4,1.5,1.4l3.7-0.2c0.8-0.1,1.4-0.7,1.4-1.5l-0.1-1.4C1689.3,97.2,1688.7,96.6,1687.9,96.6L1687.9,96.6z"/>
	<path class="st5" d="M1694.4,98.4c-0.5,0.1-1,0-1.5-0.2c-1,0-1.9,0.2-2.7,0.7l-0.4-0.7c0.9-0.5,1.9-0.8,2.9-0.8
		c0.3,0,0.7,0.1,1,0.2C1693.7,98,1694,98.2,1694.4,98.4z"/>
	
		<rect x="1680.8" y="98.5" transform="matrix(0.9988 -4.939897e-02 4.939897e-02 0.9988 -2.8338 83.1876)" class="st5" width="1.6" height="0.9"/>
	<path class="st8" d="M1681.3,99.4l-1.5,3.2c-0.1,0.3,0,0.6,0.3,0.7c0.1,0,0.2,0,0.2,0h1.9L1681.3,99.4z"/>
	<path class="st7" d="M1690.8,87.7c0,0-1.5-2-7-2.9c-4.7-0.7-7.6,0.4-9,3.3c-1,2,0.3,4,1.4,5.5l0,0c1.9-0.4,2.8-1.6,5.6-4.5
		c1.1,0.1,2.2,0.4,3.3,0.7c2.6,1,5,11.1,14.1,9.4L1690.8,87.7z"/>
	<path class="st3" d="M1719.1,200.5c-1.4-5.9-2.6-7.8-6.3-8.9c-11.2-3.4-39.2,5.3-39.3,5.3c-0.6,2-1.2,3.9-1.6,5.9
		c10.4,2.2,13.6-3.4,15.2-3.6c1.6,3,4.6,5,8,5.3c4.4,0.3,10.4-2.6,15.1-3.7l0.2,17.5c0.7,5.6,8.1,2.5,10.8,2.6
		C1720.9,213.2,1720.4,205.9,1719.1,200.5z"/>
	<path class="st12" d="M1683.7,139.6c3.3,0.5,11.4-0.2,11.4-0.2l-2.4,13.1l-9.2,0.1L1683.7,139.6z"/>
	<path class="st4" d="M1700.2,125.5c0,0-0.7,18.5-11.7,26.3c0,0-8.8-9.2-7.5-24.8c0,0-11.6,5.3-15.6,14.6c-3.2,7.4-7,20.9-14.9,29.4
		c-1.2,1.3-2.4,2.5-3.6,3.7l7.7,7.7c1.7-1.7,3.5-3.6,5.2-5.7c10.7-12.8,13.5-18,13.5-18c0.9,2.8,2.3,5.4,4.3,7.5
		c3.2,3.2,1,11.8-1.6,20.2c-2.5,8.4-3.9,11.3-3.9,11.3s5.2,2.4,9.1,2.4c2.9,0,6-2.4,6-2.4c1.6,2.4,4.3,3.9,7.2,4.1
		c10.1,0.8,24.8-5.6,24.8-5.6s-5.2-12.5-6.9-24.2c-1.7-11.7,2.2-19.8,2.2-19.8c3,2.6,5.8,5.6,8.3,8.8c3.5-2.5,7.2-4.7,10.8-7
		C1724.8,140,1711,126.9,1700.2,125.5z"/>
	<path class="st13" d="M1678.9,128c0.8-1,1.7-1.8,2.7-2.6c0.2-0.2,0.6-0.2,0.7,0.1l0,0c0.1,0.1,0.1,0.2,0.1,0.3
		c0.6,4.7,1.4,9.4,2.6,14c1.9,7,3.5,12.1,3.5,12.1c2.5-4.5,4.6-9.3,6.2-14.2c1.4-4.2,2.3-8.6,2.8-13.1c0.1-0.4,0.4-0.6,0.8-0.5l0,0
		c0.1,0,0.2,0.1,0.3,0.2c0.9,0.5,4.1,1.8,4.1,1.8s-0.9,9.5-3.8,15.1c-2.4,4.5-6,8.3-10.4,10.8c3.2,0.8,26,4.3-7.5-11.8
		C1678.5,132,1678.9,128,1678.9,128z"/>
	<path class="st3" d="M1712.5,171.9c-1.8-11.7,2.2-19.8,2.2-19.8c-2.5-2.1-5.1-3.9-7.8-5.6c0,0-0.9,15.7,3.1,24
		c0.9,1.9,2,3.7,3.3,5.4C1712.9,174.5,1712.6,173.2,1712.5,171.9z"/>
	<path class="st3" d="M1665.3,162c-1.3,3.7-2.3,7.5-2.9,11.3c8.4-10.4,10.7-14.7,10.7-14.7c-1.3-3.8,2.6-15,2.6-15
		C1671.2,149.1,1667.7,155.3,1665.3,162z"/>
	<path class="st3" d="M1688.5,151.8c-1.2,5.2-0.7,8.8,0.4,13.8c1.1,5-1.6,32.1-1.6,32.1c0.6,0.9,1.4,1.7,2.3,2.4
		c0,0,2-21.6,1.4-27.3c-0.6-5.7-2.2-8.6-2.5-11.8C1688.3,157.9,1688.3,154.9,1688.5,151.8z"/>
	<path class="st3" d="M1682,273.8c1,5.6,1.8,10.3,2.4,14.1c0.7-29.7,10.3-64.3,10.3-64.3c-1.5-8.7-3.2-16.5-3.2-16.5
		S1677.7,248.5,1682,273.8z"/>
	<path class="st14" d="M1714,184l39.7-4.8c2.1-0.2,4.1,1.3,4.3,3.4l3,25.3c0.2,2.1-1.3,4.1-3.4,4.3L1718,217
		c-2.1,0.2-4.1-1.3-4.3-3.4l-3-25.3C1710.3,186.2,1711.9,184.3,1714,184z"/>
	<path class="st15" d="M1713.4,185l39.7-4.8c2.1-0.2,4.1,1.3,4.3,3.4l3,25.3c0.2,2.1-1.3,4.1-3.4,4.3l-39.7,4.8
		c-2.1,0.2-4.1-1.3-4.3-3.4l-3-25.3C1709.7,187.2,1711.3,185.2,1713.4,185z"/>
	<path class="st3" d="M1735.4,210.7l2.1,0.5l-1.9-29.7l-9.5,1.1C1729.2,189.3,1735.4,210.7,1735.4,210.7z"/>
	<path class="st4" d="M1733.7,153.9c-3.7,2.2-7.3,4.5-10.8,7c1.5,2,2.9,4.1,4,6.3c3.2,6.5,5.1,10.5,6.2,17.3l10.9-1.7
		c-0.5-4.7-1.5-9.3-2.9-13.8C1739.4,163.6,1736.9,158.6,1733.7,153.9z"/>
	<path class="st16" d="M1744.1,215.1c-0.4,3.4-5.5,4.7-7.7,4.6c-2.2-0.2-1.8-3.6-1.8-3.6l-2.8,0.2c0.6-2.2,3.6-5.5,3.6-5.5
		s-0.6-10.3-1.6-20.8c-0.2-2-0.4-3.8-0.7-5.5l10.9-1.7C1745.2,193.5,1745.2,204.3,1744.1,215.1z"/>
	<path class="st5" d="M1677.5,343.8c-2.2,1.6-8.8,4.6-8.8,4.6c-0.7-1.1-1.6-2.1-2.6-2.9c-2.1,1.5-4.2,2.9-6.4,4.2
		c-0.4,0.2-0.6,0.8-0.4,1.2c0.2,0.3,0.5,0.5,0.8,0.5c0.8,0,1.8,0,3,0c4.5,0,15.7-6.7,15.7-6.7l0.4,5h2.1c0,0,0.3-3,0.7-8.2
		C1680.4,342.1,1678.9,342.9,1677.5,343.8z"/>
	<path class="st5" d="M1716.1,349.7c2.6,0.3,8.8-1.1,12.8-6.1c4-5,4.6-4.2,4.6-4.2l0.8,5.8l1.8-0.5c0,0-0.3-3.6-1-9.2
		c-1.3,0.1-3.8,3-6.1,5.9c-1.7,2-3.9,3.5-6.4,4.3l-2.7-2c-1.7,1.5-3.5,2.9-5.5,4.1C1714.5,347.9,1713.4,349.5,1716.1,349.7z"/>
	<path class="st5" d="M1744.7,208c0-0.5,0.1-1,0.1-1.6c-3.2,0.4-6.4,0.4-9.6,0.2c0,0.6,0.1,1.1,0.1,1.6c1.2,0.1,2.4,0.1,3.6,0.1
		C1740.8,208.3,1742.8,208.2,1744.7,208z"/>
	<path class="st17" d="M1640.1,43c-2.5,0-5,1-6.8,2.7c-1.8-7.3-9.1-11.9-16.5-10.1c-5.1,1.2-9,5.2-10.1,10.3
		c-4.5-1.1-9.1,1.7-10.2,6.3c-1.1,4.5,1.7,9.1,6.3,10.2c0.6,0.2,1.3,0.2,2,0.2h35.4c5.4,0,9.8-4.4,9.8-9.8
		C1649.9,47.4,1645.5,43,1640.1,43L1640.1,43z"/>
	<path class="st17" d="M1782.6,78.5c-1.8,0-3.5,0.7-4.7,1.9c-1.2-5.1-6.4-8.3-11.5-7.1c-3.5,0.8-6.3,3.6-7.1,7.2
		c-3.2-0.8-6.4,1.2-7.1,4.4c-0.8,3.2,1.2,6.4,4.4,7.1c0.4,0.1,0.9,0.2,1.4,0.2h24.7c3.8,0,6.8-3.1,6.8-6.8
		C1789.4,81.6,1786.4,78.5,1782.6,78.5L1782.6,78.5z"/>
	<path class="st17" d="M1489.6,75.1c-1.2,0-2.4,0.5-3.2,1.3c-0.8-3.5-4.4-5.7-7.9-4.8c-2.4,0.6-4.3,2.5-4.9,4.9
		c-2.2-0.5-4.4,0.8-4.9,3c-0.5,2.2,0.8,4.4,3,4.9c0.3,0.1,0.6,0.1,0.9,0.1h16.9c2.6,0,4.7-2.1,4.7-4.7
		C1494.3,77.2,1492.2,75.1,1489.6,75.1L1489.6,75.1z"/>
</g>
</svg>
