<?xml version="1.0" encoding="utf-8"?>
<!-- Generator: Adobe Illustrator 23.0.1, SVG Export Plug-In . SVG Version: 6.00 Build 0)  -->
<svg version="1.0" id="Layer_1" xmlns="http://www.w3.org/2000/svg" xmlns:xlink="http://www.w3.org/1999/xlink" x="0px" y="0px"
	 viewBox="0 0 466 39" style="enable-background:new 0 0 466 39;" xml:space="preserve">
<style type="text/css">
	.st0{fill:#33CCFF;}
	.st1{fill:#00A1E0;}
	.st2{fill:#FFFFFF;}
	.st3{fill:none;stroke:#F4F6F9;stroke-miterlimit:10;}
	.st4{fill:#808996;}
</style>
<g>
	<g>
		<path class="st0" d="M31.74,4.69C25.81,1.72,18.61,3.2,14.33,8.27c0.51-0.14,1.03-0.21,1.56-0.22c0.54-0.02,1.09,0.03,1.62,0.14
			c3.68-3.17,8.93-3.76,13.23-1.5c5.3,2.62,7.91,8.72,6.13,14.36c-2.62,7.08-10.55,2.77-10.55,2.77l4.47-7.6l-2.05-0.73L16.95,35.66
			h2.44l5.88-9.94c0,0,9.77,5.89,13.69-3.9C40.97,16.79,38.95,8.25,31.74,4.69z"/>
		<path class="st0" d="M45.09,20.61h-3.85v0.23c0,0.21-0.08,0.43-0.14,0.67s-0.14,0.49-0.21,0.7l-0.14,0.39h4.39
			c3.06-0.13,5.64,2.24,5.77,5.3s-2.24,5.64-5.3,5.77c-0.16,0.01-0.31,0.01-0.47,0H28.8l2.52-4.29h-0.68
			c-0.48,0-0.97-0.06-1.44-0.17l-0.23-0.07l-3.82,6.51h19.94c4.14,0.37,7.8-2.69,8.17-6.83s-2.69-7.8-6.83-8.17
			c-0.45-0.04-0.9-0.04-1.34,0V20.61z"/>
		<path class="st0" d="M36.74,28.55c0,0.59,0.47,1.07,1.06,1.08c0.59,0,1.07-0.47,1.08-1.06s-0.47-1.07-1.06-1.08
			c-0.03,0-0.05,0-0.08,0C37.18,27.52,36.74,27.99,36.74,28.55z"/>
		<path class="st0" d="M41.94,29.62c0.59,0.01,1.07-0.47,1.08-1.06c0.01-0.59-0.47-1.07-1.06-1.08s-1.07,0.47-1.08,1.06
			c0,0,0,0.01,0,0.01C40.88,29.13,41.35,29.61,41.94,29.62z"/>
		<path class="st0" d="M47.17,28.55c0-0.59-0.48-1.07-1.07-1.07s-1.07,0.48-1.07,1.07s0.48,1.07,1.07,1.07c0,0,0.01,0,0.01,0
			C46.7,29.61,47.17,29.13,47.17,28.55z"/>
		<path class="st0" d="M22.48,12.86l-0.56,1c-0.5-1.45-1.59-2.63-3-3.24c-3-1.16-5.88-0.37-7.31,2.43s0.26,6.2,2,8.15
			c2.17,2.36,3.49,5.31,1.83,8.68c-1.22,2.49-3.89,3.93-6.64,3.57c-2.93-0.2-5.55-2.36-5.55-5.37c-0.01-3.02,2.43-5.48,5.45-5.49
			c0.01,0,0.03,0,0.04,0c0.15-0.01,0.29-0.01,0.44,0h0.18h0.11v-2.1H9.38c-0.19,0-0.41,0-0.64,0c-4.22,0.01-7.63,3.42-7.64,7.64
			c0,4.21,3.52,7.32,7.64,7.64c3.7,0.49,7.26-1.56,8.71-5c1.68-3.55,0.93-7.78-1.86-10.54c-2-2.07-3.07-4-2-6.37
			c0.82-1.51,2.72-2.08,4.23-1.25c0.02,0.01,0.04,0.02,0.06,0.03c1.47,0.67,2.48,2.08,2.64,3.69l-2.13,3.65l2,0.76l4.13-7.06
			L22.48,12.86z"/>
		<path class="st0" d="M68.45,15.03c-0.6-0.02-1.2,0.14-1.71,0.46c-0.43,0.27-0.68,0.75-0.65,1.25c-0.02,0.51,0.22,1,0.65,1.29
			c0.88,0.45,1.81,0.77,2.78,0.95c1.16,0.23,2.26,0.72,3.2,1.45c0.75,0.7,1.15,1.7,1.08,2.73c0.03,1.14-0.47,2.23-1.36,2.94
			c-1.02,0.79-2.29,1.19-3.58,1.13c-2.13,0.01-4.19-0.79-5.75-2.24l1.46-1.76c1.17,1.12,2.72,1.77,4.35,1.82
			c0.65,0.02,1.29-0.18,1.82-0.56c0.42-0.29,0.67-0.78,0.66-1.29c0.02-0.49-0.21-0.96-0.62-1.24c-0.66-0.4-1.39-0.67-2.15-0.81
			c-0.78-0.18-1.55-0.4-2.31-0.67c-0.51-0.19-0.98-0.46-1.4-0.8c-0.85-0.69-1.31-1.76-1.23-2.85c-0.07-1.17,0.45-2.3,1.39-3
			c1.01-0.7,2.22-1.05,3.45-1c0.89,0,1.78,0.14,2.63,0.43c0.82,0.27,1.59,0.68,2.26,1.23l-1.25,1.76c-0.48-0.42-1.05-0.73-1.66-0.91
			C69.85,15.12,69.15,15.02,68.45,15.03z"/>
		<path class="st0" d="M81.47,13.21h2.33v6.74l6.33-6.74h3l-5.55,6.05l5.63,7.77h-2.77l-4.58-6l-2,2.17v3.88h-2.33L81.47,13.21z"/>
		<path class="st0" d="M105.57,27.03h-2.38v-5.46l-5.14-8.36h2.55l3.78,6.29l3.77-6.29h2.59l-5.13,8.36L105.57,27.03z"/>
		<path class="st0" d="M126.51,14.49c1.03,0.98,1.57,2.37,1.45,3.79c0.12,1.41-0.43,2.8-1.49,3.75c-1.35,0.89-2.95,1.3-4.56,1.18
			h-1.84v3.86h-3.08V13.21h4.88C123.52,13.08,125.16,13.53,126.51,14.49z M124.25,19.92c0.4-0.52,0.59-1.17,0.55-1.82
			c0.06-0.65-0.21-1.29-0.72-1.69c-0.68-0.39-1.47-0.57-2.25-0.51h-1.76v4.59h2.08c0.75,0.1,1.51-0.12,2.1-0.61L124.25,19.92z"/>
		<path class="st0" d="M135.12,27.03V13.21h3.08v11.07h5.89v2.75L135.12,27.03z"/>
		<path class="st0" d="M160.93,27.03l-1.28-3h-5.79l-1.29,3h-3.28l6-13.82h3l6,13.82L160.93,27.03z M156.74,17.32l-1.74,4h3.46
			L156.74,17.32z"/>
		<path class="st0" d="M180.22,13.21h3.09v13.82h-3.09l-6.58-8.66v8.66h-3.08V13.21h2.88l6.78,8.9V13.21z"/>
		<path class="st0" d="M201.12,13.21h3.08v13.82h-3.08l-6.59-8.66v8.66h-3.08V13.21h2.89l6.78,8.9V13.21z"/>
		<path class="st0" d="M222.31,13.21v2.75h-6.88v2.85h6.18v2.62h-6.18v2.87h7.09v2.73h-10.18V13.21H222.31z"/>
		<path class="st0" d="M241.22,17.8c0,2.21-0.87,3.64-2.63,4.29l3.5,4.94h-3.79l-3.07-4.41h-2.13v4.41h-3.09V13.21h5.24
			c2.15,0,3.68,0.36,4.6,1.09C240.83,15.18,241.34,16.48,241.22,17.8z M237.5,19.49c0.42-0.43,0.64-1.03,0.58-1.63
			c0.07-0.58-0.15-1.15-0.59-1.53c-0.64-0.34-1.36-0.48-2.08-0.42h-2.31V20h2.25C236.1,20.08,236.86,19.9,237.5,19.49z"/>
	</g>
	<g id="Test-B">
		<g id="Mobile-Nav---Test-B-_x28_0_x29_">
			<g id="Group">
				<g id="logo-salesforce">
					<path id="Fill-1" class="st1" d="M313.94,4.97c1.72-1.76,4.09-2.88,6.73-2.88c3.48,0,6.55,1.95,8.17,4.87
						c1.39-0.65,2.97-0.97,4.64-0.97c6.31,0,11.42,5.15,11.42,11.56s-5.11,11.56-11.42,11.56c-0.79,0-1.53-0.09-2.27-0.23
						c-1.44,2.55-4.18,4.27-7.29,4.27c-1.3,0-2.55-0.28-3.67-0.84c-1.44,3.34-4.83,5.76-8.77,5.76c-4.09,0-7.61-2.6-8.96-6.27
						c-0.6,0.14-1.21,0.19-1.81,0.19c-4.87,0.05-8.87-3.99-8.87-8.91c0-3.3,1.76-6.22,4.41-7.75c-0.56-1.25-0.84-2.65-0.84-4.09
						c0-5.71,4.64-10.31,10.31-10.31C309.06,0.93,312.03,2.51,313.94,4.97"/>
					<path id="Combined-Shape" class="st2" d="M299.55,20.2l0.23-0.6c0.05-0.09,0.09-0.05,0.14-0.05c0.05,0.05,0.09,0.05,0.19,0.09
						c0.65,0.42,1.21,0.42,1.39,0.42c0.46,0,0.79-0.23,0.79-0.6l0,0c0-0.37-0.46-0.51-0.97-0.65l-0.09-0.05
						c-0.7-0.19-1.49-0.51-1.49-1.39l0,0c0-0.88,0.7-1.49,1.67-1.49h0.09c0.6,0,1.16,0.19,1.58,0.42c0.05,0,0.09,0.05,0.05,0.14
						c0,0.05-0.19,0.56-0.23,0.6c-0.05,0.09-0.14,0.05-0.14,0.05c-0.37-0.19-0.93-0.37-1.39-0.37c-0.42,0-0.7,0.23-0.7,0.51l0,0
						c0,0.37,0.46,0.51,1.02,0.7l0.09,0.05c0.7,0.23,1.49,0.56,1.49,1.39l0,0c0,0.93-0.7,1.53-1.76,1.53
						c-0.56,0-1.07-0.09-1.58-0.37c-0.09-0.05-0.19-0.09-0.32-0.19C299.55,20.29,299.5,20.29,299.55,20.2z M315.47,20.2l0.23-0.6
						c0.05-0.09,0.14-0.05,0.14-0.05c0.05,0.05,0.09,0.05,0.19,0.09c0.65,0.42,1.21,0.42,1.39,0.42c0.46,0,0.74-0.23,0.74-0.6l0,0
						c0-0.37-0.46-0.51-0.97-0.65l-0.09-0.05c-0.7-0.19-1.49-0.51-1.49-1.39l0,0c0-0.88,0.7-1.49,1.67-1.49h0.09
						c0.6,0,1.16,0.19,1.58,0.42c0.05,0,0.09,0.05,0.05,0.14c0,0.05-0.19,0.56-0.23,0.6c-0.05,0.09-0.14,0.05-0.14,0.05
						c-0.37-0.19-0.93-0.37-1.39-0.37c-0.42,0-0.7,0.23-0.7,0.51l0,0c0,0.37,0.46,0.51,1.02,0.7l0.09,0.05
						c0.7,0.23,1.49,0.56,1.49,1.39l0,0c0,0.93-0.7,1.53-1.76,1.53c-0.56,0-1.07-0.09-1.58-0.37c-0.09-0.05-0.19-0.09-0.32-0.19
						C315.47,20.29,315.42,20.29,315.47,20.2z M327.26,17.42c0.09,0.28,0.14,0.65,0.14,0.97s-0.05,0.7-0.14,0.97
						c-0.09,0.32-0.23,0.56-0.42,0.79c-0.19,0.23-0.42,0.42-0.7,0.51c-0.28,0.14-0.6,0.19-0.97,0.19c-0.37,0-0.7-0.05-0.98-0.19
						c-0.28-0.14-0.51-0.32-0.7-0.51c-0.19-0.23-0.33-0.51-0.42-0.79c-0.09-0.28-0.14-0.65-0.14-0.97c0-0.37,0.05-0.7,0.14-0.97
						c0.09-0.28,0.23-0.56,0.42-0.79c0.19-0.23,0.42-0.42,0.7-0.51c0.28-0.14,0.6-0.19,0.98-0.19c0.37,0,0.7,0.05,0.97,0.19
						c0.28,0.14,0.51,0.32,0.7,0.51C327.03,16.81,327.17,17.09,327.26,17.42z M326.33,18.39c0-0.51-0.09-0.93-0.28-1.25
						c-0.19-0.28-0.46-0.42-0.88-0.42c-0.42,0-0.7,0.14-0.88,0.42c-0.19,0.28-0.28,0.7-0.28,1.25c0,0.51,0.09,0.93,0.28,1.25
						c0.19,0.28,0.46,0.42,0.88,0.42c0.42,0,0.7-0.14,0.88-0.42C326.24,19.32,326.33,18.9,326.33,18.39z M334.74,19.88l0.23,0.6
						c0.05,0.09-0.05,0.09-0.05,0.09c-0.33,0.14-0.84,0.23-1.3,0.23c-0.79,0-1.39-0.23-1.81-0.7c-0.42-0.46-0.6-1.07-0.6-1.81
						c0-0.37,0.05-0.7,0.14-0.97c0.09-0.28,0.23-0.56,0.46-0.79c0.19-0.23,0.46-0.42,0.74-0.51c0.28-0.14,0.65-0.19,1.02-0.19
						c0.28,0,0.46,0,0.7,0.05c0.23,0.05,0.51,0.09,0.6,0.14c0,0,0.09,0.05,0.05,0.09c-0.09,0.23-0.14,0.42-0.23,0.6
						c-0.05,0.09-0.09,0.05-0.09,0.05c-0.28-0.09-0.6-0.14-0.97-0.14c-0.46,0-0.79,0.14-1.02,0.46c-0.23,0.28-0.32,0.7-0.37,1.21
						c0,0.56,0.14,0.97,0.37,1.25s0.6,0.37,1.02,0.37c0.19,0,0.32,0,0.51-0.05c0.14-0.05,0.28-0.09,0.42-0.14
						C334.6,19.83,334.69,19.83,334.74,19.88z M339.38,17.23c0.19,0.7,0.09,1.3,0.09,1.35c0,0.09-0.09,0.09-0.09,0.09h-3.06
						c0,0.46,0.14,0.79,0.37,1.02c0.23,0.23,0.56,0.37,1.07,0.37c0.74,0,1.02-0.14,1.25-0.23c0,0,0.09-0.05,0.09,0.05l0.19,0.56
						c0.05,0.09,0,0.14-0.05,0.14c-0.19,0.09-0.65,0.32-1.53,0.32c-0.42,0-0.79-0.05-1.11-0.19c-0.33-0.14-0.56-0.28-0.79-0.51
						c-0.19-0.23-0.37-0.46-0.46-0.79c-0.09-0.28-0.14-0.65-0.14-0.97c0-0.32,0.05-0.7,0.14-0.97c0.09-0.32,0.23-0.56,0.42-0.79
						c0.19-0.23,0.42-0.42,0.7-0.56c0.28-0.14,0.65-0.19,1.02-0.19c0.33,0,0.65,0.09,0.88,0.19c0.19,0.09,0.37,0.23,0.6,0.46
						C339.1,16.63,339.29,16.95,339.38,17.23z M336.32,17.88h2.18c0-0.28-0.09-0.56-0.19-0.74c-0.19-0.28-0.46-0.46-0.88-0.46
						s-0.7,0.14-0.88,0.46C336.46,17.32,336.36,17.55,336.32,17.88z M314.73,17.23c0.19,0.7,0.09,1.3,0.09,1.35
						c0,0.09-0.09,0.09-0.09,0.09h-3.06c0,0.46,0.14,0.79,0.37,1.02c0.23,0.23,0.56,0.37,1.07,0.37c0.74,0,1.02-0.14,1.25-0.23
						c0,0,0.09-0.05,0.09,0.05l0.19,0.56c0.05,0.09,0,0.14-0.05,0.14c-0.19,0.09-0.65,0.32-1.53,0.32c-0.42,0-0.79-0.05-1.11-0.19
						c-0.32-0.14-0.56-0.28-0.79-0.51c-0.19-0.23-0.37-0.46-0.46-0.79c-0.09-0.28-0.14-0.65-0.14-0.97c0-0.32,0.05-0.7,0.14-0.97
						c0.09-0.32,0.23-0.56,0.42-0.79c0.19-0.23,0.42-0.42,0.7-0.56c0.28-0.14,0.65-0.19,1.02-0.19c0.32,0,0.65,0.09,0.88,0.19
						c0.19,0.09,0.37,0.23,0.6,0.46C314.45,16.63,314.68,16.95,314.73,17.23z M311.66,17.88h2.18c0-0.28-0.09-0.56-0.19-0.74
						c-0.19-0.28-0.46-0.46-0.88-0.46s-0.7,0.14-0.88,0.46C311.8,17.32,311.71,17.55,311.66,17.88z M306.28,17.69
						c0,0,0.23,0,0.51,0.05v-0.09c0-0.42-0.09-0.6-0.23-0.74c-0.19-0.14-0.42-0.19-0.74-0.19c0,0-0.74,0-1.35,0.32
						c-0.05,0-0.05,0.05-0.05,0.05s-0.09,0.05-0.09-0.05l-0.23-0.6c-0.05-0.09,0.05-0.14,0.05-0.14c0.28-0.23,0.93-0.32,0.93-0.32
						c0.23-0.05,0.6-0.09,0.84-0.09c0.6,0,1.07,0.14,1.39,0.42c0.32,0.28,0.51,0.74,0.51,1.35v2.83c0,0,0,0.09-0.09,0.09
						c0,0-0.09,0.05-0.23,0.05c-0.09,0.05-0.46,0.09-0.79,0.14c-0.33,0.05-0.6,0.09-0.93,0.09c-0.28,0-0.56-0.05-0.84-0.09
						c-0.23-0.05-0.46-0.14-0.6-0.28c-0.19-0.14-0.33-0.28-0.42-0.46c-0.09-0.19-0.14-0.42-0.14-0.7c0-0.28,0.05-0.51,0.19-0.7
						c0.09-0.19,0.28-0.37,0.46-0.51c0.19-0.14,0.42-0.23,0.65-0.28c0.23-0.05,0.51-0.09,0.74-0.09
						C305.95,17.69,306.14,17.69,306.28,17.69z M305.02,19.88c0,0,0.28,0.23,0.88,0.19c0.42-0.05,0.84-0.09,0.84-0.09v-1.39
						c0,0-0.37-0.05-0.84-0.09c-0.6,0-0.88,0.23-0.88,0.23c-0.19,0.14-0.28,0.32-0.28,0.6c0,0.19,0.05,0.32,0.09,0.42
						C304.89,19.74,304.93,19.78,305.02,19.88z M331.07,16.12c-0.05,0.09-0.19,0.51-0.23,0.65c0,0.05-0.05,0.09-0.09,0.09
						c0,0-0.19-0.05-0.32-0.05c-0.09,0-0.28,0-0.42,0.05c-0.14,0.05-0.28,0.14-0.37,0.23c-0.09,0.09-0.19,0.28-0.28,0.46
						c-0.05,0.19-0.09,0.51-0.09,0.79v2.27c0,0.05-0.05,0.09-0.09,0.09h-0.84c-0.05,0-0.09-0.05-0.09-0.09v-4.6
						c0-0.05,0.05-0.09,0.09-0.09h0.79c0.05,0,0.09,0.05,0.09,0.09v0.37c0.14-0.14,0.33-0.28,0.51-0.37
						c0.19-0.09,0.42-0.14,0.79-0.14c0.19,0,0.46,0.05,0.51,0.09C331.02,16.02,331.07,16.07,331.07,16.12z M323.46,14.03
						c0,0,0.09,0.05,0.05,0.09l-0.23,0.65c0,0.05-0.05,0.09-0.14,0.05c-0.05,0-0.05,0-0.14-0.05c-0.05,0-0.14-0.05-0.23-0.05
						c-0.14,0-0.23,0-0.32,0.05c-0.09,0.05-0.19,0.09-0.28,0.14c-0.09,0.09-0.19,0.19-0.23,0.32c-0.09,0.32-0.14,0.65-0.14,0.7h0.97
						c0.09,0,0.09,0.05,0.09,0.09l-0.09,0.7c0,0.09-0.09,0.09-0.09,0.09h-1.02l-0.7,3.9c-0.09,0.42-0.19,0.74-0.28,1.02
						c-0.09,0.28-0.23,0.51-0.42,0.7c-0.19,0.19-0.37,0.32-0.56,0.42c-0.23,0.09-0.46,0.14-0.74,0.14c-0.14,0-0.28,0-0.46-0.05
						c-0.14-0.05-0.19-0.05-0.28-0.09c-0.05,0-0.05-0.05-0.05-0.14c0-0.05,0.19-0.56,0.23-0.6c0.05-0.09,0.09-0.05,0.09-0.05
						c0.05,0,0.09,0.05,0.19,0.05c0.09,0,0.19,0.05,0.23,0.05c0.14,0,0.28,0,0.37-0.05c0.14-0.05,0.19-0.14,0.28-0.23
						c0.09-0.09,0.14-0.23,0.23-0.42c0.05-0.19,0.14-0.46,0.19-0.74l0.7-3.85h-0.7c-0.09,0-0.09-0.05-0.09-0.09l0.09-0.65
						c0-0.09,0.09-0.09,0.09-0.09h0.7l0.05-0.19c0.09-0.6,0.33-1.07,0.6-1.39c0.32-0.32,0.74-0.46,1.3-0.46c0.14,0,0.28,0,0.42,0.05
						C323.27,13.93,323.36,13.98,323.46,14.03z M309.71,20.67c0,0.05-0.05,0.09-0.09,0.09h-0.79c-0.05,0-0.09-0.05-0.09-0.09v-6.59
						c0-0.05,0.05-0.09,0.09-0.09h0.84c0.05,0,0.09,0.05,0.09,0.09v6.59H309.71z"/>
				</g>
			</g>
		</g>
	</g>
	<line class="st3" x1="266.56" y1="3.5" x2="266.56" y2="35.5"/>
	<g>
		<path class="st4" d="M356.87,10.54c-1.02,0-1.74-0.56-1.79-1.36h0.75c0.04,0.42,0.42,0.74,1.03,0.74c0.58,0,0.9-0.29,0.9-0.65
			c0-0.98-2.59-0.41-2.59-2.04c0-0.67,0.63-1.22,1.61-1.22c0.97,0,1.61,0.52,1.66,1.38h-0.73c-0.03-0.44-0.37-0.76-0.95-0.76
			c-0.54,0-0.86,0.26-0.86,0.61c0,1.04,2.54,0.47,2.57,2.04C358.47,10,357.84,10.54,356.87,10.54z"/>
		<path class="st4" d="M359.38,4.88c0-0.28,0.22-0.5,0.5-0.5c0.26,0,0.48,0.22,0.48,0.5s-0.22,0.5-0.48,0.5
			C359.59,5.38,359.38,5.16,359.38,4.88z M359.5,6.09h0.73v4.38h-0.73V6.09z"/>
		<path class="st4" d="M361.46,4.55h0.73v5.92h-0.73V4.55z"/>
		<path class="st4" d="M363.7,6.09l1.37,3.71l1.36-3.71h0.78l-1.72,4.38h-0.85l-1.72-4.38H363.7z"/>
		<path class="st4" d="M369.81,10.54c-1.25,0-2.17-0.88-2.17-2.27c0-1.38,0.89-2.25,2.17-2.25c1.27,0,2.1,0.9,2.1,2.09
			c0,0.16-0.01,0.29-0.02,0.44h-3.5c0.06,0.89,0.68,1.38,1.42,1.38c0.66,0,1.07-0.34,1.23-0.81h0.78
			C371.61,9.92,370.9,10.54,369.81,10.54z M368.4,7.96h2.77c0.01-0.86-0.63-1.33-1.38-1.33C369.07,6.63,368.48,7.1,368.4,7.96z"/>
		<path class="st4" d="M373.61,10.47h-0.73V6.09h0.73V6.8c0.25-0.49,0.72-0.79,1.42-0.79v0.75h-0.19c-0.7,0-1.22,0.31-1.22,1.33
			V10.47z"/>
		<path class="st4" d="M358.42,14.79c1.63,0,2.7,0.84,3.03,2.22h-1.17c-0.23-0.79-0.89-1.3-1.86-1.3c-1.2,0-2.09,0.85-2.09,2.46
			c0,1.63,0.89,2.48,2.09,2.48c0.97,0,1.62-0.47,1.86-1.3h1.17c-0.34,1.31-1.4,2.22-3.03,2.22c-1.87,0-3.2-1.32-3.2-3.41
			C355.22,16.11,356.55,14.79,358.42,14.79z"/>
		<path class="st4" d="M365.78,21.58c-1.86,0-3.27-1.32-3.27-3.41c0-2.07,1.46-3.38,3.32-3.38c1.87,0,3.32,1.31,3.32,3.38
			C369.15,20.26,367.65,21.58,365.78,21.58z M365.78,20.62c1.14,0,2.25-0.78,2.25-2.45c0-1.65-1.09-2.43-2.22-2.43
			c-1.15,0-2.19,0.78-2.19,2.43C363.62,19.84,364.64,20.62,365.78,20.62z"/>
		<path class="st4" d="M375.4,17.75c0-1.34-0.73-2.03-1.83-2.03c-1.12,0-1.88,0.7-1.88,2.11v3.63h-1.09V14.9h1.09v0.94
			c0.43-0.68,1.22-1.06,2.11-1.06c1.52,0,2.69,0.94,2.69,2.82v3.87h-1.08V17.75z"/>
		<path class="st4" d="M380.6,21.58c-1.54,0-2.61-0.84-2.69-2.04h1.13c0.06,0.64,0.62,1.12,1.55,1.12c0.86,0,1.34-0.43,1.34-0.97
			c0-1.46-3.89-0.61-3.89-3.06c0-1.01,0.95-1.83,2.41-1.83c1.45,0,2.41,0.78,2.48,2.06h-1.09c-0.05-0.66-0.55-1.14-1.43-1.14
			c-0.8,0-1.28,0.38-1.28,0.91c0,1.56,3.81,0.71,3.86,3.06C383,20.76,382.05,21.58,380.6,21.58z"/>
		<path class="st4" d="M390.36,21.47h-1.09V20.5c-0.42,0.68-1.22,1.07-2.1,1.07c-1.51,0-2.7-0.94-2.7-2.82V14.9h1.08v3.71
			c0,1.33,0.73,2.01,1.83,2.01c1.13,0,1.88-0.7,1.88-2.11V14.9h1.09V21.47z"/>
		<path class="st4" d="M392.21,12.59h1.09v8.88h-1.09V12.59z"/>
		<path class="st4" d="M395.41,15.8h-0.85v-0.9h0.85v-1.66h1.09v1.66h1.71v0.9h-1.71v3.87c0,0.65,0.24,0.88,0.91,0.88h0.8v0.92
			h-0.98c-1.16,0-1.82-0.48-1.82-1.8V15.8z"/>
		<path class="st4" d="M399.36,13.08c0-0.42,0.32-0.74,0.74-0.74c0.4,0,0.72,0.32,0.72,0.74s-0.32,0.74-0.72,0.74
			C399.68,13.83,399.36,13.5,399.36,13.08z M399.54,14.9h1.09v6.57h-1.09V14.9z"/>
		<path class="st4" d="M407.3,17.75c0-1.34-0.73-2.03-1.83-2.03c-1.12,0-1.88,0.7-1.88,2.11v3.63h-1.09V14.9h1.09v0.94
			c0.43-0.68,1.22-1.06,2.11-1.06c1.52,0,2.69,0.94,2.69,2.82v3.87h-1.08V17.75z"/>
		<path class="st4" d="M412.88,14.79c1.2,0,2.06,0.6,2.45,1.31v-1.2h1.1v6.72c0,1.81-1.21,3.09-3.14,3.09
			c-1.73,0-2.96-0.88-3.18-2.28h1.08c0.24,0.79,1.02,1.33,2.1,1.33c1.16,0,2.04-0.74,2.04-2.15v-1.38c-0.4,0.71-1.25,1.34-2.45,1.34
			c-1.76,0-3.12-1.38-3.12-3.42C409.76,16.11,411.11,14.79,412.88,14.79z M413.09,15.74c-1.2,0-2.22,0.88-2.22,2.42
			c0,1.55,1.02,2.46,2.22,2.46c1.2,0,2.23-0.9,2.23-2.45C415.32,16.65,414.29,15.74,413.09,15.74z"/>
		<path class="st4" d="M425.03,14.79c1.76,0,3.12,1.32,3.12,3.37c0,2.04-1.36,3.42-3.12,3.42c-1.2,0-2.05-0.65-2.46-1.32v4.33h-1.09
			V14.9h1.09v1.21C422.97,15.41,423.83,14.79,425.03,14.79z M424.8,15.74c-1.19,0-2.23,0.91-2.23,2.43c0,1.55,1.04,2.45,2.23,2.45
			c1.21,0,2.23-0.91,2.23-2.46C427.04,16.61,426.02,15.74,424.8,15.74z"/>
		<path class="st4" d="M432.3,14.79c1.22,0,2.06,0.62,2.45,1.31v-1.2h1.1v6.57h-1.1v-1.22c-0.4,0.71-1.25,1.33-2.46,1.33
			c-1.75,0-3.11-1.38-3.11-3.42C429.19,16.11,430.54,14.79,432.3,14.79z M432.52,15.74c-1.2,0-2.22,0.88-2.22,2.42
			c0,1.55,1.02,2.46,2.22,2.46c1.2,0,2.23-0.9,2.23-2.45C434.75,16.65,433.72,15.74,432.52,15.74z"/>
		<path class="st4" d="M438.8,21.47h-1.09V14.9h1.09v1.07c0.37-0.73,1.08-1.19,2.12-1.19v1.13h-0.29c-1.04,0-1.83,0.47-1.83,1.99
			V21.47z"/>
		<path class="st4" d="M442.42,15.8h-0.85v-0.9h0.85v-1.66h1.09v1.66h1.71v0.9h-1.71v3.87c0,0.65,0.24,0.88,0.91,0.88h0.8v0.92
			h-0.98c-1.16,0-1.82-0.48-1.82-1.8V15.8z"/>
		<path class="st4" d="M451.36,17.75c0-1.34-0.73-2.03-1.83-2.03c-1.12,0-1.88,0.7-1.88,2.11v3.63h-1.09V14.9h1.09v0.94
			c0.43-0.68,1.22-1.06,2.11-1.06c1.52,0,2.69,0.94,2.69,2.82v3.87h-1.08V17.75z"/>
		<path class="st4" d="M457.07,21.58c-1.87,0-3.25-1.32-3.25-3.41c0-2.07,1.33-3.38,3.25-3.38c1.91,0,3.15,1.34,3.15,3.14
			c0,0.24-0.01,0.43-0.04,0.66h-5.25c0.08,1.33,1.02,2.06,2.13,2.06c0.98,0,1.61-0.5,1.85-1.21h1.17
			C459.76,20.64,458.7,21.58,457.07,21.58z M454.95,17.7h4.15c0.01-1.28-0.95-1.99-2.08-1.99C455.96,15.71,455.07,16.42,454.95,17.7
			z"/>
		<path class="st4" d="M462.76,21.47h-1.09V14.9h1.09v1.07c0.37-0.73,1.08-1.19,2.12-1.19v1.13h-0.29c-1.04,0-1.83,0.47-1.83,1.99
			V21.47z"/>
	</g>
</g>
</svg>
