<?xml version="1.0" encoding="utf-8"?>
<!-- Generator: Adobe Illustrator 23.0.1, SVG Export Plug-In . SVG Version: 6.00 Build 0)  -->
<svg version="1.0" id="Layer_1" xmlns="http://www.w3.org/2000/svg" xmlns:xlink="http://www.w3.org/1999/xlink" x="0px" y="0px"
	 viewBox="0 0 512 512" style="enable-background:new 0 0 512 512;" xml:space="preserve">
<style type="text/css">
	.st0{fill:none;stroke:#14286C;stroke-width:30;}
</style>
<g>
	<path class="st0" d="M385.62,119.71c1.74,2.45,2.62,5.06,2.62,7.85c0,43.99-11,84.84-32.99,122.54
		c-21.65,36.66-50.8,65.81-87.46,87.46c-37.71,22-78.55,32.99-122.54,32.99c-2.8,0-5.42-0.88-7.85-2.62
		c-2.45-1.75-3.85-4.19-4.19-7.33l-12.57-54.46c-0.7-2.79-0.35-5.58,1.05-8.38c1.39-2.79,3.49-4.71,6.28-5.76l58.65-25.14
		c2.44-1.05,5.06-1.31,7.86-0.79c2.79,0.52,5.06,2.01,6.81,4.45l25.66,31.42c20.6-9.43,38.83-22.17,54.73-38.23
		c15.88-16.05,28.54-34.21,37.97-54.46l-31.42-26.18c-2.09-1.74-3.49-3.93-4.19-6.55c-0.7-2.62-0.52-5.32,0.52-8.12l25.14-58.65
		c1.05-2.44,2.96-4.36,5.76-5.76c2.79-1.39,5.58-1.74,8.38-1.05l54.46,12.57C381.43,115.87,383.87,117.27,385.62,119.71z"/>
</g>
</svg>
