<?xml version="1.0" encoding="utf-8"?>
<!-- Generator: Adobe Illustrator 23.0.1, SVG Export Plug-In . SVG Version: 6.00 Build 0)  -->
<svg version="1.1" id="Layer_1" xmlns="http://www.w3.org/2000/svg" xmlns:xlink="http://www.w3.org/1999/xlink" x="0px" y="0px"
	 viewBox="0 0 180 94" style="enable-background:new 0 0 180 94;" xml:space="preserve">
<style type="text/css">
	.st0{fill:#FFFFFF;}
</style>
<title>Logos SkyPlanner</title>
<g>
	<path class="st0" d="M100.2,4.3c-16.3-8-30.7,0.4-36.6,7.5c1.1-0.3,2.2-0.5,3.3-0.5c1.1,0,2.3,0.1,3.4,0.3c7.8-6.7,18.9-8,28-3.1
		c14,7.1,15.8,22.4,12.9,30.2C105.7,53.6,89,44.5,89,44.5l9.4-16l-4.3-1.6L69.1,69.4h5.1l12.4-20.9c0,0,20.5,12.4,28.8-8.2
		C119.7,29.7,115.4,11.8,100.2,4.3z"/>
	<path class="st0" d="M128.4,37.8h-8.1l-0.1,0.5c-0.1,0.4-0.2,0.9-0.3,1.4s-0.3,1-0.4,1.5l-0.3,0.8h9.2c6.4,0.2,11.5,5.6,11.3,12
		c-0.2,6.2-5.1,11.1-11.3,11.3H94.1l5.3-9H98c-1,0-2-0.1-3-0.4l-0.5-0.2l-8,13.7h41.9c8.7-0.2,15.6-7.5,15.4-16.2
		c-0.2-8.4-7-15.2-15.4-15.4L128.4,37.8z"/>
	<path class="st0" d="M110.8,54.5c0,1.2,1,2.2,2.3,2.2c1.2,0,2.2-1,2.2-2.3c0-1.2-1-2.2-2.2-2.2C111.8,52.2,110.8,53.2,110.8,54.5
		C110.8,54.5,110.8,54.5,110.8,54.5z"/>
	<path class="st0" d="M121.7,56.7c1.2,0,2.2-1,2.2-2.2c0-1.2-1-2.2-2.2-2.2c-1.2,0-2.2,1-2.2,2.2c0,0,0,0,0,0
		C119.5,55.7,120.5,56.7,121.7,56.7C121.7,56.7,121.7,56.7,121.7,56.7z"/>
	<path class="st0" d="M132.7,54.5c0-1.2-1-2.2-2.2-2.2c-1.2,0-2.2,1-2.3,2.2c0,1.2,1,2.2,2.2,2.2c0,0,0,0,0,0
		C131.7,56.7,132.7,55.7,132.7,54.5z"/>
	<path class="st0" d="M80.8,21.5l-1.2,2c-1.1-3.1-3.4-5.5-6.4-6.8c-6.3-2.4-12.4-0.8-15.4,5.1s0.6,13,4.3,17.1
		c4.5,5,7.3,11.2,3.8,18.3c-2.5,5-7.4,7.9-14,7.5c-6.2-0.4-11.7-5-11.7-11.3c0-6.3,5.1-11.5,11.5-11.5c0.3,0,0.6,0,0.9,0.1l0.4,0
		h0.2v-4.6h-0.2c-0.4,0-0.9-0.1-1.4-0.1c-8.8,0-16,7.2-16,16c0,8.8,7.4,15.4,16.1,16.1c8.5,0.7,14.9-3.1,18.3-10.5
		c3.5-7.5,1.9-16.3-3.9-22.2c-4.3-4.3-6.5-8.4-4.3-13.4c1.7-3.2,5.7-4.4,8.9-2.6c0,0,0.1,0,0.1,0c3.1,1.4,5.2,4.4,5.5,7.8l-4.4,7.7
		l4.3,1.6l8.7-14.8L80.8,21.5z"/>
	<path class="st0" d="M5.8,80.8c-0.6,0-1.2,0.1-1.7,0.4c-0.4,0.3-0.7,0.8-0.7,1.3c0,0.5,0.2,1,0.7,1.3c0.9,0.5,1.8,0.8,2.8,1
		c1.2,0.2,2.3,0.7,3.2,1.4c0.7,0.7,1.1,1.7,1.1,2.7c0,1.1-0.5,2.2-1.4,2.9c-1,0.8-2.3,1.2-3.6,1.1c-2.1,0-4.2-0.8-5.8-2.2L2,89
		c1.2,1.1,2.7,1.8,4.4,1.8c0.6,0,1.3-0.1,1.8-0.5C8.5,90,8.8,89.5,8.8,89c0-0.5-0.2-1-0.6-1.2C7.5,87.4,6.8,87.1,6,87
		c-0.8-0.2-1.6-0.4-2.3-0.7c-0.5-0.2-1-0.5-1.4-0.8c-0.9-0.7-1.3-1.7-1.2-2.8c-0.1-1.2,0.5-2.3,1.4-3c1-0.7,2.2-1.1,3.5-1
		c0.9,0,1.8,0.2,2.6,0.4c0.8,0.3,1.6,0.7,2.3,1.2l-1.3,1.8c-0.5-0.4-1.1-0.7-1.7-0.9C7.2,80.9,6.5,80.8,5.8,80.8z"/>
	<path class="st0" d="M18.9,79h2.3v6.7l6.3-6.7h3l-5.6,6l5.6,7.8h-2.8l-4.6-6l-2,2.2v3.9h-2.3L18.9,79z"/>
	<path class="st0" d="M43,92.8h-2.4v-5.5L35.4,79H38l3.8,6.3l3.8-6.3h2.6L43,87.3L43,92.8z"/>
	<path class="st0" d="M63.9,80.2c1,1,1.6,2.4,1.5,3.8c0.1,1.4-0.4,2.8-1.5,3.8c-1.3,0.9-2.9,1.3-4.5,1.2h-1.8v3.9h-3.1V79h4.9
		C60.9,78.8,62.5,79.3,63.9,80.2z M61.6,85.6c0.4-0.5,0.6-1.2,0.5-1.8c0.1-0.7-0.2-1.3-0.7-1.7c-0.7-0.4-1.5-0.6-2.2-0.5h-1.8v4.6
		h2.1C60.3,86.4,61,86.1,61.6,85.6L61.6,85.6z"/>
	<path class="st0" d="M72.5,92.8V79h3.1v11.1h5.9v2.8H72.5z"/>
	<path class="st0" d="M98.3,92.8l-1.3-3h-5.8l-1.3,3h-3.3l6-13.8h3l6,13.8H98.3z M94.1,83.1l-1.7,4h3.5L94.1,83.1z"/>
	<path class="st0" d="M117.6,79h3.1v13.8h-3.1l-6.6-8.7v8.7h-3.1V79h2.9l6.8,8.9V79z"/>
	<path class="st0" d="M138.5,79h3.1v13.8h-3.1l-6.6-8.7v8.7h-3.1V79h2.9l6.8,8.9V79z"/>
	<path class="st0" d="M159.7,79v2.8h-6.9v2.8h6.2v2.6h-6.2v2.9h7.1v2.7h-10.2V79H159.7z"/>
	<path class="st0" d="M178.6,83.6c0,2.2-0.9,3.6-2.6,4.3l3.5,4.9h-3.8l-3.1-4.4h-2.1v4.4h-3.1V79h5.2c2.1,0,3.7,0.4,4.6,1.1
		C178.2,81,178.7,82.3,178.6,83.6z M174.9,85.2c0.4-0.4,0.6-1,0.6-1.6c0.1-0.6-0.2-1.1-0.6-1.5c-0.6-0.3-1.4-0.5-2.1-0.4h-2.3v4.1
		h2.3C173.5,85.8,174.3,85.6,174.9,85.2z"/>
</g>
</svg>
