<?xml version="1.0" encoding="utf-8"?>
<!-- Generator: Adobe Illustrator 23.0.1, SVG Export Plug-In . SVG Version: 6.00 Build 0)  -->
<svg version="1.1" id="Layer_1" xmlns="http://www.w3.org/2000/svg" xmlns:xlink="http://www.w3.org/1999/xlink" x="0px" y="0px"
	 viewBox="0 0 184.7 97.9" style="enable-background:new 0 0 184.7 97.9;" xml:space="preserve">
<style type="text/css">
	.st0{fill:#00B4FF;}
</style>
<title>Logos SkyPlanner</title>
<g>
	<path class="st0" d="M102.6,6.2c-16.3-8-30.7,0.4-36.6,7.5c1.1-0.3,2.2-0.5,3.3-0.5c1.1,0,2.3,0.1,3.4,0.3c7.8-6.7,18.9-8,28-3.1
		c14,7.1,15.8,22.4,12.9,30.2c-5.5,14.9-22.2,5.8-22.2,5.8l9.4-16l-4.3-1.6L71.5,71.4h5.1L89,50.4c0,0,20.5,12.4,28.8-8.2
		C122,31.7,117.8,13.7,102.6,6.2z"/>
	<path class="st0" d="M130.7,39.7h-8.1l-0.1,0.5c-0.1,0.4-0.2,0.9-0.3,1.4s-0.3,1-0.4,1.5l-0.3,0.8h9.2c6.4,0.2,11.5,5.6,11.3,12
		c-0.2,6.2-5.1,11.1-11.3,11.3H96.4l5.3-9h-1.4c-1,0-2-0.1-3-0.4l-0.5-0.2l-8,13.7h41.9c8.7-0.2,15.6-7.5,15.4-16.2
		C145.9,46.7,139.1,39.9,130.7,39.7L130.7,39.7z"/>
	<path class="st0" d="M113.1,56.4c0,1.2,1,2.2,2.3,2.2c1.2,0,2.2-1,2.2-2.3c0-1.2-1-2.2-2.2-2.2C114.1,54.2,113.1,55.2,113.1,56.4
		C113.1,56.4,113.1,56.4,113.1,56.4z"/>
	<path class="st0" d="M124.1,58.6c1.2,0,2.2-1,2.2-2.2c0-1.2-1-2.2-2.2-2.2c-1.2,0-2.2,1-2.2,2.2c0,0,0,0,0,0
		C121.8,57.6,122.8,58.6,124.1,58.6C124.1,58.6,124.1,58.6,124.1,58.6z"/>
	<path class="st0" d="M135.1,56.4c0-1.2-1-2.2-2.2-2.2c-1.2,0-2.2,1-2.2,2.2c0,1.2,1,2.2,2.2,2.2c0,0,0,0,0,0
		C134.1,58.6,135.1,57.7,135.1,56.4z"/>
	<path class="st0" d="M83.2,23.4l-1.2,2c-1.1-3.1-3.4-5.5-6.4-6.8c-6.3-2.4-12.4-0.8-15.4,5.1s0.6,13,4.3,17.1
		c4.6,5,7.3,11.2,3.8,18.3c-2.5,5-7.4,7.9-14,7.5c-6.2-0.4-11.7-5-11.7-11.3c0-6.3,5.1-11.5,11.5-11.5c0.3,0,0.6,0,0.9,0.1l0.4,0
		h0.2v-4.6h-0.2c-0.4,0-0.9-0.1-1.3-0.1c-8.8,0-16,7.2-16,16c0,8.8,7.4,15.4,16.1,16.1c8.5,0.7,14.9-3.1,18.3-10.5
		c3.5-7.5,1.9-16.3-3.9-22.2c-4.3-4.3-6.5-8.4-4.3-13.4c1.7-3.2,5.7-4.4,8.9-2.6c0,0,0.1,0,0.1,0c3.1,1.4,5.2,4.4,5.6,7.8l-4.4,7.7
		l4.3,1.6L87.5,25L83.2,23.4z"/>
	<path class="st0" d="M8.2,82.7c-0.6,0-1.2,0.1-1.7,0.4c-0.4,0.3-0.7,0.8-0.7,1.3c0,0.5,0.2,1,0.7,1.3c0.9,0.5,1.8,0.8,2.8,1
		c1.2,0.2,2.3,0.7,3.2,1.4c0.7,0.7,1.1,1.7,1.1,2.7c0,1.1-0.5,2.2-1.4,2.9c-1,0.8-2.3,1.2-3.6,1.1c-2.1,0-4.2-0.8-5.8-2.2l1.5-1.8
		c1.2,1.1,2.7,1.8,4.3,1.8c0.6,0,1.3-0.1,1.8-0.5c0.4-0.3,0.7-0.8,0.7-1.3c0-0.5-0.2-1-0.6-1.2c-0.7-0.4-1.4-0.7-2.2-0.8
		c-0.8-0.2-1.6-0.4-2.3-0.7c-0.5-0.2-1-0.5-1.4-0.8c-0.9-0.7-1.3-1.7-1.2-2.8c-0.1-1.2,0.5-2.3,1.4-3c1-0.7,2.2-1.1,3.4-1
		c0.9,0,1.8,0.2,2.6,0.4c0.8,0.3,1.6,0.7,2.3,1.2L11.9,84c-0.5-0.4-1.1-0.7-1.7-0.9C9.6,82.9,8.9,82.8,8.2,82.7z"/>
	<path class="st0" d="M21.2,80.9h2.3v6.7l6.3-6.7h3l-5.6,6l5.6,7.8h-2.8l-4.6-6l-2,2.2v3.9h-2.4V80.9z"/>
	<path class="st0" d="M45.3,94.7h-2.4v-5.5l-5.1-8.4h2.6l3.8,6.3l3.8-6.3h2.6l-5.1,8.4V94.7z"/>
	<path class="st0" d="M66.2,82.2c1,1,1.6,2.4,1.4,3.8c0.1,1.4-0.4,2.8-1.5,3.8c-1.3,0.9-2.9,1.3-4.5,1.2h-1.8v3.9h-3.1V80.9h4.9
		C63.2,80.8,64.9,81.2,66.2,82.2z M64,87.6c0.4-0.5,0.6-1.2,0.5-1.8c0.1-0.7-0.2-1.3-0.7-1.7c-0.7-0.4-1.5-0.6-2.2-0.5h-1.8v4.6h2.1
		C62.6,88.3,63.4,88.1,64,87.6L64,87.6z"/>
	<path class="st0" d="M74.9,94.7V80.9h3.1V92h5.9v2.8H74.9z"/>
	<path class="st0" d="M100.7,94.7l-1.3-3h-5.8l-1.3,3H89l6-13.8h3l6,13.8H100.7z M96.5,85l-1.7,4h3.5L96.5,85z"/>
	<path class="st0" d="M120,80.9h3.1v13.8H120l-6.6-8.7v8.7h-3.1V80.9h2.9l6.8,8.9V80.9z"/>
	<path class="st0" d="M140.9,80.9h3.1v13.8h-3.1l-6.6-8.7v8.7h-3.1V80.9h2.9l6.8,8.9V80.9z"/>
	<path class="st0" d="M162,80.9v2.8h-6.9v2.8h6.2v2.6h-6.2V92h7.1v2.7h-10.2V80.9H162z"/>
	<path class="st0" d="M181,85.5c0,2.2-0.9,3.6-2.6,4.3l3.5,4.9H178l-3.1-4.4h-2.1v4.4h-3.1V80.9h5.2c2.1,0,3.7,0.4,4.6,1.1
		C180.6,82.9,181.1,84.2,181,85.5z M177.2,87.2c0.4-0.4,0.6-1,0.6-1.6c0.1-0.6-0.2-1.1-0.6-1.5c-0.6-0.3-1.4-0.5-2.1-0.4h-2.3v4.1
		h2.3C175.8,87.7,176.6,87.6,177.2,87.2z"/>
</g>
</svg>
