<svg id="Layer_1" data-name="Layer 1" xmlns="http://www.w3.org/2000/svg" viewBox="0 0 320 216"><defs><style>.cls-1{fill:none;}.cls-2{fill:#ffcb05;}.cls-3{fill:#d71635;}</style></defs><title>sp-client-DHL</title><rect class="cls-1" width="320" height="216"/><polygon class="cls-2" points="265 81.99 265 134.01 55 134.01 55 81.99 265 81.99"/><path class="cls-3" d="M83.59,91.33l-7.54,10.23H117.1c2.08,0,2.05.79,1,2.17s-2.76,3.82-3.81,5.23c-.53.72-1.49,2,1.7,2h16.79l5-6.76c3.08-4.19.27-12.9-10.76-12.9Z"/><path class="cls-3" d="M73,124.67l15.12-20.56h18.78c2.07,0,2,.79,1,2.16s-2.78,3.8-3.83,5.22c-.53.71-1.49,2,1.69,2H131c-2.09,2.86-8.87,11.15-21,11.15Z"/><path class="cls-3" d="M159.65,113.51l-8.21,11.16H129.8s8.2-11.15,8.21-11.15Z"/><polygon class="cls-3" points="192.8 110.99 139.87 110.99 154.34 91.33 175.97 91.33 167.68 102.6 177.34 102.6 185.63 91.33 207.27 91.33 192.8 110.99"/><path class="cls-3" d="M190.94,113.52l-8.21,11.15H161.1s8.2-11.15,8.21-11.15Z"/><polygon class="cls-3" points="55 117.91 74.01 117.91 72.27 120.28 55 120.28 55 117.91"/><polygon class="cls-3" points="55 113.52 77.25 113.52 75.5 115.88 55 115.88 55 113.52"/><polygon class="cls-3" points="55 122.31 70.77 122.31 69.04 124.67 55 124.67 55 122.31"/><polygon class="cls-3" points="265 120.28 246.11 120.28 247.86 117.91 265 117.91 265 120.28"/><polygon class="cls-3" points="265 124.67 242.88 124.67 244.62 122.31 265 122.31 265 124.67"/><polygon class="cls-3" points="251.09 113.52 265 113.52 265 115.88 249.35 115.89 251.09 113.52"/><path class="cls-3" d="M237.23,91.33,222.76,111H199.83l14.48-19.66Z"/><path class="cls-3" d="M198,113.52l-2.35,3.2c-2.72,3.67-.32,8,8.55,8h34.74l8.21-11.15Z"/></svg>