<svg id="Layer_1" data-name="Layer 1" xmlns="http://www.w3.org/2000/svg" viewBox="0 0 320 216"><defs><style>.cls-1{fill:none;}.cls-2{fill:#6fc598;}.cls-3{fill:#04966f;}.cls-4{fill:#515449;}</style></defs><title>sp-client-GBI</title><rect class="cls-1" width="320" height="216"/><path class="cls-2" d="M124.72,102.7V108a28.2,28.2,0,0,1-.51,5.31c-.1.53-.22,1.06-.35,1.58a1.28,1.28,0,0,0-1.25-1.58H96.82V102.7Z"/><path class="cls-3" d="M126.7,80.1a2,2,0,0,0-2,2V98.63H114.11V80.1Z"/><rect class="cls-3" x="151.48" y="80.36" width="10.61" height="54.41"/><path class="cls-3" d="M109.53,80.1V90.71H85.87A16.88,16.88,0,0,0,69,106.19,27.89,27.89,0,0,1,96.82,80.1Z"/><path class="cls-2" d="M103.17,135.17l-.06,0-.57.12-.19,0-.39.07-.35.07c-.59.1-1.18.19-1.78.25l-.43,0-.29,0-.45,0h0l-.58,0-.55,0H96.12l-.71,0-.69,0c-.71,0-1.4-.13-2.09-.23l-.59-.1-.58-.11-1.06-.22-.49-.13a28.11,28.11,0,0,1-20.23-20.54c-.08-.33-.15-.66-.22-1s-.13-.71-.19-1.07l-.09-.55c-.05-.39-.1-.78-.13-1.17,0-.2,0-.4,0-.61,0-.45-.06-.91-.08-1.37s0-.68,0-1v-.39a.28.28,0,0,1,0-.09c0-.2,0-.39,0-.58s0-.31,0-.45A16.88,16.88,0,0,1,85.87,90.71H96.82a17.23,17.23,0,0,0-12.23,5.06c-.2.2-.39.4-.57.61s-.25.27-.37.41l-.07.08-.37.45-.32.43a.91.91,0,0,0-.11.16q-.16.21-.3.42c-.16.23-.31.47-.45.71s-.18.3-.26.45l-.26.45-.23.47-.23.47h0l-.33.77c-.19.49-.36,1-.51,1.51,0,.08,0,.16-.07.24s-.09.36-.13.53a3.1,3.1,0,0,0-.09.39c0,.14-.06.27-.08.4s0,.23-.07.34,0,.32-.07.49,0,.23,0,.36-.05.5-.07.75,0,.22,0,.33c0,.6,0,1.21,0,1.82,0,.07,0,.14,0,.2a3,3,0,0,0,0,.31c0,.18,0,.37,0,.55s0,.26,0,.39a0,0,0,0,0,0,0c0,.11,0,.22,0,.32l.06.34h0a1.84,1.84,0,0,0,0,.25.43.43,0,0,0,0,.11c0,.12.05.24.07.36l.09.4a2.81,2.81,0,0,1,.08.31,0,0,0,0,1,0,0C82.33,124.89,93.94,135.17,103.17,135.17Z"/><path class="cls-3" d="M123.86,114.89s0,0,0,0c0,.2-.1.4-.16.59s0,.21-.08.31l-.13.43,0,.11c-.07.2-.13.4-.2.6s-.14.42-.22.62q-.27.74-.57,1.44c-.06.15-.13.29-.2.44a.36.36,0,0,1,0,.09l-.18.4-.15.3c-.07.16-.15.31-.23.46l-.31.6-.33.59-.33.55,0,.09-.25.4-.14.22-.21.32c-.15.23-.31.45-.47.68s-.26.35-.38.53h0c-.13.18-.27.36-.41.53s-.24.31-.36.46l-.13.15c-.11.14-.22.27-.34.4l0,0-.43.49-.46.49c-.42.44-.87.88-1.32,1.29l-.21.2-.41.36-.38.32-.18.16c-.29.24-.59.47-.89.7l-.2.14-.41.3-.4.28-.29.2-.31.2a26.58,26.58,0,0,1-2.3,1.35l-.31.15-.49.25-.54.25-.13.06c-.35.16-.7.31-1.06.45l-.6.23-.41.15-.48.17-.58.19-.66.19-.57.16-.31.07-.4.1c-9.23,0-20.84-10.28-23.07-22.75a.31.31,0,0,0,0,.08.06.06,0,0,0,0,0c.05.19.11.38.16.57s.12.35.17.52.07.2.12.3a17.27,17.27,0,0,0,11.31,10.64,1.58,1.58,0,0,0,.31.09q.28.09.57.15l.6.14.6.11.61.09.31,0,.21,0,.39,0,.38,0h1.39l.37,0h.21l.45,0,.22,0h.08l.28,0,.27,0,.31,0,.36-.06c.31,0,.62-.11.93-.19l.39-.09.25-.07h0l.26-.08.33-.1.37-.12.6-.21.32-.13.31-.13.55-.24.37-.18.31-.16.29-.16c.33-.18.66-.37,1-.57a1.64,1.64,0,0,1,.22-.14l.71-.5.3-.23.3-.23.26-.21.47-.41.09-.08.39-.36.09-.09.41-.42s0,0,0,0l.45-.49.21-.25.22-.26.21-.26.4-.54.19-.27a2.75,2.75,0,0,0,.19-.28c.07-.09.13-.19.19-.28l.3-.5.22-.37a2.69,2.69,0,0,1,.16-.29l.3-.6c.09-.19.17-.36.25-.55l0,0,.15-.37.12-.3c.09-.21.17-.42.24-.64s.07-.22.11-.32h9.33A1.28,1.28,0,0,1,123.86,114.89Z"/><path class="cls-2" d="M145.93,96.64a16.61,16.61,0,0,1-2.91,9.45,17,17,0,0,1-2,2.35,16.51,16.51,0,0,1-11.74,4.86h-1a31.08,31.08,0,0,0,.44-5.3v-5.3h.86a5.94,5.94,0,0,0,4.24-1.76,6,6,0,0,0,1.76-4.34,6.09,6.09,0,0,0-6.14-5.89h-4.76V82.08a2,2,0,0,1,2-2h2.38A16.77,16.77,0,0,1,145.93,96.64Z"/><path class="cls-3" d="M149.33,118.93a16.25,16.25,0,0,1-16.24,16.24H115.34a33,33,0,0,0,9.9-10.61h7.87a5.63,5.63,0,0,0,0-11.26h-3.79a16.51,16.51,0,0,0,11.74-4.86,17,17,0,0,0,2-2.35A16.23,16.23,0,0,1,149.33,118.93Z"/><path class="cls-4" d="M178.81,96.08H177a11.28,11.28,0,0,1-.12-1.44,3,3,0,0,1-3,1.69c-3.19,0-4.22-3-4.22-7.61v-.64c0-5.27,1.73-7.72,4.92-7.72,3.92,0,4.17,3.37,4.21,4.36v0h-2.3v0c0-.63-.17-2.37-2-2.37s-2.46,2.31-2.46,5.7v.67c0,3.52.48,5.64,2.33,5.64,1.68,0,2.11-1.35,2.11-3.94v-1h-2.25v-2h4.56Z"/><path class="cls-4" d="M184,89.25v6.83h-2.31V80.6H186c2.7,0,4.18,1.42,4.18,4.09v.06c0,2.26-1.14,3.22-2,3.53,1.26.53,1.78,1.61,1.78,3.84v.57a19.05,19.05,0,0,0,.21,3.39h-2.26a14.81,14.81,0,0,1-.25-3.41v-.5c0-2.11-.45-2.92-2.29-2.92Zm0-1.91h1.5c1.73,0,2.39-.84,2.39-2.5v0c0-1.41-.64-2.29-2.17-2.29H184Z"/><path class="cls-4" d="M199.93,89H195v5.1h5.5l-.3,2h-7.49V80.6h7.44v2H195v4.29h4.91Z"/><path class="cls-4" d="M209.77,89h-4.91v5.1h5.5l-.3,2h-7.49V80.6H210v2h-5.15v4.29h4.91Z"/><path class="cls-4" d="M212.41,96.08V80.6h2.7c3.38,8.83,4.11,10.93,4.3,11.68h0c-.12-2-.13-4.24-.13-6.77V80.6h2.1V96.08h-2.58c-3.5-9.33-4.21-11.47-4.4-12.17h0c.11,1.92.12,4.29.12,7.07v5.1Z"/><path class="cls-4" d="M170.18,99.94h4.32c2.54,0,3.95,1.44,3.95,3.83v0c0,2-.94,2.93-1.8,3.25,1.1.42,2.26,1.42,2.26,3.76v.1a4.15,4.15,0,0,1-4.48,4.5h-4.25Zm3.72,6.3c1.78,0,2.32-.72,2.32-2.2V104a1.93,1.93,0,0,0-2.18-2.17h-1.59v4.43Zm-1.45,7.35h1.75c1.55,0,2.38-.86,2.38-2.7v-.09c0-1.77-.79-2.72-2.68-2.72h-1.45Z"/><path class="cls-4" d="M183.51,99.94v10.84c0,1.42.39,2.93,2.16,2.93s2.15-1.28,2.15-2.92V99.94h2.32v10.88c0,2.76-1.06,4.86-4.52,4.86s-4.44-2-4.44-4.83V99.94Z"/><path class="cls-4" d="M195.39,99.94v15.49h-2.32V99.94Z"/><path class="cls-4" d="M198.56,99.94h2.32v13.49h5.27l-.25,2h-7.34Z"/><path class="cls-4" d="M207.92,99.94h3.74c3.78,0,5.26,2.48,5.26,7.15v.51c0,5-1.37,7.83-5.47,7.83h-3.53Zm2.34,13.56h1.13c2.37,0,3.14-1.8,3.14-5.84v-.56c0-3.59-.77-5.2-3.12-5.2h-1.15Z"/><path class="cls-4" d="M221.84,99.94v15.49h-2.32V99.94Z"/><path class="cls-4" d="M225,115.43V99.94h2.7c3.39,8.84,4.11,10.93,4.31,11.69h0c-.12-2-.14-4.25-.14-6.78V99.94H234v15.49h-2.59c-3.49-9.33-4.2-11.48-4.39-12.17h0c.11,1.92.12,4.29.12,7.07v5.1Z"/><path class="cls-4" d="M245.75,115.43H244a11.28,11.28,0,0,1-.12-1.44,3.05,3.05,0,0,1-3,1.69c-3.19,0-4.22-3-4.22-7.61v-.64c0-5.27,1.73-7.72,4.92-7.72,3.92,0,4.17,3.36,4.21,4.36v0h-2.3v0c0-.62-.17-2.36-2-2.36S239,104,239,107.4v.67c0,3.51.48,5.63,2.33,5.63,1.67,0,2.11-1.34,2.11-3.93v-1h-2.26v-2h4.56Z"/><path class="cls-4" d="M172.51,119.29v15.49h-2.32V119.29Z"/><path class="cls-4" d="M175.64,134.78V119.29h2.7c3.38,8.83,4.11,10.93,4.3,11.68h0c-.12-1.95-.13-4.24-.13-6.77v-4.91h2.1v15.49h-2.58c-3.5-9.34-4.2-11.48-4.4-12.17h0c.11,1.91.12,4.29.12,7.07v5.1Z"/><path class="cls-4" d="M190,119.29v15.49h-2.32V119.29Z"/><path class="cls-4" d="M195.16,121.34h-3.29v-2h8.9v2h-3.29v13.44h-2.32Z"/><path class="cls-4" d="M204.91,119.29v15.49h-2.32V119.29Z"/><path class="cls-4" d="M210,130.45l-.88,4.33H206.8l3.55-15.49h3L217,134.78h-2.44l-.9-4.33Zm3.24-2c-.69-3.27-1.18-5.57-1.41-7h-.06c-.19,1.38-.73,4-1.35,7Z"/><path class="cls-4" d="M219.62,121.34h-3.29v-2h8.9v2h-3.29v13.44h-2.32Z"/><path class="cls-4" d="M229.37,119.29v15.49h-2.32V119.29Z"/><path class="cls-4" d="M235,134.78l-3.74-15.49h2.5l1.48,6.86c.46,2.1.94,4.55,1.13,6.13h0c.19-1.49.81-4,1.26-6.09l1.48-6.9h2.42l-3.83,15.49Z"/><path class="cls-4" d="M250.5,127.66h-4.91v5.1h5.49l-.29,2h-7.5V119.29h7.45v2h-5.15v4.28h4.91Z"/></svg>