<svg id="Layer_1" data-name="Layer 1" xmlns="http://www.w3.org/2000/svg" viewBox="0 0 320 216"><defs><style>.cls-1{fill:none;}</style></defs><title>sp-client-Sony</title><rect class="cls-1" width="320" height="216"/><path d="M243.45,104.31l6.56-7a2.21,2.21,0,0,0,.57-1.18c0-.51-.45-.72-1.84-.72h-1.65V91H265v4.42h-2.35c-2.72,0-3.23.41-7,5.19l-10.37,11.21v6.83c0,1.75.88,2.37,3.41,2.37h3.92v4.26H227.5V121h3.92c2.52,0,3.41-.62,3.41-2.37v-6.83L222.61,98.29c-2-2.37-1.74-2.88-7.36-2.88V91h22.68v4.42h-1.61c-1.64,0-2.34.31-2.34.93s.51.92.82,1.33l6.18,6.74A1.51,1.51,0,0,0,243.45,104.31Z"/><path d="M91.23,91h5.48v12.33H91.65c-.45-2.46-2-3.42-3.4-4.72-2.54-2.33-8-4.27-12.66-4.27-6,0-11,1.85-11,4.57,0,7.56,34.13,1.55,34.13,15.83,0,7.46-7.31,11.62-20.44,11.62-4.55,0-11.43-1.41-15.49-3.57-1.27-.73-1.81.7-2,2.49H55.13V112.52h5.08c1.12,3.24,2.66,3.91,4.08,5.2,2.46,2.26,8.32,3.9,13.69,3.85,8.1-.08,10.89-1.85,10.89-4.42s-2.76-3.19-11.64-4.57l-7.53-1.24c-8.51-1.28-14.7-3.18-14.7-10,0-7,7.83-11.46,20.22-11.46,5.22,0,9.59.7,13.78,3.07C90.16,93.73,91.25,93.82,91.23,91Z"/><path d="M198,111.64l.11-13.71c0-1.8-.93-2.41-3.61-2.41h-3.14V91.25h20v4.27h-2.61c-2.67,0-3.61.61-3.61,2.41v27.6l-7.82-.06-25.34-24V118.9c0,1.75.94,2.42,3.61,2.42h3.48v4.21H158.33v-4.21h3.44c2.67,0,3.61-.67,3.61-2.42v-21c0-1.8-.94-2.41-3.61-2.41h-3.44V91.25h17.95Z"/><path d="M131.08,89.65c-15.93,0-25.91,7-25.91,18.35,0,11.1,9.84,18.09,25.42,18.09,16.55,0,26.18-6.89,26.18-18.66C156.77,96.85,146.38,89.65,131.08,89.65Zm-.36,32c-8.82,0-13.89-5.09-13.89-13.88,0-8.58,5.29-13.67,14.33-13.67,8.67,0,13.73,5.19,13.73,14C144.89,116.74,139.75,121.62,130.72,121.62Z"/></svg>