<svg id="Layer_1" data-name="Layer 1" xmlns="http://www.w3.org/2000/svg" viewBox="0 0 320 216"><defs><style>.cls-1{fill:none;}.cls-2{fill:#057bd1;}.cls-3{fill:#fff;}</style></defs><title>sp-client-Bupa</title><rect class="cls-1" width="320" height="216"/><path class="cls-2" d="M114.06,79.32c-.3,0-.31,0-.26-.32.15-.86.3-1.71.46-2.57s.31-1.81.47-2.71c.07-.39.08-.39.46-.39h2.71a4.24,4.24,0,0,1,1.37.23,2.41,2.41,0,0,1,1.55,2.79,3.72,3.72,0,0,1-3.42,2.92C116.85,79.3,114.62,79.32,114.06,79.32Z"/><path class="cls-2" d="M119.24,65.51a2.21,2.21,0,0,1,2.21,2.22,3.31,3.31,0,0,1-2.39,3.34,5,5,0,0,1-1.34.13h-2.08c-.45,0-.46,0-.38-.43.19-1.11.8-4.46.89-5,0-.19.11-.26.29-.26C116.92,65.5,118.79,65.48,119.24,65.51Z"/><path class="cls-2" d="M151,74.11a6.3,6.3,0,0,1-1.7,4.48,3.14,3.14,0,0,1-2.31,1,2.73,2.73,0,0,1-2.74-1.94,5.47,5.47,0,0,1,0-3.55A5.25,5.25,0,0,1,146,71.43a3.38,3.38,0,0,1,2.3-.77,2.44,2.44,0,0,1,2.21,1.4A4.68,4.68,0,0,1,151,74.11Z"/><path class="cls-2" d="M158.92,75.72a6.34,6.34,0,0,1,1.32-3.91,3.37,3.37,0,0,1,2.44-1.38,2.77,2.77,0,0,1,3,2.2,5.78,5.78,0,0,1-1.61,5.72,3.27,3.27,0,0,1-2.73,1,2.47,2.47,0,0,1-2.08-1.52A4.77,4.77,0,0,1,158.92,75.72Z"/><path class="cls-3" d="M209.87,86.82c-.11-.17-.27-.12-.44-.12a30.28,30.28,0,0,1-3.43-.09,6.39,6.39,0,0,1-2.69-.85,31.28,31.28,0,0,1-2.67-1.94,10.25,10.25,0,0,0-1.82-1.17,2.4,2.4,0,0,0-2.56.22c-.18.12-.35.26-.51.39a11.1,11.1,0,0,0-1.33,1.41c-1.12,1.39-2.12,2.86-3.13,4.32-.08.14-.16.35-.36.28s-.13-.28-.14-.44c-.06-2.55-.11-5.09-.19-7.64q-.19-6.42-.43-12.84c-.08-2-.18-4.09-.29-6.14a10.76,10.76,0,0,0-.25-1.88,4.33,4.33,0,0,0-.73-1.69,1.18,1.18,0,0,0-1.75-.28,3.11,3.11,0,0,0-.89,1A8.63,8.63,0,0,0,185.12,62c-.71,2.85-1.42,5.7-2.11,8.56q-1.31,5.41-2.58,10.85c-.89,3.8-1.76,7.6-2.58,11.42-.29,1.33-.57,2.68-.86,4,0,.16,0,.39-.23.39s-.21-.25-.24-.41c-.14-.63-.25-1.27-.38-1.9-.31-1.57-.59-3.15-1-4.69a8.58,8.58,0,0,0-1-2.37,2.63,2.63,0,0,0-3.37-1.12A6.85,6.85,0,0,0,168.7,88c-.57.48-1.13,1-1.74,1.43a6.35,6.35,0,0,1-3.76,1.22c-7.21,0-14.42,0-21.62,0h-.36c-.36,0-.36,0-.43.37s-.14.68-.19,1c-.08.52-.22,1-.26,1.55a.82.82,0,0,0,.46.05h22.94a8.41,8.41,0,0,0,3.17-.63A14.74,14.74,0,0,0,170,91.24a5.69,5.69,0,0,1,1-.61.75.75,0,0,1,1.12.41,3.61,3.61,0,0,1,.28.86c.36,1.6.71,3.2,1.08,4.8a31,31,0,0,0,1.18,4,3.65,3.65,0,0,0,.61,1.11,1.41,1.41,0,0,0,2,.26,2.93,2.93,0,0,0,.79-.78,6.72,6.72,0,0,0,1-2.07c.24-.83.45-1.66.66-2.5,1.12-4.46,2.17-9,3.21-13.44s2.14-9.19,3.21-13.78c.2-.88.41-1.75.62-2.64,0-.16.09-.34.31-.31s.17.23.18.37l0,1.18c.07,3,.14,6,.22,9s.2,6.11.36,9.17c.09,1.65.18,3.29.37,4.92a6.32,6.32,0,0,0,.25,1.42,1.74,1.74,0,0,0,2.89,1,5.14,5.14,0,0,0,1.35-1.44c.88-1.3,1.75-2.6,2.64-3.9.37-.54.75-1.09,1.16-1.61a1.25,1.25,0,0,1,1.65-.39,4.15,4.15,0,0,1,.78.47c.38.26.76.54,1.15.78a13.07,13.07,0,0,0,4.14,1.76,21.47,21.47,0,0,0,4.87.27.32.32,0,0,0,.36-.31q.14-.83.3-1.65C209.88,87.26,210,87,209.87,86.82ZM153.61,71.31a4.43,4.43,0,0,0-3.24-2.82,5.67,5.67,0,0,0-5.49,1.71c-.08.08-.13.2-.29.24s0-.12,0-.16a1.55,1.55,0,0,0-1.33-1.62,4.25,4.25,0,0,0-.94-.06c-.34,0-.34,0-.4.35-.26,1.45-.51,2.89-.76,4.32-.5,2.85-1,5.7-1.51,8.55-.15.8-.3,1.59-.44,2.4a1.8,1.8,0,0,0,1.87,2.21c.72,0,.57.12.71-.62.38-2,.73-4,1.1-6a.41.41,0,0,1,.14-.32,4.35,4.35,0,0,0,2.85,2A6.46,6.46,0,0,0,152,79.66a7.32,7.32,0,0,0,1.92-3.78A7.6,7.6,0,0,0,153.61,71.31Zm-4.34,7.28a3.11,3.11,0,0,1-2.31,1,2.72,2.72,0,0,1-2.74-1.94,5.53,5.53,0,0,1,0-3.55A5.25,5.25,0,0,1,146,71.43a3.33,3.33,0,0,1,2.3-.77,2.44,2.44,0,0,1,2.21,1.4,4.53,4.53,0,0,1,.47,2A6.25,6.25,0,0,1,149.27,78.59Zm20.52-10h-2.22c-.21,0-.31.06-.34.27a9.28,9.28,0,0,1-.33,1.52.29.29,0,0,1-.18-.16,4.26,4.26,0,0,0-2.33-1.64,6.3,6.3,0,0,0-6.67,2.09,8.33,8.33,0,0,0-1.82,6.56,5.19,5.19,0,0,0,9,2.65,3.8,3.8,0,0,1,.28-.33.35.35,0,0,1,.06.26,1.53,1.53,0,0,0,.95,1.41,2.33,2.33,0,0,0,1.07.16c.53,0,.53,0,.62-.51.5-2.85,1.89-10.83,2.1-12C170.06,68.68,170,68.59,169.79,68.59Zm-5.67,9.76a3.27,3.27,0,0,1-2.73,1,2.47,2.47,0,0,1-2.08-1.52,4.63,4.63,0,0,1-.39-2.07,6.33,6.33,0,0,1,1.31-3.91,3.44,3.44,0,0,1,2.45-1.38,2.78,2.78,0,0,1,3,2.2A5.78,5.78,0,0,1,164.12,78.35Zm-26.6-9.68a4.35,4.35,0,0,0-1-.07c-.35,0-.36,0-.42.37-.3,1.7-.59,3.41-.9,5.11-.17,1-.31,1.94-.54,2.89a2.67,2.67,0,0,1-1.9,2.16,4.21,4.21,0,0,1-1.87.16,2,2,0,0,1-1.85-2.44c.23-1.55.51-3.09.77-4.63.1-.55.21-1.1.3-1.65a1.53,1.53,0,0,0-1.22-1.86,3.54,3.54,0,0,0-1-.11c-.39,0-.39,0-.45.38-.35,2-.71,3.89-1,5.83a15,15,0,0,0-.32,2.59,3.93,3.93,0,0,0,1.73,3.31,5.39,5.39,0,0,0,3.29,1,13.87,13.87,0,0,0,1.7-.13,5.68,5.68,0,0,0,3.79-2.17,6.18,6.18,0,0,0,1.08-2.46c.2-.94.37-1.89.54-2.84.21-1.14.41-2.28.61-3.42A1.59,1.59,0,0,0,137.52,68.67Zm-15.77,3.56-.37-.15c.1-.14.23-.13.34-.16a4.44,4.44,0,0,0,3-4.67,3.6,3.6,0,0,0-2.43-3.33,5.46,5.46,0,0,0-2-.39c-2.23,0-4.46,0-6.69,0-.22,0-.32.06-.36.3-.41,2.3-2.8,15.75-3.12,17.58,2.51,0,5.4,0,7.88,0a7.08,7.08,0,0,0,1.66-.24,5.75,5.75,0,0,0,4.37-5A3.67,3.67,0,0,0,121.75,72.23Zm-6.49-1.46c.19-1.11.8-4.46.88-5,0-.2.12-.26.3-.26.48,0,2.35,0,2.8,0a2.19,2.19,0,0,1,2.2,2.23,3.3,3.3,0,0,1-2.38,3.33,5.44,5.44,0,0,1-1.34.13h-2.08C115.19,71.21,115.18,71.2,115.26,70.77Zm5.56,5.57a3.71,3.71,0,0,1-3.42,2.93c-.55,0-2.78,0-3.34,0-.3,0-.31,0-.26-.3.14-.87.3-1.72.46-2.59s.31-1.8.47-2.7c.07-.39.08-.39.46-.39h2.71a3.85,3.85,0,0,1,1.38.23A2.4,2.4,0,0,1,120.82,76.34Z"/><path class="cls-2" d="M106.57,54.57V161.43H213.43V54.57Zm67.58,33.3a8.83,8.83,0,0,1,1,2.38c.43,1.53.71,3.11,1,4.67.13.64.24,1.28.38,1.91,0,.16,0,.42.24.41s.19-.24.23-.39c.29-1.34.57-2.68.86-4,.82-3.81,1.69-7.62,2.58-11.42Q181.71,76,183,70.56c.69-2.86,1.4-5.71,2.11-8.56a8.63,8.63,0,0,1,1.14-2.69,3.11,3.11,0,0,1,.89-1,1.18,1.18,0,0,1,1.75.28,4,4,0,0,1,.72,1.69,9.25,9.25,0,0,1,.26,1.88c.11,2.05.21,4.09.29,6.14q.22,6.42.43,12.84c.08,2.54.13,5.09.19,7.64,0,.16-.06.37.14.44s.27-.14.36-.28c1-1.46,2-2.93,3.13-4.31a11.18,11.18,0,0,1,1.33-1.42,6.12,6.12,0,0,1,.5-.39,2.44,2.44,0,0,1,2.57-.22,9.77,9.77,0,0,1,1.82,1.18c.88.65,1.73,1.35,2.67,1.93a6.39,6.39,0,0,0,2.69.85,32.74,32.74,0,0,0,3.43.09c.17,0,.33,0,.44.12s0,.44,0,.7q-.17.83-.3,1.65a.32.32,0,0,1-.36.31,20.8,20.8,0,0,1-4.86-.27,13,13,0,0,1-4.15-1.76c-.39-.25-.77-.52-1.15-.79a4.7,4.7,0,0,0-.78-.46,1.25,1.25,0,0,0-1.65.39c-.41.52-.79,1.07-1.16,1.61-.89,1.3-1.76,2.6-2.64,3.9a5.14,5.14,0,0,1-1.35,1.44,1.74,1.74,0,0,1-2.89-1,6.22,6.22,0,0,1-.25-1.42c-.19-1.64-.29-3.28-.37-4.92q-.24-4.57-.36-9.17c-.08-3-.15-6-.22-9,0-.39,0-.78,0-1.18,0-.14,0-.33-.17-.36s-.27.14-.31.3c-.21.88-.42,1.76-.62,2.65-1.07,4.59-2.13,9.18-3.21,13.77s-2.09,9-3.21,13.45c-.21.83-.42,1.66-.66,2.49a6.36,6.36,0,0,1-1,2.06,3,3,0,0,1-.79.8,1.42,1.42,0,0,1-2-.27,3.65,3.65,0,0,1-.61-1.11,32.69,32.69,0,0,1-1.18-4c-.37-1.6-.72-3.2-1.08-4.8a3.61,3.61,0,0,0-.28-.86.74.74,0,0,0-1.11-.41,5.43,5.43,0,0,0-1,.61A15.18,15.18,0,0,1,166.91,93a8.4,8.4,0,0,1-3.17.62H140.8a.76.76,0,0,1-.46-.06c0-.51.18-1,.26-1.54.05-.34.12-.68.19-1s.07-.36.42-.37h22A6.34,6.34,0,0,0,167,89.45c.61-.44,1.17-1,1.75-1.44a7.05,7.05,0,0,1,2.07-1.26A2.62,2.62,0,0,1,174.15,87.87Zm-16.43-17.2a6.29,6.29,0,0,1,6.68-2.08,4.22,4.22,0,0,1,2.32,1.63.29.29,0,0,0,.18.16,8.32,8.32,0,0,0,.33-1.52c0-.21.13-.27.34-.27h2.22c.23,0,.27.09.23.3-.21,1.14-1.6,9.13-2.1,12-.09.51-.09.51-.62.51a2.27,2.27,0,0,1-1.06-.16,1.5,1.5,0,0,1-1-1.41.36.36,0,0,0-.07-.26l-.28.32A5.46,5.46,0,0,1,158.38,81a5,5,0,0,1-2.48-3.8A8.37,8.37,0,0,1,157.72,70.67ZM139.19,84.22c.13-.8.28-1.6.43-2.4.5-2.85,1-5.7,1.51-8.55.25-1.44.5-2.88.76-4.31.06-.35.06-.35.39-.35a3.79,3.79,0,0,1,.95,0,1.55,1.55,0,0,1,1.33,1.62s0,.09,0,.17c.16,0,.21-.17.3-.25a5.67,5.67,0,0,1,5.48-1.71,4.43,4.43,0,0,1,3.24,2.82,7.63,7.63,0,0,1,.33,4.58A7.33,7.33,0,0,1,152,79.66a6.44,6.44,0,0,1-6.17,1.85,4.35,4.35,0,0,1-2.85-2,.42.42,0,0,0-.15.32c-.36,2-.71,4-1.09,6-.15.74,0,.61-.71.62A1.79,1.79,0,0,1,139.19,84.22Zm-12.77-9.41c.33-2,.69-3.89,1-5.83.07-.37.08-.37.46-.38a4,4,0,0,1,1,.1,1.53,1.53,0,0,1,1.22,1.87c-.1.55-.2,1.1-.29,1.65-.27,1.54-.55,3.08-.78,4.63a2,2,0,0,0,1.85,2.44,4.42,4.42,0,0,0,1.88-.15,2.73,2.73,0,0,0,1.9-2.17c.21-1,.36-1.92.53-2.88l.9-5.12c.06-.36.07-.36.43-.36a4.28,4.28,0,0,1,.94.06,1.59,1.59,0,0,1,1.31,2c-.2,1.14-.4,2.28-.61,3.42-.17,1-.34,1.9-.54,2.84a6.18,6.18,0,0,1-1.08,2.46,5.65,5.65,0,0,1-3.79,2.16,12,12,0,0,1-1.7.14,5.48,5.48,0,0,1-3.29-1,3.93,3.93,0,0,1-1.73-3.31A14.12,14.12,0,0,1,126.42,74.81Zm-13.15-11c0-.24.15-.3.37-.3,2.23,0,4.46,0,6.69,0a5.46,5.46,0,0,1,2,.39,3.6,3.6,0,0,1,2.43,3.32,4.41,4.41,0,0,1-3,4.67c-.11,0-.25,0-.34.18l.37.14a3.68,3.68,0,0,1,2.32,3.89,5.75,5.75,0,0,1-4.37,5,6.65,6.65,0,0,1-1.65.24c-2.49.09-5.39,0-7.89,0C110.48,79.55,112.87,66.1,113.27,63.8Z"/></svg>