<svg id="Layer_1" data-name="Layer 1" xmlns="http://www.w3.org/2000/svg" viewBox="0 0 320 216"><defs><style>.cls-1{fill:none;}.cls-2{fill:#fffffe;}.cls-3{fill:#009ba7;}</style></defs><title>sp-client-Larkin</title><rect class="cls-1" width="320" height="216"/><path class="cls-2" d="M113.82,123.17H99.74V137.7H71.32V123.17H57.11V93.49H71.32V78.65H99.74V89.09l2.94,1.43a14.93,14.93,0,0,1,2.16,2.94h8.94c0,4.74,0,25,0,29.71"/><rect class="cls-3" x="123.07" y="97.02" width="141.67" height="22.35"/><path class="cls-3" d="M105.33,91.6a8,8,0,0,1,1,1.89h7.51v29.68H101.07a12,12,0,0,1-1.29,1.75V137.7H71.35V123.59a12.83,12.83,0,0,1-2.3.53c-2.41.31-4.3-.07-5.27-1H57.14V93.46H71.35V78.61H99.78V87.9a16.57,16.57,0,0,1,1.88.63V76.73H69.47V91.57H55.26V125H69.47v14.53h32.19V125h14.08V91.57c-1,0-6.57,0-10.41,0"/><path d="M102.26,118.11s-.6-.14-1.89,2.34-2.69,5.52-7.71,6.15c-5.77.73-12.68-3.25-15.86-4.89,0,0-1.64-.63-1.15-1.23A38.35,38.35,0,0,0,79,115.25a68.38,68.38,0,0,0,3.67-10.93c1.46-5.84,3.46-11.39,6.11-13.13a11.53,11.53,0,0,1,8.52-1.82c3.39.42,7.93,2,6.84,9.67s-4.61,10-6.88,10.72a11.06,11.06,0,0,1-5.34.28c-1.26-.21-3.28-.94-3.28.7s2.27,1.47,2.69,1.5c1.71,0,2.93,0,2.93,0,7.51-.35,13-7.61,12.85-14.81-.14-6.39-4.57-9.81-10.82-9.81s-12,2.44-15.47,13.2c0,0-2.38,7.61-3.74,12s-2.65,7.13-3,7.27c-.77.27-2.3-1.68-6.25-1.61s-4.78,1.26-4.85,2.86c-.07,2.2,2.34,3.42,6.11,2.9a12.1,12.1,0,0,0,4.71-1.61S82,128,90.25,128.8a11.64,11.64,0,0,0,11.1-5.94c2.69-4.82.91-4.75.91-4.75m-34.82,4.71c-2,.07-2.93-.83-2.86-1.64s.63-1.25,3.07-1.25a6.8,6.8,0,0,1,4.3,1.85C70.83,122.44,70.1,122.72,67.44,122.82Z"/><path d="M128.94,76.8h6.63v.73H134a.7.7,0,0,0-.56.21,1.08,1.08,0,0,0-.17.63V89.61a.64.64,0,0,0,.21.56,1.63,1.63,0,0,0,.91.18h2A3.42,3.42,0,0,0,139,89.27a7.15,7.15,0,0,0,1.46-3.71h.67l-.32,5.49H128.94v-.74h1.15a1.37,1.37,0,0,0,.84-.21.89.89,0,0,0,.24-.73V78.23a.6.6,0,0,0-.21-.52,1,1,0,0,0-.59-.18h-1.43V76.8"/><path d="M158.66,76.48h.66l5.13,13.06a1.24,1.24,0,0,0,1.26.81h.45v.73h-5.69v-.73h.46a2.67,2.67,0,0,0,1.25-.21.46.46,0,0,0,.25-.42,1.8,1.8,0,0,0-.07-.35l-1.19-3h-5.69l-.67,1.75a3.32,3.32,0,0,0-.24,1.08.94.94,0,0,0,.45.8,2.21,2.21,0,0,0,1.3.35h.48v.74h-5.16v-.74A2.15,2.15,0,0,0,153,90a3,3,0,0,0,.88-1.36l4.82-12.12m-.28,2.76-2.55,6.36h5Z"/><path d="M177.58,76.8H185a4.93,4.93,0,0,1,3.32,1,3.13,3.13,0,0,1,1.19,2.55A3,3,0,0,1,189,82a3.54,3.54,0,0,1-1.36,1.19,9.16,9.16,0,0,1-2.76.63,6.57,6.57,0,0,1,1.89.73,2.68,2.68,0,0,1,.83.94,11.09,11.09,0,0,1,.74,2.34,5.39,5.39,0,0,0,.63,1.71.66.66,0,0,0,.56.35c.2,0,.38-.14.55-.45a3.48,3.48,0,0,0,.32-1.54h.66c-.14,2.2-.94,3.29-2.41,3.29a2.13,2.13,0,0,1-1.22-.35,2.26,2.26,0,0,1-.77-1,15.25,15.25,0,0,1-.45-2.72,5,5,0,0,0-.46-1.82,2.18,2.18,0,0,0-1-.87,3.79,3.79,0,0,0-1.61-.32H182v5.62a.59.59,0,0,0,.17.49,1.23,1.23,0,0,0,.74.18h1.36v.73h-6.64v-.73h1.4a1,1,0,0,0,.66-.18.58.58,0,0,0,.21-.49V78.27a.73.73,0,0,0-.21-.56,1.1,1.1,0,0,0-.66-.18h-1.4V76.8m4.3,6.56h1.67a4.82,4.82,0,0,0,2.66-.63,2.53,2.53,0,0,0,1-2.26,4,4,0,0,0-.35-1.79,2,2,0,0,0-.95-.9,6.46,6.46,0,0,0-2.3-.25,3.31,3.31,0,0,0-1.4.18.6.6,0,0,0-.28.56v5.09Z"/><path d="M202.38,76.8h6.53v.73h-1.4a.94.94,0,0,0-.7.25.73.73,0,0,0-.24.59V85l5.37-5.72a1.46,1.46,0,0,0,.46-1,.68.68,0,0,0-.32-.55,1.93,1.93,0,0,0-1-.21h-.39v-.74h5.87v.74h-.45a2.73,2.73,0,0,0-1.3.35,4.86,4.86,0,0,0-1.29,1l-3.32,3.46,4.72,7a2.58,2.58,0,0,0,.84.84,1.83,1.83,0,0,0,1,.25h.52v.73h-6.42v-.73h.73a2.75,2.75,0,0,0,1.08-.14c.18-.11.28-.21.28-.35a.64.64,0,0,0-.1-.35l-3.95-5.8-2.23,2.41v3.53a.59.59,0,0,0,.21.49,1.3,1.3,0,0,0,.73.24H209v.74h-6.53v-.74h1.25a1,1,0,0,0,.7-.21.74.74,0,0,0,.25-.52V78.23a.74.74,0,0,0-.25-.52,1.39,1.39,0,0,0-.87-.18h-1.05V76.8"/><path d="M228.29,76.8h6.6v.73h-1.12a1.68,1.68,0,0,0-.94.18,1.1,1.1,0,0,0-.21.8V89.3a1.29,1.29,0,0,0,.17.8,1.22,1.22,0,0,0,.84.21h1.26v.74h-6.6v-.74h1.25q.69,0,.84-.21a1.23,1.23,0,0,0,.18-.83V78.47a1.1,1.1,0,0,0-.18-.76,1.67,1.67,0,0,0-1-.21h-1.11v-.7"/><path d="M246.24,76.8h3.38L258.25,88v-8.1a2.53,2.53,0,0,0-.56-1.82,2.06,2.06,0,0,0-1.54-.56V76.8h5v.73a2.45,2.45,0,0,0-1.15.21,1.86,1.86,0,0,0-.67.77,2.91,2.91,0,0,0-.28,1.22V91.08h-.91l-8.9-11.66V88a2.39,2.39,0,0,0,.59,1.74,2.52,2.52,0,0,0,1.82.6v.73H246.2v-.73a2.29,2.29,0,0,0,1.61-.67,2.22,2.22,0,0,0,.59-1.53V78.47l-.17-.17a3.17,3.17,0,0,0-.7-.63,1.51,1.51,0,0,0-.73-.14h-.63V76.8"/><path d="M129.81,124.22h4.33v.49h-.8c-.28,0-.46,0-.56.14a1.2,1.2,0,0,0-.14.66v3h4.68v-3a1.42,1.42,0,0,0-.11-.7.89.89,0,0,0-.55-.14h-.74v-.48h4.33v.48h-.84a1,1,0,0,0-.41.07.79.79,0,0,0-.21.25,1.9,1.9,0,0,0,0,.59v6.92c0,.35,0,.52.11.59a.81.81,0,0,0,.66.21h.7v.49h-4.33v-.49h.73a.63.63,0,0,0,.59-.24,1.25,1.25,0,0,0,.11-.67v-3.32h-4.65v3.39a1.74,1.74,0,0,0,.07.6.74.74,0,0,0,.6.21h.8v.48h-4.33v-.48h.84a1,1,0,0,0,.35-.07,1.38,1.38,0,0,0,.21-.25,2.16,2.16,0,0,0,0-.56v-6.91c0-.35,0-.6-.14-.67s-.28-.14-.56-.14h-.73v-.45"/><path d="M153.94,124.05a4.94,4.94,0,0,1,2.41.62,4.57,4.57,0,0,1,1.75,1.79,5.19,5.19,0,0,1,.63,2.58,5.3,5.3,0,0,1-.63,2.58,4.86,4.86,0,0,1-1.75,1.82,4.73,4.73,0,0,1-2.37.63,4.56,4.56,0,0,1-2.31-.63,4.5,4.5,0,0,1-1.71-1.82,5.36,5.36,0,0,1-.66-2.62,5.14,5.14,0,0,1,.63-2.54,4.34,4.34,0,0,1,1.71-1.79,4.82,4.82,0,0,1,2.3-.62m.14.48a2.59,2.59,0,0,0-2.16,1,5.52,5.52,0,0,0-.84,3.42,5.67,5.67,0,0,0,.84,3.57,2.59,2.59,0,0,0,2.09,1,2.55,2.55,0,0,0,1.54-.45,2.9,2.9,0,0,0,1-1.43,6.82,6.82,0,0,0,.38-2.55,7.85,7.85,0,0,0-.38-2.69,3,3,0,0,0-1-1.43A2.34,2.34,0,0,0,154.08,124.53Z"/><path d="M173.74,125l.63-.83h.49l0,3.49h-.45a4.52,4.52,0,0,0-1.26-2.34,2.8,2.8,0,0,0-1.92-.74,2.18,2.18,0,0,0-1.5.53,1.67,1.67,0,0,0-.59,1.26,1.44,1.44,0,0,0,.21.8,1.37,1.37,0,0,0,.66.56,6.69,6.69,0,0,0,1.64.45,11.22,11.22,0,0,1,2.38.7,2.31,2.31,0,0,1,1,.91,2.42,2.42,0,0,1,.35,1.26,2.82,2.82,0,0,1-.95,2.16,3.37,3.37,0,0,1-2.37.84,4.18,4.18,0,0,1-2.72-.94l-.77.9h-.49v-3.7h.49a4.29,4.29,0,0,0,1.29,2.41,3.27,3.27,0,0,0,2.27.87,2.54,2.54,0,0,0,1.68-.55,1.79,1.79,0,0,0,.62-1.37,1.25,1.25,0,0,0-.24-.8,1.92,1.92,0,0,0-.77-.59,10,10,0,0,0-2.06-.56,6.54,6.54,0,0,1-2.3-.84,2.32,2.32,0,0,1-.88-1.89,2.73,2.73,0,0,1,.84-2.06,3.11,3.11,0,0,1,2.2-.8,3.56,3.56,0,0,1,1.22.21,3.83,3.83,0,0,1,1.26.66"/><path d="M184.85,124.22h5a4.06,4.06,0,0,1,2.59.73,2.37,2.37,0,0,1,.91,1.89,2,2,0,0,1-.84,1.78,4.58,4.58,0,0,1-2.8.84h-1.81v3.28a.53.53,0,0,0,.14.42.8.8,0,0,0,.52.14h1.15v.49h-4.88v-.49h1a.77.77,0,0,0,.45-.1.34.34,0,0,0,.14-.32v-7.65a.49.49,0,0,0-.17-.42,1.36,1.36,0,0,0-.67-.14h-.76v-.45m3.07,4.82h1.4a2.74,2.74,0,0,0,1.88-.52,2.19,2.19,0,0,0,.6-1.72,2.62,2.62,0,0,0-.25-1.29,1.57,1.57,0,0,0-.77-.66,4.62,4.62,0,0,0-1.64-.21,1.89,1.89,0,0,0-1,.14.53.53,0,0,0-.21.49V129Z"/><path d="M202.94,124.22h4.67v.49h-.8c-.35,0-.59,0-.66.14s-.14.28-.14.52v7.27a.76.76,0,0,0,.14.56.89.89,0,0,0,.59.13h.91v.49H203v-.49h.87c.32,0,.53,0,.6-.13s.14-.28.14-.56v-7.27c0-.28,0-.45-.14-.52a1.13,1.13,0,0,0-.7-.14h-.8v-.49"/><path d="M217,124.22h8.24l.21,3.63h-.48c-.32-2.13-1.12-3.21-2.45-3.21a.76.76,0,0,0-.56.14.52.52,0,0,0-.14.42v7.68a.42.42,0,0,0,.14.35.87.87,0,0,0,.49.1h1v.49h-4.71v-.49h1.19a.52.52,0,0,0,.35-.1.42.42,0,0,0,.14-.28v-7.79a.48.48,0,0,0-.18-.38.93.93,0,0,0-.52-.14,2,2,0,0,0-1.68.87,5.19,5.19,0,0,0-.8,2.31h-.49l.24-3.6"/><path d="M238.62,124.05h.46l3.63,8.76a.87.87,0,0,0,.91.52h.31v.49h-4.05v-.49h.32a1.8,1.8,0,0,0,.87-.13.32.32,0,0,0,.17-.28.84.84,0,0,0,0-.25l-.84-2h-4l-.48,1.15a1.81,1.81,0,0,0-.18.73.74.74,0,0,0,.31.56,1.67,1.67,0,0,0,.91.24h.35v.49h-3.7v-.49a1.53,1.53,0,0,0,.94-.24,1.78,1.78,0,0,0,.63-.91l3.49-8.13m-.17,1.81-1.82,4.26h3.6Z"/><path d="M252.52,124.22h4.72v.49h-1.12c-.18,0-.32,0-.38.14a.72.72,0,0,0-.14.42v7.58a.46.46,0,0,0,.17.38,1.32,1.32,0,0,0,.66.1h1.44a2.48,2.48,0,0,0,1.85-.73,4.63,4.63,0,0,0,1-2.48h.49l-.24,3.7h-8.49v-.49h.84a.89.89,0,0,0,.59-.13.68.68,0,0,0,.18-.49v-7.48a.38.38,0,0,0-.14-.35.78.78,0,0,0-.42-.14h-1v-.52"/><path class="cls-2" d="M137.28,104.63l.49-.94h.42l.18,3.91h-.46a6.43,6.43,0,0,0-1.15-2.45,2.59,2.59,0,0,0-2-1,2.53,2.53,0,0,0-2.09,1.08,6.54,6.54,0,0,0-.8,3.7,5.41,5.41,0,0,0,.9,3.35,2.63,2.63,0,0,0,2.2,1,2.81,2.81,0,0,0,2.06-.77,3.78,3.78,0,0,0,1.09-2.3h.49a4.17,4.17,0,0,1-1.26,2.69,3.73,3.73,0,0,1-2.59.94,4.48,4.48,0,0,1-2.33-.63,4.89,4.89,0,0,1-1.72-1.75,5.21,5.21,0,0,1-.62-2.51,5.61,5.61,0,0,1,.66-2.72,4.91,4.91,0,0,1,1.68-1.92,4.18,4.18,0,0,1,2.2-.63,4,4,0,0,1,1.29.21,4.79,4.79,0,0,1,1.39.73"/><path class="cls-2" d="M149.16,103.69a4.53,4.53,0,0,1,2.41.66,4.62,4.62,0,0,1,1.74,1.82,5.74,5.74,0,0,1,0,5.23,4.62,4.62,0,0,1-1.74,1.82,4.79,4.79,0,0,1-2.38.66,4.41,4.41,0,0,1-4-2.48,5.6,5.6,0,0,1-.67-2.65,5.3,5.3,0,0,1,.63-2.58,4.75,4.75,0,0,1,1.71-1.82,4.34,4.34,0,0,1,2.31-.66m.1.49a2.55,2.55,0,0,0-2.16,1.08,7.9,7.9,0,0,0,0,7.09,2.64,2.64,0,0,0,2.09,1,2.53,2.53,0,0,0,1.54-.45,2.93,2.93,0,0,0,1.05-1.44,6.79,6.79,0,0,0,.38-2.58,8,8,0,0,0-.38-2.72,3,3,0,0,0-1.05-1.47A2.17,2.17,0,0,0,149.26,104.18Z"/><path class="cls-2" d="M159.39,103.9h3.39l3,7.68,2.8-7.68h3.46v.49h-.84a.87.87,0,0,0-.6.14c-.1.07-.14.2-.14.41v7.72a.42.42,0,0,0,.18.35,1.4,1.4,0,0,0,.63.14h.77v.49h-4.65v-.49h.87a.85.85,0,0,0,.56-.14.47.47,0,0,0,.18-.35v-8.27l-3.36,9.25h-.45l-3.67-9.22v7.09a2.05,2.05,0,0,0,.18.94,1.19,1.19,0,0,0,.45.49,2.76,2.76,0,0,0,1,.21v.49h-3.85v-.49a2.18,2.18,0,0,0,1.3-.38,1.63,1.63,0,0,0,.35-1.16v-6.7c0-.18,0-.28-.18-.35a1.17,1.17,0,0,0-.59-.1h-.88v-.56"/><path class="cls-2" d="M177.13,103.9h3.39l3,7.68,2.8-7.68h3.45v.49H189a.87.87,0,0,0-.6.14c-.1.07-.14.2-.14.41v7.72a.42.42,0,0,0,.18.35,1.4,1.4,0,0,0,.63.14h.76v.49h-4.64v-.49H186a.85.85,0,0,0,.56-.14.47.47,0,0,0,.18-.35v-8.27l-3.36,9.25H183l-3.67-9.22v7.09a2.05,2.05,0,0,0,.18.94,1.19,1.19,0,0,0,.45.49,2.74,2.74,0,0,0,1,.21v.49h-3.84v-.49a2.18,2.18,0,0,0,1.3-.38,1.64,1.64,0,0,0,.34-1.16v-6.7c0-.18,0-.28-.13-.35a1.24,1.24,0,0,0-.6-.1h-.87v-.56"/><path class="cls-2" d="M195,103.9h4.71v.49h-.94a1,1,0,0,0-.52.1.39.39,0,0,0-.14.35v5.52a4.09,4.09,0,0,0,.17,1.29,2.18,2.18,0,0,0,.84,1,3.17,3.17,0,0,0,1.61.38,3,3,0,0,0,2.13-.7,2.44,2.44,0,0,0,.73-1.85v-4.47a6.35,6.35,0,0,0-.07-.91,1.35,1.35,0,0,0-.25-.48.82.82,0,0,0-.41-.25,2.68,2.68,0,0,0-.84-.07v-.49h3.84v.49h-.28a1.26,1.26,0,0,0-1,.35,1.37,1.37,0,0,0-.31,1v4.78a3.05,3.05,0,0,1-1,2.41,4,4,0,0,1-2.79.94,5.57,5.57,0,0,1-2.37-.41,2.45,2.45,0,0,1-1.26-1.19,3.09,3.09,0,0,1-.28-1.47v-5.87a.4.4,0,0,0-.18-.34.86.86,0,0,0-.48-.14h-1v-.49"/><path class="cls-2" d="M211.14,103.9h2.41l6.15,7.64V106a1.71,1.71,0,0,0-.39-1.23,1.46,1.46,0,0,0-1.08-.38v-.49h3.56v.49a1.69,1.69,0,0,0-.8.14,1.11,1.11,0,0,0-.45.52,1.69,1.69,0,0,0-.21.84v7.72h-.67l-6.35-8v5.86a1.52,1.52,0,0,0,.42,1.19,2,2,0,0,0,1.29.42v.49h-3.88v-.49a1.7,1.7,0,0,0,1.15-.45,1.42,1.42,0,0,0,.42-1v-6.6l-.14-.14a1.93,1.93,0,0,0-.49-.42,1.15,1.15,0,0,0-.52-.1h-.45v-.49"/><path class="cls-2" d="M227,103.9h4.67v.49h-.8c-.35,0-.59,0-.66.14s-.14.27-.14.55v7.37c0,.28,0,.49.14.56a.83.83,0,0,0,.59.14h.91v.49H227v-.49h.87c.32,0,.53,0,.6-.14a.79.79,0,0,0,.14-.56v-7.37c0-.28,0-.45-.14-.52a1.2,1.2,0,0,0-.7-.14H227v-.52"/><path class="cls-2" d="M237.26,103.9h8.24l.21,3.66h-.49c-.31-2.16-1.11-3.24-2.44-3.24a.76.76,0,0,0-.56.14.55.55,0,0,0-.14.41v7.79a.37.37,0,0,0,.14.35.86.86,0,0,0,.49.11h1v.48H239v-.48h1.15a.52.52,0,0,0,.35-.11.42.42,0,0,0,.14-.28v-7.89a.41.41,0,0,0-.18-.38.9.9,0,0,0-.52-.14,2.08,2.08,0,0,0-1.68.9,5.52,5.52,0,0,0-.8,2.34H237l.28-3.66"/><path class="cls-2" d="M250.43,103.9h4.47v.49h-.49a2,2,0,0,0-.81.1c-.13.07-.17.14-.17.24a.59.59,0,0,0,.11.32l2.58,3.84,1.85-3.28a1.16,1.16,0,0,0,.14-.49.66.66,0,0,0-.24-.56,1,1,0,0,0-.67-.21h-.49v-.49h3.88v.49a2.17,2.17,0,0,0-1,.21,2.24,2.24,0,0,0-.73.84l-2.34,4.12v3.07c0,.18,0,.28.14.35a1,1,0,0,0,.59.14h.87v.49H253.4v-.49h.9a.72.72,0,0,0,.53-.14.44.44,0,0,0,.17-.35v-3l-3.14-4.72a1,1,0,0,0-.49-.41,2.56,2.56,0,0,0-.91-.14v-.42"/></svg>