<svg id="Layer_1" data-name="Layer 1" xmlns="http://www.w3.org/2000/svg" viewBox="0 0 320 216"><defs><style>.cls-1{fill:none;}.cls-2{fill:#0a83bc;}.cls-3{fill:#fff;}.cls-4{fill:#231f20;}</style></defs><title>sp-client-Norwegian</title><rect class="cls-1" width="320" height="216"/><path class="cls-2" d="M90.46,118.12V92.87H55v29.9a13.56,13.56,0,0,1,7.5-3.21c6.21-.41,8.78,2.63,14.67,3.63a14.37,14.37,0,0,0,13-4.48.85.85,0,0,0,.25-.49Z"/><path class="cls-3" d="M58.36,117.33a10.24,10.24,0,0,1,4.75-1.08c6-.36,8.3,1.89,14,2.78,4.5.69,7-.31,9-1.54a6.93,6.93,0,0,0,1.27-.92c.48-.39.59-.67.52-.94,0-.08-.11-.08-.28,0l-.39.26c-4.5,3.14-10.4,1.29-15.56-.32-4.79-1.51-10.68-.85-13.35,1.05a2.28,2.28,0,0,0-.54.55c-.07.11-.24.57,0,.48S58.16,117.42,58.36,117.33Z"/><path class="cls-3" d="M65.36,109.52l-5.1-6.69v6.69H58V99h2.13l4.94,6.49V99h2.28v10.53Z"/><path class="cls-3" d="M74.21,109.7a5.32,5.32,0,0,1-5.4-5.41v0a5.35,5.35,0,0,1,5.49-5.45,5.43,5.43,0,0,1,4.16,1.63L77,102.14A3.87,3.87,0,0,0,74.29,101a3.11,3.11,0,0,0-3.05,3.28v0a3.13,3.13,0,0,0,3.05,3.31,3.79,3.79,0,0,0,2.77-1.24l1.47,1.49A5.38,5.38,0,0,1,74.21,109.7Z"/><path class="cls-3" d="M80.06,109.52V99h2.32v8.43h5.25v2.1Z"/><path class="cls-4" d="M109.73,108.77,102,98.66v10.11H98.58V92.87h3.23l7.45,9.79V92.87h3.45v15.9Z"/><path class="cls-4" d="M126.52,109a8.15,8.15,0,0,1-8.43-8.18v0a8.45,8.45,0,0,1,16.9,0v0A8.22,8.22,0,0,1,126.52,109Zm4.81-8.22a4.83,4.83,0,0,0-4.81-5,4.75,4.75,0,0,0-4.77,5v0a4.83,4.83,0,0,0,4.81,5,4.75,4.75,0,0,0,4.77-5Z"/><path class="cls-4" d="M149.58,108.77l-3.4-5.09h-2.75v5.09h-3.5V92.87h7.27c3.75,0,6,2,6,5.25v0a4.94,4.94,0,0,1-3.41,4.93l3.88,5.68Zm.07-10.47c0-1.5-1-2.27-2.74-2.27h-3.48v4.56H147c1.71,0,2.68-.91,2.68-2.25Z"/><path class="cls-4" d="M175.75,108.88h-3l-3.59-10.4-3.59,10.4h-3l-5.43-16h3.75l3.29,10.76,3.56-10.8h3l3.57,10.8,3.29-10.76h3.66Z"/><path class="cls-4" d="M185.37,108.77V92.87h12V96h-8.52V99.2h7.49v3.12h-7.49v3.34h8.63v3.11Z"/><path class="cls-4" d="M209.83,109a8,8,0,0,1-8.36-8.18v0a8.16,8.16,0,0,1,8.34-8.22,8.7,8.7,0,0,1,6.24,2.18l-2.2,2.65a5.88,5.88,0,0,0-4.16-1.61,4.77,4.77,0,0,0-4.56,5v0a4.77,4.77,0,0,0,4.82,5,5.62,5.62,0,0,0,3.29-1v-2.28h-3.52v-3h6.9v6.91A10.33,10.33,0,0,1,209.83,109Z"/><path class="cls-4" d="M222.08,108.77V92.87h3.49v15.9Z"/><path class="cls-4" d="M243.07,108.77l-1.79-3.57h-6.39l-1.45,3.57h-3.57l6.82-16h3.22l6.81,16ZM238.25,97l-2.11,5.15h4.23Z"/><path class="cls-4" d="M262,108.77l-7.7-10.11v10.11h-3.45V92.87h3.22l7.45,9.79V92.87H265v15.9Z"/><path class="cls-4" d="M102.66,122.53a4,4,0,0,1-4.08-4.09v0a4.05,4.05,0,0,1,4.15-4.12,4.14,4.14,0,0,1,3.14,1.23l-1.12,1.28a2.93,2.93,0,0,0-2-.89,2.35,2.35,0,0,0-2.3,2.47v0a2.36,2.36,0,0,0,2.3,2.5,2.88,2.88,0,0,0,2.09-.94l1.11,1.13A4.06,4.06,0,0,1,102.66,122.53Z"/><path class="cls-4" d="M113.28,122.39l-1.7-2.54H110.2v2.54h-1.75v-8h3.64c1.87,0,3,1,3,2.62v0a2.47,2.47,0,0,1-1.71,2.46l2,2.84Zm0-5.23c0-.75-.52-1.14-1.37-1.14H110.2v2.28H112c.86,0,1.34-.45,1.34-1.12Z"/><path class="cls-4" d="M121.12,122.52c-2.14,0-3.45-1.2-3.45-3.53v-4.55h1.75v4.5c0,1.29.65,2,1.72,2s1.71-.64,1.71-1.9v-4.56h1.75v4.49C124.6,121.33,123.25,122.52,121.12,122.52Z"/><path class="cls-4" d="M127.6,122.39v-8h1.75v8Z"/><path class="cls-4" d="M135.3,122.51a5,5,0,0,1-3.38-1.28l1-1.24a3.58,3.58,0,0,0,2.37,1c.72,0,1.15-.28,1.15-.75v0c0-.44-.27-.67-1.6-1-1.6-.41-2.64-.86-2.64-2.43v0c0-1.44,1.16-2.39,2.79-2.39a4.6,4.6,0,0,1,2.95,1l-.91,1.32a3.73,3.73,0,0,0-2.07-.79c-.67,0-1,.31-1,.69v0c0,.52.34.69,1.72,1,1.61.42,2.52,1,2.52,2.39v0C138.22,121.62,137,122.51,135.3,122.51Z"/><path class="cls-4" d="M140.87,122.39v-8h6V116h-4.26v1.61h3.75v1.56h-3.75v1.67h4.32v1.55Z"/><path class="cls-4" d="M154.16,122.39v-8h1.75v6.36h4v1.59Z"/><path class="cls-4" d="M162.4,122.39v-8h1.75v8Z"/><path class="cls-4" d="M172.85,122.39l-3.85-5v5h-1.73v-8h1.62l3.72,4.9v-4.9h1.73v8Z"/><path class="cls-4" d="M177.38,122.39v-8h6V116h-4.26v1.61h3.75v1.56h-3.75v1.67h4.32v1.55Z"/></svg>