<svg id="Layer_1" data-name="Layer 1" xmlns="http://www.w3.org/2000/svg" viewBox="0 0 320 216"><defs><style>.cls-1{fill:none;}.cls-2{fill:#0082ca;}.cls-3{fill:#fff;}.cls-4{fill:#231f20;}</style></defs><title>sp-client-Sabadell</title><rect class="cls-1" width="320" height="216"/><path class="cls-2" d="M68.68,107.45A13.68,13.68,0,1,0,55,93.77a13.68,13.68,0,0,0,13.68,13.68"/><path class="cls-3" d="M66.5,94.78h2.35a3.36,3.36,0,0,1,1.61.26,1.58,1.58,0,0,1,.78,1.32,1.69,1.69,0,0,1-.72,1.41,3.27,3.27,0,0,1-1.81.3H66.5V94.78Zm0-5.42h1.93a4.26,4.26,0,0,1,1.83.2,1.42,1.42,0,0,1,.68,1.24A1.58,1.58,0,0,1,70.37,92a2.78,2.78,0,0,1-1.7.32H66.5v-3Zm-3.19-2.43V100.6h6.12a5.79,5.79,0,0,0,3.51-.74,3.76,3.76,0,0,0,1.67-3,3.37,3.37,0,0,0-2.85-3.4v0a3,3,0,0,0,2.47-3,3.36,3.36,0,0,0-1.67-3,5.63,5.63,0,0,0-3.13-.6Z"/><path class="cls-4" d="M257.61,121.4H265V86.93h-7.39V121.4Zm-11.05,0H254V86.93h-7.39V121.4Zm-19.7-15.88c.25-2.91,1.51-5.33,4.77-5.33s4.13,2.56,4.28,5.33Zm16.43,4.37c.05-3.47-.5-7.08-2.61-10a11.65,11.65,0,0,0-9.35-4.52c-7.93,0-12.41,6.08-12.41,13.62s5,12.91,12.61,12.91c8.65,0,11.61-7.54,11.61-8.79l-6.83-.5c0,2.36-2.26,4-4.52,4-3.22,0-4.93-2.47-4.93-5.48l0-1.26Zm-34.52.86a8.09,8.09,0,0,1-.65,3.76,3.77,3.77,0,0,1-3.22,2.06c-3.67,0-4.07-4.67-4.07-7.43,0-3.07.15-8.59,4.37-8.59,3.37,0,3.57,4.22,3.57,6.68v3.52Zm7.39,10.65V86.93h-7.39V98.59a6.86,6.86,0,0,0-6.38-3.22c-7.44,0-9.35,7.49-9.35,13.57s2,13,9.2,13c3.27,0,5.38-1.76,6.78-4.47h.1v4Zm-33.42-11.21c0,1.81,0,3.32-1,4.93a4.47,4.47,0,0,1-3.72,2.11,3.09,3.09,0,0,1-3.27-3.37c0-3.72,5.18-4.37,8-4.67v1Zm8,11.21a12.35,12.35,0,0,1-.5-3.82V105.67c0-3.06.25-5.88-2.36-8-2.06-1.71-5.48-2.31-8.09-2.31-5.38,0-11.41,1.81-12.16,8l7,.65c0-2.51,2.06-3.72,4.42-3.72a3.85,3.85,0,0,1,3,1.21c.75,1,.65,2.26.65,3.37v.6c-3.11.3-7.18.5-10.1,1.61-3.36,1.25-5.73,3.82-5.73,7.59,0,4.82,3.52,7.23,8,7.23,3.82,0,6-1.46,8.14-4.47a15.71,15.71,0,0,0,.36,4Zm-48.69,0h4a12.11,12.11,0,0,1,1.66-3.92c1.86,3.07,3.62,4.42,7.29,4.42,7.68,0,10.35-6.58,10.35-13.26,0-6-2.21-13.27-9.5-13.27a6.46,6.46,0,0,0-6.23,3.72h-.2V86.93h-7.39V121.4ZM149.58,107c0-2.72.5-6.58,4.07-6.58,4.07,0,4.07,5.32,4.07,8.19s0,8.08-4.17,8.08a3.58,3.58,0,0,1-3.12-1.75,8,8,0,0,1-.85-4.28V107Zm-19.09,3.16c0,1.81,0,3.32-1,4.93a4.46,4.46,0,0,1-3.72,2.11,3.09,3.09,0,0,1-3.26-3.37c0-3.72,5.17-4.37,8-4.67v1Zm8,11.21a12.06,12.06,0,0,1-.51-3.82V105.67c0-3.06.25-5.88-2.36-8-2.06-1.71-5.47-2.31-8.09-2.31-5.38,0-11.41,1.81-12.16,8l7,.65c0-2.51,2.06-3.72,4.42-3.72a3.85,3.85,0,0,1,3,1.21c.76,1,.66,2.26.66,3.37v.6c-3.12.3-7.19.5-10.1,1.61-3.37,1.25-5.73,3.82-5.73,7.59,0,4.82,3.51,7.23,8,7.23,3.82,0,6-1.46,8.14-4.47a15.25,15.25,0,0,0,.35,4ZM111.89,94.52c-2.11-6-7-8.1-13.06-8.1a12.87,12.87,0,0,0-8.64,2.82,10.2,10.2,0,0,0-3.72,8.09c0,7.54,6,9.34,12.16,10.6,2.11.46,6,1,6,3.87s-3.07,3.72-5.38,3.72c-3.57,0-6.18-1.26-7.18-4.87l-7.44,1.7c1.56,6.74,7.44,9.55,13.92,9.55,3.47,0,7.23-.65,10-2.81a11,11,0,0,0,4.27-8.65,9.61,9.61,0,0,0-4.52-8.14c-2.42-1.6-6.18-2.31-9-2.91-2-.35-5-1-5-3.47s2.61-3.21,4.77-3.21c3.06,0,4.93,1.15,5.93,4.07l6.83-2.26Z"/></svg>