<svg id="Layer_1" data-name="Layer 1" xmlns="http://www.w3.org/2000/svg" viewBox="0 0 320 216"><defs><style>.cls-1{fill:none;}.cls-2{fill:#808386;}.cls-3{fill:#ef7027;}</style></defs><title>sp-client-Boats</title><rect class="cls-1" width="320" height="216"/><path class="cls-2" d="M115.45,96.87A5.48,5.48,0,0,0,110.16,90H96.29l3-10.81H89.63L86.67,90l-2.25,8.21-4.75,17.31-.46,1.67h30.67l.12-.41.34-1.26,4.75-17.31ZM105,99.79l-3.57,13a3.62,3.62,0,0,1-3.5,2.67H89.29L94,98.16h9.73A1.29,1.29,0,0,1,105,99.79Z"/><path class="cls-2" d="M77.26,124.26h22.86a10.24,10.24,0,0,0,6.55-2.36H77.9Z"/><path class="cls-2" d="M78.26,120.59H108a10.43,10.43,0,0,0,1.38-2.14H78.85Z"/><path class="cls-2" d="M190.48,124.26H200l.65-2.36H185.76A5.87,5.87,0,0,0,190.48,124.26Z"/><path class="cls-2" d="M185,120.59h16l.59-2.14h-17A5.72,5.72,0,0,0,185,120.59Z"/><path class="cls-2" d="M195.19,114l4.34-15.82h7.66L209.44,90h-7.66l3-10.81h-9.62l-3,10.81H187.6l-2.25,8.21h4.55l-5.11,18.63c0,.12-.06.23-.08.35H202l.45-1.67h-6.11A1.18,1.18,0,0,1,195.19,114Z"/><path class="cls-2" d="M118.43,124.26h15.2a10.24,10.24,0,0,0,6.55-2.36H114.12A5.11,5.11,0,0,0,118.43,124.26Z"/><path class="cls-2" d="M149,96.87A5.48,5.48,0,0,0,143.68,90H128.15a9.18,9.18,0,0,0-8.86,6.76l-5.61,20.43h29.71l.12-.41.35-1.26,4.75-17.31Zm-10.43,2.92-3.87,14.13a2.11,2.11,0,0,1-2,1.55h-7.27a1.31,1.31,0,0,1-1.28-1.66l4-14.68a1.31,1.31,0,0,1,1.27-1h7.91A1.29,1.29,0,0,1,138.53,99.79Z"/><path class="cls-2" d="M113.53,120.59h28a10.43,10.43,0,0,0,1.38-2.14h-29.5A4.94,4.94,0,0,0,113.53,120.59Z"/><path class="cls-2" d="M205,124.26h21.5a10.22,10.22,0,0,0,6.54-2.36H205.69Z"/><path class="cls-2" d="M206.05,120.59h28.34a10,10,0,0,0,1.38-2.14H206.64Z"/><path class="cls-2" d="M220.39,99.13a1.32,1.32,0,0,1,1.28-1h18.82L242.74,90H220.45a9.21,9.21,0,0,0-8.87,6.76l-2.36,8.6a4.5,4.5,0,0,0,4.34,5.69h13.9a.69.69,0,0,1,.66.88l-.56,2a2.1,2.1,0,0,1-2,1.55H207.45l-.45,1.67h29.29a3.17,3.17,0,0,0,.12-.41l2.17-7.91a4.5,4.5,0,0,0-4.34-5.69H220.43a.86.86,0,0,1-.83-1.1Z"/><path class="cls-2" d="M148.89,121.9a6.82,6.82,0,0,0,5.18,2.36h3.74A14.1,14.1,0,0,0,165,121.9Z"/><polygon class="cls-2" points="165.43 124.26 174.78 124.26 175.43 121.9 166.13 121.9 165.43 124.26"/><path class="cls-2" d="M148,120.59h27.79l.59-2.14h-29.1A6.68,6.68,0,0,0,148,120.59Z"/><path class="cls-2" d="M151.07,102.4l-3.62,13.18a7.11,7.11,0,0,0-.24,1.56h29.53l.45-1.67L182,98.16,184.2,90H167.39A16.91,16.91,0,0,0,151.07,102.4Zm20.53-3.66a.61.61,0,0,1,.51.77l-3.22,12.24a1.39,1.39,0,0,1-.72.9l-3.48,1.76a9.94,9.94,0,0,1-4.48,1.06,2.08,2.08,0,0,1-2-2.63l2.67-9.72a6.68,6.68,0,0,1,7.39-4.85Z"/><path class="cls-3" d="M211,132.86a2.22,2.22,0,0,0,1.84,1.94,2.17,2.17,0,0,0,1.75-.46.35.35,0,0,1,.58.27v1.54a.35.35,0,0,1-.19.32,4.25,4.25,0,1,1-1.78-8.1,4.21,4.21,0,0,1,1.78.38.35.35,0,0,1,.19.32v1.54a.35.35,0,0,1-.57.28,2.21,2.21,0,0,0-3.6,2Z"/><circle class="cls-3" cx="206.49" cy="135.58" r="1.28"/><path class="cls-3" d="M220.81,128.37a4.25,4.25,0,1,0,4.25,4.24A4.24,4.24,0,0,0,220.81,128.37Zm0,6.46a2.22,2.22,0,1,1,2.22-2.22A2.22,2.22,0,0,1,220.81,134.83Z"/><path class="cls-3" d="M232.77,129.24l-1.57,3.12-1.57-3.12a1.29,1.29,0,0,0-2.42.37l-1.14,6.83a.36.36,0,0,0,.35.42h1.3a.37.37,0,0,0,.35-.3l.78-4.34,2,3.91a.42.42,0,0,0,.75,0l2-3.91.78,4.34a.36.36,0,0,0,.35.3H236a.36.36,0,0,0,.35-.42l-1.14-6.83A1.29,1.29,0,0,0,232.77,129.24Z"/></svg>